<svg width="18" height="18" viewBox="0 0 18 18" fill="none" xmlns="http://www.w3.org/2000/svg">
<path d="M11.707 3.16406C11.94 3.16406 12.1289 2.97518 12.1289 2.74219C12.1289 2.50919 11.94 2.32031 11.707 2.32031C11.474 2.32031 11.2852 2.50919 11.2852 2.74219C11.2852 2.97518 11.474 3.16406 11.707 3.16406Z" fill="#212529"/>
<path d="M17.7171 2.57982C17.639 2.5014 17.5461 2.43923 17.4438 2.39691C17.3415 2.3546 17.2318 2.33296 17.1211 2.33327H17.1194L14.1369 2.33942L13.5037 1.52801C12.7621 0.577703 11.6463 0.0332031 10.4412 0.0332031L10.3546 0.0333789C9.94776 0.0339791 9.54336 0.0959661 9.15504 0.217246C9.1363 0.216684 9.11757 0.21591 9.09876 0.21591C8.62316 0.21591 8.17605 0.401113 7.83978 0.737383L3.79611 4.78105C3.14132 5.43587 3.0105 6.4515 3.47808 7.25085C3.54929 7.37233 3.63288 7.48612 3.72752 7.59039C3.42359 7.94681 3.13046 8.31317 2.85058 8.6905C1.76527 10.1536 0.825439 11.821 0.0572044 13.6462C0.0392018 13.689 0.032051 13.7355 0.0363891 13.7817C0.0407271 13.8279 0.0564194 13.8723 0.082068 13.9109C0.107717 13.9496 0.142526 13.9813 0.183394 14.0032C0.224263 14.0251 0.269922 14.0366 0.316306 14.0366C0.426064 14.0366 0.530372 13.972 0.575618 13.8644C1.32642 12.0807 2.24382 10.4527 3.30234 9.02564C3.57578 8.65703 3.86216 8.29914 4.15909 7.95106C4.30507 8.04216 4.46199 8.11442 4.62611 8.16611C4.91465 8.25688 5.21536 8.30307 5.51785 8.30308C6.43198 8.30308 7.31549 7.88134 7.88084 7.12946C8.59792 6.17577 9.13096 5.18075 9.46509 4.1719C9.48855 4.1011 9.48291 4.02387 9.44944 3.95721C9.41596 3.89056 9.35737 3.83993 9.28656 3.81647C9.21576 3.79303 9.13854 3.79867 9.07189 3.83215C9.00524 3.86564 8.95462 3.92423 8.93117 3.99503C8.61624 4.9458 8.11157 5.88661 7.43123 6.79143C6.82499 7.59777 5.76556 7.93461 4.79475 7.62948C4.44486 7.51982 4.14848 7.28354 3.96359 6.96689C3.62511 6.38819 3.71982 5.65289 4.1939 5.17885L8.23757 1.13518C8.46756 0.905113 8.77346 0.778445 9.09876 0.778445C9.42406 0.778445 9.72995 0.905113 9.95998 1.13518C9.9861 1.16129 10.0171 1.18201 10.0512 1.19615C10.0854 1.21028 10.1219 1.21756 10.1589 1.21756C10.1958 1.21756 10.2324 1.21028 10.2665 1.19615C10.3006 1.18201 10.3316 1.16129 10.3577 1.13518C10.3839 1.10906 10.4046 1.07805 10.4187 1.04393C10.4328 1.00981 10.4401 0.973232 10.4401 0.936297C10.4401 0.899361 10.4328 0.862788 10.4187 0.828664C10.4046 0.79454 10.3839 0.763535 10.3577 0.737418C10.3086 0.688518 10.2567 0.642481 10.2023 0.599535C10.2534 0.597213 10.3045 0.596006 10.3556 0.595914L10.4412 0.595738C11.4717 0.595738 12.4261 1.06142 13.0602 1.87405L13.7781 2.79399C13.8044 2.8277 13.838 2.85497 13.8764 2.87373C13.9149 2.89249 13.9571 2.90223 13.9998 2.90223H14.0004L15.3409 2.89942V3.20338C15.3409 3.51258 15.5392 3.7823 15.8343 3.87452L17.4023 4.36445V4.69605C17.4023 5.11525 17.1017 5.46593 16.6874 5.52995L12.1211 6.23526C12.0963 6.23913 12.0725 6.24711 12.0498 6.25723C11.413 6.24612 10.8547 5.99426 10.2968 5.46576C10.2426 5.41479 10.1704 5.38739 10.096 5.38954C10.0216 5.39169 9.95113 5.42322 9.89996 5.47724C9.84879 5.53125 9.8211 5.60334 9.82297 5.67773C9.82484 5.75211 9.8561 5.82272 9.90992 5.8741C10.4342 6.37079 10.9842 6.66754 11.5788 6.77459C11.3425 7.08512 11.1163 7.43954 10.8977 7.84151L10.9104 7.55615C10.9144 7.46573 10.8919 7.3761 10.8457 7.29827C10.7995 7.22045 10.7316 7.15781 10.6502 7.11806C10.5689 7.07831 10.4778 7.06318 10.388 7.07452C10.2982 7.08587 10.2136 7.12319 10.1448 7.18191L9.46533 7.76093C8.22428 8.81872 7.23752 10.1738 6.61184 11.6797C5.98617 13.1856 5.72214 14.8409 5.84825 16.4668L5.86456 16.6769C5.88943 16.9954 5.87044 17.3158 5.80813 17.629C5.79355 17.7022 5.80861 17.7781 5.85001 17.8402C5.89142 17.9022 5.95577 17.9453 6.02891 17.9599C6.06514 17.9671 6.10243 17.9671 6.13866 17.96C6.1749 17.9528 6.20936 17.9385 6.24009 17.918C6.27081 17.8975 6.29719 17.8712 6.31773 17.8405C6.33827 17.8098 6.35255 17.7753 6.35977 17.7391C6.43216 17.3753 6.45424 17.0032 6.42537 16.6334L6.40906 16.4233C6.28977 14.8856 6.53949 13.3199 7.13131 11.8955C7.72309 10.4712 8.65635 9.18954 9.83025 8.18907L10.3384 7.75594L10.27 9.29642C10.2689 9.32022 10.2696 9.34374 10.2713 9.36701C10.271 9.36814 10.2707 9.36923 10.2705 9.37035C10.2328 9.5706 10.1733 9.73879 10.0914 9.87787L9.74127 10.228C9.61165 10.3019 9.45897 10.3498 9.28143 10.3728C9.2448 10.3775 9.20946 10.3894 9.17743 10.4078C9.1454 10.4262 9.11731 10.4507 9.09476 10.48C9.04922 10.5391 9.029 10.6138 9.03857 10.6878C9.04814 10.7618 9.0867 10.8289 9.14577 10.8745C9.20485 10.92 9.27959 10.9402 9.35357 10.9307C10.0069 10.8462 10.4653 10.4961 10.699 9.91C10.7455 9.92498 10.7942 9.93517 10.8449 9.93851C11.1682 9.95975 11.688 9.99448 12.2063 10.0293C13.0371 10.085 13.7183 10.7247 13.826 11.5504L13.9094 12.1896C13.928 12.333 13.9965 12.4653 14.1028 12.5633C14.2091 12.6613 14.3465 12.7187 14.491 12.7256L15.1977 12.7598C15.3868 12.769 15.5581 12.8627 15.6678 13.0171C15.7774 13.1714 15.8095 13.3641 15.7559 13.5456L15.4379 14.6222C15.3789 14.8233 15.2614 15.0023 15.1004 15.1365C14.9394 15.2707 14.7422 15.354 14.5338 15.3758L12.2966 15.6145C12.1401 15.631 11.9902 15.6861 11.8602 15.7749C11.7303 15.8637 11.6245 15.9834 11.5522 16.1232C11.4798 16.2623 11.4431 16.4173 11.4453 16.5742C11.4476 16.7311 11.4888 16.8849 11.5653 17.0219C11.7056 17.2733 11.8332 17.5316 11.9476 17.7959C11.9694 17.8462 12.0055 17.8891 12.0514 17.9192C12.0972 17.9493 12.1509 17.9654 12.2058 17.9654C12.2524 17.9654 12.2983 17.9538 12.3394 17.9316C12.3804 17.9094 12.4153 17.8774 12.4408 17.8384C12.4664 17.7994 12.4819 17.7547 12.4859 17.7082C12.4899 17.6618 12.4823 17.6151 12.4637 17.5723C12.3419 17.2909 12.2061 17.0159 12.0567 16.7482C11.9926 16.633 11.9907 16.4995 12.0516 16.3821C12.1129 16.2638 12.224 16.1879 12.3563 16.1738L14.5935 15.9351C15.2477 15.8654 15.7909 15.4126 15.9773 14.7815L16.2953 13.7049C16.3982 13.3568 16.3366 12.9873 16.1263 12.6913C15.9161 12.3953 15.5875 12.2155 15.2249 12.198L14.5181 12.1638C14.5054 12.1632 14.4934 12.1582 14.4841 12.1496C14.4748 12.141 14.4688 12.1294 14.4671 12.1168L14.3838 11.4777C14.2415 10.3869 13.3416 9.54167 12.2439 9.46802C11.7254 9.43321 11.2053 9.39848 10.8818 9.37721C10.8678 9.37637 10.8547 9.37004 10.8453 9.35959C10.836 9.34914 10.8312 9.33541 10.8319 9.32141L10.8369 9.20948C10.867 9.18254 10.891 9.14939 10.9071 9.1123C11.3441 8.10353 11.802 7.33797 12.305 6.77603L16.7733 6.08584C17.4637 5.97918 17.9648 5.39467 17.9648 4.69605V3.17702C17.9652 3.06603 17.9434 2.95608 17.9009 2.85356C17.8583 2.75105 17.7959 2.658 17.7171 2.57982ZM16.0021 3.33761C15.9735 3.32875 15.9484 3.31093 15.9306 3.28677C15.9129 3.2626 15.9033 3.23337 15.9034 3.20338V2.8983L17.1205 2.89577H17.1211C17.1961 2.89577 17.2666 2.92495 17.3198 2.97796C17.346 3.00402 17.3668 3.03504 17.381 3.06921C17.3952 3.10338 17.4024 3.14002 17.4023 3.17702V3.77516L16.0021 3.33761Z" fill="#212529"/>
<path d="M12.0586 12.3398C12.2916 12.3398 12.4805 12.151 12.4805 11.918C12.4805 11.685 12.2916 11.4961 12.0586 11.4961C11.8256 11.4961 11.6367 11.685 11.6367 11.918C11.6367 12.151 11.8256 12.3398 12.0586 12.3398Z" fill="#212529"/>
</svg>
