<svg width="20" height="18" viewBox="0 0 20 18" fill="none" xmlns="http://www.w3.org/2000/svg">
<path d="M20 4.69103C20.0012 4.42557 19.9217 4.16836 19.7757 3.96598C19.6298 3.76359 19.4271 3.6294 19.2043 3.58773L18.1336 3.37631C18.0065 3.35123 17.8762 3.36076 17.7527 3.40419C17.6291 3.44761 17.5157 3.52377 17.4211 3.62682L17.1254 2.41255C16.9544 1.71862 16.5971 1.10853 16.1068 0.673619C15.6166 0.238709 15.0198 0.00237659 14.4059 0H5.8547C5.24071 0.00228592 4.64387 0.238577 4.15354 0.673493C3.66322 1.10841 3.30579 1.71855 3.13478 2.41255L2.76193 3.94457C2.68046 3.75498 2.54989 3.60077 2.38909 3.50422C2.22828 3.40767 2.04556 3.37377 1.86732 3.40742L0.798419 3.61883C0.579866 3.66073 0.380577 3.79105 0.234895 3.98731C0.0892134 4.18357 0.00626378 4.43349 0.000340659 4.694C-0.00558246 4.95451 0.065892 5.2093 0.202447 5.41445C0.339002 5.6196 0.532084 5.76227 0.748421 5.81787L1.78268 6.08266L1.43483 6.69799C1.05506 7.36893 0.852743 8.15726 0.853418 8.96343C0.855918 8.97941 0.850561 12.9967 0.854132 13.011V16.6651C0.854889 17.0195 0.975074 17.3591 1.18832 17.6094C1.40156 17.8596 1.69045 18.0001 1.9916 18H3.05157C3.35278 18.0002 3.64175 17.8598 3.85508 17.6095C4.0684 17.3593 4.18863 17.0196 4.18939 16.6651V15.6707H16.0715V16.6651C16.0717 17.019 16.1912 17.3583 16.4038 17.6086C16.6164 17.8589 16.9047 17.9997 17.2054 18H18.269C18.5702 18.0002 18.8592 17.8598 19.0725 17.6095C19.2858 17.3593 19.406 17.0196 19.4068 16.6651C19.4064 14.7536 19.4075 10.8817 19.4068 8.96343C19.44 7.86349 18.9639 6.86023 18.4297 5.99776L19.2547 5.78592C19.4664 5.73102 19.6559 5.59245 19.7915 5.39326C19.9271 5.19407 20.0007 4.94626 20 4.69103ZM3.82119 2.64414C3.94917 2.12542 4.21645 1.66942 4.58302 1.34439C4.94959 1.01935 5.39573 0.842757 5.8547 0.841031H14.4059C14.8648 0.842848 15.3108 1.01948 15.6773 1.34451C16.0438 1.66954 16.311 2.12549 16.439 2.64414L16.8676 4.40396C17.0247 4.55107 3.3487 4.40606 3.37656 4.45566L3.82119 2.64414ZM0.903416 4.99701C0.850023 4.9825 0.802513 4.94677 0.768896 4.89584C0.735279 4.84491 0.71761 4.78189 0.718869 4.71742C0.720127 4.65294 0.740236 4.59095 0.775804 4.54189C0.811373 4.49283 0.860227 4.4597 0.91413 4.44809L1.98696 4.23626C2.01668 4.23105 2.04704 4.23769 2.07318 4.25513C2.09933 4.27258 2.11977 4.29981 2.13124 4.33251L2.3823 5.0113C2.36837 5.05964 2.23052 5.28324 2.20731 5.33157L0.903416 4.99701ZM18.6929 12.9933C18.6927 13.48 18.5285 13.9468 18.2362 14.2911C17.9439 14.6354 17.5475 14.8293 17.134 14.8301H3.12656C2.71274 14.8292 2.31613 14.635 2.02384 14.2902C1.73156 13.9455 1.56749 13.4783 1.56768 12.9912V12.5461H18.6929V12.9933ZM3.47512 16.6651C3.47456 16.7967 3.42964 16.9227 3.35022 17.0154C3.27081 17.108 3.1634 17.1598 3.05157 17.1594H1.9916C1.87983 17.1597 1.77251 17.1079 1.69317 17.0152C1.61383 16.9226 1.56896 16.7967 1.5684 16.6651V14.9377C1.82429 15.2112 2.12648 15.4179 2.45512 15.5442C2.78375 15.6705 3.13137 15.7134 3.47512 15.6702V16.6651ZM18.269 17.1594H17.2054C17.0941 17.1592 16.9874 17.107 16.9088 17.0143C16.8301 16.9217 16.7859 16.7961 16.7858 16.6651V15.6707C17.1296 15.7138 17.4773 15.6707 17.8059 15.5443C18.1346 15.4179 18.4367 15.211 18.6925 14.9372V16.6651C18.692 16.7967 18.647 16.9227 18.5676 17.0154C18.4882 17.108 18.3808 17.1598 18.269 17.1594ZM18.6929 11.7059H1.56768V8.96343C1.56704 8.32292 1.72787 7.69659 2.02981 7.16369C2.29016 6.68033 2.83693 5.78592 3.06299 5.29627H17.1976C17.2369 5.37781 17.2701 5.46355 17.3144 5.54215L18.2308 7.16369C18.5327 7.69659 18.6935 8.32292 18.6929 8.96343V11.7059ZM19.1 4.96507L18.0054 5.24625C17.8997 5.07049 17.8064 4.88495 17.7261 4.69145C17.8151 4.49643 17.8565 4.16186 18.0154 4.20516L19.0889 4.41699C19.1422 4.42938 19.1903 4.46279 19.2253 4.51169C19.2602 4.5606 19.2799 4.62208 19.2812 4.68597C19.2824 4.74986 19.2651 4.81234 19.2321 4.86309C19.1991 4.91383 19.1527 4.94981 19.1 4.96507Z" fill="#212529"/>
<path d="M5.25214 8.0707C5.16621 7.90735 5.04773 7.77114 4.90695 7.67388C4.76618 7.57661 4.60738 7.52123 4.4443 7.51253L3.03792 7.43688C2.84454 7.42648 2.65523 7.50448 2.50959 7.65457C2.36396 7.80466 2.27327 8.01521 2.25651 8.24218L2.19437 9.07901C2.17714 9.3062 2.23548 9.53239 2.35712 9.70996C2.47876 9.88753 2.6542 10.0026 2.8465 10.031L5.83355 10.4795C5.90054 10.4897 5.96862 10.4773 6.02988 10.4438C6.09115 10.4103 6.14308 10.357 6.17965 10.2902C6.21622 10.2233 6.23593 10.1456 6.23649 10.0661C6.23705 9.98664 6.21844 9.90858 6.18282 9.84103L5.25214 8.0707ZM2.93721 9.19712C2.92798 9.19585 2.91954 9.1904 2.91367 9.18192C2.9078 9.17345 2.90497 9.16262 2.90578 9.15173L2.96792 8.31532C2.96865 8.30447 2.97293 8.29437 2.97986 8.28716C2.98679 8.27995 2.99582 8.27618 3.00506 8.27665L4.41181 8.3523C4.45877 8.35482 4.5045 8.3708 4.54502 8.39885C4.58554 8.42691 4.61962 8.46619 4.6443 8.51328L5.18107 9.53378L2.93721 9.19712ZM17.2264 7.3524L15.82 7.42805C15.657 7.4367 15.4982 7.49202 15.3574 7.58921C15.2167 7.6864 15.0982 7.82253 15.0122 7.9858L14.0815 9.75613C14.0489 9.81998 14.0312 9.89282 14.0302 9.9673C14.0291 10.0418 14.0448 10.1153 14.0756 10.1804C14.1063 10.2455 14.1512 10.2998 14.2055 10.338C14.2598 10.3762 14.3218 10.3969 14.3851 10.3979C14.4001 10.3979 14.4152 10.3968 14.4301 10.3946L17.4178 9.94652C17.6102 9.91804 17.7857 9.8028 17.9074 9.62507C18.029 9.44734 18.0873 9.22099 18.07 8.99369L18.0078 8.15728C17.9906 7.93059 17.8997 7.72045 17.7542 7.57054C17.6087 7.42064 17.4196 7.34251 17.2264 7.3524ZM17.3275 9.11264L15.0833 9.44888L15.6197 8.42838C15.6444 8.38126 15.6785 8.34199 15.7191 8.314C15.7597 8.28601 15.8055 8.27015 15.8525 8.26782L17.2589 8.19217C17.2679 8.19257 17.2766 8.19658 17.2834 8.20353C17.2902 8.21049 17.2948 8.21997 17.2964 8.23042L17.3586 9.06682C17.3595 9.07772 17.3567 9.0886 17.3509 9.09716C17.3451 9.10571 17.3367 9.11127 17.3275 9.11264ZM13.1905 7.76808C11.213 8.28887 9.16244 8.29103 7.18422 7.77438C7.12166 7.75377 7.05551 7.75363 6.99289 7.77398C6.93026 7.79433 6.87354 7.8344 6.82884 7.88987C6.78413 7.94535 6.75312 8.01412 6.73916 8.08879C6.72519 8.16346 6.7288 8.2412 6.74959 8.31364L7.36743 10.4627C7.38825 10.5349 7.42536 10.5992 7.4748 10.6486C7.52424 10.698 7.58416 10.7306 7.64814 10.743C8.70561 11.0423 12.3544 10.8321 12.7016 10.7459C12.7705 10.738 12.8359 10.7066 12.8899 10.6556C12.9439 10.6046 12.9842 10.5363 13.0058 10.4589L13.6051 8.31027C13.624 8.24001 13.6269 8.16517 13.6136 8.09316C13.6004 8.02115 13.5714 7.95446 13.5295 7.8997C13.4876 7.84493 13.4343 7.80398 13.3748 7.78089C13.3154 7.75781 13.2518 7.75339 13.1905 7.76808ZM12.4009 9.93349C10.9285 10.095 9.4467 10.1004 7.97348 9.94947L7.62849 8.74823C9.31944 9.08798 11.0475 9.08129 12.7366 8.72848L12.4009 9.93349Z" fill="#212529"/>
</svg>
