<svg width="18" height="18" viewBox="0 0 18 18" fill="none" xmlns="http://www.w3.org/2000/svg">
<path d="M17.765 0.234527C17.7641 0.233684 17.7632 0.232945 17.7623 0.232102C17.6135 0.0845508 17.4083 0 17.1989 0H17.1978C17.0165 0.00012809 16.8406 0.0618481 16.699 0.175043C14.3065 2.08622 11.9465 4.03774 9.61997 6.02877L4.41409 0.822973C3.90003 0.308988 3.06366 0.309059 2.54964 0.822973L0.077205 3.29544C0.0281123 3.34496 0.000634278 3.41191 0.000783674 3.48164C0.00093307 3.55137 0.0286977 3.6182 0.0780021 3.66751C0.127307 3.71682 0.194136 3.74459 0.263866 3.74475C0.333596 3.7449 0.400548 3.71743 0.450073 3.66834L2.17678 1.94168L2.55411 2.31901L0.827441 4.04568C0.778348 4.0952 0.75087 4.16215 0.75102 4.23188C0.751169 4.30161 0.778934 4.36844 0.828238 4.41775C0.877542 4.46705 0.944372 4.49483 1.0141 4.49498C1.08383 4.49514 1.15078 4.46767 1.20031 4.41858L2.92701 2.69191L3.30434 3.06925L1.57764 4.79591C1.52855 4.84543 1.50107 4.91238 1.50122 4.98211C1.50137 5.05184 1.52913 5.11867 1.57844 5.16798C1.62774 5.21729 1.69457 5.24506 1.7643 5.24522C1.83403 5.24537 1.90099 5.2179 1.95051 5.16881L3.67721 3.44211L4.05454 3.81945L2.32788 5.54611C2.27878 5.59563 2.25131 5.66258 2.25146 5.73231C2.25161 5.80204 2.27937 5.86887 2.32867 5.91818C2.37798 5.96749 2.44481 5.99526 2.51454 5.99542C2.58427 5.99557 2.65122 5.9681 2.70075 5.91901L4.42741 4.19235L4.80475 4.56968L3.07808 6.29634C3.02899 6.34586 3.00151 6.41281 3.00166 6.48254C3.00181 6.55227 3.02957 6.6191 3.07888 6.66841C3.12818 6.71772 3.19501 6.74549 3.26474 6.74565C3.33447 6.74581 3.40142 6.71833 3.45095 6.66925L5.17761 4.94258L5.55495 5.31991L3.82828 7.04658C3.77919 7.0961 3.75171 7.16305 3.75186 7.23278C3.75201 7.30251 3.77977 7.36934 3.82908 7.41865C3.87838 7.46796 3.94521 7.49573 4.01494 7.49588C4.08467 7.49604 4.15162 7.46857 4.20115 7.41948L5.92781 5.69282L6.30515 6.07015L4.57848 7.79681C4.52939 7.84633 4.50191 7.91328 4.50206 7.98301C4.50221 8.05274 4.52997 8.11957 4.57928 8.16888C4.62858 8.21819 4.69541 8.24596 4.76514 8.24612C4.83487 8.24627 4.90182 8.2188 4.95135 8.16971L6.67802 6.44305L7.05538 6.82042L5.32872 8.54708C5.27962 8.5966 5.25215 8.66355 5.25229 8.73328C5.25244 8.80301 5.28021 8.86984 5.32951 8.91915C5.37882 8.96846 5.44565 8.99623 5.51538 8.99639C5.58511 8.99654 5.65206 8.96907 5.70158 8.91998L7.42829 7.19328L7.81891 7.58391C7.01096 8.28733 6.20715 8.99548 5.4075 9.70833C5.40715 9.70833 5.40715 9.70833 5.40715 9.70871C5.17058 9.91912 4.91254 10.1615 4.65797 10.3911C4.50202 10.5039 4.53172 10.7022 4.6091 10.7796C4.6091 10.7796 4.6091 10.7799 4.60945 10.7799C4.86328 11.0872 5.00356 11.4795 5.00356 11.8852C5.00356 12.3595 4.82109 12.8031 4.4896 13.1343L3.69437 13.9295C2.54774 15.1029 0.528472 14.3022 0.527311 12.6404C0.528014 11.6316 1.34283 10.7983 2.37228 10.7975C2.93299 10.7979 3.45647 11.0475 3.80838 11.4817C3.90383 11.5993 4.07908 11.612 4.19018 11.5112C4.19158 11.5102 4.19264 11.5091 4.19405 11.5077L4.19651 11.5056C4.32001 11.3945 4.31129 11.1945 4.1733 11.0956C3.7226 10.5711 3.06693 10.2702 2.37404 10.2702H2.37052C1.05223 10.2702 -0.00154518 11.3437 1.70086e-06 12.6404C-0.00115846 13.6176 0.595972 14.4806 1.47934 14.8395C1.99509 15.0481 2.56761 15.0696 3.09752 14.9001C2.6028 16.4391 3.7542 18 5.35452 18H5.35733C6.66501 18 7.73074 16.9414 7.72929 15.6284C7.73 15.0043 7.48953 14.4155 7.05324 13.9697L7.59162 13.3576C8.53878 12.3035 9.47807 11.2424 10.4094 10.1743L10.8067 10.5716L9.08 12.2982C9.05552 12.3227 9.03609 12.3518 9.02284 12.3838C9.00959 12.4158 9.00277 12.4501 9.00278 12.4847C9.00278 12.5193 9.0096 12.5536 9.02285 12.5856C9.03611 12.6176 9.05553 12.6467 9.08002 12.6711C9.10451 12.6956 9.13358 12.715 9.16557 12.7283C9.19756 12.7415 9.23185 12.7484 9.26648 12.7484C9.30111 12.7484 9.3354 12.7415 9.36739 12.7283C9.39938 12.715 9.42845 12.6956 9.45294 12.6711L11.1796 10.9445L11.5569 11.3218L9.83027 13.0485C9.80579 13.0729 9.78636 13.102 9.77311 13.134C9.75986 13.166 9.75305 13.2003 9.75305 13.2349C9.75305 13.2695 9.75987 13.3038 9.77312 13.3358C9.78638 13.3678 9.8058 13.3969 9.83029 13.4214C9.85478 13.4459 9.88385 13.4653 9.91584 13.4785C9.94783 13.4918 9.98212 13.4986 10.0168 13.4986C10.0514 13.4986 10.0857 13.4918 10.1177 13.4785C10.1497 13.4653 10.1787 13.4458 10.2032 13.4214L11.9299 11.6947L12.3072 12.072L10.5805 13.7987C10.5311 13.8481 10.5033 13.9152 10.5033 13.9851C10.5033 14.0551 10.5311 14.1221 10.5805 14.1716C10.63 14.221 10.6971 14.2488 10.767 14.2488C10.8369 14.2488 10.904 14.221 10.9534 14.1716L12.6801 12.4449L13.0574 12.8222L11.3307 14.5489C11.3063 14.5734 11.2868 14.6024 11.2736 14.6344C11.2603 14.6664 11.2535 14.7007 11.2535 14.7354C11.2535 14.77 11.2603 14.8043 11.2736 14.8363C11.2868 14.8683 11.3063 14.8973 11.3308 14.9218C11.3552 14.9463 11.3843 14.9657 11.4163 14.979C11.4483 14.9922 11.4826 14.999 11.5172 14.999C11.5519 14.999 11.5861 14.9922 11.6181 14.979C11.6501 14.9657 11.6792 14.9463 11.7037 14.9218L13.4303 13.1951L13.8077 13.5724L12.081 15.2991C12.0565 15.3236 12.0371 15.3526 12.0239 15.3846C12.0106 15.4166 12.0038 15.4509 12.0038 15.4855C12.0038 15.5202 12.0106 15.5545 12.0239 15.5865C12.0371 15.6185 12.0565 15.6475 12.081 15.672C12.1055 15.6965 12.1346 15.7159 12.1666 15.7292C12.1986 15.7424 12.2329 15.7492 12.2675 15.7492C12.3021 15.7492 12.3364 15.7424 12.3684 15.7292C12.4004 15.7159 12.4295 15.6965 12.454 15.672L14.1806 13.9453L14.5579 14.3226L12.8313 16.0493C12.8068 16.0738 12.7873 16.1028 12.7741 16.1348C12.7608 16.1668 12.754 16.2011 12.754 16.2357C12.754 16.2704 12.7608 16.3047 12.7741 16.3367C12.7874 16.3687 12.8068 16.3977 12.8313 16.4222C12.8558 16.4467 12.8848 16.4661 12.9168 16.4794C12.9488 16.4926 12.9831 16.4994 13.0177 16.4994C13.0524 16.4994 13.0867 16.4926 13.1186 16.4794C13.1506 16.4661 13.1797 16.4467 13.2042 16.4222L14.9309 14.6955L15.3082 15.0728L13.5815 16.7995C13.532 16.8489 13.5043 16.916 13.5043 16.9859C13.5043 17.0559 13.532 17.123 13.5815 17.1724C13.631 17.2219 13.698 17.2496 13.768 17.2496C13.8379 17.2496 13.905 17.2218 13.9544 17.1724L15.6811 15.4457L16.0584 15.823L14.3317 17.5497C14.2823 17.5991 14.2545 17.6662 14.2545 17.7361C14.2545 17.8061 14.2823 17.8732 14.3317 17.9226C14.3812 17.9721 14.4483 17.9998 14.5182 17.9998C14.5881 17.9998 14.6552 17.972 14.7047 17.9226L16.6175 16.0097L16.6178 16.0095L16.618 16.0092L17.1771 15.4501C17.4261 15.2011 17.5633 14.87 17.5633 14.5179C17.5633 14.1657 17.4261 13.8347 17.1771 13.5856L11.9655 8.37439C13.9871 6.01604 15.9469 3.65055 17.8247 1.30043C18.0796 0.981527 18.0538 0.523301 17.765 0.234527ZM2.54968 1.56878L2.92255 1.19591C3.23094 0.887519 3.73279 0.887519 4.04122 1.19591L9.21862 6.37334C8.88431 6.6604 8.5507 6.94827 8.21779 7.23695L2.54968 1.56878ZM16.8041 13.9588C16.9535 14.1082 17.0358 14.3068 17.0358 14.5181C17.0358 14.7294 16.9535 14.928 16.8041 15.0774L16.4313 15.4503C16.257 15.2761 11.1306 10.1496 10.7565 9.77555C11.0455 9.44298 11.3337 9.10974 11.6211 8.77581L16.8041 13.9588ZM7.34609 12.8413C7.2183 12.7435 6.87756 12.5741 6.82089 12.093C6.80507 11.9602 6.69292 11.8603 6.55968 11.8603C6.40039 11.8603 6.27899 11.9986 6.29706 12.1549H6.29741C6.34769 12.5848 6.58112 12.9649 6.93761 13.1973C6.95624 13.2096 6.97488 13.2222 6.99421 13.2363C6.81133 13.4449 6.66037 13.6206 6.48726 13.8118C6.46334 13.8384 6.44506 13.8696 6.43352 13.9035C6.42198 13.9374 6.41741 13.9733 6.42011 14.009C6.42287 14.0447 6.43287 14.0795 6.44949 14.1112C6.46611 14.1429 6.48901 14.171 6.51679 14.1936C6.9593 14.5548 7.20156 15.0747 7.20198 15.6283C7.20125 16.6445 6.38263 17.4719 5.35631 17.4726C4.34191 17.4713 3.51064 16.6537 3.51064 15.6283C3.51184 14.7938 4.03964 14.3469 4.08017 14.2896L4.8624 13.5073C5.29335 13.0764 5.53104 12.4934 5.53104 11.8852C5.53139 11.4408 5.40413 11.0116 5.16369 10.6446C5.37013 10.4558 5.54967 10.2883 5.75819 10.1024L5.75924 10.101C11.4761 5.00365 16.9608 0.621879 17.0639 0.562852C16.9932 0.633551 6.70558 10.9167 6.65812 10.9702C6.56144 11.0791 6.57163 11.2461 6.68027 11.3425C6.78946 11.4397 6.9567 11.4283 7.05257 11.3203C7.08411 11.2844 17.3614 1.01085 17.4368 0.935508C17.4152 0.973441 13.1689 6.352 7.34609 12.8413Z" fill="#212529"/>
<path d="M3.3054 11.7095C2.4737 10.8778 1.05462 11.4771 1.05469 12.6415C1.05469 12.9934 1.1919 13.3244 1.44106 13.5735C1.69808 13.8305 2.03558 13.959 2.37323 13.959C2.71076 13.959 3.0484 13.8305 3.3054 13.5735C3.81998 13.0591 3.82005 12.224 3.3054 11.7095ZM2.93256 13.2006C2.62414 13.5089 2.12231 13.509 1.81389 13.2006C1.31994 12.7067 1.66581 11.8511 2.37323 11.8511C3.08268 11.8511 3.42426 12.709 2.93256 13.2006ZM5.35624 14.3101C4.81409 14.3101 4.34838 14.6214 4.14081 15.1225C3.93223 15.6261 4.04079 16.177 4.4241 16.5603C4.67871 16.8148 5.00668 16.9483 5.34538 16.9483C5.51648 16.9483 5.69036 16.9142 5.85876 16.8444C6.36196 16.6359 6.67457 16.1699 6.67457 15.6282C6.67453 14.9014 6.08317 14.3101 5.35624 14.3101ZM5.6569 16.3573C5.421 16.4549 5.07123 16.4616 4.7969 16.1874C4.52244 15.913 4.52971 15.5616 4.62798 15.3243C4.72546 15.089 4.96797 14.8374 5.3562 14.8374C5.79235 14.8374 6.14719 15.1922 6.14719 15.6282C6.14719 16.016 5.89392 16.2591 5.6569 16.3573Z" fill="#212529"/>
</svg>
