<svg width="20" height="18" viewBox="0 0 20 18" fill="none" xmlns="http://www.w3.org/2000/svg">
<path d="M19.1584 3.5794H15.4159V0.848261C15.4157 0.623352 15.3317 0.407722 15.1825 0.248691C15.0332 0.0896598 14.8308 0.00022038 14.6198 0H2.96219C2.75111 0.00022038 2.54874 0.0896598 2.39949 0.248691C2.25023 0.407722 2.16628 0.623352 2.16607 0.848261V9.11763C2.16615 9.22466 2.18537 9.3307 2.22271 9.43006C2.00286 9.59552 1.89723 9.87744 1.84207 10.025L0.0399765 14.8445C0.00490581 14.9398 -0.00736872 15.0429 0.00425773 15.1445C0.0158842 15.2462 0.0510467 15.3431 0.10658 15.4267C0.187712 15.546 0.293961 15.6434 0.416801 15.711C0.53964 15.7786 0.675648 15.8147 0.813909 15.8161H12.2861V17.1033C12.2864 17.341 12.3751 17.569 12.5329 17.7371C12.6907 17.9052 12.9046 17.9997 13.1277 18H19.1584C19.3816 17.9997 19.5955 17.9052 19.7533 17.737C19.9111 17.5689 19.9998 17.3409 20 17.1031V4.47611C19.9998 4.23837 19.911 4.01044 19.7532 3.84233C19.5955 3.67422 19.3816 3.57966 19.1584 3.5794ZM19.375 4.47611V15.5992H12.9112V4.47611C12.9119 4.41516 12.935 4.35694 12.9754 4.31384C13.0159 4.27075 13.0705 4.24618 13.1277 4.24538H14.2326C14.2356 4.25757 14.2393 4.26957 14.2436 4.28131L14.4762 4.91096C14.4992 4.97317 14.5392 5.02656 14.5911 5.0642C14.643 5.10183 14.7043 5.12195 14.767 5.12195H17.5191C17.5819 5.12196 17.6432 5.10184 17.6951 5.06421C17.7469 5.02658 17.787 4.97317 17.81 4.91096L18.041 4.28559C18.0457 4.27246 18.0496 4.25903 18.0527 4.24538H19.1582C19.2154 4.24612 19.2701 4.27065 19.3106 4.31376C19.3511 4.35686 19.3742 4.41512 19.375 4.47611ZM17.3841 4.24538L17.3063 4.45596H14.9798L14.9021 4.24538H17.3841ZM13.7652 3.5794H13.1277C12.9046 3.57966 12.6907 3.67422 12.5329 3.84233C12.3751 4.01044 12.2864 4.23837 12.2861 4.47611V8.20702H3.81679V1.75892H13.7654L13.7652 3.5794ZM12.2861 12.1187H3.01996L3.4106 11.0736H12.2859L12.2861 12.1187ZM2.79109 0.848261C2.79114 0.799929 2.80918 0.753593 2.84126 0.719421C2.87334 0.685249 2.91683 0.666032 2.96219 0.665988H14.6198C14.6651 0.666032 14.7086 0.685249 14.7407 0.719421C14.7728 0.753593 14.7908 0.799929 14.7909 0.848261V3.5794H14.3904V1.42592C14.3904 1.33761 14.3575 1.25291 14.2989 1.19046C14.2403 1.12801 14.1608 1.09293 14.0779 1.09293H3.50428C3.42139 1.09293 3.3419 1.12801 3.2833 1.19046C3.22469 1.25291 3.19176 1.33761 3.19176 1.42592V8.54001C3.19176 8.62833 3.22469 8.71302 3.2833 8.77547C3.3419 8.83792 3.42139 8.873 3.50428 8.873H12.2861V9.2999H2.96219C2.91683 9.29986 2.87334 9.28064 2.84126 9.24647C2.80918 9.2123 2.79114 9.16596 2.79109 9.11763V0.848261ZM6.1303 15.15L6.61888 14.03H10.9631L11.4517 15.15H6.1303ZM12.1409 15.15L11.5165 13.7186C11.4138 13.4833 11.2586 13.364 11.0555 13.364H6.52622C6.32308 13.364 6.16804 13.4833 6.06546 13.7186L5.4409 15.15H0.813909C0.745031 15.1458 0.67996 15.115 0.630973 15.0632L2.42268 10.2715C2.52311 10.0029 2.57502 9.96589 2.61596 9.96589H2.86804C2.88125 9.96579 2.89444 9.96481 2.90754 9.96294C2.92566 9.96427 2.94375 9.96589 2.96223 9.96589H12.2861V10.4077H3.28396C3.14848 10.4077 2.96363 10.4701 2.85218 10.7681L2.32509 12.1777C2.30121 12.2413 2.29252 12.3102 2.29983 12.3782C2.30713 12.4462 2.33019 12.5112 2.36693 12.5674C2.41108 12.634 2.46947 12.6884 2.53728 12.7262C2.60508 12.764 2.68035 12.784 2.75687 12.7847H12.2861V15.15H12.1409ZM19.1584 17.3338H13.1277C13.0705 17.333 13.0159 17.3085 12.9754 17.2654C12.935 17.2223 12.9119 17.1641 12.9112 17.1031V16.2652H19.375V17.1031C19.3742 17.1641 19.3512 17.2223 19.3107 17.2654C19.2703 17.3085 19.2156 17.333 19.1584 17.3338ZM16.4558 16.7995C16.4558 16.8654 16.4375 16.9297 16.4032 16.9845C16.3689 17.0392 16.3201 17.0819 16.263 17.1071C16.2059 17.1323 16.1431 17.139 16.0825 17.1261C16.0219 17.1133 15.9662 17.0817 15.9225 17.0352C15.8788 16.9886 15.849 16.9293 15.8369 16.8648C15.8247 16.8002 15.8309 16.7333 15.8544 16.6724C15.878 16.6116 15.918 16.5595 15.9693 16.5229C16.0207 16.4862 16.081 16.4666 16.1428 16.4665H16.1433C16.2262 16.4665 16.3057 16.5016 16.3643 16.5641C16.4229 16.6265 16.4558 16.7112 16.4558 16.7995Z" fill="#212529"/>
</svg>
