<svg width="18" height="18" viewBox="0 0 18 18" fill="none" xmlns="http://www.w3.org/2000/svg">
<g clip-path="url(#clip0_573_18883)">
<path d="M16.9081 14.0686L14.6959 13.3311V12.6662C14.9678 12.4459 15.1833 12.164 15.3246 11.8439C15.4926 11.8363 15.6553 11.7827 15.7949 11.6889C15.9345 11.595 16.0455 11.4645 16.1159 11.3118C16.1863 11.159 16.2132 10.9898 16.1939 10.8227C16.1745 10.6557 16.1095 10.4972 16.006 10.3646C16.0402 10.2039 16.0907 9.94483 16.1139 9.78733C16.1212 9.73748 16.1285 9.69072 16.1353 9.64646C16.1995 9.23246 16.242 8.95891 15.9822 8.46978C15.7044 7.94732 15.2799 7.51754 14.7609 7.23338C14.2419 6.94922 13.6512 6.8231 13.0614 6.87056C12.4716 6.91802 11.9086 7.13699 11.4417 7.50049C10.9748 7.86398 10.6245 8.35612 10.4339 8.91626C10.4289 8.93097 10.4251 8.94607 10.4226 8.9614C10.3481 9.41594 10.4081 9.88953 10.6006 10.3703C10.4987 10.5031 10.435 10.6614 10.4167 10.8279C10.3983 10.9944 10.4259 11.1627 10.4965 11.3146C10.5671 11.4665 10.6779 11.5961 10.817 11.6894C10.956 11.7828 11.118 11.8362 11.2853 11.8439C11.4338 12.1791 11.663 12.4722 11.9525 12.6971V13.3312L9.74039 14.0686C9.42043 14.1719 9.14186 14.3747 8.94541 14.6476C8.74895 14.9204 8.64489 15.2489 8.64844 15.5851V17.7176C8.64844 17.7922 8.67807 17.8638 8.73081 17.9165C8.78356 17.9692 8.85509 17.9989 8.92969 17.9989H17.7188C17.7933 17.9989 17.8649 17.9692 17.9176 17.9165C17.9704 17.8638 18 17.7922 18 17.7176V15.5851C18.0035 15.2489 17.8995 14.9204 17.703 14.6476C17.5066 14.3748 17.2281 14.1719 16.9081 14.0686ZM14.7644 13.9469V14.9645L13.81 14.2867L14.4405 13.8389L14.7644 13.9469ZM12.9756 15.9879H13.6729L13.9262 17.4364H12.7222L12.9756 15.9879ZM13.7335 15.4254H12.9149L12.8431 15.0152C12.8409 15.0031 12.838 14.9912 12.8342 14.9796L13.3242 14.6315L13.8118 14.9778L13.7335 15.4254ZM12.515 13.0133C13.0371 13.2127 13.6153 13.2072 14.1334 12.9978V13.3669L13.3242 13.9418L12.515 13.3672V13.0133ZM15.4979 11.2089C15.5204 11.0205 15.5185 10.8299 15.4922 10.6419C15.5367 10.6744 15.5731 10.7168 15.5983 10.7657C15.6235 10.8147 15.6369 10.8689 15.6375 10.924C15.638 10.9791 15.6257 11.0335 15.6015 11.083C15.5772 11.1325 15.5418 11.1756 15.4979 11.2089ZM10.9741 9.07495C11.133 8.62213 11.4205 8.22542 11.8012 7.93332C12.182 7.64122 12.6396 7.46637 13.1182 7.43015C13.5967 7.39393 14.0755 7.49791 14.4959 7.72938C14.9163 7.96085 15.2601 8.30978 15.4854 8.73352C15.6575 9.05741 15.6394 9.17395 15.5795 9.56011C15.5724 9.60581 15.5649 9.65387 15.5574 9.70524C15.5449 9.78989 15.522 9.91617 15.4986 10.0361C15.4394 10.0218 15.379 10.0134 15.3181 10.0111C15.0622 9.18404 14.7678 8.75328 14.3956 8.65913C14.2245 8.61582 13.9592 8.62615 13.6679 8.92083C13.6516 8.9372 13.6375 8.9555 13.6257 8.97532C13.224 9.65405 12.5334 9.96508 11.514 9.92531C11.4746 9.92385 11.4353 9.93073 11.3988 9.94548C11.3622 9.96023 11.3292 9.98253 11.3018 10.0109C11.2266 10.013 11.1519 10.0244 11.0795 10.0448C10.9657 9.73501 10.9296 9.40209 10.9741 9.0751V9.07495ZM10.9736 10.9275C10.9736 10.8748 10.9854 10.8228 11.008 10.7753C11.0307 10.7277 11.0636 10.6858 11.1045 10.6526C11.0828 10.8359 11.0836 11.0211 11.1069 11.2042C11.0654 11.1711 11.0318 11.129 11.0088 11.0811C10.9857 11.0333 10.9737 10.9808 10.9736 10.9277V10.9275ZM11.7059 10.491C12.8071 10.4847 13.6086 10.0828 14.0902 9.29451C14.1602 9.22873 14.2216 9.19515 14.2577 9.20447C14.2842 9.21115 14.5249 9.29841 14.8132 10.2853C14.8161 10.2953 14.8196 10.3052 14.8237 10.3149C14.9639 10.6499 14.9894 11.0218 14.8963 11.3728C14.8032 11.7238 14.5966 12.0341 14.3088 12.2555C14.021 12.477 13.668 12.597 13.3049 12.597C12.9418 12.597 12.5888 12.477 12.301 12.2555C12.0401 12.0519 11.8447 11.7762 11.7389 11.4626C11.6332 11.149 11.6217 10.8112 11.7059 10.4912V10.491ZM12.2079 13.8388L12.8385 14.2866L11.8841 14.9644V13.9469L12.2079 13.8388ZM9.21094 15.5851C9.20858 15.3673 9.27595 15.1544 9.40321 14.9775C9.53046 14.8007 9.71093 14.6692 9.91825 14.6023L11.3216 14.1344V15.509C11.3216 15.5607 11.3358 15.6113 11.3626 15.6554C11.3895 15.6994 11.4279 15.7353 11.4738 15.759C11.5196 15.7826 11.5711 15.7932 11.6226 15.7896C11.6741 15.786 11.7236 15.7682 11.7657 15.7384L12.3287 15.3385L12.4234 15.8799L12.1512 17.4364H10.7232V16.5188C10.7232 16.4442 10.6936 16.3727 10.6408 16.3199C10.5881 16.2672 10.5166 16.2375 10.442 16.2375C10.3674 16.2375 10.2958 16.2672 10.2431 16.3199C10.1903 16.3727 10.1607 16.4442 10.1607 16.5188V17.4364H9.21094V15.5851ZM17.4375 17.4364H16.4877V16.5188C16.4877 16.4442 16.4581 16.3727 16.4053 16.3199C16.3526 16.2672 16.2811 16.2375 16.2065 16.2375C16.1319 16.2375 16.0603 16.2672 16.0076 16.3199C15.9549 16.3727 15.9252 16.4442 15.9252 16.5188V17.4364H14.4972L14.225 15.8802L14.3197 15.3387L14.8828 15.7386C14.9249 15.7685 14.9744 15.7862 15.0259 15.7899C15.0773 15.7935 15.1288 15.7829 15.1747 15.7592C15.2205 15.7355 15.259 15.6997 15.2859 15.6556C15.3127 15.6115 15.3269 15.5609 15.3269 15.5093V14.1347L16.7302 14.6025C16.9375 14.6695 17.1179 14.8009 17.2452 14.9777C17.3724 15.1545 17.4398 15.3673 17.4375 15.5851V17.4364ZM0.28125 11.4392H9.07031C9.14491 11.4392 9.21644 11.4095 9.26919 11.3568C9.32193 11.3041 9.35156 11.2325 9.35156 11.1579V9.26132C9.35024 8.26944 9.01071 7.30767 8.38902 6.53479C7.76734 5.76192 6.90067 5.22416 5.93212 5.01029C6.45567 4.73024 6.87063 4.2833 7.11111 3.74044C7.35158 3.19758 7.40379 2.58994 7.25943 2.01402C7.11508 1.4381 6.78243 0.926922 6.31433 0.561673C5.84623 0.196425 5.26952 -0.00195312 4.67578 -0.00195312C4.08204 -0.00195312 3.50533 0.196425 3.03723 0.561673C2.56913 0.926922 2.23649 1.4381 2.09213 2.01402C1.94777 2.58994 1.99998 3.19758 2.24046 3.74044C2.48093 4.2833 2.8959 4.73024 3.41944 5.01029C2.45089 5.22416 1.58422 5.76192 0.962541 6.53479C0.340856 7.30767 0.00132312 8.26944 0 9.26132L0 11.1579C0 11.2325 0.0296316 11.3041 0.0823762 11.3568C0.135121 11.4095 0.206658 11.4392 0.28125 11.4392ZM4.37432 5.47186H4.97725L5.40225 8.53541L4.67578 9.40184L3.94931 8.53541L4.37432 5.47186ZM2.5747 2.66242C2.5747 2.24686 2.69792 1.84064 2.92878 1.49511C3.15965 1.14959 3.48779 0.880283 3.87171 0.721251C4.25563 0.56222 4.67809 0.520607 5.08566 0.601674C5.49323 0.68274 5.86761 0.882846 6.16146 1.17669C6.4553 1.47053 6.65541 1.8449 6.73649 2.25247C6.81756 2.66004 6.77595 3.0825 6.61693 3.46642C6.4579 3.85035 6.1886 4.17849 5.84308 4.40936C5.49756 4.64024 5.09134 4.76346 4.67578 4.76346C4.11874 4.76284 3.58469 4.54128 3.1908 4.1474C2.7969 3.75351 2.57534 3.21946 2.5747 2.66242ZM0.5625 9.26132C0.563677 8.35209 0.891231 7.47351 1.48556 6.78542C2.07989 6.09733 2.9015 5.64548 3.80088 5.51208L3.375 8.58178C3.3696 8.62072 3.37242 8.66036 3.38329 8.69814C3.39415 8.73592 3.41281 8.771 3.43807 8.80112L4.46027 10.0203C4.48667 10.0518 4.51965 10.0771 4.55688 10.0944C4.59411 10.1118 4.6347 10.1208 4.67578 10.1208C4.71687 10.1208 4.75745 10.1118 4.79468 10.0944C4.83192 10.0771 4.86489 10.0518 4.89129 10.0203L5.91349 8.80112C5.93875 8.771 5.95741 8.73592 5.96828 8.69814C5.97914 8.66036 5.98196 8.62072 5.97656 8.58178L5.55068 5.51208C6.45007 5.64548 7.27167 6.09733 7.866 6.78542C8.46033 7.47351 8.78789 8.35209 8.78906 9.26132V10.8767H7.52435V8.8219C7.52435 8.74731 7.49472 8.67577 7.44198 8.62303C7.38923 8.57028 7.31769 8.54065 7.2431 8.54065C7.16851 8.54065 7.09697 8.57028 7.04423 8.62303C6.99148 8.67577 6.96185 8.74731 6.96185 8.8219V10.8767H2.38971V8.8219C2.38971 8.74731 2.36008 8.67577 2.30733 8.62303C2.25459 8.57028 2.18305 8.54065 2.10846 8.54065C2.03387 8.54065 1.96233 8.57028 1.90959 8.62303C1.85684 8.67577 1.82721 8.74731 1.82721 8.8219V10.8767H0.5625V9.26132ZM6.02364 17.4711C5.60942 17.2454 5.253 16.927 4.98222 16.5408C4.71144 16.1546 4.53363 15.7109 4.4627 15.2446H5.74942C5.80082 15.2446 5.85123 15.2305 5.89519 15.2039C5.93914 15.1772 5.97496 15.139 5.99874 15.0935C6.02251 15.0479 6.03335 14.9967 6.03007 14.9454C6.02679 14.8941 6.00951 14.8447 5.98011 14.8025L3.94052 11.8775C3.91461 11.8403 3.8801 11.81 3.83993 11.789C3.79976 11.7681 3.75512 11.7571 3.70981 11.7571C3.6645 11.7571 3.61986 11.7681 3.57969 11.789C3.53952 11.81 3.50501 11.8403 3.4791 11.8775L1.43951 14.8025C1.41011 14.8447 1.39283 14.8941 1.38955 14.9454C1.38627 14.9967 1.39711 15.0479 1.42089 15.0935C1.44468 15.139 1.48049 15.1772 1.52445 15.2039C1.56841 15.2305 1.61883 15.2446 1.67024 15.2446H2.77256C3.02236 15.9129 3.4294 16.5113 3.95927 16.9891C4.48914 17.4669 5.12627 17.8101 5.81678 17.9896C5.88315 18.0071 5.9536 17.9996 6.01487 17.9687C6.07614 17.9378 6.12399 17.8856 6.14942 17.8218C6.17485 17.7581 6.17609 17.6872 6.15293 17.6226C6.12976 17.5581 6.08378 17.5042 6.02364 17.4711ZM3.23958 14.8766C3.22124 14.8201 3.18548 14.7708 3.13743 14.7359C3.08937 14.701 3.03149 14.6821 2.97207 14.6821H2.20918L3.70976 12.53L5.2104 14.6821H4.15083C4.11255 14.6821 4.07468 14.6899 4.03952 14.7051C4.00437 14.7202 3.97268 14.7424 3.94639 14.7702C3.9201 14.7981 3.89977 14.831 3.88664 14.8669C3.87351 14.9029 3.86786 14.9411 3.87004 14.9793C3.90083 15.5386 4.06027 16.0833 4.33596 16.5709C3.82794 16.1123 3.44977 15.5279 3.23958 14.8766ZM12.0011 2.90429C11.9773 2.94987 11.9665 3.00108 11.9698 3.05238C11.9731 3.10367 11.9904 3.15309 12.0198 3.19525L14.0594 6.12025C14.0853 6.15742 14.1198 6.18777 14.16 6.20874C14.2001 6.2297 14.2448 6.24065 14.2901 6.24065C14.3354 6.24065 14.38 6.2297 14.4202 6.20874C14.4604 6.18777 14.4949 6.15742 14.5208 6.12025L16.5604 3.19525C16.5898 3.15308 16.6071 3.10366 16.6103 3.05236C16.6136 3.00107 16.6028 2.94985 16.579 2.90428C16.5552 2.85871 16.5194 2.82053 16.4754 2.79388C16.4315 2.76724 16.3811 2.75316 16.3297 2.75316H15.2274C14.9777 2.08483 14.5706 1.48646 14.0407 1.00866C13.5109 0.530866 12.8737 0.18768 12.1832 0.00812271C12.1168 -0.00930133 12.0464 -0.00185795 11.9851 0.0290512C11.9239 0.0599604 11.876 0.112202 11.8506 0.17594C11.8252 0.239678 11.8239 0.310512 11.8471 0.375106C11.8702 0.4397 11.9162 0.493595 11.9764 0.526642C12.3906 0.752319 12.747 1.07072 13.0178 1.45696C13.2886 1.8432 13.4664 2.28682 13.5373 2.75316H12.2506C12.1992 2.75314 12.1487 2.76721 12.1047 2.79386C12.0607 2.82051 12.0249 2.8587 12.0011 2.90429ZM13.8492 3.31562C13.8875 3.31562 13.9253 3.30781 13.9605 3.29266C13.9956 3.27751 14.0273 3.25534 14.0536 3.22752C14.0799 3.1997 14.1002 3.1668 14.1134 3.13084C14.1265 3.09489 14.1321 3.05663 14.13 3.01841C14.0992 2.4591 13.9397 1.91445 13.664 1.42682C14.1721 1.88549 14.5502 2.46996 14.7604 3.12135C14.7788 3.17786 14.8145 3.22711 14.8626 3.26205C14.9106 3.29698 14.9685 3.3158 15.0279 3.3158H15.7908L14.2902 5.46796L12.7895 3.31566L13.8492 3.31562Z" fill="#212529"/>
</g>
<defs>
<clipPath id="clip0_573_18883">
<rect width="18" height="18" fill="white"/>
</clipPath>
</defs>
</svg>
