<svg width="20" height="18" viewBox="0 0 20 18" fill="none" xmlns="http://www.w3.org/2000/svg">
<path d="M1.72513 12.5839H4.71751C5.28829 12.5839 5.7683 12.1279 5.85887 11.4993L5.9584 10.8091L6.14862 11.6279C6.27943 12.1908 6.73494 12.5839 7.25645 12.5839H10.8278L11.6738 7.14379L10.7574 2.71171C10.6289 2.08982 10.315 1.53297 9.87197 1.13614C9.84657 1.10289 9.81384 1.07658 9.7766 1.05948L7.46519 0H4.25821L1.90668 1.05897C1.88456 1.06906 1.86395 1.08244 1.84548 1.0987L1.84467 1.09772C1.3787 1.49651 1.04904 2.06968 0.916354 2.71171L0.66156 3.94424L1.13868 4.05221L1.39347 2.81989C1.4663 2.46817 1.6101 2.14255 1.80988 1.86787L2.14605 5.3022L1.50378 7.25343L1.9927 10.1687L1.78177 12.0728H1.26119L0.496852 7.1573L0.961437 4.90971L0.484157 4.80174L0 7.14379L0.845921 12.5839H1.72513ZM3.65598 0.827521L4.1431 0.608257L5.18925 4.86512L3.65598 2.45603V0.827521ZM5.79609 5.28291L4.92575 1.74125L5.83519 0.750344L6.74052 1.8025L5.79609 5.28291ZM9.48909 8.35801L9.35522 7.14882L9.41565 6.53085L9.66727 7.29521L9.48909 8.35801ZM10.2803 2.81989L11.1769 7.15725L10.4125 12.0728H9.90025L9.68619 10.1386L10.17 7.2536L9.53405 5.32183L9.8712 1.87801C10.0672 2.15073 10.2085 2.47247 10.2803 2.81989ZM8.86415 7.15227L9.40881 12.0728H7.25645C6.96097 12.0728 6.70048 11.8403 6.62305 11.5071L6.13942 9.42566C5.98366 8.75497 5.91657 8.07183 5.93789 7.39986L8.57233 3.00487V1.06527L9.42187 1.45477L8.86415 7.15227ZM7.5724 0.607064L8.08386 0.841491V2.85763L6.07057 6.21661C6.09456 6.09239 6.1218 5.96888 6.15228 5.84623C6.16448 5.7975 6.17722 5.7489 6.19044 5.70048L7.5724 0.607064ZM7.09097 0.511105L6.89802 1.22184L6.28659 0.511105H7.09097ZM4.78269 1.15944L4.62343 0.511105H5.37777L4.78269 1.15944ZM3.16771 1.04747V2.61072L5.54959 6.35303C5.38301 7.37754 5.41719 8.45154 5.65368 9.497L5.37602 11.4231C5.32182 11.7997 5.04481 12.0728 4.71751 12.0728H2.27333L2.81502 7.18008L2.81803 7.15227L2.26027 1.45609L3.16771 1.04747ZM2.00645 7.29521L2.26442 6.51139L2.32675 7.14899L2.18971 8.38795L2.00645 7.29521ZM20 7.65358L17.5666 6.74296L17.4023 7.22416L19.3625 7.95786L17.08 14.0771V13.1766L18.406 9.72709L17.953 9.53627L17.08 11.8073V2.19H12.1486V3.39586L11.956 12.8195L11.9559 12.825C11.9559 14.4048 12.9968 15.69 14.2761 15.69H16.8066C16.9151 15.69 17.0089 15.6216 17.0531 15.5231L17.0632 15.5273L20 7.65358ZM16.3391 3.65504H16.5917V6.24387C16.4315 5.90713 16.3391 5.4997 16.3391 5.08958V3.65504ZM16.5917 3.14393H13.689V2.70115H16.5917V3.14393ZM12.6369 2.7011H13.2007V3.14397H12.6369V2.7011ZM14.2761 15.1789C13.2666 15.1789 12.4452 14.1244 12.4441 12.8277L12.6317 3.65504H15.8508V5.08954C15.8508 5.8504 16.1084 6.58511 16.5397 7.05495L16.5917 7.11151V15.1789H14.2761Z" fill="#212529"/>
<path d="M18.4004 8.36914L18.8534 8.55995L18.587 9.2528L18.1342 9.06199L18.4004 8.36914ZM12.3998 15.6591C12.3405 15.6242 12.2708 15.6144 12.2049 15.6316C12.1435 15.466 12.0371 15.3229 11.8989 15.2199C11.7606 15.1169 11.5966 15.0587 11.427 15.0523L10.1598 15.0009C9.7499 14.9844 9.36176 14.91 9.00619 14.7799C8.68023 14.6607 8.40269 14.5093 8.16096 14.3194L6.37463 12.8714C6.34169 12.8448 6.30332 12.8265 6.26252 12.8179C6.22171 12.8094 6.17957 12.8108 6.13937 12.822C6.09979 12.8334 6.06317 12.854 6.03228 12.8822L5.79974 12.8149L5.78224 12.8106C5.5928 12.7706 5.40111 12.8126 5.2423 12.928C5.08276 13.0441 4.97799 13.219 4.94719 13.4203C4.89104 13.7877 4.79619 14.0765 4.67937 14.2376C4.47544 14.3191 4.2418 14.3813 3.97476 14.4129C3.06976 14.5205 2.0964 14.1456 1.59687 13.9123C1.52232 13.8774 1.44134 13.8602 1.3597 13.8619C1.27807 13.8636 1.1978 13.8841 1.12463 13.9221C1.05159 13.9596 0.987373 14.0136 0.936575 14.0802C0.885777 14.1468 0.849651 14.2242 0.830776 14.3071C0.560236 15.4908 0.690399 16.3379 0.816616 16.7896H0.770353V18.0005H3.41118V17.4894H1.25862V17.3007H3.39161V17.2998C3.86226 17.3063 4.57875 17.4637 5.31876 17.7244C5.8366 17.9068 6.3835 17.9993 6.94444 17.9993H8.05431C8.43259 17.9993 8.81153 17.9546 9.1807 17.8665C11.5448 17.3022 12.3834 16.7789 12.4179 16.7568L12.5352 16.6823V15.9018C12.5352 15.8013 12.4832 15.7085 12.3998 15.6591ZM5.42923 13.5012C5.43378 13.4704 5.44428 13.4409 5.46007 13.4145C5.47587 13.3881 5.49663 13.3653 5.5211 13.3476C5.56712 13.3138 5.62397 13.3004 5.67938 13.3102L5.77744 13.3388C5.66277 13.5156 5.52562 13.6753 5.36978 13.8135C5.39358 13.7102 5.41341 13.6061 5.42923 13.5012ZM1.34065 14.3803C1.35131 14.3748 1.37275 14.3673 1.39802 14.3791C1.94305 14.6335 3.0095 15.042 4.02994 14.9209C5.38886 14.7593 6.03163 13.9139 6.28703 13.4468L7.86486 14.7259C7.90458 14.757 7.9451 14.7869 7.98612 14.8162L7.70496 15.1985C7.0698 14.9891 6.48905 14.9619 5.97649 15.1185L6.11333 15.6091C6.5701 15.4697 7.1072 15.5137 7.70988 15.7396L7.87723 15.8023L8.41258 15.0742C8.55307 15.1458 8.69747 15.2086 8.84502 15.2624C9.24653 15.4094 9.68235 15.4932 10.1407 15.5118L11.4081 15.5631C11.4901 15.5661 11.569 15.5969 11.6329 15.6506C11.6969 15.7044 11.7425 15.7784 11.763 15.8615C11.3229 16.0725 10.4799 16.4114 9.07153 16.7476C8.73779 16.8272 8.39659 16.8674 8.05431 16.8674H6.94444C6.4366 16.8674 5.94199 16.7839 5.47456 16.6194C5.33545 16.5703 5.19539 16.5243 5.05444 16.4814C5.16158 16.2981 5.3439 16.048 5.62409 15.8497L5.35058 15.4263C4.93189 15.7227 4.68714 16.1104 4.56683 16.3465C4.52532 16.3362 4.48435 16.3262 4.44366 16.3167C4.35146 15.7239 3.8778 15.2531 3.28973 15.2068L2.49027 15.1438C2.04444 15.1087 1.61261 14.9333 1.2596 14.6473C1.27343 14.5751 1.28836 14.5016 1.30566 14.4262C1.31139 14.4001 1.32791 14.387 1.34065 14.3803ZM1.17964 15.2119C1.56204 15.4637 2.00196 15.6178 2.45353 15.6534L3.25319 15.7163C3.5507 15.7397 3.80025 15.9404 3.91072 16.2139C3.70727 16.1837 3.52161 16.1675 3.36175 16.1675H1.1903C1.15865 15.9111 1.14595 15.5912 1.17964 15.2119ZM12.0469 16.3851C11.753 16.5374 10.8761 16.9375 9.07214 17.3681C8.73821 17.4477 8.3968 17.488 8.05431 17.488H6.94444C6.4366 17.488 5.94199 17.4047 5.47456 17.24C4.67156 16.9571 3.88163 16.7882 3.36175 16.7882H1.32889C1.31609 16.7521 1.30432 16.7155 1.29361 16.6786H3.36175C3.83158 16.6786 4.56316 16.8375 5.31876 17.1037C5.8366 17.286 6.3835 17.3786 6.94444 17.3786H8.05431C8.43259 17.3786 8.81133 17.3338 9.18009 17.2458C10.7012 16.8827 11.5904 16.5147 12.0469 16.2873V16.3851Z" fill="#212529"/>
</svg>
