<svg width="18" height="18" viewBox="0 0 18 18" fill="none" xmlns="http://www.w3.org/2000/svg">
<path d="M17.7188 13.0213H16.875V10.7234H17.4375C17.4783 10.7234 17.5187 10.7113 17.5557 10.6879C17.5927 10.6645 17.6256 10.6304 17.652 10.588C17.6784 10.5455 17.6977 10.4958 17.7085 10.4422C17.7194 10.3886 17.7215 10.3325 17.7148 10.2776L17.4336 7.97974C17.4226 7.89032 17.3888 7.80907 17.338 7.75044C17.2872 7.69181 17.2228 7.65962 17.1562 7.65957H16.0312C15.9647 7.65962 15.9003 7.69181 15.8495 7.75044C15.7987 7.80907 15.7649 7.89032 15.7539 7.97974L15.4727 10.2776C15.466 10.3325 15.4681 10.3886 15.479 10.4422C15.4898 10.4958 15.5091 10.5455 15.5355 10.588C15.5619 10.6304 15.5948 10.6645 15.6318 10.6879C15.6688 10.7113 15.7092 10.7234 15.75 10.7234H16.3125V13.0213H15.1875C15.178 13.023 15.1686 13.0256 15.1594 13.0289C15.0273 12.1348 14.451 11.4909 13.7812 11.4894H13.2188V10.3404C13.2188 9.70588 12.841 9.19149 12.375 9.19149H10.125C9.659 9.19149 9.28125 9.70588 9.28125 10.3404V11.4894H8.71875V10.3404C8.71875 9.70588 8.341 9.19149 7.875 9.19149H5.625C5.159 9.19149 4.78125 9.70588 4.78125 10.3404V11.4894H4.21875C3.54895 11.4909 2.97267 12.1348 2.84063 13.0289C2.83138 13.0256 2.82198 13.023 2.8125 13.0213H1.6875V10.7234H2.25C2.29083 10.7234 2.33116 10.7113 2.3682 10.6879C2.40523 10.6645 2.43809 10.6304 2.46448 10.588C2.49086 10.5455 2.51015 10.4958 2.521 10.4422C2.53186 10.3886 2.53401 10.3325 2.52731 10.2776L2.24606 7.97974C2.23514 7.89032 2.20128 7.80907 2.15051 7.75044C2.09973 7.69181 2.03532 7.65962 1.96875 7.65957H0.84375C0.777176 7.65962 0.712772 7.69181 0.661994 7.75044C0.611215 7.80907 0.577356 7.89032 0.566437 7.97974L0.285188 10.2776C0.278492 10.3325 0.280645 10.3886 0.291496 10.4422C0.302347 10.4958 0.321637 10.5455 0.348025 10.588C0.374413 10.6304 0.407267 10.6645 0.444304 10.6879C0.481341 10.7113 0.521674 10.7234 0.5625 10.7234H1.125V13.0213H0.28125C0.206658 13.0213 0.135121 13.0616 0.0823762 13.1334C0.0296316 13.2053 0 13.3027 0 13.4043L0 17.617C0 17.7186 0.0296316 17.816 0.0823762 17.8878C0.135121 17.9597 0.206658 18 0.28125 18H17.7188C17.7933 18 17.8649 17.9597 17.9176 17.8878C17.9704 17.816 18 17.7186 18 17.617V13.4043C18 13.3027 17.9704 13.2053 17.9176 13.1334C17.8649 13.0616 17.7933 13.0213 17.7188 13.0213ZM0.894656 9.95745L1.08197 8.42553H1.73053L1.91784 9.95745H0.894656ZM2.53125 17.234H0.5625V13.7872H2.53125V17.234ZM9.84375 10.3404C9.84375 10.2389 9.87338 10.1414 9.92613 10.0696C9.97887 9.9978 10.0504 9.95745 10.125 9.95745H12.375C12.4496 9.95745 12.5211 9.9978 12.5739 10.0696C12.6266 10.1414 12.6562 10.2389 12.6562 10.3404V11.4894H9.84375V10.3404ZM5.34375 10.3404C5.34375 10.2389 5.37338 10.1414 5.42613 10.0696C5.47887 9.9978 5.55041 9.95745 5.625 9.95745H7.875C7.94959 9.95745 8.02113 9.9978 8.07387 10.0696C8.12662 10.1414 8.15625 10.2389 8.15625 10.3404V11.4894H5.34375V10.3404ZM14.625 17.234H3.375V16.0851H14.625V17.234ZM14.625 15.3191H3.375V13.4043C3.375 12.7697 3.75275 12.2553 4.21875 12.2553H13.7812C14.2472 12.2553 14.625 12.7697 14.625 13.4043V15.3191ZM16.0822 9.95745L16.2695 8.42553H16.918L17.1053 9.95745H16.0822ZM17.4375 17.234H15.4688V13.7872H17.4375V17.234ZM5.625 6.89362H11.8125C11.8871 6.89362 11.9586 6.85327 12.0114 6.78145C12.0641 6.70962 12.0938 6.61221 12.0938 6.51064V0.382979C12.0938 0.281406 12.0641 0.183994 12.0114 0.112172C11.9586 0.0403495 11.8871 0 11.8125 0H5.625C5.55041 0 5.47887 0.0403495 5.42613 0.112172C5.37338 0.183994 5.34375 0.281406 5.34375 0.382979V6.51064C5.34375 6.61221 5.37338 6.70962 5.42613 6.78145C5.47887 6.85327 5.55041 6.89362 5.625 6.89362ZM5.90625 0.765957H11.5312V4.65243L10.9072 3.59043C10.8825 3.54832 10.8516 3.51376 10.8164 3.48901C10.7813 3.46427 10.7427 3.44989 10.7032 3.44681C10.6638 3.44443 10.6244 3.4531 10.5875 3.47226C10.5506 3.49143 10.5169 3.5207 10.4887 3.55826L9.5625 4.82017L7.79259 2.41009C7.7425 2.34196 7.67538 2.30208 7.60463 2.29838C7.53388 2.29469 7.46472 2.32747 7.41094 2.39017L5.90625 4.14651V0.765957ZM5.90625 5.15451L7.57884 3.20132L9.36366 5.63132C9.4164 5.70312 9.48792 5.74345 9.5625 5.74345C9.63708 5.74345 9.7086 5.70312 9.76134 5.63132L10.6642 4.40196L11.5312 5.87949V6.12766H5.90625V5.15451Z" fill="#212529"/>
</svg>
