<svg width="20" height="20" viewBox="0 0 20 20" fill="none" xmlns="http://www.w3.org/2000/svg">
<path d="M17.5277 19.9956H2.46485C2.29167 19.9956 2.15234 19.839 2.15234 19.6444V8.87273C2.15234 8.67808 2.29167 8.52148 2.46485 8.52148C2.63803 8.52148 2.77736 8.67808 2.77736 8.87273V19.2931H17.2152V8.87273C17.2152 8.67808 17.3546 8.52148 17.5277 8.52148C17.7009 8.52148 17.8402 8.67808 17.8402 8.87273V19.6444C17.8402 19.8376 17.6996 19.9956 17.5277 19.9956Z" fill="#212529"/>
<path d="M19.0337 10.3556C18.8189 10.3556 18.6118 10.2751 18.4399 10.1229L9.99962 2.66034L1.5593 10.1244C1.14132 10.4932 0.534533 10.4127 0.2064 9.9429C0.0475418 9.71605 -0.0240746 9.43213 0.00717617 9.14528C0.0371248 8.85842 0.166034 8.60084 0.367862 8.42229L9.8069 0.075738C9.92019 -0.025246 10.0803 -0.025246 10.1936 0.075738L19.6327 8.42229C20.0507 8.7911 20.1223 9.47311 19.7941 9.9429C19.6353 10.1698 19.4061 10.3146 19.1509 10.3483C19.1118 10.3527 19.0728 10.3556 19.0337 10.3556ZM9.99962 1.86272C10.0673 1.86272 10.1363 1.8876 10.1923 1.93736L18.8267 9.57117C18.8983 9.6341 18.9868 9.6619 19.0767 9.6502C19.1665 9.63849 19.2472 9.58726 19.3032 9.50823C19.4191 9.34285 19.3931 9.10283 19.2459 8.97404L9.99962 0.797262L0.753289 8.97404C0.681673 9.03697 0.637401 9.12771 0.626984 9.2287C0.616567 9.32968 0.641307 9.4292 0.697298 9.5097C0.813186 9.67508 1.02543 9.70288 1.17257 9.57409L9.8069 1.94028C9.8629 1.8876 9.93191 1.86272 9.99962 1.86272Z" fill="#212529"/>
<path d="M15.9183 5.9349C15.7451 5.9349 15.6058 5.77831 15.6058 5.58366V1.54429H14.0562V3.65764C14.0562 3.85229 13.9169 4.00889 13.7437 4.00889C13.5706 4.00889 13.4312 3.85229 13.4312 3.65764V1.19305C13.4312 0.998395 13.5706 0.841797 13.7437 0.841797H15.9183C16.0914 0.841797 16.2308 0.998395 16.2308 1.19305V5.58219C16.2308 5.77684 16.0914 5.9349 15.9183 5.9349ZM8.99752 19.9995H4.4922C4.31901 19.9995 4.17969 19.8429 4.17969 19.6482V11.4744C4.17969 11.2797 4.31901 11.1231 4.4922 11.1231H8.99752C9.1707 11.1231 9.31003 11.2797 9.31003 11.4744V19.6482C9.31003 19.8429 9.1707 19.9995 8.99752 19.9995ZM4.8047 19.297H8.68501V11.8256H4.8047V19.297ZM15.5081 16.626H11.2372C11.064 16.626 10.9247 16.4694 10.9247 16.2748V11.4744C10.9247 11.2797 11.064 11.1231 11.2372 11.1231H15.5081C15.6813 11.1231 15.8206 11.2797 15.8206 11.4744V16.2748C15.8206 16.4694 15.6813 16.626 15.5081 16.626ZM11.5497 15.9235H15.1956V11.8256H11.5497V15.9235Z" fill="#212529"/>
<path d="M13.3711 16.6259C13.1979 16.6259 13.0586 16.4693 13.0586 16.2747V11.4743C13.0586 11.2796 13.1979 11.123 13.3711 11.123C13.5443 11.123 13.6836 11.2796 13.6836 11.4743V16.2747C13.6836 16.4693 13.5443 16.6259 13.3711 16.6259Z" fill="#212529"/>
<path d="M15.5093 14.2274H11.2384C11.0652 14.2274 10.9258 14.0708 10.9258 13.8762C10.9258 13.6815 11.0652 13.5249 11.2384 13.5249H15.5093C15.6825 13.5249 15.8218 13.6815 15.8218 13.8762C15.8218 14.0708 15.6825 14.2274 15.5093 14.2274ZM10.0013 9.26605C9.04689 9.26605 8.26953 8.39232 8.26953 7.31955C8.26953 6.24678 9.04689 5.37305 10.0013 5.37305C10.9558 5.37305 11.7332 6.24678 11.7332 7.31955C11.7332 8.39232 10.9558 9.26605 10.0013 9.26605ZM10.0013 6.07554C9.39065 6.07554 8.89455 6.63315 8.89455 7.31955C8.89455 8.00595 9.39065 8.56356 10.0013 8.56356C10.612 8.56356 11.1081 8.00595 11.1081 7.31955C11.1081 6.63315 10.612 6.07554 10.0013 6.07554Z" fill="#212529"/>
</svg>
