<svg width="18" height="19" viewBox="0 0 18 19" fill="none" xmlns="http://www.w3.org/2000/svg">
<path d="M9.28616 4.29683C8.69672 4.29683 8.09826 4.27223 7.51002 4.22363C7.47067 4.22038 7.43236 4.20942 7.39726 4.19137C7.36217 4.17333 7.33098 4.14855 7.30548 4.11846C7.27998 4.08837 7.26066 4.05356 7.24864 4.01601C7.23662 3.97847 7.23213 3.93892 7.23542 3.89964C7.24864 3.73465 7.41147 3.61525 7.55929 3.62545C10.1204 3.83805 12.6989 3.57564 15.1644 2.85148C15.2024 2.83964 15.2424 2.83548 15.2821 2.83923C15.3217 2.84297 15.3603 2.85456 15.3954 2.87331C15.4305 2.89206 15.4616 2.9176 15.4867 2.94845C15.5119 2.97929 15.5306 3.01482 15.5419 3.05297C15.5532 3.09113 15.5568 3.13114 15.5524 3.17067C15.5481 3.21021 15.5359 3.24849 15.5166 3.28329C15.4972 3.31808 15.4712 3.34869 15.4399 3.37334C15.4087 3.39799 15.3728 3.41618 15.3344 3.42686C13.3703 4.00397 11.3335 4.29694 9.28616 4.29683ZM15.2497 14.6165C15.2208 14.6167 15.192 14.6124 15.1644 14.6039C12.6988 13.8798 10.1205 13.6172 7.55929 13.8293C7.4805 13.8333 7.40314 13.8072 7.34297 13.7563C7.2828 13.7053 7.24434 13.6334 7.23542 13.5551C7.23213 13.5159 7.23662 13.4763 7.24864 13.4388C7.26066 13.4012 7.27998 13.3664 7.30548 13.3363C7.33098 13.3062 7.36217 13.2814 7.39726 13.2634C7.43236 13.2454 7.47067 13.2344 7.51002 13.2311C10.1418 13.0139 12.8024 13.2845 15.3344 14.0285C15.4039 14.0487 15.4637 14.0933 15.5029 14.1541C15.5421 14.2149 15.558 14.2877 15.5477 14.3592C15.5374 14.4308 15.5016 14.4962 15.4468 14.5434C15.3921 14.5907 15.3221 14.6166 15.2497 14.6165Z" fill="#212529"/>
<path d="M9.68023 17.1823C9.61602 17.1823 9.55349 17.1618 9.50181 17.1237C9.45013 17.0857 9.41203 17.0321 9.39308 16.9708C9.37413 16.9096 9.37533 16.8439 9.39652 16.7833C9.4177 16.7228 9.45775 16.6706 9.51078 16.6345C12.1516 14.8358 13.7276 11.8791 13.7276 8.72496C13.7276 5.57086 12.1516 2.61416 9.51078 0.815417C9.44497 0.770544 9.3997 0.701402 9.38494 0.623202C9.37018 0.545002 9.38713 0.464149 9.43207 0.398431C9.47701 0.332712 9.54625 0.287511 9.62457 0.272771C9.70288 0.258032 9.78385 0.27496 9.84967 0.319833C12.6539 2.23077 14.3279 5.37287 14.3279 8.72496C14.3279 12.0771 12.6539 15.2191 9.84967 17.1301C9.79969 17.164 9.74066 17.1822 9.68023 17.1823Z" fill="#212529"/>
<path d="M9.3116 17.0933C9.23192 17.0933 9.1555 17.0617 9.09916 17.0054C9.04282 16.9492 9.01117 16.8728 9.01117 16.7933V0.657412C9.01117 0.57785 9.04282 0.501546 9.09916 0.445287C9.1555 0.389028 9.23192 0.357422 9.3116 0.357422C9.39128 0.357422 9.46769 0.389028 9.52404 0.445287C9.58038 0.501546 9.61203 0.57785 9.61203 0.657412V16.7933C9.61203 16.8728 9.58038 16.9492 9.52404 17.0054C9.46769 17.0617 9.39128 17.0933 9.3116 17.0933Z" fill="#212529"/>
<path d="M17.6662 8.99842H7.51527C7.4356 8.99842 7.35918 8.96681 7.30284 8.91055C7.2465 8.85429 7.21484 8.77799 7.21484 8.69843C7.21484 8.61887 7.2465 8.54256 7.30284 8.4863C7.35918 8.43004 7.4356 8.39844 7.51527 8.39844H17.6668C17.7063 8.39848 17.7453 8.40628 17.7818 8.42139C17.8182 8.4365 17.8513 8.45863 17.8792 8.48651C17.907 8.5144 17.9291 8.54749 17.9442 8.5839C17.9593 8.62032 17.967 8.65933 17.967 8.69873C17.9669 8.73812 17.9591 8.77712 17.944 8.81351C17.9288 8.84989 17.9067 8.88294 17.8787 8.91076C17.8508 8.93859 17.8177 8.96066 17.7812 8.9757C17.7448 8.99074 17.7057 8.99846 17.6662 8.99842Z" fill="#212529"/>
<path d="M9.28811 17.4252C8.4409 17.4252 7.6027 17.304 6.79754 17.0646C6.7235 17.0401 6.66194 16.9877 6.62589 16.9186C6.58983 16.8495 6.58212 16.7691 6.60436 16.6944C6.62661 16.6198 6.67708 16.5567 6.7451 16.5185C6.81311 16.4803 6.89333 16.47 6.96879 16.4899C7.71806 16.7125 8.49858 16.8253 9.28751 16.8253C13.7603 16.8253 17.3991 13.1918 17.3991 8.72552C17.3991 4.25926 13.7603 0.62578 9.28751 0.62578C8.70347 0.62578 8.12184 0.688178 7.55763 0.810574C7.51905 0.818965 7.47918 0.819685 7.44032 0.812693C7.40146 0.805702 7.36435 0.791134 7.33113 0.769824C7.2979 0.748514 7.2692 0.720877 7.24667 0.688493C7.22414 0.656108 7.20822 0.61961 7.19982 0.581081C7.19142 0.542553 7.19069 0.502748 7.1977 0.463941C7.2047 0.425135 7.21929 0.388085 7.24063 0.354907C7.26197 0.32173 7.28965 0.293075 7.32208 0.270578C7.35451 0.248082 7.39106 0.232184 7.42965 0.223793C8.04011 0.0919474 8.66293 0.0255733 9.28751 0.0257991C14.0914 0.0257991 18 3.92867 18 8.72552C18 13.5224 14.092 17.4252 9.28811 17.4252ZM5.10732 17.9994C5.02764 17.9994 4.95123 17.9678 4.89488 17.9115C4.83854 17.8553 4.80689 17.779 4.80689 17.6994V10.4997H5.40775C5.40775 10.5792 5.4394 10.6555 5.49574 10.7118C5.55209 10.768 5.6285 10.7996 5.70818 10.7996C5.78786 10.7996 5.86428 10.768 5.92062 10.7118C5.97696 10.6555 6.00861 10.5792 6.00861 10.4997V6.2998C6.00861 5.62482 5.45402 4.79984 4.80689 4.79984H1.80258C1.15546 4.79984 0.600861 5.62482 0.600861 6.2998V10.4997C0.600861 10.5792 0.632514 10.6555 0.688855 10.7118C0.745197 10.768 0.821613 10.7996 0.901292 10.7996C0.980971 10.7996 1.05739 10.768 1.11373 10.7118C1.17007 10.6555 1.20172 10.5792 1.20172 10.4997H1.80258V17.6994C1.80258 17.779 1.77093 17.8553 1.71459 17.9115C1.65825 17.9678 1.58183 17.9994 1.50215 17.9994C1.42247 17.9994 1.34606 17.9678 1.28972 17.9115C1.23337 17.8553 1.20172 17.779 1.20172 17.6994V11.3486C1.06574 11.3963 0.920291 11.4109 0.777545 11.3909C0.634799 11.371 0.498908 11.3172 0.381245 11.2341C0.263581 11.151 0.167568 11.0409 0.101239 10.9131C0.0349104 10.7854 0.000195635 10.6436 0 10.4997V6.2998C0 5.32843 0.787729 4.19986 1.80258 4.19986H4.80689C5.82174 4.19986 6.60947 5.32843 6.60947 6.2998V10.4997C6.60928 10.6436 6.57456 10.7854 6.50823 10.9131C6.44191 11.0409 6.34589 11.151 6.22823 11.2341C6.11057 11.3172 5.97467 11.371 5.83193 11.3909C5.68918 11.4109 5.54373 11.3963 5.40775 11.3486V17.6994C5.40775 17.779 5.3761 17.8553 5.31976 17.9115C5.26342 17.9678 5.187 17.9994 5.10732 17.9994ZM3.30474 3.59988C2.31091 3.59988 1.50215 2.79231 1.50215 1.79994C1.50215 0.807574 2.31091 0 3.30474 0C4.29856 0 5.10732 0.807574 5.10732 1.79994C5.10732 2.79231 4.29856 3.59988 3.30474 3.59988ZM3.30474 0.59998C2.64139 0.59998 2.10301 1.13816 2.10301 1.79994C2.10301 2.46172 2.64139 2.9999 3.30474 2.9999C3.96809 2.9999 4.50646 2.46172 4.50646 1.79994C4.50646 1.13816 3.96809 0.59998 3.30474 0.59998Z" fill="#212529"/>
<path d="M1.50356 17.9997C1.42388 17.9997 1.34746 17.9681 1.29112 17.9118C1.23478 17.8556 1.20312 17.7793 1.20312 17.6997V9.29999C1.20312 9.22043 1.23478 9.14412 1.29112 9.08786C1.34746 9.03161 1.42388 9 1.50356 9C1.58323 9 1.65965 9.03161 1.71599 9.08786C1.77233 9.14412 1.80399 9.22043 1.80399 9.29999V17.6997C1.80399 17.7793 1.77233 17.8556 1.71599 17.9118C1.65965 17.9681 1.58323 17.9997 1.50356 17.9997ZM5.10872 17.9997C5.02904 17.9997 4.95263 17.9681 4.89629 17.9118C4.83994 17.8556 4.80829 17.7793 4.80829 17.6997V9.29999C4.80829 9.22043 4.83994 9.14412 4.89629 9.08786C4.95263 9.03161 5.02904 9 5.10872 9C5.1884 9 5.26482 9.03161 5.32116 9.08786C5.3775 9.14412 5.40915 9.22043 5.40915 9.29999V17.6997C5.40915 17.7793 5.3775 17.8556 5.32116 17.9118C5.26482 17.9681 5.1884 17.9997 5.10872 17.9997Z" fill="#212529"/>
<path d="M5.10872 10.8014C5.02904 10.8014 4.95263 10.7698 4.89629 10.7136C4.83994 10.6573 4.80829 10.581 4.80829 10.5014V6.90155C4.80829 6.82199 4.83994 6.74569 4.89629 6.68943C4.95263 6.63317 5.02904 6.60156 5.10872 6.60156C5.1884 6.60156 5.26482 6.63317 5.32116 6.68943C5.3775 6.74569 5.40915 6.82199 5.40915 6.90155V10.5014C5.40915 10.581 5.3775 10.6573 5.32116 10.7136C5.26482 10.7698 5.1884 10.8014 5.10872 10.8014ZM1.50356 10.8014C1.42388 10.8014 1.34746 10.7698 1.29112 10.7136C1.23478 10.6573 1.20312 10.581 1.20312 10.5014V6.90155C1.20312 6.82199 1.23478 6.74569 1.29112 6.68943C1.34746 6.63317 1.42388 6.60156 1.50356 6.60156C1.58323 6.60156 1.65965 6.63317 1.71599 6.68943C1.77233 6.74569 1.80399 6.82199 1.80399 6.90155V10.5014C1.80399 10.581 1.77233 10.6573 1.71599 10.7136C1.65965 10.7698 1.58323 10.8014 1.50356 10.8014ZM3.30614 18.0012C3.22646 18.0012 3.15004 17.9696 3.0937 17.9133C3.03736 17.8571 3.00571 17.7808 3.00571 17.7012V11.7014C3.00571 11.6218 3.03736 11.5455 3.0937 11.4893C3.15004 11.433 3.22646 11.4014 3.30614 11.4014C3.38582 11.4014 3.46223 11.433 3.51858 11.4893C3.57492 11.5455 3.60657 11.6218 3.60657 11.7014V17.7012C3.60657 17.7808 3.57492 17.8571 3.51858 17.9133C3.46223 17.9696 3.38582 18.0012 3.30614 18.0012Z" fill="#212529"/>
</svg>
