<svg width="20" height="20" viewBox="0 0 20 20" fill="none" xmlns="http://www.w3.org/2000/svg">
<path d="M19.6875 14.4681H18.75V11.9149H19.375C19.4204 11.9149 19.4652 11.9014 19.5063 11.8754C19.5475 11.8494 19.584 11.8115 19.6133 11.7644C19.6426 11.7173 19.6641 11.662 19.6761 11.6025C19.6882 11.5429 19.6906 11.4805 19.6831 11.4196L19.3706 8.86638C19.3585 8.76702 19.3209 8.67674 19.2645 8.6116C19.208 8.54646 19.1365 8.51068 19.0625 8.51064H17.8125C17.7385 8.51068 17.667 8.54646 17.6105 8.6116C17.5541 8.67674 17.5165 8.76702 17.5044 8.86638L17.1919 11.4196C17.1844 11.4805 17.1868 11.5429 17.1989 11.6025C17.2109 11.662 17.2324 11.7173 17.2617 11.7644C17.291 11.8115 17.3275 11.8494 17.3687 11.8754C17.4098 11.9014 17.4546 11.9149 17.5 11.9149H18.125V14.4681H16.875C16.8645 14.4701 16.854 14.4729 16.8438 14.4766C16.697 13.4831 16.0567 12.7677 15.3125 12.766H14.6875V11.4894C14.6875 10.7843 14.2678 10.2128 13.75 10.2128H11.25C10.7322 10.2128 10.3125 10.7843 10.3125 11.4894V12.766H9.6875V11.4894C9.6875 10.7843 9.26777 10.2128 8.75 10.2128H6.25C5.73223 10.2128 5.3125 10.7843 5.3125 11.4894V12.766H4.6875C3.94328 12.7677 3.30297 13.4831 3.15625 14.4766C3.14597 14.4729 3.13554 14.47 3.125 14.4681H1.875V11.9149H2.5C2.54536 11.9149 2.59018 11.9014 2.63133 11.8754C2.67248 11.8494 2.70899 11.8115 2.73831 11.7644C2.76763 11.7173 2.78906 11.662 2.80112 11.6025C2.81317 11.5429 2.81556 11.4805 2.80813 11.4196L2.49563 8.86638C2.48349 8.76702 2.44587 8.67674 2.38945 8.6116C2.33303 8.54646 2.26147 8.51068 2.1875 8.51064H0.9375C0.863529 8.51068 0.791969 8.54646 0.735549 8.6116C0.679128 8.67674 0.641506 8.76702 0.629375 8.86638L0.316875 11.4196C0.309436 11.4805 0.311827 11.5429 0.323884 11.6025C0.335941 11.662 0.357374 11.7173 0.386694 11.7644C0.416015 11.8115 0.452519 11.8494 0.493671 11.8754C0.534824 11.9014 0.579638 11.9149 0.625 11.9149H1.25V14.4681H0.3125C0.22962 14.4681 0.150134 14.5129 0.0915291 14.5927C0.032924 14.6725 0 14.7808 0 14.8936L0 19.5745C0 19.6873 0.032924 19.7956 0.0915291 19.8754C0.150134 19.9552 0.22962 20 0.3125 20H19.6875C19.7704 20 19.8499 19.9552 19.9085 19.8754C19.9671 19.7956 20 19.6873 20 19.5745V14.8936C20 14.7808 19.9671 14.6725 19.9085 14.5927C19.8499 14.5129 19.7704 14.4681 19.6875 14.4681ZM0.994062 11.0638L1.20219 9.3617H1.92281L2.13094 11.0638H0.994062ZM2.8125 19.1489H0.625V15.3191H2.8125V19.1489ZM10.9375 11.4894C10.9375 11.3765 10.9704 11.2683 11.029 11.1885C11.0876 11.1087 11.1671 11.0638 11.25 11.0638H13.75C13.8329 11.0638 13.9124 11.1087 13.971 11.1885C14.0296 11.2683 14.0625 11.3765 14.0625 11.4894V12.766H10.9375V11.4894ZM5.9375 11.4894C5.9375 11.3765 5.97042 11.2683 6.02903 11.1885C6.08763 11.1087 6.16712 11.0638 6.25 11.0638H8.75C8.83288 11.0638 8.91237 11.1087 8.97097 11.1885C9.02958 11.2683 9.0625 11.3765 9.0625 11.4894V12.766H5.9375V11.4894ZM16.25 19.1489H3.75V17.8723H16.25V19.1489ZM16.25 17.0213H3.75V14.8936C3.75 14.1886 4.16973 13.617 4.6875 13.617H15.3125C15.8303 13.617 16.25 14.1886 16.25 14.8936V17.0213ZM17.8691 11.0638L18.0772 9.3617H18.7978L19.0059 11.0638H17.8691ZM19.375 19.1489H17.1875V15.3191H19.375V19.1489ZM6.25 7.65957H13.125C13.2079 7.65957 13.2874 7.61474 13.346 7.53494C13.4046 7.45514 13.4375 7.3469 13.4375 7.23404V0.425532C13.4375 0.312674 13.4046 0.204438 13.346 0.124635C13.2874 0.0448328 13.2079 0 13.125 0H6.25C6.16712 0 6.08763 0.0448328 6.02903 0.124635C5.97042 0.204438 5.9375 0.312674 5.9375 0.425532V7.23404C5.9375 7.3469 5.97042 7.45514 6.02903 7.53494C6.08763 7.61474 6.16712 7.65957 6.25 7.65957ZM6.5625 0.851064H12.8125V5.16936L12.1191 3.98936C12.0917 3.94257 12.0573 3.90418 12.0183 3.87668C11.9792 3.84919 11.9364 3.83321 11.8925 3.82979C11.8487 3.82715 11.8049 3.83677 11.7639 3.85807C11.7229 3.87937 11.6855 3.91189 11.6541 3.95362L10.625 5.35574L8.65844 2.67787C8.60277 2.60218 8.5282 2.55786 8.44959 2.55376C8.37098 2.54966 8.29413 2.58608 8.23438 2.65574L6.5625 4.60723V0.851064ZM6.5625 5.72723L8.42094 3.55702L10.4041 6.25702C10.4627 6.3368 10.5421 6.38161 10.625 6.38161C10.7079 6.38161 10.7873 6.3368 10.8459 6.25702L11.8491 4.89106L12.8125 6.53277V6.80851H6.5625V5.72723Z" fill="#212529"/>
</svg>
