<svg width="20" height="18" viewBox="0 0 20 18" fill="none" xmlns="http://www.w3.org/2000/svg">
<path d="M14.6534 0C13.3344 0 12.0676 0.499113 11.0862 1.40554C11.0669 1.42323 11.0392 1.42323 11.0199 1.40554C10.0385 0.499113 8.7717 0 7.45286 0C4.50452 0 2.10615 2.4715 2.10615 5.50943C2.10615 6.20681 2.34404 7.00068 2.81248 7.8736C2.17556 8.00413 1.58247 8.30989 1.10427 8.76281C0.039496 9.77086 -0.294061 11.3589 0.274029 12.7145L0.534616 13.3365C1.04536 14.5551 1.69462 15.6834 2.46459 16.6898C2.51452 16.7552 2.56497 16.8202 2.61596 16.8847L2.83826 17.1665C3.25604 17.6962 3.88124 18 4.55323 18C5.11581 18 5.66437 17.777 6.06965 17.386C6.47492 17.7772 7.02348 18 7.58606 18C8.25806 18 8.88306 17.6962 9.30099 17.1665L9.52334 16.8847C9.5743 16.8202 9.62476 16.7552 9.67471 16.6898C9.92569 16.3614 10.1625 16.0223 10.3846 15.6735C10.5928 15.7756 10.8214 15.8286 11.053 15.8286C11.3832 15.8286 11.7136 15.7211 11.9893 15.5058C13.0176 14.703 15.0007 13.0826 16.7281 11.2495C18.8991 8.94586 19.9999 7.01463 19.9999 5.50943C20.0001 2.4715 17.6016 0 14.6534 0ZM9.05568 16.2101C9.00809 16.2723 8.96001 16.3342 8.91146 16.3957L8.68912 16.6775C8.4204 17.0182 8.01837 17.2137 7.58606 17.2137C7.20903 17.2137 6.84161 17.058 6.57824 16.7863C6.51223 16.7178 6.43319 16.6635 6.34583 16.6264C6.25847 16.5894 6.16459 16.5705 6.0698 16.5708H6.06965C5.97484 16.5705 5.88094 16.5894 5.79356 16.6265C5.70618 16.6635 5.6271 16.7178 5.56105 16.7863C5.29769 17.058 4.93027 17.2137 4.55323 17.2137C4.12108 17.2137 3.71901 17.0182 3.45014 16.6775L3.22783 16.3957C3.17926 16.3343 3.13124 16.2724 3.08377 16.2101C2.35455 15.2571 1.73915 14.1874 1.25454 13.0308L0.993916 12.4089C0.552038 11.3546 0.811571 10.1197 1.63954 9.33564C2.63029 8.39756 4.12675 8.32923 5.19777 9.1733L5.67902 9.5525V9.85118C5.67902 11.3702 6.90688 12.606 8.41615 12.606H8.93955C9.15529 12.606 9.33018 12.4299 9.33018 12.2128V11.686C9.33018 10.374 8.41372 9.27376 7.19133 8.99823C8.23611 8.3452 9.58377 8.46853 10.4998 9.33564C11.3277 10.1197 11.5873 11.3546 11.1453 12.4089L10.8847 13.0308C10.4001 14.1873 9.78475 15.2569 9.05568 16.2101ZM6.46043 9.71759H6.59301C7.67153 9.71759 8.54888 10.6005 8.54888 11.686V11.8196H8.41615C7.33782 11.8196 6.46043 10.9365 6.46043 9.85107V9.71759ZM16.1614 10.7083C14.4695 12.5036 12.5212 14.0953 11.5105 14.8844C11.4101 14.9628 11.2914 15.0141 11.1657 15.0333C11.0401 15.0525 10.9116 15.0391 10.7926 14.9942C11.0955 14.4582 11.3667 13.9047 11.6047 13.3365L11.8653 12.7145C12.4334 11.3589 12.0998 9.77086 11.0352 8.76281C10.4231 8.18361 9.62528 7.84399 8.78603 7.80539C7.94672 7.7675 7.12163 8.03302 6.45985 8.55396L6.40672 8.59587C6.30461 8.09137 6.05836 7.62753 5.68836 7.25513L5.27207 6.83618C5.11949 6.68277 4.87226 6.68277 4.71952 6.83618C4.5671 6.98975 4.5671 7.23869 4.71952 7.39226L5.13581 7.81125C5.31951 7.99583 5.46262 8.2172 5.55586 8.46102C5.00383 8.06431 4.34962 7.83668 3.67202 7.80555C3.15182 6.92417 2.8874 6.15201 2.8874 5.50943C2.8874 2.90508 4.93546 0.786315 7.45286 0.786315C8.57544 0.786315 9.65471 1.21203 10.4917 1.98497C10.8116 2.28047 11.2944 2.28063 11.6144 1.98497C12.4514 1.21203 13.5306 0.786315 14.6534 0.786315C17.1706 0.786315 19.2187 2.90504 19.2187 5.50943C19.2187 6.78825 18.1616 8.58604 16.1614 10.7083V10.7083Z" fill="#212529"/>
<path d="M17.4901 5.5203H14.9911C14.9119 5.52029 14.8346 5.54453 14.7694 5.58979C14.7041 5.63505 14.6541 5.6992 14.626 5.77373L13.741 8.11498L12.3016 3.41985C12.2782 3.34367 12.2324 3.27644 12.1702 3.22707C12.1079 3.1777 12.0323 3.14852 11.9532 3.14339C11.8742 3.13828 11.7954 3.15749 11.7275 3.19847C11.6595 3.23945 11.6055 3.30026 11.5727 3.37283L10.6007 5.5203H8.20064C7.98501 5.5203 7.81001 5.69643 7.81001 5.91346C7.81001 6.13064 7.98501 6.30677 8.20064 6.30677H10.852C11.0051 6.30677 11.1441 6.21678 11.2075 6.07658L11.8579 4.63986L13.3291 9.43882C13.3531 9.51706 13.4008 9.58583 13.4654 9.63552C13.5301 9.68521 13.6085 9.71336 13.6898 9.71603C13.6941 9.71603 13.6984 9.71619 13.7025 9.71619C13.8643 9.71619 14.0099 9.61558 14.0677 9.4628L15.2604 6.30677H17.4901C17.7058 6.30677 17.8807 6.13064 17.8807 5.91361C17.8807 5.69647 17.7058 5.5203 17.4901 5.5203ZM6.39078 5.5203C6.28766 5.5203 6.18723 5.56237 6.11461 5.63549C6.04141 5.70926 6.0002 5.8092 6 5.91346C6 6.01697 6.04152 6.11833 6.11461 6.19142C6.18801 6.26494 6.28723 6.30638 6.39078 6.30677C6.49348 6.30677 6.5943 6.2647 6.66696 6.19146C6.73996 6.11757 6.78108 6.01769 6.78141 5.91349C6.78141 5.81009 6.73961 5.70858 6.66696 5.63549C6.5943 5.5624 6.49348 5.5203 6.39078 5.5203Z" fill="#212529"/>
</svg>
