<svg width="20" height="20" viewBox="0 0 20 20" fill="none" xmlns="http://www.w3.org/2000/svg">
<path d="M18.5616 11.7239C18.5273 11.6896 18.4859 11.6632 18.4404 11.6464C18.3949 11.6297 18.3463 11.623 18.2979 11.6269C18.2495 11.6307 18.2026 11.6451 18.1603 11.6688C18.118 11.6926 18.0814 11.7253 18.053 11.7646L17.8618 12.0293L16.8622 11.0299C17.0465 10.9687 17.2139 10.8653 17.3511 10.7279C17.4883 10.5906 17.5915 10.4231 17.6525 10.2388C17.7136 10.0546 17.7307 9.85858 17.7025 9.66652C17.6744 9.47445 17.6018 9.29162 17.4905 9.13258L16.553 7.79367C15.8815 6.8347 14.8862 6.15034 13.7503 5.86643L13.6296 5.83628C13.6056 5.27803 13.4595 4.73182 13.2016 4.23609C12.9437 3.74037 12.5802 3.30717 12.1368 2.967C11.6934 2.62683 11.1808 2.38794 10.635 2.26715C10.0893 2.14636 9.52374 2.1466 8.97812 2.26786L8.53168 2.36705L6.16394 0L5.69006 0.473729L7.80466 2.58767C7.64614 2.68992 7.52188 2.83728 7.4479 3.01077C7.37392 3.18425 7.35361 3.37592 7.38959 3.56105C7.46741 3.9457 7.67574 4.29168 7.97934 4.54048C8.28293 4.78927 8.66317 4.9256 9.05573 4.92642H10.1443L11.0514 5.83322C11.0944 5.87607 11.1482 5.90646 11.2071 5.92115L13.5876 6.51635C14.5669 6.76111 15.4249 7.3511 16.0038 8.17783L16.9414 9.51678C17.0149 9.62179 17.0514 9.74832 17.0449 9.87635C17.0384 10.0044 16.9894 10.1266 16.9057 10.2237C16.8219 10.3207 16.7082 10.3871 16.5824 10.4123C16.4567 10.4374 16.3261 10.4199 16.2114 10.3626L15.1048 9.80946C14.9481 9.73113 14.7743 9.69319 14.5991 9.69909C14.424 9.70498 14.2531 9.75452 14.102 9.84321C13.9509 9.93189 13.8243 10.0569 13.7338 10.2069C13.6433 10.3569 13.5917 10.5272 13.5838 10.7022L13.3434 15.989C13.3345 16.1694 13.2556 16.3392 13.1234 16.4622C12.9911 16.5852 12.8161 16.6518 12.6355 16.6477C12.4549 16.6436 12.2831 16.5691 12.1566 16.4402C12.0301 16.3113 11.9589 16.1381 11.9583 15.9576V15.5391C11.9573 15.3032 11.8759 15.0747 11.7275 14.8912C11.5792 14.7078 11.3727 14.5804 11.1421 14.53L8.37164 13.9365C8.05964 13.8683 7.78022 13.6958 7.57946 13.4475C7.37869 13.1992 7.26858 12.89 7.26729 12.5707V9.42571L8.07146 8.64273C8.20658 8.51202 8.30383 8.34721 8.3529 8.16576C8.40198 7.98431 8.40106 7.79297 8.35023 7.612C8.29941 7.43103 8.20058 7.26717 8.0642 7.13777C7.92782 7.00837 7.75898 6.91824 7.57555 6.87694C7.59327 6.79983 7.60224 6.72096 7.60227 6.64183C7.60226 6.36456 7.49208 6.09865 7.29595 5.90258C7.09983 5.70652 6.83383 5.59637 6.55647 5.59636C6.50131 5.5964 6.44623 5.60075 6.39174 5.60938C6.34813 5.4179 6.25107 5.24273 6.11183 5.10421C5.91686 4.91075 5.6538 4.8014 5.3791 4.79963C5.1044 4.79786 4.83995 4.90381 4.6425 5.09474L4.01106 5.70979L0.461561 2.33879L0 2.82449L1.98471 4.70936L1.13677 5.14164C0.891476 5.26864 0.706399 5.48749 0.621946 5.75042C0.537492 6.01336 0.560521 6.29901 0.686005 6.54503C0.811489 6.79105 1.02924 6.97745 1.29171 7.06354C1.55419 7.14962 1.84007 7.12841 2.08695 7.00452L3.41396 6.32818C3.31749 6.47744 3.26066 6.64882 3.24886 6.82613C3.23705 7.00345 3.27066 7.18085 3.3465 7.34157C3.42233 7.50229 3.5379 7.64104 3.68229 7.7447C3.82667 7.84836 3.99511 7.91352 4.17168 7.93402C4.17097 7.94989 4.17055 7.9658 4.17055 7.98179C4.1705 8.11908 4.19753 8.25504 4.25007 8.38188C4.30262 8.50872 4.37966 8.62396 4.47679 8.72102C4.57393 8.81807 4.68924 8.89504 4.81615 8.94751C4.94306 8.99998 5.07906 9.02693 5.2164 9.02681C5.23231 9.02681 5.24823 9.02639 5.26414 9.02568C5.29357 9.28045 5.41566 9.51552 5.60719 9.68615C5.79872 9.85677 6.04632 9.95105 6.30287 9.95103C6.40245 9.95105 6.50153 9.93692 6.59714 9.90907V12.5708C6.5991 13.0431 6.76205 13.5007 7.05912 13.8681C7.35619 14.2354 7.76963 14.4906 8.23125 14.5915L11.0017 15.1848C11.0827 15.2025 11.1552 15.2472 11.2072 15.3116C11.2593 15.3761 11.2878 15.4563 11.2881 15.5391V15.9576C11.2883 16.2364 11.3739 16.5086 11.5336 16.7373C11.6933 16.966 11.9193 17.1402 12.1811 17.2365C12.4429 17.3327 12.728 17.3464 12.9978 17.2756C13.2677 17.2049 13.5093 17.0531 13.6902 16.8407L14.0929 17.2461L13.6971 17.7941C13.6474 17.8628 13.6257 17.9479 13.6363 18.032C13.6469 18.1162 13.689 18.1932 13.7542 18.2475L15.7646 19.9224C15.8021 19.9536 15.846 19.9763 15.8931 19.9888C15.9403 20.0013 15.9896 20.0034 16.0377 19.9948C16.0857 19.9863 16.1313 19.9674 16.1713 19.9394C16.2113 19.9114 16.2447 19.8751 16.2691 19.8328L19.9549 13.4684C19.9919 13.4046 20.0068 13.3303 19.9972 13.2571C19.9876 13.1839 19.9541 13.116 19.9019 13.0638L18.5616 11.7239ZM10.5199 4.35459L10.2829 4.59145V4.25648H9.05573C8.81803 4.25596 8.58779 4.17339 8.40397 4.02273C8.22014 3.87207 8.094 3.66257 8.04687 3.42966C8.03353 3.36099 8.04743 3.28983 8.08563 3.23122C8.12383 3.17261 8.18334 3.13116 8.25156 3.11562L9.12367 2.92189C9.55719 2.82551 10.0062 2.82173 10.4413 2.9108C10.8764 2.99986 11.2877 3.17976 11.6485 3.43872C12.0092 3.69769 12.3112 4.02988 12.5346 4.41356C12.7581 4.79725 12.898 5.22377 12.9452 5.66524L11.4596 5.29392L10.5199 4.35459ZM1.78254 6.40769C1.73858 6.4301 1.69064 6.44363 1.64146 6.44752C1.59227 6.4514 1.5428 6.44556 1.49587 6.43034C1.44894 6.41511 1.40547 6.39079 1.36794 6.35877C1.33041 6.32674 1.29956 6.28765 1.27715 6.2437C1.25473 6.19976 1.2412 6.15184 1.23731 6.10267C1.23342 6.05349 1.23926 6.00404 1.2545 5.95712C1.26973 5.91021 1.29405 5.86675 1.32609 5.82923C1.35812 5.79172 1.39723 5.76087 1.44119 5.73847L2.49997 5.19858L3.07772 5.7473L1.78254 6.40769ZM3.91657 6.89557C3.91643 6.84652 3.92598 6.79793 3.94466 6.75258C3.96335 6.70722 3.99081 6.666 4.02547 6.63128L5.11026 5.57454C5.18117 5.50595 5.27616 5.46789 5.37483 5.46853C5.4735 5.46918 5.56799 5.50847 5.638 5.57798C5.69378 5.63367 5.73059 5.70552 5.74318 5.78332C5.75578 5.86112 5.74352 5.9409 5.70816 6.01134L4.55773 7.16141C4.50515 7.21387 4.4382 7.24956 4.36534 7.264C4.29248 7.27843 4.21697 7.27095 4.14836 7.2425C4.07975 7.21405 4.02111 7.16592 3.97986 7.10417C3.9386 7.04242 3.91658 6.96983 3.91657 6.89557ZM4.95056 8.24738C4.91567 8.2125 4.88799 8.1711 4.86911 8.12553C4.85023 8.07996 4.84051 8.03112 4.84051 7.98179C4.84051 7.93247 4.85023 7.88363 4.86911 7.83806C4.88799 7.79249 4.91567 7.75108 4.95056 7.7162L5.03177 7.63497L6.10224 6.59239C6.15402 6.54194 6.20048 6.48631 6.24088 6.42637L6.29089 6.37641C6.36135 6.30598 6.45691 6.2664 6.55656 6.2664C6.6562 6.2664 6.75177 6.30598 6.82223 6.37641C6.89269 6.44685 6.93227 6.54239 6.93227 6.642C6.93227 6.74162 6.89269 6.83715 6.82223 6.90759L5.48194 8.24746C5.4114 8.31778 5.31585 8.35727 5.21623 8.35725C5.11662 8.35724 5.02107 8.31772 4.95056 8.24738ZM6.56837 9.17101C6.49772 9.23985 6.40282 9.27813 6.30416 9.27761C6.20551 9.27709 6.11102 9.23779 6.04111 9.16822C5.97119 9.09864 5.93145 9.00436 5.93048 8.90574C5.9295 8.80712 5.96737 8.71208 6.0359 8.64114L7.08002 7.62467C7.15098 7.55616 7.24597 7.51816 7.34462 7.51883C7.44327 7.51949 7.53773 7.55877 7.60776 7.62823C7.64293 7.66341 7.67076 7.70522 7.68964 7.75123C7.70853 7.79724 7.71808 7.84655 7.71775 7.89628C7.71741 7.94602 7.70721 7.99519 7.68772 8.04095C7.66822 8.08671 7.63984 8.12814 7.6042 8.16284L6.57176 9.16775C6.5705 9.16888 6.56946 9.16997 6.56837 9.17101ZM13.9933 16.1952C14.0036 16.137 14.0102 16.0783 14.013 16.0193L14.2535 10.7326C14.2564 10.6691 14.2751 10.6073 14.308 10.5529C14.3408 10.4984 14.3867 10.4531 14.4416 10.4209C14.4964 10.3887 14.5584 10.3707 14.6219 10.3686C14.6855 10.3664 14.7486 10.3802 14.8054 10.4086L15.7808 10.8961L17.4645 12.5794L14.4908 16.6957L13.9933 16.1952ZM15.8883 19.1533L14.4234 17.9329L18.3659 12.4758L19.2461 13.3555L15.8883 19.1533Z" fill="#212529"/>
</svg>
