<svg width="18" height="18" viewBox="0 0 18 18" fill="none" xmlns="http://www.w3.org/2000/svg">
<path d="M17.7463 9.91041C17.6048 9.25511 17.324 8.62897 16.9343 8.09972C16.6398 7.69974 16.2855 7.35674 15.8814 7.08024C15.3141 6.69204 14.6604 6.45785 13.9717 6.39208V6.02768C13.9717 5.6064 13.6537 5.26367 13.2628 5.26367H11.6482C11.2573 5.26367 10.9393 5.6064 10.9393 6.02768V6.36969L7.06064 6.36583V6.02768C7.06064 5.6064 6.74262 5.26367 6.35172 5.26367H4.73717C4.34627 5.26367 4.02824 5.6064 4.02824 6.02768V6.37738C2.86538 6.49063 1.79375 7.11089 1.06563 8.09972C0.67589 8.62901 0.395132 9.25511 0.253699 9.91041C0.0209297 10.9887 -0.0564492 12.2808 0.0414609 13.4555L0.0491249 13.5476C0.137402 14.6095 0.228668 15.7076 0.553124 16.7416C0.750702 17.3712 1.23076 17.8273 1.83731 17.9616C2.43982 18.0949 3.04348 17.8816 3.45203 17.391C3.81432 16.9558 4.15969 16.3378 4.47916 15.5533C4.90267 15.5463 5.32285 15.4713 5.72583 15.3308C5.86477 15.2822 5.94092 15.1215 5.89588 14.9718C5.85085 14.8221 5.70171 14.7399 5.56278 14.7885C5.1916 14.9182 4.80354 14.9839 4.40842 14.9839H4.40832C4.32612 14.9838 4.2457 15.0097 4.177 15.0583C4.1083 15.1069 4.05433 15.1762 4.02178 15.2575C3.71722 16.0186 3.39308 16.6083 3.05839 17.0103C2.77679 17.3485 2.36012 17.4954 1.94373 17.4032C1.5234 17.3101 1.19086 16.9945 1.05421 16.559C0.749893 15.5892 0.661476 14.5254 0.575941 13.4967L0.568277 13.4044C0.475218 12.2876 0.548343 11.0612 0.768878 10.0395C0.892733 9.46584 1.13862 8.91756 1.47998 8.45397C2.15016 7.54383 3.15264 6.98968 4.23106 6.93297L13.5761 6.94225C14.3086 6.94339 15.0078 7.15745 15.598 7.56137C15.9521 7.80366 16.2624 8.10396 16.5201 8.45397C16.8615 8.91756 17.1074 9.46584 17.2312 10.0395C17.4517 11.0612 17.5249 12.2876 17.4318 13.4044L17.4241 13.4967C17.3386 14.5254 17.2502 15.5892 16.9459 16.559C16.8092 16.9945 16.4767 17.3101 16.0563 17.4032C15.64 17.4953 15.2233 17.3485 14.9417 17.0103C14.607 16.6082 14.2829 16.0185 13.9783 15.2576C13.9118 15.0913 13.7601 14.9839 13.5908 14.9839H13.5907C12.111 14.9839 10.7684 14.0412 10.1702 12.5822C9.96412 12.0795 9.50481 11.7547 9.00003 11.7547C8.4953 11.7547 8.03598 12.0795 7.82986 12.5822C7.56099 13.238 7.13243 13.8069 6.5905 14.2273C6.53358 14.2715 6.49526 14.3382 6.48399 14.4128C6.47271 14.4874 6.4894 14.5638 6.53038 14.6251C6.57136 14.6865 6.63327 14.7278 6.7025 14.7399C6.77173 14.7521 6.8426 14.7341 6.89952 14.6899C7.51778 14.2102 8.00677 13.5611 8.31364 12.8126C8.43514 12.5163 8.70458 12.3248 9.00007 12.3248C9.29552 12.3248 9.56496 12.5163 9.68646 12.8126C10.3597 14.4546 11.8589 15.5237 13.5209 15.5533C13.8403 16.3378 14.1857 16.9557 14.5481 17.391C14.8764 17.7854 15.3309 18.0006 15.8094 18.0006C15.9263 18.0006 16.0446 17.9877 16.1628 17.9616C16.7693 17.8273 17.2494 17.3713 17.447 16.7416C17.7714 15.7076 17.8627 14.6096 17.951 13.5477L17.9586 13.4555C18.0564 12.2808 17.979 10.9887 17.7463 9.91041ZM6.53175 6.35794H4.55717V6.02772C4.55723 5.97628 4.57621 5.92696 4.60996 5.89059C4.64371 5.85421 4.68947 5.83375 4.7372 5.83369H6.35175C6.39948 5.83375 6.44524 5.85421 6.479 5.89059C6.51275 5.92696 6.53173 5.97628 6.53179 6.02772V6.35794H6.53175ZM13.4428 6.35794H11.4682V6.02772C11.4683 5.97628 11.4873 5.92696 11.521 5.89059C11.5548 5.85421 11.6005 5.83375 11.6482 5.83369H13.2628C13.3105 5.83375 13.3563 5.85421 13.39 5.89059C13.4238 5.92696 13.4428 5.97628 13.4428 6.02772V6.35794H13.4428Z" fill="#212529"/>
<path d="M4.39021 7.70703C2.7276 7.70703 1.375 9.16476 1.375 10.9565C1.375 12.7483 2.72763 14.206 4.39021 14.206C6.05278 14.206 7.40541 12.7483 7.40541 10.9565C7.40541 9.16476 6.05278 7.70703 4.39021 7.70703ZM4.39021 13.636C3.01926 13.636 1.90389 12.434 1.90389 10.9565C1.90389 9.47908 3.01926 8.27709 4.39021 8.27709C5.76116 8.27709 6.87649 9.47912 6.87649 10.9565C6.87652 12.434 5.76116 13.636 4.39021 13.636ZM13.9184 7.72382C13.8161 7.71264 13.7133 7.70703 13.6104 7.70703C11.9478 7.70703 10.5952 9.16476 10.5952 10.9565C10.5952 12.7483 11.9478 14.206 13.6104 14.206C15.273 14.206 16.6256 12.7483 16.6256 10.9565C16.6256 9.82155 16.0901 8.78744 15.1931 8.19025C15.1636 8.17057 15.1308 8.15735 15.0965 8.15136C15.0622 8.14537 15.0271 8.14671 14.9933 8.15532C14.9595 8.16392 14.9276 8.17962 14.8995 8.20152C14.8713 8.22341 14.8474 8.25108 14.8292 8.28292C14.8109 8.31476 14.7987 8.35017 14.7931 8.38711C14.7875 8.42406 14.7888 8.46182 14.7968 8.49825C14.8048 8.53467 14.8193 8.56905 14.8396 8.5994C14.86 8.62976 14.8856 8.65551 14.9152 8.67518C15.655 9.16775 16.0967 10.0206 16.0967 10.9565C16.0967 12.434 14.9814 13.636 13.6104 13.636C12.2395 13.636 11.1241 12.434 11.1241 10.9565C11.1241 9.47908 12.2395 8.27709 13.6104 8.27709C13.6954 8.27709 13.7811 8.28175 13.8649 8.29092C14.0102 8.30702 14.14 8.19283 14.1548 8.0362C14.1695 7.87957 14.0637 7.73973 13.9184 7.72382ZM8.41011 10.6469C8.48024 10.6469 8.5475 10.6169 8.5971 10.5634C8.64669 10.51 8.67455 10.4375 8.67455 10.3619C8.67455 10.2863 8.64669 10.2138 8.5971 10.1604C8.5475 10.1069 8.48024 10.0769 8.41011 10.0769H8.11722C8.04709 10.0769 7.97982 10.1069 7.93023 10.1604C7.88064 10.2138 7.85278 10.2863 7.85278 10.3619C7.85278 10.4375 7.88064 10.51 7.93023 10.5634C7.97982 10.6169 8.04709 10.6469 8.11722 10.6469H8.41011ZM9.88343 10.6469C9.95357 10.6469 10.0208 10.6169 10.0704 10.5634C10.12 10.51 10.1479 10.4375 10.1479 10.3619C10.1479 10.2863 10.12 10.2138 10.0704 10.1604C10.0208 10.1069 9.95357 10.0769 9.88343 10.0769H9.59055C9.52041 10.0769 9.45315 10.1069 9.40356 10.1604C9.35396 10.2138 9.3261 10.2863 9.3261 10.3619C9.3261 10.4375 9.35396 10.51 9.40356 10.5634C9.45315 10.6169 9.52041 10.6469 9.59055 10.6469H9.88343Z" fill="#212529"/>
<path d="M5.71996 10.0162H5.31658C5.30191 10.0161 5.28785 10.0098 5.27749 9.99867C5.26712 9.98749 5.26129 9.97233 5.26128 9.95653V9.5218C5.26128 9.17464 4.99919 8.89218 4.67706 8.89218H4.09979C3.77765 8.89218 3.51556 9.17464 3.51556 9.5218V9.95653C3.51556 9.98941 3.49074 10.0162 3.46023 10.0162H3.05688C2.73475 10.0162 2.47266 10.2986 2.47266 10.6458V11.2679C2.47266 11.6151 2.73475 11.8975 3.05688 11.8975H3.46023C3.49074 11.8975 3.51556 11.9243 3.51556 11.9571V12.3918C3.51556 12.739 3.77765 13.0214 4.09979 13.0214H4.67706C4.99919 13.0214 5.26128 12.739 5.26128 12.3918V11.9571C5.26128 11.9243 5.2861 11.8976 5.31658 11.8976H5.71996C6.0421 11.8976 6.30419 11.6151 6.30419 11.2679V10.6458C6.30419 10.2986 6.04214 10.0162 5.71996 10.0162ZM5.7753 11.2679C5.7753 11.3008 5.75048 11.3276 5.71996 11.3276H5.31658C4.99445 11.3276 4.73236 11.61 4.73236 11.9572V12.3919C4.73236 12.4248 4.70754 12.4515 4.67702 12.4515H4.09976C4.08509 12.4515 4.07103 12.4452 4.06066 12.434C4.05029 12.4228 4.04446 12.4077 4.04445 12.3919V11.9571C4.04445 11.61 3.78237 11.3275 3.46023 11.3275H3.05688C3.04221 11.3275 3.02815 11.3212 3.01779 11.31C3.00742 11.2989 3.00159 11.2837 3.00158 11.2679V10.6458C3.00158 10.6129 3.0264 10.5862 3.05688 10.5862H3.46023C3.78237 10.5862 4.04445 10.3037 4.04445 9.95656V9.52184C4.04445 9.48895 4.06927 9.46224 4.09976 9.46224H4.67702C4.70754 9.46224 4.73236 9.48899 4.73236 9.52184V9.95656C4.73236 10.3037 4.99445 10.5862 5.31658 10.5862H5.71996C5.75048 10.5862 5.7753 10.6129 5.7753 10.6458V11.2679ZM13.6086 8.65959C13.1925 8.65959 12.854 9.02445 12.854 9.47293C12.854 9.9214 13.1925 10.2863 13.6086 10.2863C14.0247 10.2863 14.3633 9.9214 14.3633 9.47293C14.3633 9.02445 14.0248 8.65959 13.6086 8.65959ZM13.6086 9.71624C13.4841 9.71624 13.3829 9.60709 13.3829 9.47293C13.3829 9.33877 13.4841 9.22961 13.6086 9.22961C13.7331 9.22961 13.8344 9.33877 13.8344 9.47293C13.8344 9.60709 13.7331 9.71624 13.6086 9.71624ZM13.6086 13.2541C14.0248 13.2541 14.3633 12.8892 14.3633 12.4407C14.3633 11.9923 14.0248 11.6274 13.6086 11.6274C13.1925 11.6274 12.854 11.9923 12.854 12.4407C12.854 12.8892 13.1925 13.2541 13.6086 13.2541ZM13.6086 12.1974C13.7331 12.1974 13.8344 12.3066 13.8344 12.4407C13.8344 12.5749 13.7331 12.6841 13.6086 12.6841C13.4841 12.6841 13.3829 12.5749 13.3829 12.4407C13.3829 12.3066 13.4841 12.1974 13.6086 12.1974ZM14.9668 11.7702C15.383 11.7702 15.7215 11.4053 15.7215 10.9568C15.7215 10.5084 15.383 10.1435 14.9668 10.1435C14.5507 10.1435 14.2122 10.5084 14.2122 10.9568C14.2122 11.4053 14.5507 11.7702 14.9668 11.7702ZM14.9668 10.7135C15.0913 10.7135 15.1926 10.8227 15.1926 10.9568C15.1926 11.091 15.0913 11.2002 14.9668 11.2002C14.8423 11.2002 14.741 11.091 14.741 10.9568C14.741 10.8227 14.8423 10.7135 14.9668 10.7135ZM12.2504 10.1435C11.8343 10.1435 11.4958 10.5084 11.4958 10.9568C11.4958 11.4053 11.8343 11.7702 12.2504 11.7702C12.6665 11.7702 13.0051 11.4053 13.0051 10.9568C13.0051 10.5084 12.6665 10.1435 12.2504 10.1435ZM12.2504 11.2002C12.1259 11.2002 12.0247 11.091 12.0247 10.9569C12.0247 10.8227 12.1259 10.7136 12.2504 10.7136C12.3749 10.7136 12.4762 10.8227 12.4762 10.9569C12.4762 11.091 12.3749 11.2002 12.2504 11.2002ZM10.357 2.96253C10.377 2.9931 10.4024 3.01911 10.4318 3.03909C10.4612 3.05907 10.4939 3.07262 10.5281 3.07897C10.5623 3.08531 10.5974 3.08433 10.6313 3.07608C10.6651 3.06783 10.6972 3.05247 10.7255 3.03088C10.7539 3.00928 10.778 2.98188 10.7966 2.95023C10.8151 2.91858 10.8277 2.88331 10.8336 2.84643C10.8395 2.80954 10.8386 2.77177 10.8309 2.73526C10.8233 2.69875 10.809 2.66423 10.789 2.63366C10.3814 2.01185 9.71687 1.64062 9.01132 1.64062C8.25852 1.64062 7.59994 2.00461 7.2045 2.63919C7.16541 2.70194 7.15104 2.77886 7.16456 2.85302C7.17808 2.92719 7.21839 2.99253 7.27661 3.03467C7.32009 3.06628 7.37136 3.08315 7.42381 3.08312C7.50896 3.08312 7.59256 3.03887 7.64357 2.95696C7.93916 2.48264 8.43768 2.21061 9.01132 2.21061C9.54538 2.21065 10.0484 2.49173 10.357 2.96253Z" fill="#212529"/>
<path d="M5.89437 2.16146C5.92319 2.18237 5.95555 2.19694 5.9896 2.20435C6.02365 2.21176 6.05873 2.21186 6.09281 2.20465C6.1269 2.19743 6.15933 2.18303 6.18825 2.16229C6.21716 2.14154 6.242 2.11485 6.26133 2.08375C6.86082 1.12174 7.86818 0.570021 9.02514 0.570021C10.1043 0.570021 11.1208 1.13796 11.7443 2.08928C11.7852 2.14984 11.8466 2.19063 11.9152 2.20281C11.9837 2.21499 12.054 2.19759 12.1108 2.15438C12.1675 2.11117 12.2062 2.04561 12.2185 1.97188C12.2308 1.89816 12.2156 1.82219 12.1763 1.76042C11.4538 0.65811 10.2758 0 9.02514 0C7.68903 0 6.52163 0.643675 5.82227 1.76595C5.8029 1.79702 5.78941 1.8319 5.78255 1.86859C5.77569 1.90528 5.77561 1.94307 5.7823 1.9798C5.789 2.01652 5.80234 2.05147 5.82157 2.08264C5.8408 2.11381 5.86554 2.14059 5.89437 2.16146ZM9.00594 3.29324C8.66897 3.29324 8.36107 3.46453 8.1823 3.75138C8.14418 3.81413 8.13055 3.89056 8.14436 3.96408C8.15818 4.03759 8.19833 4.10228 8.25611 4.1441C8.31389 4.18593 8.38463 4.20152 8.45301 4.18751C8.52139 4.17349 8.58188 4.13099 8.62137 4.06922C8.70293 3.93832 8.8431 3.86326 9.00594 3.86326C9.15606 3.86326 9.29749 3.94233 9.38429 4.07475C9.42519 4.13531 9.48656 4.17609 9.55513 4.18828C9.62371 4.20046 9.69398 4.18306 9.75074 4.13985C9.80751 4.09663 9.84621 4.03108 9.85848 3.95735C9.87074 3.88363 9.85559 3.80766 9.81629 3.74588C9.72462 3.60613 9.6032 3.4921 9.4622 3.41334C9.32121 3.33459 9.16475 3.2934 9.00594 3.29324Z" fill="#212529"/>
</svg>
