<svg width="20" height="20" viewBox="0 0 20 20" fill="none" xmlns="http://www.w3.org/2000/svg">
<path d="M14.0731 5.18511C14.1713 5.18511 14.2655 5.14609 14.335 5.07663C14.4044 5.00718 14.4434 4.91297 14.4434 4.81474V3.33326C14.4434 3.23503 14.4044 3.14083 14.335 3.07137C14.2655 3.00191 14.1713 2.96289 14.0731 2.96289C13.9748 2.96289 13.8806 3.00191 13.8112 3.07137C13.7417 3.14083 13.7027 3.23503 13.7027 3.33326V4.81474C13.7027 4.91297 13.7417 5.00718 13.8112 5.07663C13.8806 5.14609 13.9748 5.18511 14.0731 5.18511ZM14.0731 8.88882C13.9748 8.88882 13.8806 8.92784 13.8112 8.99729C13.7417 9.06675 13.7027 9.16096 13.7027 9.25919V10.7407C13.7027 10.8389 13.7417 10.9331 13.8112 11.0026C13.8806 11.072 13.9748 11.111 14.0731 11.111C14.1713 11.111 14.2655 11.072 14.335 11.0026C14.4044 10.9331 14.4434 10.8389 14.4434 10.7407V9.25919C14.4434 9.16096 14.4044 9.06675 14.335 8.99729C14.2655 8.92784 14.1713 8.88882 14.0731 8.88882ZM5.92491 17.037C6.51093 17.037 7.08379 16.8632 7.57105 16.5376C8.0583 16.212 8.43808 15.7493 8.66233 15.2079C8.88659 14.6665 8.94527 14.0707 8.83094 13.496C8.71662 12.9212 8.43442 12.3932 8.02004 11.9789C7.60567 11.5645 7.07772 11.2823 6.50296 11.168C5.9282 11.0536 5.33245 11.1123 4.79104 11.3366C4.24963 11.5608 3.78687 11.9406 3.4613 12.4279C3.13572 12.9151 2.96195 13.488 2.96195 14.074C2.96195 14.8598 3.27412 15.6135 3.82978 16.1691C4.38545 16.7248 5.13909 17.037 5.92491 17.037ZM5.92491 11.8518C6.29609 11.8498 6.66185 11.9408 6.9888 12.1165C7.31576 12.2923 7.59349 12.5471 7.79664 12.8577C7.99979 13.1684 8.12189 13.525 8.15179 13.895C8.18169 14.2649 8.11844 14.6365 7.96781 14.9757C7.81719 15.315 7.58399 15.6111 7.2895 15.837C6.99501 16.063 6.64861 16.2116 6.28193 16.2692C5.91526 16.3269 5.53998 16.2918 5.19036 16.1671C4.84075 16.0424 4.52793 15.8321 4.28047 15.5555H4.3138C4.56073 15.5007 4.78157 15.3633 4.93983 15.166C5.09808 14.9686 5.18428 14.7232 5.18417 14.4703V13.6777C5.18428 13.4248 5.09808 13.1794 4.93983 12.982C4.78157 12.7847 4.56073 12.6473 4.3138 12.5925H4.27676C4.48428 12.3605 4.73823 12.1747 5.02215 12.0471C5.30607 11.9195 5.61364 11.8529 5.92491 11.8518ZM3.70269 14.074C3.70398 13.7924 3.758 13.5135 3.86195 13.2518L4.15454 13.3184C4.23809 13.3373 4.31254 13.3844 4.36521 13.452C4.41788 13.5195 4.44552 13.6032 4.44343 13.6888V14.4814C4.44552 14.567 4.41788 14.6507 4.36521 14.7182C4.31254 14.7858 4.23809 14.833 4.15454 14.8518L3.86195 14.9184C3.75524 14.6498 3.70117 14.3631 3.70269 14.074ZM9.25825 8.14808H9.99899C10.0972 8.14808 10.1914 8.10906 10.2609 8.0396C10.3303 7.97014 10.3694 7.87593 10.3694 7.77771C10.3694 7.67948 10.3303 7.58527 10.2609 7.51581C10.1914 7.44636 10.0972 7.40733 9.99899 7.40733H9.25825C9.16002 7.40733 9.06581 7.44636 8.99636 7.51581C8.9269 7.58527 8.88788 7.67948 8.88788 7.77771C8.88788 7.87593 8.9269 7.97014 8.99636 8.0396C9.06581 8.10906 9.16002 8.14808 9.25825 8.14808ZM1.85084 8.14808H2.59158C2.68981 8.14808 2.78401 8.10906 2.85347 8.0396C2.92293 7.97014 2.96195 7.87593 2.96195 7.77771C2.96195 7.67948 2.92293 7.58527 2.85347 7.51581C2.78401 7.44636 2.68981 7.40733 2.59158 7.40733H1.85084C1.75261 7.40733 1.65841 7.44636 1.58895 7.51581C1.51949 7.58527 1.48047 7.67948 1.48047 7.77771C1.48047 7.87593 1.51949 7.97014 1.58895 8.0396C1.65841 8.10906 1.75261 8.14808 1.85084 8.14808ZM4.07306 8.14808H7.77677C7.87499 8.14808 7.9692 8.10906 8.03866 8.0396C8.10812 7.97014 8.14714 7.87593 8.14714 7.77771C8.14714 7.67948 8.10812 7.58527 8.03866 7.51581C7.9692 7.44636 7.87499 7.40733 7.77677 7.40733H4.07306C3.97483 7.40733 3.88063 7.44636 3.81117 7.51581C3.74171 7.58527 3.70269 7.67948 3.70269 7.77771C3.70269 7.87593 3.74171 7.97014 3.81117 8.0396C3.88063 8.10906 3.97483 8.14808 4.07306 8.14808Z" fill="#212529"/>
<path d="M18.8889 11.8519H15.9259V1.11111C15.9259 0.816426 15.8089 0.533811 15.6005 0.325437C15.3921 0.117063 15.1095 0 14.8148 0H5.18518C4.8905 0 4.60788 0.117063 4.39951 0.325437C4.19114 0.533811 4.07407 0.816426 4.07407 1.11111V5.92593H1.11111C0.816426 5.92593 0.533811 6.04299 0.325437 6.25136C0.117063 6.45974 0 6.74235 0 7.03704V18.8889C0 19.1836 0.117063 19.4662 0.325437 19.6746C0.533811 19.8829 0.816426 20 1.11111 20H18.8889C19.1836 20 19.4662 19.8829 19.6746 19.6746C19.8829 19.4662 20 19.1836 20 18.8889V12.963C20 12.6683 19.8829 12.3857 19.6746 12.1773C19.4662 11.9689 19.1836 11.8519 18.8889 11.8519ZM11.8519 11.8519V8.14815H15.1852V11.8519H11.8519ZM4.81481 1.11111C4.81481 1.01288 4.85384 0.918678 4.92329 0.84922C4.99275 0.779762 5.08696 0.740741 5.18518 0.740741H8.28889L7.91852 1.48148H4.81481V1.11111ZM4.81481 2.22222H8.14815C8.21654 2.22201 8.28355 2.20287 8.34173 2.16692C8.39991 2.13096 8.447 2.0796 8.47778 2.01852L9.11852 0.740741H14.8148C14.913 0.740741 15.0072 0.779762 15.0767 0.84922C15.1462 0.918678 15.1852 1.01288 15.1852 1.11111V7.40741H11.8519V7.03704C11.8519 6.74235 11.7348 6.45974 11.5264 6.25136C11.318 6.04299 11.0354 5.92593 10.7407 5.92593H4.81481V2.22222ZM1.11111 6.66667H10.7407C10.839 6.66667 10.9332 6.70569 11.0026 6.77515C11.0721 6.8446 11.1111 6.93881 11.1111 7.03704V8.88889H0.740741V7.03704C0.740741 6.93881 0.779762 6.8446 0.84922 6.77515C0.918678 6.70569 1.01288 6.66667 1.11111 6.66667ZM0.740741 18.8889V9.62963H11.1111V11.8519H10.7407C10.4461 11.8519 10.1634 11.9689 9.95507 12.1773C9.74669 12.3857 9.62963 12.6683 9.62963 12.963V17.7778H1.85185C1.75362 17.7778 1.65942 17.8168 1.58996 17.8863C1.5205 17.9557 1.48148 18.0499 1.48148 18.1481C1.48148 18.2464 1.5205 18.3406 1.58996 18.41C1.65942 18.4795 1.75362 18.5185 1.85185 18.5185H9.62963V18.8889C9.63063 19.0152 9.65318 19.1405 9.6963 19.2593H1.11111C1.01288 19.2593 0.918678 19.2202 0.84922 19.1508C0.779762 19.0813 0.740741 18.9871 0.740741 18.8889ZM19.2593 18.8889C19.2593 18.9871 19.2202 19.0813 19.1508 19.1508C19.0813 19.2202 18.9871 19.2593 18.8889 19.2593H10.7407C10.6425 19.2593 10.5483 19.2202 10.4788 19.1508C10.4094 19.0813 10.3704 18.9871 10.3704 18.8889V12.963C10.3704 12.8647 10.4094 12.7705 10.4788 12.7011C10.5483 12.6316 10.6425 12.5926 10.7407 12.5926H18.8889C18.9871 12.5926 19.0813 12.6316 19.1508 12.7011C19.2202 12.7705 19.2593 12.8647 19.2593 12.963V18.8889Z" fill="#212529"/>
<path d="M15.9242 13.334H11.4797C11.3815 13.334 11.2873 13.373 11.2179 13.4425C11.1484 13.5119 11.1094 13.6061 11.1094 13.7044V18.1488C11.1094 18.247 11.1484 18.3412 11.2179 18.4107C11.2873 18.4801 11.3815 18.5192 11.4797 18.5192H15.9242C16.0224 18.5192 16.1166 18.4801 16.1861 18.4107C16.2555 18.3412 16.2946 18.247 16.2946 18.1488V13.7044C16.2946 13.6061 16.2555 13.5119 16.1861 13.4425C16.1166 13.373 16.0224 13.334 15.9242 13.334ZM15.5538 17.7784H11.8501V14.0747H15.5538V17.7784ZM18.1464 15.5562H17.4057C17.3074 15.5562 17.2132 15.5952 17.1438 15.6647C17.0743 15.7341 17.0353 15.8283 17.0353 15.9266C17.0353 16.0248 17.0743 16.119 17.1438 16.1885C17.2132 16.2579 17.3074 16.2969 17.4057 16.2969H18.1464C18.2446 16.2969 18.3388 16.2579 18.4083 16.1885C18.4778 16.119 18.5168 16.0248 18.5168 15.9266C18.5168 15.8283 18.4778 15.7341 18.4083 15.6647C18.3388 15.5952 18.2446 15.5562 18.1464 15.5562ZM18.1464 14.0747H17.4057C17.3074 14.0747 17.2132 14.1137 17.1438 14.1832C17.0743 14.2527 17.0353 14.3469 17.0353 14.4451C17.0353 14.5433 17.0743 14.6375 17.1438 14.707C17.2132 14.7764 17.3074 14.8155 17.4057 14.8155H18.1464C18.2446 14.8155 18.3388 14.7764 18.4083 14.707C18.4778 14.6375 18.5168 14.5433 18.5168 14.4451C18.5168 14.3469 18.4778 14.2527 18.4083 14.1832C18.3388 14.1137 18.2446 14.0747 18.1464 14.0747ZM18.1464 17.0377H17.4057C17.3074 17.0377 17.2132 17.0767 17.1438 17.1462C17.0743 17.2156 17.0353 17.3098 17.0353 17.4081C17.0353 17.5063 17.0743 17.6005 17.1438 17.67C17.2132 17.7394 17.3074 17.7784 17.4057 17.7784H18.1464C18.2446 17.7784 18.3388 17.7394 18.4083 17.67C18.4778 17.6005 18.5168 17.5063 18.5168 17.4081C18.5168 17.3098 18.4778 17.2156 18.4083 17.1462C18.3388 17.0767 18.2446 17.0377 18.1464 17.0377Z" fill="#212529"/>
</svg>
