<svg width="18" height="18" viewBox="0 0 18 18" fill="none" xmlns="http://www.w3.org/2000/svg">
<path d="M6.64509 11.3525C6.59568 11.3031 6.52868 11.2754 6.45882 11.2754C6.38896 11.2754 6.32196 11.3031 6.27256 11.3525L2.90057 14.7245C2.85152 14.774 2.82407 14.8409 2.82422 14.9105C2.82437 14.9802 2.85211 15.047 2.90137 15.0962C2.95063 15.1455 3.0174 15.1733 3.08707 15.1734C3.15673 15.1736 3.22363 15.1461 3.27311 15.0971L6.64509 11.7251C6.66955 11.7006 6.68896 11.6716 6.7022 11.6396C6.71544 11.6077 6.72225 11.5734 6.72225 11.5388C6.72225 11.5042 6.71544 11.47 6.7022 11.438C6.68896 11.406 6.66955 11.377 6.64509 11.3525Z" fill="#212529"/>
<path d="M14.5088 11.6522L11.2317 8.37505L17.3335 2.27323C17.3891 2.21785 17.4322 2.1512 17.46 2.07776L17.9628 0.751941C18.0412 0.545232 17.9928 0.31966 17.8365 0.163354C17.6802 0.00704893 17.4546 -0.0413882 17.2478 0.0369753L15.9222 0.539822C15.8488 0.567516 15.7821 0.610608 15.7267 0.666201L13.9863 2.40657C13.9369 2.45597 13.9091 2.52298 13.9091 2.59285C13.9091 2.66272 13.9369 2.72973 13.9863 2.77914C14.0357 2.82854 14.1027 2.8563 14.1726 2.8563C14.2424 2.8563 14.3095 2.82854 14.3589 2.77914L16.0994 1.03863C16.1021 1.03593 16.1053 1.03384 16.1089 1.03248L17.4347 0.529601C17.4405 0.527388 17.4514 0.523243 17.4639 0.535888C17.4765 0.548463 17.4724 0.559281 17.4702 0.565077L16.9673 1.891C16.9659 1.89459 16.9637 1.89783 16.961 1.90052L9.95796 8.90364L9.09617 8.04182L13.6138 3.52427C13.6632 3.47487 13.6909 3.40786 13.6909 3.33799C13.6909 3.26812 13.6632 3.20111 13.6138 3.1517C13.5643 3.1023 13.4973 3.07454 13.4275 3.07454C13.3576 3.07454 13.2906 3.1023 13.2412 3.1517L9.62473 6.76812L6.34467 3.48806C6.44059 2.53558 6.11183 1.60944 5.43153 0.929076C4.68246 0.180039 3.61371 -0.144831 2.57265 0.0603684C2.47355 0.0797002 2.38159 0.125654 2.30663 0.193297C2.23167 0.260939 2.17655 0.347718 2.14718 0.444318C2.11789 0.540304 2.11529 0.642453 2.13966 0.739804C2.16403 0.837155 2.21445 0.926033 2.2855 0.996902L3.69745 2.40885C3.70108 2.41245 3.70363 2.41699 3.7048 2.42197C3.70597 2.42694 3.70573 2.43214 3.70409 2.43698L3.39548 3.36277C3.39412 3.36681 3.39184 3.37048 3.38883 3.37349C3.38581 3.3765 3.38214 3.37877 3.3781 3.38012L2.45235 3.68873C2.4475 3.69035 2.44229 3.69059 2.43731 3.68942C2.43234 3.68825 2.42779 3.68571 2.42418 3.68209L1.0123 2.27021C0.941388 2.19912 0.852457 2.14868 0.755049 2.1243C0.657641 2.09993 0.555434 2.10254 0.459398 2.13186C0.362959 2.16111 0.276307 2.21607 0.208739 2.29084C0.141171 2.36561 0.0952384 2.45737 0.0758695 2.55627C-0.129646 3.59761 0.195048 4.66674 0.944401 5.41613C1.62779 6.09956 2.55502 6.42924 3.50634 6.33226L5.75601 8.58193C5.74583 8.59114 5.73543 8.60013 5.7257 8.60986L2.42189 11.9137C2.37284 11.9632 2.34539 12.0301 2.34554 12.0997C2.34569 12.1694 2.37343 12.2362 2.42269 12.2854C2.47195 12.3347 2.53872 12.3624 2.60839 12.3626C2.67805 12.3628 2.74495 12.3353 2.79443 12.2863L5.00097 10.0797L5.00104 10.0797C5.12517 9.95546 5.32721 9.95549 5.45137 10.0796C5.51151 10.1398 5.54466 10.2197 5.54466 10.3048C5.54466 10.3899 5.51154 10.4698 5.45141 10.53L2.07943 13.902C1.95526 14.0261 1.75322 14.0261 1.62909 13.902C1.59943 13.8725 1.57591 13.8374 1.5599 13.7987C1.54388 13.7601 1.53569 13.7187 1.5358 13.6768C1.5358 13.5919 1.56885 13.5121 1.62881 13.452L2.04658 13.0342C2.09599 12.9848 2.12374 12.9178 2.12374 12.8479C2.12374 12.778 2.09599 12.711 2.04658 12.6616C1.99718 12.6122 1.93017 12.5845 1.8603 12.5845C1.79043 12.5845 1.72342 12.6122 1.67401 12.6616L0.433616 13.902C0.354879 13.9803 0.292458 14.0735 0.249964 14.1761C0.20747 14.2787 0.185749 14.3887 0.186056 14.4997C0.186056 14.6393 0.219741 14.7736 0.283071 14.8936C-0.131402 15.4371 -0.0908329 16.2188 0.405516 16.7152L1.28466 17.5943C1.55515 17.8648 1.91044 18 2.26573 18C2.56243 18 2.85892 17.9054 3.10619 17.7168C3.22761 17.7808 3.36284 17.8141 3.50008 17.8138C3.61114 17.8141 3.72114 17.7924 3.82374 17.7499C3.92634 17.7074 4.01949 17.6449 4.0978 17.5662L9.38996 12.2741C9.39969 12.2643 9.40864 12.254 9.41785 12.2438L11.6705 14.4964C11.5746 15.4489 11.9033 16.375 12.5836 17.0554C12.8779 17.35 13.2273 17.5837 13.612 17.7431C13.9967 17.9025 14.409 17.9845 14.8254 17.9844C15.0303 17.9844 15.237 17.9646 15.4425 17.9241C15.5416 17.9048 15.6336 17.8588 15.7085 17.7911C15.7835 17.7235 15.8386 17.6367 15.8679 17.5401C15.8972 17.4441 15.8998 17.342 15.8755 17.2446C15.8511 17.1473 15.8007 17.0584 15.7296 16.9875L14.3177 15.5756C14.3141 15.572 14.3115 15.5675 14.3103 15.5625C14.3091 15.5575 14.3094 15.5523 14.311 15.5474L14.6196 14.6216C14.621 14.6176 14.6232 14.6139 14.6263 14.6109C14.6293 14.6079 14.633 14.6056 14.637 14.6043L15.5628 14.2957C15.5676 14.2941 15.5728 14.2938 15.5778 14.295C15.5828 14.2962 15.5873 14.2987 15.5909 14.3023L17.0028 15.7142C17.0737 15.7853 17.1627 15.8358 17.2601 15.8601C17.3575 15.8845 17.4597 15.8819 17.5557 15.8526C17.6521 15.8233 17.7388 15.7683 17.8064 15.6936C17.874 15.6188 17.9199 15.5271 17.9393 15.4282C18.1448 14.3868 17.8201 13.3177 17.0707 12.5683C16.3873 11.8849 15.46 11.5551 14.5088 11.6522ZM9.15452 11.3918L6.60803 8.8453L7.39613 8.73272L9.26713 10.6037L9.15452 11.3918ZM7.25704 7.84849C7.25375 7.8452 7.25191 7.84074 7.25191 7.83609C7.25191 7.83144 7.25375 7.82699 7.25704 7.82369L7.68254 7.39819C7.68584 7.39491 7.69031 7.39306 7.69497 7.39306C7.69963 7.39306 7.7041 7.39491 7.70741 7.39819L10.6016 10.2924C10.6049 10.2957 10.6067 10.3002 10.6067 10.3048C10.6067 10.3095 10.6049 10.3139 10.6016 10.3172L10.1761 10.7427C10.1728 10.746 10.1683 10.7478 10.1637 10.7478C10.159 10.7478 10.1546 10.746 10.1513 10.7427L7.25704 7.84849ZM3.56433 5.79443C2.73278 5.91392 1.91364 5.64026 1.31697 5.0436C0.6921 4.41869 0.421357 3.52698 0.592802 2.65827C0.59382 2.65311 0.596244 2.64095 0.612753 2.6359C0.628208 2.63122 0.636005 2.63895 0.639764 2.64275L2.05171 4.05469C2.20117 4.20404 2.41856 4.25543 2.61901 4.18855L3.54473 3.87995C3.62627 3.85255 3.70036 3.80665 3.76119 3.74582C3.82203 3.685 3.86794 3.61091 3.89534 3.52937L4.20395 2.60362C4.23685 2.50598 4.24175 2.40108 4.21807 2.30081C4.1944 2.20053 4.14311 2.10889 4.07002 2.03628L2.65807 0.624333C2.65407 0.620364 2.64662 0.612917 2.65126 0.597743C2.65639 0.580848 2.66956 0.578249 2.67451 0.577265C3.54297 0.406137 4.43433 0.67695 5.05899 1.30164C5.65257 1.89522 5.92521 2.71349 5.80694 3.54665C5.80121 3.5871 5.80496 3.62833 5.8179 3.66709C5.83084 3.70584 5.85262 3.74105 5.88151 3.76994L9.2522 7.14066L8.72364 7.66921L8.07998 7.02555C7.86772 6.81329 7.5223 6.81329 7.31004 7.02555L6.88454 7.45105C6.67224 7.66335 6.67224 8.00873 6.88454 8.22103L6.93044 8.26693L6.27927 8.35994L3.78811 5.86882C3.75913 5.83991 3.72383 5.81814 3.68499 5.80523C3.64615 5.79232 3.60484 5.78862 3.56433 5.79443ZM1.65719 17.2217L0.77805 16.3426C0.69789 16.2629 0.634337 16.168 0.591072 16.0636C0.547807 15.9591 0.525687 15.8471 0.525994 15.7341C0.525994 15.5808 0.565791 15.4337 0.640536 15.3044L2.6952 17.3591C2.36632 17.5484 1.93808 17.5026 1.65719 17.2217ZM3.50008 17.2869C3.45825 17.287 3.4168 17.2788 3.37815 17.2628C3.33949 17.2468 3.3044 17.2233 3.2749 17.1936L0.806185 14.7249L0.806115 14.7248C0.77648 14.6953 0.752986 14.6602 0.736992 14.6216C0.720997 14.583 0.712818 14.5415 0.712929 14.4997C0.712929 14.4147 0.746051 14.3347 0.806185 14.2746L1.07573 14.005C1.1179 14.1058 1.17931 14.1973 1.25652 14.2746C1.42133 14.4394 1.63777 14.5218 1.85424 14.5218C2.07071 14.5217 2.28719 14.4394 2.45196 14.2746L5.82394 10.9026C5.90269 10.8242 5.96511 10.7311 6.00761 10.6285C6.05011 10.5259 6.07184 10.4159 6.07154 10.3048C6.07184 10.1938 6.05012 10.0837 6.00762 9.98114C5.96512 9.87854 5.90269 9.78539 5.82394 9.70709C5.74686 9.62981 5.65553 9.56821 5.55499 9.5257L6.04909 9.03157L8.96814 11.9507L8.47411 12.4447C8.43161 12.3442 8.37001 12.2528 8.29273 12.1758C8.21441 12.097 8.12125 12.0346 8.01865 11.9921C7.91605 11.9496 7.80603 11.9279 7.69497 11.9282C7.58392 11.9279 7.47391 11.9496 7.37131 11.9921C7.26872 12.0346 7.17557 12.097 7.09725 12.1758L3.72523 15.5478C3.39569 15.8774 3.39569 16.4136 3.72527 16.7433C3.80251 16.8205 3.89407 16.8819 3.99482 16.924L3.72523 17.1936C3.69574 17.2233 3.66065 17.2468 3.62201 17.2628C3.58336 17.2788 3.54192 17.287 3.50008 17.2869ZM4.54814 16.3707C4.42401 16.4948 4.22197 16.4949 4.0978 16.3707C3.97364 16.2466 3.97364 16.0445 4.09777 15.9204L7.46979 12.5483C7.49929 12.5187 7.53438 12.4952 7.57302 12.4792C7.61167 12.4632 7.65311 12.455 7.69494 12.4551C7.78001 12.4551 7.85999 12.4882 7.92012 12.5483C7.98026 12.6085 8.01341 12.6884 8.01341 12.7735C8.01341 12.8586 7.98029 12.9385 7.92016 12.9987L4.54814 16.3707ZM17.4223 15.3261C17.4213 15.3313 17.4189 15.3435 17.4024 15.3485C17.3869 15.3532 17.3792 15.3455 17.3754 15.3417L15.9634 13.9297C15.8139 13.7804 15.5966 13.729 15.3962 13.7959L14.4704 14.1045C14.3889 14.1319 14.3148 14.1778 14.254 14.2386C14.1931 14.2994 14.1472 14.3735 14.1198 14.4551L13.8112 15.3808C13.7444 15.5813 13.7957 15.7987 13.9452 15.9482L15.3571 17.3601C15.3611 17.3641 15.3686 17.3715 15.364 17.3867C15.3588 17.4036 15.3457 17.4062 15.3407 17.4072C14.4724 17.5782 13.5809 17.3075 12.9562 16.6828C12.3626 16.0892 12.09 15.271 12.2083 14.4378C12.214 14.3974 12.2103 14.3561 12.1973 14.3174C12.1844 14.2786 12.1626 14.2434 12.1337 14.2145L9.63983 11.7206L9.73285 11.0695L9.77875 11.1154C9.82928 11.166 9.88929 11.2061 9.95536 11.2334C10.0214 11.2607 10.0922 11.2747 10.1637 11.2746C10.3032 11.2746 10.4425 11.2215 10.5487 11.1154L10.9742 10.6899C11.1865 10.4776 11.1865 10.1322 10.9742 9.91991L10.3306 9.27628L10.8592 8.74769L14.2271 12.1156C14.256 12.1445 14.2913 12.1663 14.3302 12.1792C14.369 12.1922 14.4103 12.1959 14.4508 12.1901C15.2822 12.0706 16.1015 12.3442 16.6982 12.9409C17.3231 13.5658 17.5938 14.4575 17.4223 15.3261Z" fill="#212529"/>
<path d="M4.75343 4.32634L4.34198 4.73779C4.29293 4.78726 4.26548 4.85415 4.26563 4.92382C4.26577 4.99349 4.29351 5.06026 4.34277 5.10953C4.39204 5.15879 4.4588 5.18654 4.52847 5.18669C4.59814 5.18685 4.66503 5.1594 4.71451 5.11036L5.12596 4.6989C5.17501 4.64943 5.20247 4.58254 5.20232 4.51287C5.20217 4.4432 5.17443 4.37643 5.12517 4.32717C5.07591 4.2779 5.00914 4.25016 4.93947 4.25C4.8698 4.24984 4.80291 4.27729 4.75343 4.32634ZM13.2992 12.8721L12.8878 13.2836C12.8384 13.333 12.8106 13.4 12.8106 13.4699C12.8106 13.5398 12.8384 13.6068 12.8878 13.6562C12.9372 13.7056 13.0042 13.7333 13.0741 13.7333C13.144 13.7333 13.211 13.7056 13.2604 13.6562L13.6718 13.2447C13.7212 13.1953 13.749 13.1283 13.749 13.0584C13.749 12.9885 13.7212 12.9215 13.6718 12.8721C13.6224 12.8227 13.5554 12.795 13.4855 12.795C13.4156 12.795 13.3486 12.8227 13.2992 12.8721Z" fill="#212529"/>
</svg>
