<svg width="20" height="20" viewBox="0 0 20 20" fill="none" xmlns="http://www.w3.org/2000/svg">
<path d="M10.0011 12.9028C8.90436 12.9028 8.51726 12.6447 8.16242 12.3867C8.09791 12.3221 8.03339 12.2899 7.93662 12.2254C7.35597 12.0318 6.29146 11.1931 5.90436 9.22537C5.45275 9.06407 4.83984 8.5802 4.83984 7.41891C4.83984 6.51569 5.2592 6.22537 5.29146 6.19311C5.45275 6.09633 5.6463 6.12859 5.74307 6.28988C5.83984 6.45117 5.80759 6.64472 5.6463 6.74149C5.48501 6.83827 5.45275 6.90278 5.45275 7.45117C5.45275 8.54795 6.13017 8.67698 6.19468 8.67698C6.32371 8.70924 6.45275 8.80601 6.48501 8.93504C6.77533 10.8383 7.77533 11.5479 8.13017 11.6447C8.16242 11.6447 8.19468 11.677 8.19468 11.677L8.485 11.8705C8.80759 12.0963 9.06565 12.2899 9.96888 12.2899C10.8721 12.2899 11.1302 12.0963 11.4527 11.8705L11.7431 11.677C11.7753 11.677 11.7753 11.6447 11.8076 11.6447C12.1624 11.5479 13.1624 10.8383 13.4527 8.93504C13.485 8.77375 13.5818 8.67698 13.7431 8.67698C13.8076 8.67698 14.485 8.54795 14.485 7.45117C14.485 6.90278 14.2915 6.74149 14.2915 6.74149C14.1302 6.64472 14.0979 6.45117 14.2269 6.28988C14.3237 6.12859 14.5495 6.09633 14.6786 6.22537C14.7108 6.25762 15.1302 6.5802 15.1302 7.45117C15.1302 8.61246 14.5173 9.09633 14.0656 9.25762C13.7108 11.2254 12.614 12.0641 12.0334 12.2576C11.9366 12.3221 11.8721 12.3544 11.8076 12.4189C11.485 12.6447 11.0979 12.9028 10.0011 12.9028Z" fill="#212529"/>
<path d="M14.5161 6.77489C14.4516 6.77489 14.3871 6.77489 14.3548 6.71037C13.3226 6.06521 13.3226 5.16198 13.2903 4.38779C13.2581 3.71037 13.2581 3.06521 12.6774 2.48456C12.3226 2.12973 11.4194 1.93618 10 1.93618C8.58064 1.93618 7.67742 2.12973 7.32258 2.48456C6.74194 3.06521 6.74194 3.71037 6.70968 4.38779C6.67742 5.19424 6.67742 6.09747 5.64516 6.71037C5.48387 6.80714 5.29032 6.74263 5.19355 6.6136C5.09677 6.45231 5.16129 6.25876 5.29032 6.16198C6 5.71037 6.03226 5.12973 6.06452 4.35553C6.09677 3.6136 6.09677 2.77489 6.87097 2.00069C7.3871 1.51682 8.35484 1.29102 10 1.29102C11.6452 1.29102 12.6129 1.51682 13.129 2.03295C13.871 2.77489 13.9032 3.64585 13.9355 4.38779C13.9677 5.12973 13.9677 5.74263 14.7097 6.19424C14.871 6.29102 14.9032 6.48456 14.8065 6.64585C14.7419 6.71037 14.6129 6.77489 14.5161 6.77489ZM12.6129 13.3878C12.4516 13.3878 12.3226 13.291 12.2903 13.1297C12.2581 13.0007 12.2581 12.9039 12.2581 12.7749V11.5491C12.2581 11.3555 12.3871 11.2265 12.5806 11.2265C12.7742 11.2265 12.9032 11.3555 12.9032 11.5491V12.7749C12.9032 12.8394 12.9032 12.9039 12.9355 13.0007C12.9677 13.162 12.871 13.3555 12.7097 13.3878H12.6129ZM7.45161 13.3878H7.3871C7.22581 13.3555 7.09677 13.162 7.16129 13.0007C7.19355 12.9362 7.19355 12.8394 7.19355 12.7749V11.5813C7.19355 11.3878 7.32258 11.2588 7.51613 11.2588C7.70968 11.2588 7.83871 11.3878 7.83871 11.5813V12.7749C7.83871 12.9039 7.83871 13.033 7.80645 13.1297C7.70968 13.291 7.58065 13.3878 7.45161 13.3878ZM19.6774 20.0007C19.4839 20.0007 19.3548 19.8717 19.3548 19.6781C19.3548 18.0975 18.3871 17.2588 16.5161 16.1942C15.7419 15.7749 14.6452 15.162 14.5484 15.1297C14.5161 15.0975 14.4839 15.0975 14.4516 15.0652C14.3871 15.0007 14.3548 14.9362 14.3548 14.8394C14.3548 14.7426 14.3871 14.6459 14.4516 14.6136C14.4839 14.5491 14.5484 14.5168 14.6129 14.5491C14.7097 14.5491 14.8065 14.5813 14.871 14.6136C15.1613 14.7426 15.7419 15.0652 16.8064 15.6459C18.871 16.8071 20 17.7749 20 19.6781C20 19.8717 19.871 20.0007 19.6774 20.0007ZM0.322581 20.0007C0.129032 20.0007 0 19.8717 0 19.6781C0 17.7749 1.12903 16.8071 3.16129 15.6459C4.22581 15.033 4.77419 14.7426 5.09677 14.6136C5.16129 14.5491 5.25806 14.5168 5.35484 14.5491C5.45161 14.5491 5.48387 14.5813 5.51613 14.6136C5.58065 14.6781 5.6129 14.7426 5.6129 14.8394C5.6129 14.9362 5.58065 15.0007 5.51613 15.0652C5.48387 15.0975 5.45161 15.1297 5.41935 15.1297C5.32258 15.162 4.22581 15.7749 3.45161 16.1942C1.6129 17.2588 0.645161 18.0975 0.645161 19.6781C0.645161 19.8717 0.516129 20.0007 0.322581 20.0007Z" fill="#212529"/>
<path d="M14.614 6.87097C14.5818 6.87097 14.5495 6.87097 14.485 6.83871C14.3237 6.77419 14.2269 6.58065 14.2915 6.41935C14.5173 5.87097 14.5173 5.16129 14.5173 4.54839C14.5173 1.93548 13.0334 0.645161 10.0011 0.645161C6.96888 0.645161 5.48501 1.93548 5.48501 4.58065C5.48501 5.19355 5.48501 5.87097 5.71081 6.45161C5.77533 6.6129 5.67855 6.80645 5.51726 6.87097C5.35597 6.93548 5.16242 6.83871 5.09791 6.67742C4.83984 6 4.83984 5.19355 4.83984 4.58065C4.83984 1.54839 6.58178 0 10.0011 0C13.4205 0 15.1624 1.54839 15.1624 4.58065C15.1624 5.19355 15.1624 6 14.9044 6.67742C14.8721 6.77419 14.7431 6.87097 14.614 6.87097ZM10.0011 17.4194C9.8721 17.4194 9.77533 17.3548 9.71081 17.2581C9.35597 16.6452 8.83984 16.0323 8.32371 15.4839C7.485 14.5161 6.77533 13.7097 7.09791 12.9355C7.16242 12.7742 7.35597 12.6774 7.51726 12.7742C7.67855 12.8387 7.77533 13.0323 7.67855 13.1936C7.51726 13.5806 8.16242 14.3226 8.80759 15.0323C9.19468 15.4839 9.6463 15.9677 10.0011 16.4839C10.356 15.9677 10.7753 15.4839 11.1947 15.0323C11.8398 14.3226 12.485 13.5806 12.3237 13.1936C12.2592 13.0323 12.3237 12.8387 12.485 12.7742C12.6463 12.7097 12.8398 12.7742 12.9044 12.9355C13.2269 13.7097 12.485 14.5161 11.6463 15.4516C11.1302 16.0323 10.614 16.6129 10.2592 17.2258C10.2269 17.3548 10.1302 17.4194 10.0011 17.4194Z" fill="#212529"/>
<path d="M13.5494 16.7738C13.5171 16.7738 13.5171 16.7738 13.5494 16.7738C13.4204 16.7738 13.3236 16.7093 13.2913 16.6447C12.8397 15.9673 12.3558 15.548 11.9687 15.5157C11.7752 15.5157 11.6139 15.5802 11.4204 15.7738C11.2913 15.9028 11.0978 15.9028 10.9688 15.7738C10.8397 15.6447 10.8397 15.4512 10.9688 15.3222C11.3558 14.9028 11.7752 14.8383 12.0333 14.8706C12.6462 14.9351 13.1946 15.4189 13.6139 15.9673C13.9688 15.5802 14.2913 15.1609 14.3881 14.9673C13.9687 14.5157 13.0978 13.6447 12.5494 13.3867C12.3881 13.3222 12.3236 13.1286 12.3881 12.9673C12.4526 12.806 12.6462 12.7415 12.8075 12.806C13.6784 13.1931 14.9365 14.6125 15.001 14.677C15.0655 14.7415 15.0978 14.806 15.0978 14.9028C15.0978 15.3867 14.3236 16.2576 13.8397 16.7415C13.7107 16.7415 13.6139 16.7738 13.5494 16.7738ZM6.45262 16.7738C6.35585 16.7738 6.29133 16.7415 6.22681 16.677C5.7752 16.1931 4.96875 15.3222 4.96875 14.8383C4.96875 14.7738 5.00101 14.677 5.06552 14.6125C5.13004 14.548 6.35585 13.1609 7.25907 12.7415C7.42036 12.677 7.61391 12.7415 7.67843 12.9028C7.74294 13.0641 7.67843 13.2576 7.51714 13.3222C6.93649 13.5802 6.06552 14.4512 5.67843 14.9028C5.7752 15.0964 6.06552 15.5157 6.45262 15.9028C6.87198 15.3867 7.42036 14.8706 8.03327 14.806C8.29133 14.7738 8.71069 14.8383 9.09778 15.2576C9.22681 15.3867 9.22681 15.5802 9.09778 15.7093C8.96875 15.8383 8.7752 15.8383 8.64617 15.7093C8.48488 15.5157 8.29133 15.4512 8.09778 15.4512C7.71069 15.4835 7.22681 15.9028 6.7752 16.5802C6.67843 16.7093 6.58165 16.7738 6.45262 16.7738C6.48488 16.7738 6.48488 16.7738 6.45262 16.7738Z" fill="#212529"/>
<path d="M10.0019 19.999C9.93735 19.999 9.84058 19.9667 9.80832 19.9345C8.518 18.8377 7.42123 17.5474 6.64703 16.0635C6.55026 15.9022 6.61477 15.7086 6.77606 15.6119C6.93735 15.5151 7.1309 15.5796 7.22768 15.7409C7.93735 17.0957 8.9051 18.257 10.0341 19.257C11.1954 18.257 12.1309 17.0957 12.8406 15.7409C12.9374 15.5796 13.1309 15.5151 13.2922 15.6119C13.4535 15.7086 13.518 15.9022 13.4212 16.0635C12.6148 17.5474 11.5503 18.8699 10.2599 19.9345C10.1632 19.9667 10.0664 19.999 10.0019 19.999Z" fill="#212529"/>
</svg>
