<svg width="20" height="20" viewBox="0 0 20 20" fill="none" xmlns="http://www.w3.org/2000/svg">
<path d="M15.1613 0H10C9.91445 0 9.8324 0.0339851 9.7719 0.094479C9.7114 0.154973 9.67742 0.23702 9.67742 0.322572V9.22103L0.550645 0.0945135C0.505532 0.0494149 0.448059 0.018704 0.385494 0.00626324C0.322929 -0.00617757 0.258079 0.000210329 0.199144 0.0246193C0.140208 0.0490284 0.0898331 0.0903625 0.0543866 0.143397C0.01894 0.19643 1.36207e-05 0.258783 0 0.322572V19.6769C0 19.7624 0.0339861 19.8445 0.0944817 19.905C0.154977 19.9655 0.237027 19.9994 0.322581 19.9994H9.03226V19.3543H0.645161V17.4189H1.29032V16.7737H0.645161V16.1286H1.29032V15.4834H0.645161V14.8383H1.29032V14.1932H0.645161V13.548H1.93548V12.9029H0.645161V12.2577H1.29032V11.6126H0.645161V10.9674H1.29032V10.3223H0.645161V9.67715H1.29032V9.03201H0.645161V8.38686H1.29032V7.74172H0.645161V7.09658H1.93548V6.45143H0.645161V1.10126L9.67742 10.1333V13.0919L3.13129 6.54595C3.08618 6.50085 3.0287 6.47014 2.96614 6.4577C2.90357 6.44526 2.83872 6.45164 2.77979 6.47605C2.72085 6.50046 2.67048 6.5418 2.63503 6.59483C2.59959 6.64786 2.58066 6.71022 2.58065 6.774V17.0963C2.58065 17.1819 2.61463 17.2639 2.67513 17.3244C2.73562 17.3849 2.81767 17.4189 2.90323 17.4189H9.67742V19.6769C9.67742 19.7624 9.7114 19.8445 9.7719 19.905C9.8324 19.9655 9.91445 19.9994 10 19.9994H15.1613C15.2468 19.9994 15.3289 19.9655 15.3894 19.905C15.4499 19.8445 15.4839 19.7624 15.4839 19.6769V0.322572C15.4839 0.23702 15.4499 0.154973 15.3894 0.094479C15.3289 0.0339851 15.2468 0 15.1613 0ZM3.22581 16.7737V7.55269L9.67742 14.0041V16.7737H3.22581ZM10.3226 19.3543V0.645143H14.8387V1.29029H13.2258V1.93543H14.8387V2.58057H13.2258V3.22572H14.8387V3.87086H13.2258V4.516H14.8387V5.16115H13.2258V5.80629H14.8387V6.45143H11.9355V7.09658H14.8387V7.74172H13.2258V8.38686H14.8387V9.03201H13.2258V9.67715H14.8387V10.3223H13.2258V10.9674H14.8387V11.6126H13.2258V12.2577H14.8387V12.9029H11.9355V13.548H14.8387V14.1932H13.2258V14.8383H14.8387V19.3543H10.3226Z" fill="#212529"/>
<path d="M12.5794 16.1291C12.3242 16.1291 12.0747 16.2048 11.8625 16.3466C11.6503 16.4884 11.4849 16.6899 11.3873 16.9257C11.2896 17.1614 11.2641 17.4209 11.3139 17.6712C11.3636 17.9214 11.4865 18.1513 11.667 18.3318C11.8474 18.5122 12.0774 18.6351 12.3277 18.6849C12.578 18.7347 12.8374 18.7092 13.0732 18.6115C13.3089 18.5138 13.5105 18.3485 13.6522 18.1363C13.794 17.9241 13.8697 17.6746 13.8697 17.4194C13.8697 17.0772 13.7338 16.749 13.4918 16.5071C13.2498 16.2651 12.9216 16.1291 12.5794 16.1291ZM12.5794 18.0646C12.4518 18.0646 12.327 18.0267 12.221 17.9558C12.1149 17.885 12.0322 17.7842 11.9833 17.6663C11.9345 17.5484 11.9217 17.4187 11.9466 17.2936C11.9715 17.1684 12.033 17.0535 12.1232 16.9632C12.2134 16.873 12.3284 16.8116 12.4535 16.7867C12.5787 16.7618 12.7084 16.7746 12.8263 16.8234C12.9442 16.8722 13.0449 16.9549 13.1158 17.061C13.1867 17.1671 13.2245 17.2918 13.2245 17.4194C13.2245 17.5905 13.1566 17.7546 13.0356 17.8756C12.9146 17.9966 12.7505 18.0646 12.5794 18.0646ZM19.9774 4.40076L18.3645 0.207326C18.3412 0.146333 18.2999 0.0938582 18.2461 0.0568391C18.1923 0.0198199 18.1286 0 18.0633 0C17.998 0 17.9342 0.0198199 17.8804 0.0568391C17.8266 0.0938582 17.7853 0.146333 17.762 0.207326L16.1491 4.40076C16.1349 4.43773 16.1277 4.47698 16.1278 4.51656V18.0646C16.1278 18.5779 16.3317 19.0702 16.6947 19.4331C17.0576 19.7961 17.5499 20 18.0633 20C18.5766 20 19.0689 19.7961 19.4319 19.4331C19.7948 19.0702 19.9987 18.5779 19.9987 18.0646V4.51656C19.9988 4.47698 19.9916 4.43773 19.9774 4.40076ZM19.3187 4.48559L18.6942 5.52653L18.3316 4.98268C18.3004 4.94095 18.2599 4.90708 18.2133 4.88375C18.1667 4.86042 18.1154 4.84827 18.0633 4.84827C18.0112 4.84827 17.9598 4.86042 17.9132 4.88375C17.8666 4.90708 17.8261 4.94095 17.7949 4.98268L17.4323 5.52653L16.8078 4.4843L17.2916 3.22627H18.8336L19.3187 4.48559ZM17.7407 15.1614V6.22619L18.0633 5.74233L18.3858 6.22619V15.1614H17.7407ZM17.0955 6.21877V15.1614H16.7729V5.68104L17.0955 6.21877ZM16.7729 15.8066H19.3536V16.4517H16.7729V15.8066ZM19.031 15.1614V6.21877L19.3536 5.68104V15.1614H19.031ZM18.0633 1.22181L18.5862 2.58113H17.5404L18.0633 1.22181ZM18.0633 19.3549C17.721 19.3549 17.3928 19.2189 17.1509 18.9769C16.9089 18.735 16.7729 18.4068 16.7729 18.0646V17.0969H19.3536V18.0646C19.3536 18.4068 19.2176 18.735 18.9757 18.9769C18.7337 19.2189 18.4055 19.3549 18.0633 19.3549Z" fill="#212529"/>
</svg>
