<svg width="20" height="18" viewBox="0 0 20 18" fill="none" xmlns="http://www.w3.org/2000/svg">
<path d="M19.6552 3.72414H19.3103V0.310345C19.3103 0.228036 19.274 0.149099 19.2093 0.0908979C19.1447 0.0326969 19.057 0 18.9655 0H1.03448C0.943029 0 0.855321 0.0326969 0.790653 0.0908979C0.725985 0.149099 0.689655 0.228036 0.689655 0.310345V3.72414H0.344828C0.253374 3.72414 0.165665 3.75683 0.100998 3.81504C0.0363299 3.87324 0 3.95217 0 4.03448V13.9655C0 14.0478 0.0363299 14.1268 0.100998 14.185C0.165665 14.2432 0.253374 14.2759 0.344828 14.2759H0.689655V17.6897C0.689655 17.772 0.725985 17.8509 0.790653 17.9091C0.855321 17.9673 0.943029 18 1.03448 18H18.9655C19.057 18 19.1447 17.9673 19.2093 17.9091C19.274 17.8509 19.3103 17.772 19.3103 17.6897V14.2759H19.6552C19.7466 14.2759 19.8343 14.2432 19.899 14.185C19.9637 14.1268 20 14.0478 20 13.9655V4.03448C20 3.95217 19.9637 3.87324 19.899 3.81504C19.8343 3.75683 19.7466 3.72414 19.6552 3.72414ZM1.37931 0.62069H18.6207V3.72414H17.2414V3.05069C17.4715 2.97748 17.6654 2.83343 17.7888 2.64399C17.9123 2.45455 17.9574 2.23193 17.9161 2.01546C17.8749 1.799 17.7499 1.60263 17.5633 1.46107C17.3768 1.31951 17.1406 1.24187 16.8966 1.24187C16.6525 1.24187 16.4163 1.31951 16.2298 1.46107C16.0432 1.60263 15.9182 1.799 15.877 2.01546C15.8357 2.23193 15.8808 2.45455 16.0043 2.64399C16.1277 2.83343 16.3217 2.97748 16.5517 3.05069V3.72414H14.4828V3.05069C14.7128 2.97748 14.9067 2.83343 15.0302 2.64399C15.1537 2.45455 15.1988 2.23193 15.1575 2.01546C15.1163 1.799 14.9913 1.60263 14.8047 1.46107C14.6181 1.31951 14.382 1.24187 14.1379 1.24187C13.8939 1.24187 13.6577 1.31951 13.4712 1.46107C13.2846 1.60263 13.1596 1.799 13.1183 2.01546C13.0771 2.23193 13.1222 2.45455 13.2456 2.64399C13.3691 2.83343 13.563 2.97748 13.7931 3.05069V3.72414H11.7241V3.05069C11.9542 2.97748 12.1481 2.83343 12.2716 2.64399C12.3951 2.45455 12.4402 2.23193 12.3989 2.01546C12.3576 1.799 12.2327 1.60263 12.0461 1.46107C11.8595 1.31951 11.6233 1.24187 11.3793 1.24187C11.1353 1.24187 10.8991 1.31951 10.7125 1.46107C10.526 1.60263 10.401 1.799 10.3597 2.01546C10.3185 2.23193 10.3635 2.45455 10.487 2.64399C10.6105 2.83343 10.8044 2.97748 11.0345 3.05069V3.72414H8.96552V3.05069C9.19559 2.97748 9.3895 2.83343 9.51298 2.64399C9.63645 2.45455 9.68154 2.23193 9.64027 2.01546C9.59901 1.799 9.47404 1.60263 9.28747 1.46107C9.10089 1.31951 8.86472 1.24187 8.62069 1.24187C8.37666 1.24187 8.14049 1.31951 7.95391 1.46107C7.76733 1.60263 7.64237 1.799 7.60111 2.01546C7.55984 2.23193 7.60493 2.45455 7.7284 2.64399C7.85188 2.83343 8.04579 2.97748 8.27586 3.05069V3.72414H6.2069V3.05069C6.43697 2.97748 6.63088 2.83343 6.75436 2.64399C6.87783 2.45455 6.92292 2.23193 6.88165 2.01546C6.84039 1.799 6.71542 1.60263 6.52885 1.46107C6.34227 1.31951 6.1061 1.24187 5.86207 1.24187C5.61804 1.24187 5.38187 1.31951 5.19529 1.46107C5.00871 1.60263 4.88375 1.799 4.84248 2.01546C4.80122 2.23193 4.84631 2.45455 4.96978 2.64399C5.09326 2.83343 5.28717 2.97748 5.51724 3.05069V3.72414H3.44828V3.05069C3.67835 2.97748 3.87226 2.83343 3.99573 2.64399C4.11921 2.45455 4.1643 2.23193 4.12303 2.01546C4.08177 1.799 3.9568 1.60263 3.77023 1.46107C3.58365 1.31951 3.34748 1.24187 3.10345 1.24187C2.85942 1.24187 2.62324 1.31951 2.43667 1.46107C2.25009 1.60263 2.12513 1.799 2.08386 2.01546C2.0426 2.23193 2.08769 2.45455 2.21116 2.64399C2.33464 2.83343 2.52855 2.97748 2.75862 3.05069V3.72414H1.37931V0.62069ZM16.5517 2.17241C16.5517 2.11103 16.5719 2.05103 16.6098 2C16.6477 1.94896 16.7016 1.90918 16.7646 1.88569C16.8276 1.8622 16.8969 1.85606 16.9638 1.86803C17.0307 1.88001 17.0922 1.90956 17.1404 1.95297C17.1886 1.99637 17.2214 2.05167 17.2348 2.11187C17.2481 2.17207 17.2412 2.23447 17.2151 2.29118C17.189 2.34789 17.1448 2.39635 17.0881 2.43046C17.0314 2.46456 16.9648 2.48276 16.8966 2.48276C16.8051 2.48276 16.7174 2.45006 16.6527 2.39186C16.5881 2.33366 16.5517 2.25472 16.5517 2.17241ZM13.7931 2.17241C13.7931 2.11103 13.8133 2.05103 13.8512 2C13.8891 1.94896 13.943 1.90918 14.006 1.88569C14.069 1.8622 14.1383 1.85606 14.2052 1.86803C14.2721 1.88001 14.3335 1.90956 14.3818 1.95297C14.43 1.99637 14.4628 2.05167 14.4761 2.11187C14.4894 2.17207 14.4826 2.23447 14.4565 2.29118C14.4304 2.34789 14.3862 2.39635 14.3295 2.43046C14.2728 2.46456 14.2061 2.48276 14.1379 2.48276C14.0465 2.48276 13.9588 2.45006 13.8941 2.39186C13.8294 2.33366 13.7931 2.25472 13.7931 2.17241ZM11.0345 2.17241C11.0345 2.11103 11.0547 2.05103 11.0926 2C11.1305 1.94896 11.1843 1.90918 11.2474 1.88569C11.3104 1.8622 11.3797 1.85606 11.4466 1.86803C11.5135 1.88001 11.5749 1.90956 11.6231 1.95297C11.6714 1.99637 11.7042 2.05167 11.7175 2.11187C11.7308 2.17207 11.724 2.23447 11.6979 2.29118C11.6718 2.34789 11.6276 2.39635 11.5709 2.43046C11.5142 2.46456 11.4475 2.48276 11.3793 2.48276C11.2879 2.48276 11.2001 2.45006 11.1355 2.39186C11.0708 2.33366 11.0345 2.25472 11.0345 2.17241ZM8.27586 2.17241C8.27586 2.11103 8.29609 2.05103 8.33398 2C8.37187 1.94896 8.42572 1.90918 8.48873 1.88569C8.55174 1.8622 8.62107 1.85606 8.68796 1.86803C8.75485 1.88001 8.81629 1.90956 8.86452 1.95297C8.91275 1.99637 8.94559 2.05167 8.95889 2.11187C8.9722 2.17207 8.96537 2.23447 8.93927 2.29118C8.91317 2.34789 8.86897 2.39635 8.81227 2.43046C8.75556 2.46456 8.68889 2.48276 8.62069 2.48276C8.52924 2.48276 8.44153 2.45006 8.37686 2.39186C8.31219 2.33366 8.27586 2.25472 8.27586 2.17241ZM5.51724 2.17241C5.51724 2.11103 5.53747 2.05103 5.57536 2C5.61325 1.94896 5.6671 1.90918 5.73011 1.88569C5.79312 1.8622 5.86245 1.85606 5.92934 1.86803C5.99623 1.88001 6.05767 1.90956 6.1059 1.95297C6.15412 1.99637 6.18697 2.05167 6.20027 2.11187C6.21358 2.17207 6.20675 2.23447 6.18065 2.29118C6.15455 2.34789 6.11035 2.39635 6.05365 2.43046C5.99694 2.46456 5.93027 2.48276 5.86207 2.48276C5.77062 2.48276 5.68291 2.45006 5.61824 2.39186C5.55357 2.33366 5.51724 2.25472 5.51724 2.17241ZM2.75862 2.17241C2.75862 2.11103 2.77884 2.05103 2.81673 2C2.85462 1.94896 2.90848 1.90918 2.97149 1.88569C3.0345 1.8622 3.10383 1.85606 3.17072 1.86803C3.23761 1.88001 3.29905 1.90956 3.34728 1.95297C3.3955 1.99637 3.42834 2.05167 3.44165 2.11187C3.45496 2.17207 3.44813 2.23447 3.42203 2.29118C3.39593 2.34789 3.35173 2.39635 3.29502 2.43046C3.23832 2.46456 3.17165 2.48276 3.10345 2.48276C3.01199 2.48276 2.92429 2.45006 2.85962 2.39186C2.79495 2.33366 2.75862 2.25472 2.75862 2.17241ZM18.6207 17.3793H1.37931V14.2759H2.75862V14.9493C2.52855 15.0225 2.33464 15.1666 2.21116 15.356C2.08769 15.5454 2.0426 15.7681 2.08386 15.9845C2.12513 16.201 2.25009 16.3974 2.43667 16.5389C2.62324 16.6805 2.85942 16.7581 3.10345 16.7581C3.34748 16.7581 3.58365 16.6805 3.77023 16.5389C3.9568 16.3974 4.08177 16.201 4.12303 15.9845C4.1643 15.7681 4.11921 15.5454 3.99573 15.356C3.87226 15.1666 3.67835 15.0225 3.44828 14.9493V14.2759H5.51724V14.9493C5.28717 15.0225 5.09326 15.1666 4.96978 15.356C4.84631 15.5454 4.80122 15.7681 4.84248 15.9845C4.88375 16.201 5.00871 16.3974 5.19529 16.5389C5.38187 16.6805 5.61804 16.7581 5.86207 16.7581C6.1061 16.7581 6.34227 16.6805 6.52885 16.5389C6.71542 16.3974 6.84039 16.201 6.88165 15.9845C6.92292 15.7681 6.87783 15.5454 6.75436 15.356C6.63088 15.1666 6.43697 15.0225 6.2069 14.9493V14.2759H8.27586V14.9493C8.04579 15.0225 7.85188 15.1666 7.7284 15.356C7.60493 15.5454 7.55984 15.7681 7.60111 15.9845C7.64237 16.201 7.76733 16.3974 7.95391 16.5389C8.14049 16.6805 8.37666 16.7581 8.62069 16.7581C8.86472 16.7581 9.10089 16.6805 9.28747 16.5389C9.47404 16.3974 9.59901 16.201 9.64027 15.9845C9.68154 15.7681 9.63645 15.5454 9.51298 15.356C9.3895 15.1666 9.19559 15.0225 8.96552 14.9493V14.2759H11.0345V14.9493C10.8044 15.0225 10.6105 15.1666 10.487 15.356C10.3635 15.5454 10.3185 15.7681 10.3597 15.9845C10.401 16.201 10.526 16.3974 10.7125 16.5389C10.8991 16.6805 11.1353 16.7581 11.3793 16.7581C11.6233 16.7581 11.8595 16.6805 12.0461 16.5389C12.2327 16.3974 12.3576 16.201 12.3989 15.9845C12.4402 15.7681 12.3951 15.5454 12.2716 15.356C12.1481 15.1666 11.9542 15.0225 11.7241 14.9493V14.2759H13.7931V14.9493C13.563 15.0225 13.3691 15.1666 13.2456 15.356C13.1222 15.5454 13.0771 15.7681 13.1183 15.9845C13.1596 16.201 13.2846 16.3974 13.4712 16.5389C13.6577 16.6805 13.8939 16.7581 14.1379 16.7581C14.382 16.7581 14.6181 16.6805 14.8047 16.5389C14.9913 16.3974 15.1163 16.201 15.1575 15.9845C15.1988 15.7681 15.1537 15.5454 15.0302 15.356C14.9067 15.1666 14.7128 15.0225 14.4828 14.9493V14.2759H16.5517V14.9493C16.3217 15.0225 16.1277 15.1666 16.0043 15.356C15.8808 15.5454 15.8357 15.7681 15.877 15.9845C15.9182 16.201 16.0432 16.3974 16.2298 16.5389C16.4163 16.6805 16.6525 16.7581 16.8966 16.7581C17.1406 16.7581 17.3768 16.6805 17.5633 16.5389C17.7499 16.3974 17.8749 16.201 17.9161 15.9845C17.9574 15.7681 17.9123 15.5454 17.7888 15.356C17.6654 15.1666 17.4715 15.0225 17.2414 14.9493V14.2759H18.6207V17.3793ZM3.44828 15.8276C3.44828 15.889 3.42805 15.949 3.39016 16C3.35227 16.051 3.29842 16.0908 3.23541 16.1143C3.1724 16.1378 3.10307 16.1439 3.03618 16.132C2.96929 16.12 2.90784 16.0904 2.85962 16.047C2.81139 16.0036 2.77855 15.9483 2.76525 15.8881C2.75194 15.8279 2.75877 15.7655 2.78487 15.7088C2.81097 15.6521 2.85517 15.6036 2.91187 15.5695C2.96858 15.5354 3.03525 15.5172 3.10345 15.5172C3.1949 15.5172 3.28261 15.5499 3.34728 15.6081C3.41195 15.6663 3.44828 15.7453 3.44828 15.8276ZM6.2069 15.8276C6.2069 15.889 6.18667 15.949 6.14878 16C6.11089 16.051 6.05704 16.0908 5.99403 16.1143C5.93102 16.1378 5.86169 16.1439 5.7948 16.132C5.72791 16.12 5.66646 16.0904 5.61824 16.047C5.57001 16.0036 5.53717 15.9483 5.52387 15.8881C5.51056 15.8279 5.51739 15.7655 5.54349 15.7088C5.56959 15.6521 5.61379 15.6036 5.67049 15.5695C5.7272 15.5354 5.79387 15.5172 5.86207 15.5172C5.95352 15.5172 6.04123 15.5499 6.1059 15.6081C6.17057 15.6663 6.2069 15.7453 6.2069 15.8276ZM8.96552 15.8276C8.96552 15.889 8.94529 15.949 8.9074 16C8.86951 16.051 8.81566 16.0908 8.75265 16.1143C8.68964 16.1378 8.62031 16.1439 8.55342 16.132C8.48653 16.12 8.42509 16.0904 8.37686 16.047C8.32863 16.0036 8.29579 15.9483 8.28249 15.8881C8.26918 15.8279 8.27601 15.7655 8.30211 15.7088C8.32821 15.6521 8.37241 15.6036 8.42911 15.5695C8.48582 15.5354 8.55249 15.5172 8.62069 15.5172C8.71214 15.5172 8.79985 15.5499 8.86452 15.6081C8.92919 15.6663 8.96552 15.7453 8.96552 15.8276ZM11.7241 15.8276C11.7241 15.889 11.7039 15.949 11.666 16C11.6281 16.051 11.5743 16.0908 11.5113 16.1143C11.4483 16.1378 11.3789 16.1439 11.312 16.132C11.2451 16.12 11.1837 16.0904 11.1355 16.047C11.0873 16.0036 11.0544 15.9483 11.0411 15.8881C11.0278 15.8279 11.0346 15.7655 11.0607 15.7088C11.0868 15.6521 11.131 15.6036 11.1877 15.5695C11.2444 15.5354 11.3111 15.5172 11.3793 15.5172C11.4708 15.5172 11.5585 15.5499 11.6231 15.6081C11.6878 15.6663 11.7241 15.7453 11.7241 15.8276ZM14.4828 15.8276C14.4828 15.889 14.4625 15.949 14.4246 16C14.3868 16.051 14.3329 16.0908 14.2699 16.1143C14.2069 16.1378 14.1375 16.1439 14.0707 16.132C14.0038 16.12 13.9423 16.0904 13.8941 16.047C13.8459 16.0036 13.813 15.9483 13.7997 15.8881C13.7864 15.8279 13.7933 15.7655 13.8194 15.7088C13.8455 15.6521 13.8896 15.6036 13.9464 15.5695C14.0031 15.5354 14.0697 15.5172 14.1379 15.5172C14.2294 15.5172 14.3171 15.5499 14.3818 15.6081C14.4464 15.6663 14.4828 15.7453 14.4828 15.8276ZM17.2414 15.8276C17.2414 15.889 17.2212 15.949 17.1833 16C17.1454 16.051 17.0915 16.0908 17.0285 16.1143C16.9655 16.1378 16.8962 16.1439 16.8293 16.132C16.7624 16.12 16.7009 16.0904 16.6527 16.047C16.6045 16.0036 16.5717 15.9483 16.5583 15.8881C16.545 15.8279 16.5519 15.7655 16.578 15.7088C16.6041 15.6521 16.6483 15.6036 16.705 15.5695C16.7617 15.5354 16.8284 15.5172 16.8966 15.5172C16.988 15.5172 17.0757 15.5499 17.1404 15.6081C17.205 15.6663 17.2414 15.7453 17.2414 15.8276ZM19.3103 13.6552H0.689655V4.34483H19.3103V13.6552Z" fill="#212529"/>
<path d="M10.0013 6.20703H2.41514C2.32369 6.20703 2.23598 6.23973 2.17131 6.29793C2.10664 6.35613 2.07031 6.43507 2.07031 6.51738V11.4829C2.07031 11.5652 2.10664 11.6441 2.17131 11.7023C2.23598 11.7605 2.32369 11.7932 2.41514 11.7932H10.0013C10.0928 11.7932 10.1805 11.7605 10.2452 11.7023C10.3098 11.6441 10.3462 11.5652 10.3462 11.4829V6.51738C10.3462 6.43507 10.3098 6.35613 10.2452 6.29793C10.1805 6.23973 10.0928 6.20703 10.0013 6.20703ZM9.65652 11.1725H2.75997V6.82772H9.65652V11.1725ZM14.8289 6.20703C14.2151 6.20703 13.6151 6.37084 13.1047 6.67775C12.5944 6.98466 12.1966 7.42089 11.9617 7.93126C11.7268 8.44163 11.6654 9.00323 11.7851 9.54504C11.9049 10.0869 12.2004 10.5845 12.6345 10.9752C13.0685 11.3658 13.6215 11.6318 14.2235 11.7396C14.8255 11.8473 15.4495 11.792 16.0166 11.5806C16.5837 11.3692 17.0683 11.0112 17.4094 10.5519C17.7504 10.0926 17.9324 9.55256 17.9324 9.00013C17.9315 8.25961 17.6042 7.54965 17.0224 7.02602C16.4406 6.50239 15.6517 6.20785 14.8289 6.20703ZM14.8289 11.1725C14.3515 11.1725 13.8848 11.0451 13.4879 10.8064C13.091 10.5677 12.7816 10.2284 12.5989 9.83148C12.4162 9.43452 12.3684 8.99772 12.4615 8.57632C12.5547 8.15491 12.7845 7.76782 13.1221 7.46401C13.4597 7.16019 13.8898 6.95329 14.358 6.86946C14.8263 6.78564 15.3116 6.82866 15.7527 6.99309C16.1937 7.15751 16.5707 7.43595 16.8359 7.79321C17.1012 8.15046 17.2427 8.57047 17.2427 9.00013C17.242 9.57609 16.9875 10.1283 16.5349 10.5355C16.0824 10.9428 15.4689 11.1719 14.8289 11.1725Z" fill="#212529"/>
</svg>
