<svg width="20" height="20" viewBox="0 0 20 20" fill="none" xmlns="http://www.w3.org/2000/svg">
<path d="M19.5242 2.08333H19.0483V1.25C19.0483 0.918479 18.8979 0.600537 18.6302 0.366116C18.3625 0.131696 17.9994 0 17.6208 0L3.34549 0C2.96688 0 2.60379 0.131696 2.33607 0.366116C2.06836 0.600537 1.91796 0.918479 1.91796 1.25V2.08333H0.49043C0.364229 2.08333 0.243196 2.12723 0.153958 2.20537C0.0647203 2.28351 0.014587 2.38949 0.014587 2.5C0.014587 7.8125 -0.094857 7.71667 0.285818 7.875L10.0073 11.9292V13.3333H8.57976C8.45356 13.3333 8.33253 13.3772 8.24329 13.4554C8.15405 13.5335 8.10392 13.6395 8.10392 13.75C8.10392 13.8605 8.15405 13.9665 8.24329 14.0446C8.33253 14.1228 8.45356 14.1667 8.57976 14.1667V18.3333C8.57976 18.7754 8.7803 19.1993 9.13725 19.5118C9.4942 19.8244 9.97833 20 10.4831 20C10.9879 20 11.4721 19.8244 11.829 19.5118C12.186 19.1993 12.3865 18.7754 12.3865 18.3333V14.1667C12.5127 14.1667 12.6337 14.1228 12.723 14.0446C12.8122 13.9665 12.8624 13.8605 12.8624 13.75C12.8624 13.6395 12.8122 13.5335 12.723 13.4554C12.6337 13.3772 12.5127 13.3333 12.3865 13.3333H10.959C10.959 11.5875 11.0446 11.4417 10.6877 11.2917L0.966273 7.2375V2.91667H1.91796V3.75C1.91796 4.08152 2.06836 4.39946 2.33607 4.63388C2.60379 4.8683 2.96688 5 3.34549 5H17.6208C17.9994 5 18.3625 4.8683 18.6302 4.63388C18.8979 4.39946 19.0483 4.08152 19.0483 3.75V2.91667H19.5242C19.6504 2.91667 19.7714 2.87277 19.8606 2.79463C19.9499 2.71649 20 2.61051 20 2.5C20 2.38949 19.9499 2.28351 19.8606 2.20537C19.7714 2.12723 19.6504 2.08333 19.5242 2.08333ZM11.4348 18.3333C11.4348 18.5543 11.3346 18.7663 11.1561 18.9226C10.9776 19.0789 10.7355 19.1667 10.4831 19.1667C10.2307 19.1667 9.98867 19.0789 9.81019 18.9226C9.63172 18.7663 9.53145 18.5543 9.53145 18.3333V14.1667H11.4348V18.3333ZM18.0966 3.75C18.0966 3.86051 18.0465 3.96649 17.9573 4.04463C17.868 4.12277 17.747 4.16667 17.6208 4.16667H3.34549C3.21929 4.16667 3.09826 4.12277 3.00902 4.04463C2.91978 3.96649 2.86965 3.86051 2.86965 3.75V1.25C2.86965 1.13949 2.91978 1.03351 3.00902 0.955372C3.09826 0.877232 3.21929 0.833333 3.34549 0.833333H17.6208C17.747 0.833333 17.868 0.877232 17.9573 0.955372C18.0465 1.03351 18.0966 1.13949 18.0966 1.25V3.75Z" fill="#212529"/>
<path d="M18.0995 6.24935V8.33268C18.0995 8.44319 18.0494 8.54917 17.9601 8.62731C17.8709 8.70545 17.7499 8.74935 17.6237 8.74935C17.4975 8.74935 17.3764 8.70545 17.2872 8.62731C17.198 8.54917 17.1478 8.44319 17.1478 8.33268V7.91602C17.1478 7.5845 16.9974 7.26655 16.7297 7.03213C16.462 6.79771 16.0989 6.66602 15.7203 6.66602C15.3417 6.66602 14.9786 6.79771 14.7109 7.03213C14.4432 7.26655 14.2928 7.5845 14.2928 7.91602V9.58268C14.2928 9.8037 14.1925 10.0157 14.014 10.1719C13.8356 10.3282 13.5935 10.416 13.3411 10.416C13.0887 10.416 12.8466 10.3282 12.6681 10.1719C12.4897 10.0157 12.3894 9.8037 12.3894 9.58268V6.24935C12.3894 6.13884 12.3393 6.03286 12.25 5.95472C12.1608 5.87658 12.0398 5.83268 11.9136 5.83268C11.7874 5.83268 11.6663 5.87658 11.5771 5.95472C11.4878 6.03286 11.4377 6.13884 11.4377 6.24935V9.58268C11.4377 10.0247 11.6382 10.4486 11.9952 10.7612C12.3521 11.0738 12.8363 11.2493 13.3411 11.2493C13.8459 11.2493 14.33 11.0738 14.687 10.7612C15.0439 10.4486 15.2445 10.0247 15.2445 9.58268V7.91602C15.2445 7.80551 15.2946 7.69953 15.3838 7.62139C15.4731 7.54325 15.5941 7.49935 15.7203 7.49935C15.8465 7.49935 15.9675 7.54325 16.0568 7.62139C16.146 7.69953 16.1961 7.80551 16.1961 7.91602V8.33268C16.1961 8.6642 16.3465 8.98215 16.6143 9.21657C16.882 9.45099 17.2451 9.58268 17.6237 9.58268C18.0023 9.58268 18.3654 9.45099 18.6331 9.21657C18.9008 8.98215 19.0512 8.6642 19.0512 8.33268V6.24935C19.0512 6.13884 19.0011 6.03286 18.9118 5.95472C18.8226 5.87658 18.7016 5.83268 18.5754 5.83268C18.4492 5.83268 18.3281 5.87658 18.2389 5.95472C18.1496 6.03286 18.0995 6.13884 18.0995 6.24935ZM6.67928 1.66602H4.30006C4.17386 1.66602 4.05283 1.70991 3.96359 1.78805C3.87435 1.86619 3.82422 1.97218 3.82422 2.08268C3.82422 2.19319 3.87435 2.29917 3.96359 2.37731C4.05283 2.45545 4.17386 2.49935 4.30006 2.49935H6.67928C6.80548 2.49935 6.92651 2.45545 7.01575 2.37731C7.10499 2.29917 7.15512 2.19319 7.15512 2.08268C7.15512 1.97218 7.10499 1.86619 7.01575 1.78805C6.92651 1.70991 6.80548 1.66602 6.67928 1.66602ZM9.05849 1.66602H8.10681C7.98061 1.66602 7.85957 1.70991 7.77034 1.78805C7.6811 1.86619 7.63096 1.97218 7.63096 2.08268C7.63096 2.19319 7.6811 2.29917 7.77034 2.37731C7.85957 2.45545 7.98061 2.49935 8.10681 2.49935H9.05849C9.1847 2.49935 9.30573 2.45545 9.39497 2.37731C9.4842 2.29917 9.53434 2.19319 9.53434 2.08268C9.53434 1.97218 9.4842 1.86619 9.39497 1.78805C9.30573 1.70991 9.1847 1.66602 9.05849 1.66602Z" fill="#212529"/>
</svg>
