<svg width="20" height="20" viewBox="0 0 20 20" fill="none" xmlns="http://www.w3.org/2000/svg">
<path d="M6.77206 9.33262C8.19504 9.33262 9.35271 8.36064 9.35271 7.16592C9.35271 7.07751 9.31872 6.99272 9.25822 6.93021C9.19773 6.8677 9.11568 6.83258 9.03012 6.83258C8.94457 6.83258 8.86252 6.8677 8.80203 6.93021C8.74153 6.99272 8.70754 7.07751 8.70754 7.16592C8.70754 7.90784 8.00879 8.52531 7.09464 8.64469V7.58676C7.12876 7.56917 7.16149 7.54884 7.19254 7.52596L7.74 7.12225C7.84046 7.04691 7.92211 6.94791 7.97816 6.83347C8.03422 6.71902 8.06308 6.59242 8.06234 6.46415C8.06234 6.02406 7.72911 5.66602 7.31952 5.66602H6.22456C5.81496 5.66602 5.48173 6.02406 5.48173 6.46415C5.481 6.59242 5.50985 6.71902 5.56591 6.83347C5.62196 6.94791 5.70361 7.04691 5.80407 7.12225L6.35153 7.52596C6.38258 7.54886 6.41533 7.56918 6.44947 7.58676V8.64469C5.53532 8.52531 4.83657 7.90784 4.83657 7.16592C4.83657 7.07751 4.80258 6.99272 4.74209 6.93021C4.68159 6.8677 4.59954 6.83258 4.51399 6.83258C4.42843 6.83258 4.34638 6.8677 4.28589 6.93021C4.22539 6.99272 4.19141 7.07751 4.19141 7.16592C4.19141 8.36064 5.34907 9.33262 6.77206 9.33262ZM6.17891 6.57949C6.16215 6.56575 6.14873 6.54816 6.13971 6.52811C6.1307 6.50807 6.12633 6.48612 6.12697 6.46403C6.12697 6.39278 6.17173 6.33257 6.22464 6.33257H7.31964C7.37258 6.33257 7.4173 6.39278 7.4173 6.46403C7.41793 6.48613 7.41356 6.50807 7.40454 6.52812C7.39551 6.54816 7.38209 6.56575 7.36532 6.57949L6.81786 6.98316C6.80475 6.9936 6.78867 6.99926 6.77212 6.99926C6.75557 6.99926 6.73948 6.9936 6.72637 6.98316L6.17891 6.57949Z" fill="#212529"/>
<path d="M8.70539 5.66668C8.88355 5.66668 9.02797 5.51744 9.02797 5.33334C9.02797 5.14924 8.88355 5 8.70539 5C8.52724 5 8.38281 5.14924 8.38281 5.33334C8.38281 5.51744 8.52724 5.66668 8.70539 5.66668Z" fill="#212529"/>
<path d="M4.8343 5.66668C5.01246 5.66668 5.15688 5.51744 5.15688 5.33334C5.15688 5.14924 5.01246 5 4.8343 5C4.65614 5 4.51172 5.14924 4.51172 5.33334C4.51172 5.51744 4.65614 5.66668 4.8343 5.66668Z" fill="#212529"/>
<path d="M15.1614 12.3327C15.4166 12.3327 15.6661 12.2545 15.8783 12.108C16.0905 11.9615 16.2559 11.7533 16.3535 11.5096C16.4512 11.266 16.4767 10.9979 16.427 10.7392C16.3772 10.4806 16.2543 10.243 16.0738 10.0565C15.8934 9.87007 15.6634 9.74308 15.4131 9.69164C15.1628 9.64019 14.9034 9.66659 14.6676 9.76751C14.4319 9.86843 14.2303 10.0393 14.0886 10.2586C13.9468 10.4779 13.8711 10.7357 13.8711 10.9994C13.8715 11.3529 14.0075 11.6918 14.2494 11.9418C14.4913 12.1917 14.8193 12.3323 15.1614 12.3327ZM15.1614 10.3327C15.289 10.3327 15.4138 10.3718 15.5199 10.445C15.6259 10.5183 15.7086 10.6224 15.7575 10.7442C15.8063 10.8661 15.8191 11.0001 15.7942 11.1294C15.7693 11.2588 15.7078 11.3775 15.6176 11.4708C15.5274 11.564 15.4124 11.6275 15.2873 11.6532C15.1621 11.679 15.0324 11.6658 14.9145 11.6153C14.7966 11.5648 14.6959 11.4794 14.625 11.3698C14.5541 11.2601 14.5163 11.1312 14.5163 10.9994C14.5165 10.8226 14.5845 10.6532 14.7054 10.5282C14.8264 10.4032 14.9904 10.3329 15.1614 10.3327Z" fill="#212529"/>
<path d="M19.6774 12.9999H17.7419V8.66648C17.742 8.59809 17.7216 8.53136 17.6835 8.47544L15.4254 5.14205C15.3957 5.09814 15.3561 5.06229 15.3101 5.03754C15.2641 5.01278 15.213 4.99986 15.1611 4.99986C15.1093 4.99986 15.0581 5.01278 15.0121 5.03754C14.9661 5.06229 14.9266 5.09814 14.8968 5.14205L12.6388 8.47544C12.6008 8.5314 12.5805 8.59813 12.5806 8.66648V10.7525C12.1389 10.1388 11.5495 9.62962 10.8218 9.23687C11.5403 8.36419 11.9318 7.23025 11.9318 5.99977C11.9335 5.45607 11.8537 4.91537 11.6953 4.39691C12.0095 4.22553 12.2801 3.97996 12.4852 3.68016C12.6902 3.38036 12.8239 3.03479 12.8754 2.67154C12.9269 2.30829 12.8947 1.9376 12.7815 1.58963C12.6682 1.24165 12.4771 0.92619 12.2237 0.668898C11.9703 0.411605 11.6617 0.219739 11.323 0.108894C10.9843 -0.00195078 10.625 -0.0286457 10.2745 0.030979C9.9239 0.0906038 9.5919 0.234866 9.30544 0.452038C9.01899 0.669211 8.78617 0.953165 8.62591 1.28082C8.02503 1.0895 7.39928 0.994687 6.77054 0.99969C6.14184 0.994688 5.51613 1.08952 4.9153 1.28086C4.75504 0.953205 4.52222 0.669247 4.23577 0.452071C3.94932 0.234895 3.61732 0.0906283 3.26676 0.0309988C2.9162 -0.0286307 2.55697 -0.00194059 2.21826 0.1089C1.87956 0.21974 1.57095 0.411602 1.31751 0.668891C1.06408 0.926179 0.872968 1.24163 0.759721 1.58961C0.646473 1.93759 0.614283 2.30827 0.665768 2.67152C0.717253 3.03478 0.850959 3.38035 1.05602 3.68015C1.26108 3.97996 1.5317 4.22553 1.8459 4.39691C1.68741 4.91537 1.60758 5.45606 1.60924 5.99977C1.60924 7.23025 2.00094 8.36423 2.71928 9.23687C1.1488 10.0845 0.222828 11.4746 0.0328679 13.2844C0.0324647 13.2886 0.0320615 13.2927 0.0317792 13.2969L0.000771137 13.7545C-0.000257046 13.7695 -0.000257046 13.7846 0.000771137 13.7996C0.0265637 14.1898 0.162266 14.5637 0.391155 14.8752C0.620044 15.1866 0.932118 15.4221 1.28892 15.5525C1.07609 16.0032 0.966196 16.4984 0.967708 17C0.967708 18.6541 2.12537 20 3.54836 20C4.31449 20 5.00332 19.6095 5.47639 18.9911C5.87444 19.2157 6.32068 19.3333 6.77417 19.3333C7.22766 19.3333 7.6739 19.2157 8.07196 18.9911C8.54502 19.6095 9.23385 20 9.99998 20C11.0111 20 11.8878 19.3202 12.3108 18.3333H19.6774C19.763 18.3333 19.845 18.2982 19.9055 18.2357C19.966 18.1732 20 18.0884 20 18V13.3332C20 13.2448 19.966 13.16 19.9055 13.0975C19.845 13.035 19.763 12.9999 19.6774 12.9999ZM15.1613 5.91435L16.7998 8.33314H13.5228L15.1613 5.91435ZM13.2258 8.99982H17.0968V12.9999H13.4711C13.4202 12.6593 13.3381 12.3244 13.2258 11.9999V8.99982ZM12.2583 15.5502C12.5623 15.4374 12.8344 15.2483 13.05 14.9999H13.5484V16.3333H12.5156C12.4628 16.0619 12.3763 15.7987 12.2583 15.5502ZM12.8661 13.3501L12.8951 13.7774C12.8719 14.0595 12.7626 14.3267 12.5828 14.5405C12.4031 14.7542 12.1623 14.9035 11.8951 14.9666C11.4908 14.4576 10.9371 14.1119 10.3157 14.0233C10.257 12.6675 9.81474 11.4165 9.09216 10.5406C9.54774 10.3417 9.9702 10.07 10.3441 9.73546C11.8217 10.4669 12.6923 11.712 12.8661 13.3499V13.3501ZM10.6415 0.666351C10.9959 0.666233 11.3406 0.786759 11.6221 1.0093C11.9036 1.23184 12.1063 1.544 12.1989 1.89753C12.2915 2.25105 12.2689 2.62626 12.1344 2.96515C12 3.30404 11.7613 3.58775 11.4552 3.7724C11.23 3.2848 10.9244 2.84144 10.552 2.46221C10.1677 2.07273 9.72112 1.7549 9.23196 1.52278C9.37201 1.26343 9.57645 1.04735 9.82421 0.896814C10.072 0.746277 10.3541 0.666724 10.6415 0.666351ZM1.28666 2.33305C1.28656 1.96379 1.40513 1.60496 1.62376 1.31289C1.84238 1.02081 2.14868 0.812023 2.49456 0.719303C2.84045 0.626583 3.20634 0.65518 3.53479 0.800605C3.86324 0.94603 4.13567 1.20005 4.30929 1.52278C3.82012 1.75488 3.37351 2.07271 2.98924 2.46221C2.61683 2.84142 2.31118 3.28476 2.08602 3.77236C1.84297 3.62521 1.64135 3.41499 1.50114 3.16253C1.36093 2.91007 1.28699 2.62413 1.28666 2.33305ZM3.44162 2.93756C4.26001 2.10596 5.41127 1.66637 6.77054 1.66637C8.12982 1.66637 9.28107 2.10596 10.0995 2.9376C10.8651 3.71553 11.2867 4.803 11.2867 5.99977C11.2867 7.19654 10.8651 8.28402 10.0995 9.06195C9.28107 9.89359 8.12994 10.3332 6.77054 10.3332C5.41114 10.3332 4.26001 9.89359 3.44162 9.06199C2.67602 8.28402 2.2544 7.19654 2.2544 5.99977C2.2544 4.803 2.67602 3.71553 3.44162 2.93756ZM0.645974 13.7773L0.674926 13.35C0.848757 11.712 1.71928 10.4668 3.19699 9.73533C3.57249 10.0714 3.99702 10.344 4.45485 10.5431C3.73441 11.4192 3.29166 12.6739 3.23259 14.0232C2.6107 14.1118 2.05642 14.4582 1.65202 14.9678C1.38357 14.9058 1.14127 14.7569 0.960341 14.5428C0.779411 14.3287 0.669285 14.0605 0.645974 13.7773ZM3.54836 19.3333C2.4811 19.3333 1.61287 18.2866 1.61287 17C1.61287 15.7133 2.4811 14.6666 3.54836 14.6666C4.61562 14.6666 5.48385 15.7133 5.48385 17C5.48385 18.2866 4.61562 19.3333 3.54836 19.3333ZM6.77417 18.6666C6.4417 18.6655 6.11431 18.5822 5.81933 18.4237C6.02469 17.9792 6.13053 17.4925 6.12901 17C6.12901 15.4758 5.14606 14.2144 3.87852 14.0253C3.94054 12.7253 4.39251 11.5369 5.11828 10.7804C5.65708 10.9295 6.21278 11.0033 6.77054 10.9999C7.33019 11.0033 7.88775 10.9291 8.42825 10.779C9.15631 11.5353 9.60829 12.719 9.66994 14.0254C8.40236 14.2144 7.41933 15.4758 7.41933 17C7.41781 17.4925 7.52365 17.9792 7.72901 18.4237C7.43403 18.5822 7.10664 18.6655 6.77417 18.6666ZM9.99998 19.3333C8.93272 19.3333 8.0645 18.2866 8.0645 17C8.0645 15.7133 8.93272 14.6666 9.99998 14.6666C11.0672 14.6666 11.9355 15.7133 11.9355 17C11.9355 18.2866 11.0672 19.3333 9.99998 19.3333ZM12.5806 17H13.871C13.9565 17 14.0386 16.9648 14.0991 16.9023C14.1596 16.8398 14.1935 16.755 14.1935 16.6666V14.6666C14.1935 14.5782 14.1596 14.4934 14.0991 14.4309C14.0386 14.3684 13.9565 14.3332 13.871 14.3332H13.4337C13.4929 14.1613 13.5288 13.9817 13.5404 13.7996C13.5414 13.7846 13.5414 13.7695 13.5404 13.7545L13.5345 13.6666H14.8387V17.6666H12.5156C12.5588 17.4472 12.5806 17.2239 12.5806 17ZM19.3548 17.6666H15.4839V13.6666H19.3548V17.6666Z" fill="#212529"/>
<path d="M16.4515 17.0007H18.387C18.442 17.0007 18.496 16.9861 18.544 16.9585C18.5921 16.9308 18.6325 16.8909 18.6614 16.8426C18.6903 16.7942 18.7067 16.7391 18.7092 16.6823C18.7117 16.6255 18.7001 16.5691 18.6755 16.5182L17.7077 14.5182C17.6809 14.4629 17.6398 14.4163 17.5888 14.3838C17.5378 14.3512 17.4791 14.334 17.4192 14.334C17.3593 14.334 17.3006 14.3512 17.2496 14.3838C17.1987 14.4163 17.1575 14.4629 17.1307 14.5182L16.163 16.5182C16.1384 16.5691 16.1268 16.6255 16.1292 16.6823C16.1317 16.7391 16.1482 16.7942 16.1771 16.8426C16.206 16.8909 16.2464 16.9308 16.2944 16.9585C16.3424 16.9861 16.3965 17.0007 16.4515 17.0007ZM17.4192 15.4127L17.865 16.334H16.9734L17.4192 15.4127Z" fill="#212529"/>
</svg>
