<svg width="20" height="20" viewBox="0 0 20 20" fill="none" xmlns="http://www.w3.org/2000/svg">
<path d="M0.859375 10.8516H3.78863V11.4778H0.859375V10.8516ZM4.4133 10.8516H6.09059V11.4778H4.4133V10.8516Z" fill="#212529"/>
<path d="M7.63027 4.99276C7.39197 4.90414 7.12857 4.91149 6.89558 5.01326C6.66259 5.11503 6.47821 5.30327 6.38128 5.53832L6.36505 5.57736L6.36234 5.31715L6.35832 2.18458C6.35764 1.6183 5.89636 1.15744 5.32648 1.15718H5.32607C5.1368 1.15706 4.95122 1.20955 4.79005 1.30878C4.61345 0.995555 4.27805 0.783207 3.89374 0.783207C3.75842 0.782837 3.62436 0.809347 3.49936 0.861199C3.37437 0.913052 3.26091 0.989213 3.16558 1.08526C3.09073 1.16035 3.0279 1.24653 2.97933 1.34077C2.82328 1.25022 2.64607 1.20253 2.46565 1.20253H2.46549C2.33025 1.20216 2.19628 1.22863 2.07135 1.28042C1.94642 1.33221 1.83301 1.40828 1.7377 1.50422C1.67376 1.56858 1.6186 1.64108 1.57362 1.71986C1.41225 1.62022 1.22632 1.56751 1.03667 1.56763H1.02837C0.892854 1.56729 0.758624 1.59391 0.633497 1.64595C0.508369 1.69799 0.394843 1.7744 0.299529 1.87073C0.20367 1.96651 0.127824 2.08041 0.0764059 2.20579C0.0249876 2.33117 -0.000975565 2.46552 2.80217e-05 2.60103L0.024034 7.87212C0.030192 8.46277 0.210811 9.02597 0.547364 9.50781V11.7318C0.547364 12.2125 0.938453 12.6036 1.4192 12.6036H5.53252C6.01326 12.6036 6.40435 12.2125 6.40435 11.7318V9.46721L6.61774 9.2177C7.21144 8.52439 7.67551 7.72988 7.98775 6.87216L8.21367 6.25276C8.39899 5.74503 8.13722 5.17985 7.63027 4.99276ZM7.62552 6.03811L7.39961 6.65752C7.11297 7.44485 6.68698 8.17416 6.14201 8.81059L5.77826 9.23587V11.7318C5.77818 11.7969 5.75228 11.8593 5.70624 11.9053C5.6602 11.9513 5.59778 11.9772 5.53267 11.9773H1.41941C1.3543 11.9772 1.29188 11.9513 1.24584 11.9053C1.1998 11.8593 1.1739 11.7969 1.17382 11.7318V9.30146L1.11077 9.21776C0.81477 8.82495 0.655548 8.3573 0.650433 7.86737L0.626427 2.59816C0.626045 2.54515 0.636206 2.49259 0.656319 2.44354C0.676432 2.39449 0.706097 2.34992 0.743587 2.31244C0.780872 2.27477 0.825272 2.2449 0.874206 2.22454C0.923141 2.20419 0.975633 2.19376 1.02863 2.19387H1.03672C1.14417 2.19387 1.24521 2.23572 1.32124 2.31171C1.38802 2.37813 1.42915 2.46603 1.43736 2.55986L1.44091 5.36292L2.06715 5.36208L2.06496 3.66471H2.06532V2.59634C2.06532 2.58407 2.06397 2.57207 2.06355 2.55991L2.06313 2.23171C2.06303 2.1241 2.10478 2.02296 2.18081 1.94682C2.21831 1.90915 2.26292 1.87931 2.31205 1.85905C2.36119 1.83878 2.41386 1.82849 2.46701 1.82877C2.67163 1.82877 2.84082 1.98251 2.86587 2.18046L2.86942 3.86458V4.28959H2.87031L2.87255 5.3482L3.49879 5.3469L3.49566 3.86328V2.23124C3.49566 2.20728 3.49368 2.1838 3.49206 2.16021L3.49133 1.8128C3.49108 1.75986 3.50134 1.7074 3.52152 1.65846C3.54171 1.60952 3.57141 1.56508 3.60891 1.52771C3.6462 1.49013 3.69058 1.46034 3.73947 1.44006C3.78837 1.41978 3.84081 1.40941 3.89374 1.40955C4.11538 1.40955 4.29595 1.58986 4.29616 1.8115L4.29731 2.76761V2.97573H4.29757L4.29986 4.91354C4.30539 5.44303 3.92224 5.89157 3.40835 5.95691C3.39478 5.95863 3.38111 5.9602 3.36713 5.96156C2.28858 6.06551 1.70435 6.75516 1.67998 6.78444L2.16046 7.18607C2.17862 7.16478 2.61443 6.66326 3.42714 6.58488C3.4476 6.58289 3.46779 6.58065 3.48752 6.57814C4.31646 6.47273 4.93487 5.75432 4.92605 4.90994L4.9235 2.77262V2.18604C4.9235 2.07854 4.9654 1.97745 5.04144 1.90142C5.11747 1.82543 5.21851 1.78358 5.32956 1.78358H5.32972C5.55125 1.78363 5.73171 1.96399 5.73198 2.18552L5.73599 5.32096L5.75301 6.94836C5.75311 6.96198 5.75525 6.97513 5.75697 6.98839C5.62906 7.18664 5.38222 7.45822 4.96634 7.52132L5.06028 8.14046C5.90539 8.01224 6.29319 7.34957 6.41594 7.08556C6.41714 7.08284 6.41886 7.0805 6.42001 7.07773L6.42554 7.06442C6.44135 7.02909 6.45158 7.00321 6.4568 6.98912L6.95952 5.77869C6.99473 5.69327 7.06173 5.62486 7.1464 5.58789C7.23107 5.55091 7.3268 5.54826 7.41338 5.58049C7.59766 5.64828 7.69279 5.85363 7.62552 6.03811ZM14.7252 10.3417L13.5537 9.08708L14.4596 8.1174H13.6026L12.6968 9.08698L13.8683 10.3416L12.6967 11.5957L13.5969 12.5595H14.4538L13.5537 11.5958L14.7252 10.3417Z" fill="#212529"/>
<path d="M19.8884 8.11688V7.49064H10.7966V8.11688H15.3032L14.3971 9.08662L15.5687 10.3412L14.3971 11.5952L15.2972 12.5591H9.50655C9.01495 12.5591 8.55179 12.7408 8.19347 13.0719V9.54257C8.19347 8.75648 8.71534 8.11693 9.35687 8.11693H10.2307V7.49069H9.35687C8.37007 7.49069 7.56723 8.41116 7.56723 9.54257V14.0001H0.433594V14.6263H1.46001V15.0082H0.433594V15.6345H1.46001V16.0233H0.433594V16.6495H1.46001V17.0383H0.433594V17.6645H1.46001V18.0533H0.433594V18.6796H1.46001V19.0684H0.433594V19.6946H10.2307V19.0684H5.09994L6.0058 18.0988L4.8342 16.8441L6.0058 15.5902L5.10568 14.6262H7.57151C7.59951 15.0582 7.7716 15.4682 8.06024 15.7908C8.23538 15.9865 8.44837 16.1446 8.68633 16.2556C8.9243 16.3666 9.1823 16.4283 9.44476 16.4368L9.45723 16.4417H12.0861C12.4367 16.4417 12.7664 16.5784 13.0147 16.8267C13.2629 17.0749 13.3996 17.4048 13.3996 17.7556C13.3996 18.4795 12.8104 19.0685 12.0861 19.0685H10.7613V19.6947H12.0861C13.1557 19.6947 14.0258 18.8248 14.0258 17.7556V14.1675C14.0261 13.8119 13.9079 13.4663 13.6898 13.1854H19.8884V12.5591H18.862V12.1703H19.8884V11.5441H18.862V11.1554H19.8884V10.5291H18.862V10.1403H19.8884V9.51403H18.862V9.12523H19.8884V8.49899H18.862V8.11703L19.8884 8.11688ZM2.08625 19.0685V14.6263H3.44504L2.5384 15.5963L3.7101 16.8505L2.5385 18.105L3.43857 19.0685H2.08625ZM5.14889 18.0987L4.26928 19.0402L3.39546 18.1049L4.27512 17.163L5.14889 18.0987ZM5.14894 15.5901L4.26928 16.5316L3.39557 15.5964L4.27559 14.6548L5.14894 15.5901ZM12.0862 15.8154H9.57569L9.56578 15.8116H9.50655C9.32165 15.8114 9.13887 15.7723 8.97009 15.6968C8.80131 15.6213 8.65032 15.5111 8.52695 15.3734C8.31188 15.1328 8.19317 14.8213 8.19358 14.4987V14.4908C8.19525 14.1431 8.33187 13.8161 8.57861 13.5698C8.82608 13.3219 9.15559 13.1855 9.50649 13.1855H12.4174C12.959 13.1855 13.3995 13.626 13.3995 14.1676L13.3996 16.3286C13.0404 15.9973 12.5772 15.8154 12.0862 15.8154ZM15.2541 9.08672L16.1338 8.14516L17.0075 9.08046L16.1279 10.0224L15.2541 9.08672ZM15.2541 11.5953L16.1338 10.6538L17.0074 11.589L16.1274 12.5305L15.2541 11.5953ZM18.2358 12.559H16.9579L17.8645 11.5891L16.6928 10.3349L17.8645 9.0803L16.9644 8.11683H18.2358V12.559ZM19.3787 1.19679H18.5533C18.3652 0.986636 18.138 0.850637 17.8909 0.804399L17.5003 0.729459C16.2023 0.437473 14.9873 0.307058 13.5615 0.306641H13.5565C12.1357 0.306641 10.7045 0.472334 9.30244 0.79918L9.29999 0.79965C9.0056 0.855229 8.75996 0.988567 8.56583 1.19679H7.73762C7.38828 1.19679 7.11461 1.51106 7.11461 1.91227V3.41082C7.11461 3.81203 7.38828 4.1263 7.73762 4.1263H8.17886C8.32472 4.46541 8.56817 4.73726 8.87822 4.88286L10.8464 5.8074C11.0513 5.90363 11.2629 5.95013 11.4719 5.95013C11.9858 5.95008 12.4825 5.66879 12.8163 5.15439L13.5128 4.08132C13.5149 4.07798 13.5211 4.06963 13.5316 4.06389C13.5432 4.05754 13.5567 4.05582 13.5695 4.05907C13.5823 4.06233 13.5934 4.07031 13.6006 4.08142L14.2969 5.15439C14.7664 5.87785 15.5581 6.1403 16.2669 5.80735L18.2351 4.8828C18.5452 4.73715 18.7886 4.46536 18.9345 4.12625H19.3787C19.7281 4.12625 20.0017 3.81198 20.0017 3.41077V1.91222C20.0017 1.51111 19.7281 1.19679 19.3787 1.19679ZM8.0271 2.85451V3.45048H8.02955C8.03018 3.46697 8.03007 3.48373 8.03112 3.50011H7.7634C7.75343 3.48482 7.74086 3.45372 7.74086 3.41087V1.91233C7.74086 1.86943 7.75343 1.83838 7.7634 1.82309H8.2025C8.08894 2.13287 8.0271 2.48675 8.0271 2.85451ZM8.91078 1.77669C9.08696 1.47719 9.32608 1.43205 9.41611 1.41509L9.43834 1.4106C10.7959 1.09367 12.1812 0.932988 13.5564 0.932988H13.5612C14.9407 0.933353 16.1146 1.05938 17.3676 1.34161L17.7743 1.41979C17.9459 1.45193 18.109 1.59654 18.2334 1.82731C18.2426 1.84417 18.2506 1.86249 18.2592 1.88008C18.1384 1.8213 18.0091 1.78194 17.876 1.76344L17.4846 1.70755C16.1917 1.49024 14.9815 1.39322 13.5613 1.39296H13.5567C12.1361 1.39329 10.7181 1.51595 9.31857 1.75958L9.3158 1.75994C9.14306 1.78389 8.98755 1.83081 8.84795 1.89771C8.86767 1.8555 8.88844 1.81484 8.91078 1.77669ZM14.8223 4.81355L14.1259 3.74059C14.0644 3.64552 13.9801 3.5674 13.8807 3.51337C13.7812 3.45935 13.6698 3.43116 13.5566 3.43138C13.4911 3.43138 13.4261 3.44208 13.3635 3.46071C13.3183 3.47412 13.2742 3.49114 13.2327 3.51368C13.1333 3.56773 13.049 3.64574 12.9874 3.74064L12.291 4.81355C12.0118 5.24378 11.5848 5.4172 11.1853 5.27071C11.1606 5.26177 11.1363 5.25174 11.1125 5.24065L10.8314 5.10862L10.3259 4.87117L10.8152 3.96155L10.598 3.84476L10.2637 3.66492L9.7583 4.60454L9.14427 4.31611C8.85061 4.17813 8.65329 3.79982 8.65329 3.37466C8.65329 3.09577 8.73632 2.83656 8.88704 2.64487C9.05763 2.42793 9.30761 2.39323 9.4017 2.38018L9.42075 2.37731C9.96107 2.28334 10.5044 2.20788 11.0499 2.15108L10.5066 3.23777L10.8336 3.40122L11.0668 3.5178L11.7827 2.08616C12.0024 2.06988 12.2225 2.05746 12.4425 2.04697C12.6042 2.0393 12.7656 2.03319 12.9271 2.02876C13.1371 2.02302 13.347 2.01905 13.5567 2.01905H13.5612C13.7502 2.01905 13.9343 2.0215 14.1165 2.0251C14.9242 2.04112 15.6716 2.09227 16.4202 2.18474L14.9291 4.9567C14.8905 4.91134 14.8548 4.86352 14.8223 4.81355ZM18.457 3.45962C18.4327 3.8495 18.2428 4.18736 17.9689 4.31606L17.2749 4.64207L16.5908 4.96343L17.3639 3.5261L17.0553 3.36015L16.8123 3.22942L15.6875 5.32055C15.6097 5.32472 15.5321 5.31716 15.4561 5.29889L17.0817 2.27701C17.1441 2.28666 17.2067 2.29668 17.2695 2.30691L16.9878 2.87043L17.2467 2.99985L17.5479 3.15046L17.9155 2.41536C18.065 2.46874 18.1914 2.57672 18.2847 2.72284C18.3859 2.88107 18.4483 3.08413 18.4578 3.31302L18.457 3.45962ZM19.3755 3.41087C19.3755 3.45372 19.3629 3.48482 19.3529 3.50011H19.0821C19.0827 3.49124 19.0825 3.48211 19.083 3.47318H19.0832V3.46551C19.0846 3.43535 19.0861 3.40519 19.0861 3.37466C19.0861 3.34572 19.0854 3.31678 19.0842 3.28787C19.0851 3.12698 19.0861 2.91118 19.0861 2.85451C19.0861 2.47934 19.0277 2.12859 18.9158 1.82304H19.3529C19.3629 1.83833 19.3755 1.86943 19.3755 1.91227L19.3755 3.41087Z" fill="#212529"/>
</svg>
