<svg width="20" height="20" viewBox="0 0 20 20" fill="none" xmlns="http://www.w3.org/2000/svg">
<path d="M11.0774 12.9442H8.91884C8.59754 12.9352 8.28976 12.8129 8.04994 12.5989C7.81012 12.3849 7.6537 12.093 7.60833 11.7748L7.43157 10.7594L6.94706 10.5101C6.8924 10.4821 6.84653 10.4394 6.81452 10.387C6.78251 10.3345 6.76559 10.2742 6.76563 10.2128V7.84584C6.76563 7.75723 6.80083 7.67224 6.86349 7.60958C6.92616 7.54692 7.01115 7.51172 7.09977 7.51172H12.8968C12.9854 7.51172 13.0704 7.54692 13.1331 7.60958C13.1958 7.67224 13.231 7.75723 13.231 7.84584V10.2128C13.231 10.2742 13.2141 10.3345 13.1821 10.387C13.15 10.4394 13.1042 10.4821 13.0495 10.5101L12.565 10.7594L12.3882 11.7748C12.3429 12.0931 12.1864 12.385 11.9465 12.599C11.7066 12.813 11.3988 12.9353 11.0774 12.9442ZM7.43525 10.009L7.88667 10.2408C7.93267 10.2645 7.97255 10.2985 8.00316 10.3402C8.03378 10.3819 8.0543 10.4301 8.0631 10.4811L8.26793 11.6605C8.28697 11.8234 8.36279 11.9744 8.48207 12.0869C8.60134 12.1995 8.75646 12.2664 8.92018 12.276H11.0787C11.2425 12.2665 11.3976 12.1996 11.5169 12.087C11.6362 11.9744 11.712 11.8234 11.731 11.6605L11.9362 10.4811C11.945 10.4301 11.9655 10.3819 11.9961 10.3402C12.0267 10.2985 12.0666 10.2645 12.1126 10.2408L12.564 10.009V8.17997H7.43391L7.43525 10.009Z" fill="#212529"/>
<path d="M10.0005 20C8.26765 20 6.5645 19.5497 5.05803 18.6933C3.55157 17.8369 2.2935 16.6038 1.40715 15.1148C0.520807 13.6259 0.0365982 11.9321 0.0019945 10.1997C-0.0326092 8.46724 0.38358 6.75553 1.20976 5.23235C2.03595 3.70917 3.24377 2.42679 4.71484 1.51094C6.1859 0.595079 7.86972 0.0771698 9.60123 0.00797706C11.3327 -0.0612157 13.0525 0.320683 14.592 1.11624C16.1314 1.91179 17.4377 3.0937 18.3829 4.54609C19.3644 6.05536 19.9204 7.8016 19.9921 9.60053C20.0637 11.3995 19.6485 13.1844 18.7901 14.767C17.9317 16.3495 16.662 17.6711 15.115 18.5921C13.568 19.5132 11.801 19.9996 10.0005 20ZM10.0005 0.668584C7.9258 0.669045 5.9104 1.36106 4.27303 2.6352C2.63566 3.90934 1.46976 5.6929 0.959685 7.70385C0.449607 9.71481 0.624459 11.8384 1.45659 13.7389C2.28873 15.6393 3.73066 17.2082 5.55438 18.1974C7.37811 19.1866 9.47956 19.5397 11.5264 19.2008C13.5733 18.8619 15.4488 17.8504 16.8564 16.3263C18.264 14.8022 19.1234 12.8523 19.2986 10.7851C19.4738 8.71787 18.9548 6.65123 17.8238 4.91196C16.9778 3.60776 15.8186 2.53617 14.4521 1.79496C13.0856 1.05375 11.5552 0.666512 10.0005 0.668584ZM10.0005 17.5084C8.51543 17.5084 7.06369 17.0679 5.8289 16.2429C4.59411 15.4178 3.63174 14.2451 3.06347 12.873C2.4952 11.501 2.34657 9.99133 2.63637 8.53485C2.92616 7.07837 3.64137 5.74052 4.69155 4.6905C5.74173 3.64047 7.07971 2.92542 8.5363 2.63577C9.99289 2.34612 11.5027 2.49488 12.8747 3.06324C14.2467 3.63159 15.4194 4.59402 16.2445 5.82881C17.0695 7.06361 17.5098 8.51531 17.5097 10.0003C17.5072 11.9909 16.7152 13.8993 15.3075 15.3068C13.8998 16.7143 11.9913 17.5061 10.0005 17.5084ZM10.0005 3.16015C8.64762 3.16021 7.3251 3.56144 6.20022 4.31309C5.07534 5.06474 4.19861 6.13305 3.68092 7.38294C3.16322 8.63283 3.0278 10.0081 3.29179 11.335C3.55577 12.6618 4.2073 13.8806 5.16398 14.8372C6.12067 15.7938 7.33954 16.4452 8.66647 16.7091C9.99341 16.973 11.3688 16.8375 12.6187 16.3198C13.8687 15.8021 14.937 14.9254 15.6886 13.8005C16.4403 12.6756 16.8415 11.3532 16.8415 10.0003C16.839 8.18691 16.1174 6.44846 14.835 5.16621C13.5527 3.88395 11.8141 3.16253 10.0005 3.16015Z" fill="#212529"/>
<path d="M7.10207 8.18144H5.8614C5.33146 8.18073 4.82344 7.96987 4.44878 7.59511C4.07412 7.22034 3.86342 6.71228 3.86289 6.18238V5.77408H4.53117V6.18238C4.53153 6.53511 4.67177 6.8733 4.92114 7.12278C5.17051 7.37226 5.50865 7.51266 5.8614 7.51319H7.10207V8.18144ZM3.5254 12.3035H2.85712V11.8939C2.85765 11.3641 3.06832 10.8561 3.44291 10.4814C3.81751 10.1067 4.32544 9.89587 4.85529 9.89516H7.10207V10.5634H4.85529C4.50263 10.5639 4.16458 10.7043 3.91527 10.9537C3.66596 11.2031 3.52576 11.5413 3.5254 11.8939V12.3035ZM14.1391 8.18144H12.8991V7.51319H14.1391C14.4919 7.51266 14.83 7.37226 15.0794 7.12278C15.3287 6.8733 15.469 6.53511 15.4693 6.18238V5.77408H16.1376V6.18238C16.1371 6.71228 15.9264 7.22034 15.5517 7.59511C15.1771 7.96987 14.6691 8.18073 14.1391 8.18144ZM17.1444 12.3035H16.4761V11.8939C16.4757 11.5412 16.3353 11.203 16.0859 10.9536C15.8365 10.7042 15.4983 10.5639 15.1456 10.5634H12.8991V9.89516H15.1456C15.6755 9.89578 16.1835 10.1066 16.5583 10.4813C16.933 10.856 17.1438 11.364 17.1444 11.8939V12.3035ZM13.0745 16.8226C12.5446 16.8219 12.0366 16.611 11.6619 16.2362C11.2873 15.8615 11.0766 15.3534 11.076 14.8235V12.5515H11.7443V14.8252C11.7446 15.1779 11.8848 15.5162 12.1342 15.7657C12.3836 16.0152 12.7218 16.1555 13.0745 16.156V16.8226ZM6.92664 16.8226V16.1543C7.27965 16.1542 7.61819 16.014 7.86786 15.7645C8.11754 15.5149 8.25794 15.1765 8.2582 14.8235V12.5515H8.92649V14.8252C8.92552 15.355 8.71443 15.8628 8.33953 16.2373C7.96463 16.6117 7.45652 16.8222 6.92664 16.8226ZM10.0008 11.4248C9.71928 11.4248 9.4441 11.3414 9.21003 11.1851C8.97595 11.0288 8.7935 10.8066 8.68573 10.5466C8.57797 10.2865 8.54974 10.0004 8.60461 9.72433C8.65949 9.44827 8.795 9.19468 8.99401 8.99563C9.19302 8.79658 9.4466 8.66102 9.72267 8.60608C9.99873 8.55115 10.2849 8.57931 10.5449 8.68701C10.805 8.7947 11.0273 8.9771 11.1837 9.21112C11.3401 9.44514 11.4235 9.72029 11.4235 10.0017C11.4231 10.379 11.2731 10.7406 11.0063 11.0074C10.7396 11.2741 10.378 11.4243 10.0008 11.4248ZM10.0008 9.24696C9.85145 9.2469 9.70548 9.29111 9.58131 9.37401C9.45713 9.4569 9.36033 9.57476 9.30315 9.71267C9.24597 9.85059 9.23097 10.0024 9.26006 10.1488C9.28915 10.2952 9.36101 10.4298 9.46656 10.5353C9.57211 10.6409 9.70661 10.7129 9.85304 10.742C9.99947 10.7712 10.1513 10.7562 10.2892 10.6991C10.4272 10.642 10.5451 10.5453 10.628 10.4211C10.711 10.297 10.7553 10.151 10.7553 10.0017C10.755 9.80171 10.6754 9.60993 10.534 9.46845C10.3926 9.32696 10.2008 9.24732 10.0008 9.24696ZM14.8672 14.9384H18.1037V15.6067H14.8672V14.9384ZM16.5356 5.06507H14.9504V4.39682L18.1037 4.39648V5.06473L16.5356 5.06507ZM1.91016 14.9384H5.14666V15.6067H1.91016V14.9384ZM1.99336 4.39682H5.14666V5.06507H1.99336V4.39682Z" fill="#212529"/>
</svg>
