<svg width="21" height="18" viewBox="0 0 21 18" fill="none" xmlns="http://www.w3.org/2000/svg">
<path d="M19.6947 5.97187L19.7 5.96866C19.7809 5.96565 19.8577 5.92252 19.9143 5.84835C19.9709 5.77417 20.0028 5.67473 20.0034 5.57093C20.0039 5.51849 19.9962 5.46645 19.9809 5.41783C19.9656 5.36921 19.9429 5.32498 19.9141 5.28769C19.8854 5.2504 19.8512 5.22079 19.8134 5.20059C19.7757 5.18039 19.7353 5.16999 19.6944 5.16999C19.6062 5.13391 19.375 4.64597 19.375 3.76671C19.375 2.88745 19.6066 2.39951 19.6947 2.36343L19.6991 2.36062C19.7757 2.35362 19.8477 2.3106 19.9012 2.2398C19.9547 2.169 19.986 2.07537 19.9891 1.97683C19.9922 1.87829 19.9669 1.78175 19.918 1.70565C19.8691 1.62956 19.8 1.57926 19.7241 1.56436L9.6525 0.044805C9.26044 -0.014935 8.86425 -0.014935 8.47219 0.044805L1.21281 1.16342H1.20812C0.620312 1.21554 0.3125 2.29567 0.3125 3.36577C0.292054 4.00205 0.422834 4.63126 0.6875 5.16999C0.422743 5.70867 0.291955 6.33792 0.3125 6.97421C0.295715 7.58667 0.414929 8.19263 0.65625 8.7215C0.224687 9.2788 0 10.4351 0 11.585C0 13.1655 0.422188 14.7656 1.22938 14.7925L11.8384 16.3938C11.8506 16.3956 11.8628 16.3964 11.875 16.3962C11.8874 16.3963 11.8998 16.3954 11.9122 16.3934L14.375 16.0142V17.5991C14.375 17.6868 14.3974 17.7721 14.4387 17.8419C14.4801 17.9117 14.5382 17.9622 14.6041 17.9856C14.6313 17.9951 14.6593 17.9999 14.6875 18C14.7414 18 14.7944 17.9821 14.8414 17.948C14.8883 17.9139 14.9275 17.8648 14.9553 17.8055L15.6537 16.3121L16.3125 17.4387C16.3519 17.506 16.4067 17.5557 16.4693 17.5808C16.5319 17.6059 16.5991 17.6051 16.6613 17.5785C16.7235 17.5519 16.7777 17.5008 16.816 17.4326C16.8544 17.3643 16.875 17.2823 16.875 17.1981V15.6297L19.7247 15.1906C19.8038 15.1786 19.8764 15.1281 19.9275 15.0497C19.9786 14.9712 20.0045 14.8707 19.9997 14.7686C19.995 14.6665 19.96 14.5706 19.902 14.5005C19.8439 14.4305 19.7672 14.3915 19.6875 14.3916C19.4688 14.3916 19.0625 13.4782 19.0625 11.9859C19.0625 10.5065 19.4463 9.65007 19.6875 9.58031C19.7708 9.58063 19.8508 9.53863 19.91 9.4635C19.9692 9.38836 20.0028 9.28621 20.0034 9.17937C20.0041 9.08136 19.9765 8.9865 19.9259 8.91307C19.8753 8.83964 19.8053 8.79282 19.7294 8.78164C19.717 8.77976 19.7046 8.77869 19.6922 8.77843C19.6025 8.73433 19.375 8.24759 19.375 7.37515C19.375 6.49309 19.6066 6.00795 19.6947 5.97187ZM10.0897 15.3221C9.79469 14.5629 9.65622 13.7194 9.6875 12.872C9.66463 12.0585 9.78792 11.2491 10.0478 10.5065L11.0769 10.6616C10.758 11.4395 10.6023 12.3104 10.625 13.1887C10.6144 13.9667 10.7315 14.7388 10.9688 15.4548L10.0897 15.3221ZM8.82844 15.1317C8.54318 14.3765 8.40884 13.542 8.4375 12.7036C8.41241 11.8832 8.53943 11.0668 8.80813 10.3216L9.3925 10.4098C9.15991 11.1956 9.04786 12.0317 9.0625 12.872C9.05273 13.6683 9.15292 14.4604 9.35844 15.2119L8.82844 15.1317ZM3.77719 14.3699C3.53919 13.6478 3.42546 12.8683 3.44375 12.0846C3.40722 11.2144 3.55769 10.3482 3.87875 9.58031L8.11719 10.219C8.12656 10.219 8.135 10.2262 8.14437 10.2262C8.14677 10.2264 8.14917 10.2264 8.15156 10.2262C7.91453 11.016 7.79938 11.8574 7.8125 12.7036C7.80346 13.4922 7.90138 14.2767 8.10188 15.0222L3.77719 14.3699ZM2.52938 14.1819C2.289 13.4582 2.17447 12.676 2.19375 11.8897C2.15674 11.0214 2.30589 10.1567 2.625 9.38946L3.20688 9.47727C2.93263 10.3 2.79982 11.1889 2.8175 12.0834C2.81019 12.8225 2.89458 13.5585 3.0675 14.2637L2.52938 14.1819ZM1.25687 8.37749C1.16875 8.34141 0.9375 7.85347 0.9375 6.97421C0.9375 6.10257 1.16438 5.61664 1.2475 5.57334L2.72781 5.79465C2.73312 5.79465 2.73719 5.79987 2.74219 5.80067L9.02781 6.74688C8.88795 7.27142 8.82038 7.8232 8.82812 8.37749C8.82731 8.7659 8.85969 9.15325 8.92469 9.5326L8.32687 9.44279C8.18017 8.97762 8.11139 8.47806 8.125 7.97656C8.12471 7.73706 8.14568 7.4983 8.1875 7.26489C8.19673 7.21358 8.198 7.16044 8.19123 7.10851C8.18445 7.05657 8.16977 7.00685 8.14802 6.96219C8.12627 6.91754 8.09788 6.87881 8.06447 6.84823C8.03105 6.81765 7.99327 6.79581 7.95328 6.78397C7.91329 6.77212 7.87187 6.7705 7.83139 6.77919C7.79091 6.78788 7.75216 6.80671 7.71735 6.83462C7.68254 6.86252 7.65236 6.89895 7.62853 6.94182C7.60469 6.98469 7.58767 7.03316 7.57844 7.08447C7.52616 7.37709 7.49985 7.67635 7.5 7.97656C7.49662 8.43678 7.54236 8.89544 7.63594 9.33975L3.76469 8.75598H3.75813L2.5125 8.56754H2.50437L1.25687 8.37749ZM3.0125 2.23032L4.22594 2.41274H4.22906L11.1728 3.4628C11.0105 3.93733 10.9302 4.45137 10.9375 4.96952C10.935 5.40605 10.9904 5.83993 11.1016 6.25252L4.33813 5.23374C4.25498 4.82015 4.21484 4.39427 4.21875 3.96718C4.21831 3.71627 4.23031 3.46558 4.25469 3.21662C4.25994 3.16439 4.25712 3.11135 4.2464 3.06051C4.23567 3.00968 4.21725 2.96205 4.19217 2.92035C4.1671 2.87866 4.13588 2.8437 4.10027 2.81749C4.06467 2.79127 4.0254 2.77431 3.98469 2.76757C3.94398 2.76083 3.90263 2.76445 3.86301 2.77821C3.82339 2.79197 3.78627 2.81561 3.75377 2.84778C3.72127 2.87994 3.69402 2.92001 3.67359 2.96569C3.65316 3.01136 3.63994 3.06175 3.63469 3.11398C3.60693 3.39698 3.59326 3.68195 3.59375 3.96718C3.59282 4.35897 3.62139 4.74997 3.67906 5.13471L2.98156 5.02966C2.85776 4.55866 2.8005 4.06307 2.8125 3.56624C2.81216 3.10864 2.88005 2.65519 3.0125 2.23032ZM11.875 3.56624C11.8873 3.56629 11.8996 3.56536 11.9119 3.56344L18.9119 2.48692C18.8017 2.89865 18.747 3.33142 18.75 3.76671C18.7425 4.28595 18.8232 4.80106 18.9866 5.27624L11.8784 6.3692C11.7878 6.32309 11.5625 5.84076 11.5625 4.96952C11.5625 4.09027 11.7937 3.60233 11.875 3.56624ZM9.59375 9.63323C9.49664 9.22647 9.4492 8.80288 9.45312 8.37749C9.43107 7.85056 9.50959 7.32468 9.68188 6.84551L11.1737 7.07004C11.0107 7.54477 10.9301 8.05929 10.9375 8.57796C10.935 9.01449 10.9904 9.44837 11.1016 9.86096L9.59375 9.63323ZM11.8794 9.97804C11.7881 9.93193 11.5625 9.4496 11.5625 8.57796C11.5625 7.69871 11.7937 7.21077 11.875 7.17468C11.8874 7.17476 11.8998 7.17382 11.9122 7.17187L18.9122 6.09536C18.8019 6.50706 18.7471 6.93984 18.75 7.37515C18.7439 7.8948 18.8271 8.40979 18.9937 8.88348L11.8794 9.97804ZM8.54625 0.839865C8.88932 0.787745 9.23599 0.787745 9.57906 0.839865L17.0416 1.9657L11.875 2.76156L4.30219 1.61648H4.29906L3.9025 1.55674L8.54625 0.839865ZM1.24594 1.96249L2.37344 2.13209C2.25056 2.59381 2.18774 3.07834 2.1875 3.56624C2.18457 4.02347 2.2237 4.47955 2.30406 4.92502L1.25687 4.76905C1.16875 4.73297 0.9375 4.24503 0.9375 3.36577C0.9375 2.50055 1.16125 2.01461 1.24594 1.96449V1.96249ZM1.25 13.9906C1.03125 13.9906 0.625 13.0773 0.625 11.585C0.625 10.1015 1.02437 9.193 1.24531 9.18137L1.95594 9.28842C1.68332 10.11 1.55128 10.9971 1.56875 11.8897C1.5617 12.6304 1.64705 13.3679 1.82156 14.074L1.28656 13.9938C1.27444 13.9918 1.26223 13.9907 1.25 13.9906ZM15.875 15.3538C15.8446 15.3007 15.8043 15.2582 15.7578 15.2302C15.7113 15.2022 15.66 15.1895 15.6088 15.1934C15.5579 15.1972 15.5086 15.2168 15.465 15.2507C15.4214 15.2845 15.3849 15.3315 15.3587 15.3875L15 16.1517V12.7124L16.25 12.5192V15.9953L15.875 15.3538ZM16.875 14.8218V12.4226L17.0712 12.3921C17.1536 12.3795 17.2287 12.3254 17.2799 12.2418C17.3312 12.1582 17.3545 12.0519 17.3447 11.9462C17.3349 11.8406 17.2927 11.7443 17.2276 11.6785C17.1624 11.6127 17.0795 11.5828 16.9972 11.5954L16.5284 11.6684H16.5262L14.6512 11.9571C14.6478 11.9571 14.645 11.9603 14.6416 11.9607L14.2522 12.0212C14.1731 12.0333 14.1007 12.0836 14.0496 12.1619C13.9984 12.2401 13.9725 12.3405 13.9771 12.4424C13.9817 12.5444 14.0164 12.6403 14.0742 12.7105C14.132 12.7807 14.2085 12.82 14.2881 12.8203C14.3005 12.8203 14.3128 12.8194 14.325 12.8175L14.375 12.8095V15.2067L11.875 15.5916L11.8475 15.5876C11.6319 15.5206 11.25 14.6654 11.25 13.1887C11.25 11.6965 11.6562 10.7831 11.875 10.7831C11.8874 10.7832 11.8998 10.7823 11.9122 10.7803L18.7812 9.72384C18.5443 10.4386 18.4272 11.2093 18.4375 11.9859C18.4149 12.8636 18.5698 13.7338 18.8872 14.5118L16.875 14.8218Z" fill="#212529"/>
</svg>
