<svg width="18" height="18" viewBox="0 0 18 18" fill="none" xmlns="http://www.w3.org/2000/svg">
<path d="M10.2422 8.39915H11.4836C11.5659 8.39915 11.6448 8.36755 11.703 8.31129C11.7612 8.25503 11.7939 8.17872 11.7939 8.09916V6.89918C11.7939 6.81961 11.7612 6.74331 11.703 6.68705C11.6448 6.63079 11.5659 6.59918 11.4836 6.59918H10.2422C10.1599 6.59918 10.0809 6.63079 10.0227 6.68705C9.96454 6.74331 9.93184 6.81961 9.93184 6.89918V8.09916C9.93184 8.17872 9.96454 8.25503 10.0227 8.31129C10.0809 8.36755 10.1599 8.39915 10.2422 8.39915ZM10.5525 7.19917H11.1732V7.79916H10.5525V7.19917ZM12.7249 8.39915H13.9663C14.0486 8.39915 14.1276 8.36755 14.1858 8.31129C14.244 8.25503 14.2767 8.17872 14.2767 8.09916V6.89918C14.2767 6.81961 14.244 6.74331 14.1858 6.68705C14.1276 6.63079 14.0486 6.59918 13.9663 6.59918H12.7249C12.6426 6.59918 12.5637 6.63079 12.5055 6.68705C12.4473 6.74331 12.4146 6.81961 12.4146 6.89918V8.09916C12.4146 8.17872 12.4473 8.25503 12.5055 8.31129C12.5637 8.36755 12.6426 8.39915 12.7249 8.39915ZM13.0353 7.19917H13.656V7.79916H13.0353V7.19917ZM10.2422 10.7991H11.4836C11.5659 10.7991 11.6448 10.7675 11.703 10.7112C11.7612 10.655 11.7939 10.5787 11.7939 10.4991V9.29914C11.7939 9.21958 11.7612 9.14327 11.703 9.08701C11.6448 9.03075 11.5659 8.99914 11.4836 8.99914H10.2422C10.1599 8.99914 10.0809 9.03075 10.0227 9.08701C9.96454 9.14327 9.93184 9.21958 9.93184 9.29914V10.4991C9.93184 10.5787 9.96454 10.655 10.0227 10.7112C10.0809 10.7675 10.1599 10.7991 10.2422 10.7991ZM10.5525 9.59913H11.1732V10.1991H10.5525V9.59913ZM12.7249 10.7991H13.9663C14.0486 10.7991 14.1276 10.7675 14.1858 10.7112C14.244 10.655 14.2767 10.5787 14.2767 10.4991V9.29914C14.2767 9.21958 14.244 9.14327 14.1858 9.08701C14.1276 9.03075 14.0486 8.99914 13.9663 8.99914H12.7249C12.6426 8.99914 12.5637 9.03075 12.5055 9.08701C12.4473 9.14327 12.4146 9.21958 12.4146 9.29914V10.4991C12.4146 10.5787 12.4473 10.655 12.5055 10.7112C12.5637 10.7675 12.6426 10.7991 12.7249 10.7991ZM13.0353 9.59913H13.656V10.1991H13.0353V9.59913ZM10.2422 13.1991H11.4836C11.5659 13.1991 11.6448 13.1675 11.703 13.1112C11.7612 13.055 11.7939 12.9786 11.7939 12.8991V11.6991C11.7939 11.6195 11.7612 11.5432 11.703 11.487C11.6448 11.4307 11.5659 11.3991 11.4836 11.3991H10.2422C10.1599 11.3991 10.0809 11.4307 10.0227 11.487C9.96454 11.5432 9.93184 11.6195 9.93184 11.6991V12.8991C9.93184 12.9786 9.96454 13.055 10.0227 13.1112C10.0809 13.1675 10.1599 13.1991 10.2422 13.1991ZM10.5525 11.9991H11.1732V12.5991H10.5525V11.9991ZM12.7249 13.1991H13.9663C14.0486 13.1991 14.1276 13.1675 14.1858 13.1112C14.244 13.055 14.2767 12.9786 14.2767 12.8991V11.6991C14.2767 11.6195 14.244 11.5432 14.1858 11.487C14.1276 11.4307 14.0486 11.3991 13.9663 11.3991H12.7249C12.6426 11.3991 12.5637 11.4307 12.5055 11.487C12.4473 11.5432 12.4146 11.6195 12.4146 11.6991V12.8991C12.4146 12.9786 12.4473 13.055 12.5055 13.1112C12.5637 13.1675 12.6426 13.1991 12.7249 13.1991ZM13.0353 11.9991H13.656V12.5991H13.0353V11.9991ZM15.2077 8.39915H16.4491C16.5314 8.39915 16.6103 8.36755 16.6685 8.31129C16.7267 8.25503 16.7594 8.17872 16.7594 8.09916V6.89918C16.7594 6.81961 16.7267 6.74331 16.6685 6.68705C16.6103 6.63079 16.5314 6.59918 16.4491 6.59918H15.2077C15.1254 6.59918 15.0465 6.63079 14.9883 6.68705C14.9301 6.74331 14.8974 6.81961 14.8974 6.89918V8.09916C14.8974 8.17872 14.9301 8.25503 14.9883 8.31129C15.0465 8.36755 15.1254 8.39915 15.2077 8.39915ZM15.518 7.19917H16.1387V7.79916H15.518V7.19917ZM15.2077 10.7991H16.4491C16.5314 10.7991 16.6103 10.7675 16.6685 10.7112C16.7267 10.655 16.7594 10.5787 16.7594 10.4991V9.29914C16.7594 9.21958 16.7267 9.14327 16.6685 9.08701C16.6103 9.03075 16.5314 8.99914 16.4491 8.99914H15.2077C15.1254 8.99914 15.0465 9.03075 14.9883 9.08701C14.9301 9.14327 14.8974 9.21958 14.8974 9.29914V10.4991C14.8974 10.5787 14.9301 10.655 14.9883 10.7112C15.0465 10.7675 15.1254 10.7991 15.2077 10.7991ZM15.518 9.59913H16.1387V10.1991H15.518V9.59913ZM15.2077 13.1991H16.4491C16.5314 13.1991 16.6103 13.1675 16.6685 13.1112C16.7267 13.055 16.7594 12.9786 16.7594 12.8991V11.6991C16.7594 11.6195 16.7267 11.5432 16.6685 11.487C16.6103 11.4307 16.5314 11.3991 16.4491 11.3991H15.2077C15.1254 11.3991 15.0465 11.4307 14.9883 11.487C14.9301 11.5432 14.8974 11.6195 14.8974 11.6991V12.8991C14.8974 12.9786 14.9301 13.055 14.9883 13.1112C15.0465 13.1675 15.1254 13.1991 15.2077 13.1991ZM15.518 11.9991H16.1387V12.5991H15.518V11.9991ZM1.55253 8.39915H2.79391C2.87622 8.39915 2.95516 8.36755 3.01336 8.31129C3.07156 8.25503 3.10426 8.17872 3.10426 8.09916V6.89918C3.10426 6.81961 3.07156 6.74331 3.01336 6.68705C2.95516 6.63079 2.87622 6.59918 2.79391 6.59918H1.55253C1.47022 6.59918 1.39129 6.63079 1.33309 6.68705C1.27488 6.74331 1.24219 6.81961 1.24219 6.89918V8.09916C1.24219 8.17872 1.27488 8.25503 1.33309 8.31129C1.39129 8.36755 1.47022 8.39915 1.55253 8.39915ZM1.86288 7.19917H2.48357V7.79916H1.86288V7.19917ZM4.03529 8.39915H5.27667C5.35898 8.39915 5.43792 8.36755 5.49612 8.31129C5.55432 8.25503 5.58702 8.17872 5.58702 8.09916V6.89918C5.58702 6.81961 5.55432 6.74331 5.49612 6.68705C5.43792 6.63079 5.35898 6.59918 5.27667 6.59918H4.03529C3.95298 6.59918 3.87404 6.63079 3.81584 6.68705C3.75764 6.74331 3.72495 6.81961 3.72495 6.89918V8.09916C3.72495 8.17872 3.75764 8.25503 3.81584 8.31129C3.87404 8.36755 3.95298 8.39915 4.03529 8.39915ZM4.34564 7.19917H4.96633V7.79916H4.34564V7.19917ZM1.55253 10.7991H2.79391C2.87622 10.7991 2.95516 10.7675 3.01336 10.7112C3.07156 10.655 3.10426 10.5787 3.10426 10.4991V9.29914C3.10426 9.21958 3.07156 9.14327 3.01336 9.08701C2.95516 9.03075 2.87622 8.99914 2.79391 8.99914H1.55253C1.47022 8.99914 1.39129 9.03075 1.33309 9.08701C1.27488 9.14327 1.24219 9.21958 1.24219 9.29914V10.4991C1.24219 10.5787 1.27488 10.655 1.33309 10.7112C1.39129 10.7675 1.47022 10.7991 1.55253 10.7991ZM1.86288 9.59913H2.48357V10.1991H1.86288V9.59913ZM4.03529 10.7991H5.27667C5.35898 10.7991 5.43792 10.7675 5.49612 10.7112C5.55432 10.655 5.58702 10.5787 5.58702 10.4991V9.29914C5.58702 9.21958 5.55432 9.14327 5.49612 9.08701C5.43792 9.03075 5.35898 8.99914 5.27667 8.99914H4.03529C3.95298 8.99914 3.87404 9.03075 3.81584 9.08701C3.75764 9.14327 3.72495 9.21958 3.72495 9.29914V10.4991C3.72495 10.5787 3.75764 10.655 3.81584 10.7112C3.87404 10.7675 3.95298 10.7991 4.03529 10.7991ZM4.34564 9.59913H4.96633V10.1991H4.34564V9.59913ZM2.79391 13.1991C2.87622 13.1991 2.95516 13.1675 3.01336 13.1112C3.07156 13.055 3.10426 12.9786 3.10426 12.8991V11.6991C3.10426 11.6195 3.07156 11.5432 3.01336 11.487C2.95516 11.4307 2.87622 11.3991 2.79391 11.3991H1.55253C1.47022 11.3991 1.39129 11.4307 1.33309 11.487C1.27488 11.5432 1.24219 11.6195 1.24219 11.6991V12.8991C1.24219 12.9786 1.27488 13.055 1.33309 13.1112C1.39129 13.1675 1.47022 13.1991 1.55253 13.1991H2.79391ZM1.86288 11.9991H2.48357V12.5991H1.86288V11.9991ZM4.03529 13.1991H5.27667C5.35898 13.1991 5.43792 13.1675 5.49612 13.1112C5.55432 13.055 5.58702 12.9786 5.58702 12.8991V11.6991C5.58702 11.6195 5.55432 11.5432 5.49612 11.487C5.43792 11.4307 5.35898 11.3991 5.27667 11.3991H4.03529C3.95298 11.3991 3.87404 11.4307 3.81584 11.487C3.75764 11.5432 3.72495 11.6195 3.72495 11.6991V12.8991C3.72495 12.9786 3.75764 13.055 3.81584 13.1112C3.87404 13.1675 3.95298 13.1991 4.03529 13.1991ZM4.34564 11.9991H4.96633V12.5991H4.34564V11.9991ZM6.51805 8.39915H7.75943C7.84174 8.39915 7.92067 8.36755 7.97888 8.31129C8.03708 8.25503 8.06977 8.17872 8.06977 8.09916V6.89918C8.06977 6.81961 8.03708 6.74331 7.97888 6.68705C7.92067 6.63079 7.84174 6.59918 7.75943 6.59918H6.51805C6.43574 6.59918 6.3568 6.63079 6.2986 6.68705C6.2404 6.74331 6.2077 6.81961 6.2077 6.89918V8.09916C6.2077 8.17872 6.2404 8.25503 6.2986 8.31129C6.3568 8.36755 6.43574 8.39915 6.51805 8.39915ZM6.82839 7.19917H7.44908V7.79916H6.82839V7.19917ZM1.55253 5.99919H2.79391C2.87622 5.99919 2.95516 5.96758 3.01336 5.91132C3.07156 5.85506 3.10426 5.77876 3.10426 5.6992V4.49921C3.10426 4.41965 3.07156 4.34335 3.01336 4.28709C2.95516 4.23083 2.87622 4.19922 2.79391 4.19922H1.55253C1.47022 4.19922 1.39129 4.23083 1.33309 4.28709C1.27488 4.34335 1.24219 4.41965 1.24219 4.49921V5.6992C1.24219 5.77876 1.27488 5.85506 1.33309 5.91132C1.39129 5.96758 1.47022 5.99919 1.55253 5.99919ZM1.86288 4.79921H2.48357V5.3992H1.86288V4.79921ZM4.03529 5.99919H5.27667C5.35898 5.99919 5.43792 5.96758 5.49612 5.91132C5.55432 5.85506 5.58702 5.77876 5.58702 5.6992V4.49921C5.58702 4.41965 5.55432 4.34335 5.49612 4.28709C5.43792 4.23083 5.35898 4.19922 5.27667 4.19922H4.03529C3.95298 4.19922 3.87404 4.23083 3.81584 4.28709C3.75764 4.34335 3.72495 4.41965 3.72495 4.49921V5.6992C3.72495 5.77876 3.75764 5.85506 3.81584 5.91132C3.87404 5.96758 3.95298 5.99919 4.03529 5.99919ZM4.34564 4.79921H4.96633V5.3992H4.34564V4.79921ZM6.51805 5.99919H7.75943C7.84174 5.99919 7.92067 5.96758 7.97888 5.91132C8.03708 5.85506 8.06977 5.77876 8.06977 5.6992V4.49921C8.06977 4.41965 8.03708 4.34335 7.97888 4.28709C7.92067 4.23083 7.84174 4.19922 7.75943 4.19922H6.51805C6.43574 4.19922 6.3568 4.23083 6.2986 4.28709C6.2404 4.34335 6.2077 4.41965 6.2077 4.49921V5.6992C6.2077 5.77876 6.2404 5.85506 6.2986 5.91132C6.3568 5.96758 6.43574 5.99919 6.51805 5.99919ZM6.82839 4.79921H7.44908V5.3992H6.82839V4.79921ZM6.51805 10.7991H7.75943C7.84174 10.7991 7.92067 10.7675 7.97888 10.7112C8.03708 10.655 8.06977 10.5787 8.06977 10.4991V9.29914C8.06977 9.21958 8.03708 9.14327 7.97888 9.08701C7.92067 9.03075 7.84174 8.99914 7.75943 8.99914H6.51805C6.43574 8.99914 6.3568 9.03075 6.2986 9.08701C6.2404 9.14327 6.2077 9.21958 6.2077 9.29914V10.4991C6.2077 10.5787 6.2404 10.655 6.2986 10.7112C6.3568 10.7675 6.43574 10.7991 6.51805 10.7991ZM6.82839 9.59913H7.44908V10.1991H6.82839V9.59913ZM6.51805 13.1991H7.75943C7.84174 13.1991 7.92067 13.1675 7.97888 13.1112C8.03708 13.055 8.06977 12.9786 8.06977 12.8991V11.6991C8.06977 11.6195 8.03708 11.5432 7.97888 11.487C7.92067 11.4307 7.84174 11.3991 7.75943 11.3991H6.51805C6.43574 11.3991 6.3568 11.4307 6.2986 11.487C6.2404 11.5432 6.2077 11.6195 6.2077 11.6991V12.8991C6.2077 12.9786 6.2404 13.055 6.2986 13.1112C6.3568 13.1675 6.43574 13.1991 6.51805 13.1991ZM6.82839 11.9991H7.44908V12.5991H6.82839V11.9991Z" fill="#212529"/>
<path d="M17.7734 5.4122L9.31034 3.07524V0.300279C9.31001 0.253763 9.29865 0.207941 9.27713 0.166335C9.25561 0.124729 9.2245 0.0884487 9.18621 0.0602829C9.14836 0.032163 9.10414 0.0131454 9.0572 0.00479965C9.01025 -0.00354613 8.96192 -0.000980909 8.91621 0.0122836L0.226552 2.41225C0.161511 2.42988 0.104196 2.46754 0.0633083 2.51951C0.0224208 2.57149 0.000193292 2.63494 0 2.70024V17.7C0 17.7796 0.0326969 17.8559 0.0908979 17.9121C0.149099 17.9684 0.228036 18 0.310345 18H17.6897C17.772 18 17.8509 17.9684 17.9091 17.9121C17.9673 17.8559 18 17.7796 18 17.7V5.70019C17.9998 5.6349 17.9776 5.57144 17.9367 5.51947C17.8958 5.46749 17.8385 5.42983 17.7734 5.4122ZM4.34483 17.4H2.48276V15H4.34483V17.4ZM6.82759 17.4H4.96552V15H6.82759V17.4ZM8.68966 17.4H7.44828V14.7001C7.44828 14.6205 7.41558 14.5442 7.35738 14.4879C7.29918 14.4317 7.22024 14.4001 7.13793 14.4001H2.17241C2.09011 14.4001 2.01117 14.4317 1.95297 14.4879C1.89477 14.5442 1.86207 14.6205 1.86207 14.7001V17.4H0.62069V2.92524L8.68966 0.699273V17.4ZM13.0345 17.4H11.1724V15H13.0345V17.4ZM15.5172 17.4H13.6552V15H15.5172V17.4ZM17.3793 17.4H16.1379V14.7001C16.1379 14.6205 16.1052 14.5442 16.047 14.4879C15.9888 14.4317 15.9099 14.4001 15.8276 14.4001H10.8621C10.7798 14.4001 10.7008 14.4317 10.6426 14.4879C10.5844 14.5442 10.5517 14.6205 10.5517 14.7001V17.4H9.31034V3.69923L17.3793 5.92519V17.4Z" fill="#212529"/>
</svg>
