<svg width="18" height="18" viewBox="0 0 18 18" fill="none" xmlns="http://www.w3.org/2000/svg">
<path fill-rule="evenodd" clip-rule="evenodd" d="M8.99917 10.2955C5.97619 10.2955 3.51562 7.99162 3.51562 5.14776C3.51562 2.30389 5.97619 0 8.99917 0C12.0222 0 14.4827 2.30389 14.4827 5.14776C14.4827 7.99162 12.0222 10.2955 8.99917 10.2955ZM8.99917 0.503976C6.2574 0.503976 4.00774 2.59188 4.00774 5.14776C4.00774 7.70364 6.2574 9.79154 8.99917 9.79154C11.7409 9.79154 13.9906 7.70364 13.9906 5.14776C13.9906 2.59188 11.7409 0.503976 8.99917 0.503976Z" fill="black"/>
<path fill-rule="evenodd" clip-rule="evenodd" d="M14.2003 4.71574C14.0597 4.71574 13.9543 4.64375 13.9543 4.49975C13.9191 4.35576 14.0246 4.24777 14.1652 4.21177C14.9736 4.10377 15.6064 3.34781 15.6064 2.48385C15.6064 1.54789 14.833 0.755929 13.884 0.755929C13.3567 0.755929 12.8294 1.04392 12.5131 1.4759C12.4076 1.61989 12.267 1.61989 12.1616 1.54789C12.0561 1.4759 12.021 1.3319 12.0913 1.18791C12.5131 0.611936 13.1809 0.251953 13.884 0.251953C15.1142 0.251953 16.0985 1.25991 16.0985 2.48385C16.0985 3.02382 15.8876 3.5638 15.5712 3.95978C15.2197 4.35576 14.7276 4.64375 14.2355 4.71574H14.2003Z" fill="black"/>
<path fill-rule="evenodd" clip-rule="evenodd" d="M13.9201 3.67179C13.7795 3.67179 13.674 3.5638 13.674 3.4198C13.674 3.27581 13.7795 3.16782 13.9201 3.16782C14.2716 3.16782 14.5528 2.87983 14.5528 2.48385C14.5528 2.12387 14.2716 1.79988 13.8849 1.79988C13.6389 1.79988 13.4279 1.94387 13.2873 2.19586C13.2522 2.30386 13.0764 2.37585 12.971 2.30386C12.8655 2.23186 12.7952 2.08787 12.8655 1.97987C13.0413 1.54789 13.4631 1.2959 13.8849 1.2959C14.5176 1.2959 15.0449 1.83588 15.0449 2.48385C15.0449 3.13182 14.5528 3.67179 13.9201 3.67179ZM3.79659 4.71574H3.76144C3.26932 4.64375 2.77721 4.35576 2.4257 3.95978C2.10934 3.5638 1.89844 3.02382 1.89844 2.48385C1.89844 1.25991 2.88266 0.251953 4.11295 0.251953C4.81597 0.251953 5.48383 0.611936 5.90564 1.18791C5.97595 1.3319 5.9408 1.4759 5.83534 1.54789C5.72989 1.61989 5.58929 1.61989 5.48383 1.4759C5.16747 1.04392 4.64021 0.755929 4.11295 0.755929C3.16387 0.755929 2.39055 1.54789 2.39055 2.48385C2.39055 3.34781 3.02327 4.10377 3.83174 4.21177C3.97234 4.24777 4.0778 4.35576 4.04264 4.49975C4.04264 4.64375 3.93719 4.71574 3.79659 4.71574Z" fill="black"/>
<path fill-rule="evenodd" clip-rule="evenodd" d="M4.07796 3.67081C3.44524 3.67081 2.95312 3.13084 2.95312 2.48287C2.95312 1.8349 3.48039 1.29492 4.11311 1.29492C4.53492 1.29492 4.95673 1.54691 5.13248 1.97889C5.20279 2.08688 5.13248 2.23088 5.02703 2.30287C4.92158 2.37487 4.74582 2.30287 4.71067 2.19488C4.57007 1.94289 4.35916 1.7989 4.11311 1.7989C3.72645 1.7989 3.44524 2.12288 3.44524 2.48287C3.44524 2.87885 3.72645 3.16683 4.07796 3.16683C4.21856 3.16683 4.32401 3.27483 4.32401 3.41882C4.32401 3.56282 4.21856 3.67081 4.07796 3.67081ZM8.99909 8.89056C7.52275 8.89056 6.32762 7.91861 6.32762 6.65867C6.32762 5.43473 7.52275 4.42677 8.99909 4.42677C10.4754 4.42677 11.6706 5.43473 11.6706 6.65867C11.6706 7.91861 10.4754 8.89056 8.99909 8.89056ZM8.99909 4.93075C7.80395 4.93075 6.81973 5.72271 6.81973 6.65867C6.81973 7.63062 7.80395 8.38659 8.99909 8.38659C10.1942 8.38659 11.1784 7.63062 11.1784 6.65867C11.1784 5.72271 10.1942 4.93075 8.99909 4.93075Z" fill="black"/>
<path fill-rule="evenodd" clip-rule="evenodd" d="M8.99951 6.58764C8.26134 6.58764 7.66377 5.97567 7.66377 5.21971C7.66377 5.07572 7.66377 4.93172 7.73407 4.82373C7.76922 4.67973 7.90983 4.60774 8.01528 4.64374C8.15588 4.67973 8.22619 4.82373 8.19103 4.96772C8.15588 5.03972 8.15588 5.14771 8.15588 5.21971C8.15588 5.68769 8.54254 6.08367 8.99951 6.08367C9.45647 6.08367 9.84313 5.68769 9.84313 5.21971C9.84313 5.14771 9.84313 5.03972 9.80798 4.96772C9.77283 4.82373 9.84313 4.67973 9.98373 4.64374C10.0892 4.60774 10.2298 4.67973 10.2649 4.82373C10.3352 4.93172 10.3352 5.07572 10.3352 5.21971C10.3352 5.97567 9.73768 6.58764 8.99951 6.58764ZM6.53894 4.03176C6.08198 4.03176 5.73047 3.63578 5.73047 3.1678C5.73047 2.73583 6.08198 2.33984 6.53894 2.33984C6.9959 2.33984 7.34741 2.73583 7.34741 3.1678C7.34741 3.63578 6.9959 4.03176 6.53894 4.03176ZM6.53894 2.84382C6.36319 2.84382 6.22258 2.98781 6.22258 3.1678C6.22258 3.3478 6.36319 3.52779 6.53894 3.52779C6.7147 3.52779 6.8553 3.3478 6.8553 3.1678C6.8553 2.98781 6.7147 2.84382 6.53894 2.84382ZM11.4601 4.03176C11.0031 4.03176 10.6516 3.63578 10.6516 3.1678C10.6516 2.73583 11.0031 2.33984 11.4601 2.33984C11.917 2.33984 12.2685 2.73583 12.2685 3.1678C12.2685 3.63578 11.917 4.03176 11.4601 4.03176ZM11.4601 2.84382C11.2843 2.84382 11.1437 2.98781 11.1437 3.1678C11.1437 3.3478 11.2843 3.52779 11.4601 3.52779C11.6358 3.52779 11.7764 3.3478 11.7764 3.1678C11.7764 2.98781 11.6358 2.84382 11.4601 2.84382ZM14.3073 13.3553C14.2018 13.3553 14.1315 13.2833 14.0964 13.2113L12.374 8.78354C12.3388 8.63955 12.374 8.49555 12.5146 8.45956C12.6552 8.42356 12.7958 8.45956 12.831 8.60355L14.5534 12.9953C14.5885 13.1393 14.5182 13.2833 14.4128 13.3193C14.3776 13.3553 14.3424 13.3553 14.3073 13.3553Z" fill="black"/>
<path fill-rule="evenodd" clip-rule="evenodd" d="M13.5662 17.9978C12.3359 17.9978 11.3517 16.8099 11.3517 15.334C11.3517 13.858 12.3359 12.6701 13.5662 12.6701C14.7613 12.6701 15.7807 13.858 15.7807 15.334C15.7807 16.8099 14.7613 17.9978 13.5662 17.9978ZM13.5662 13.1741C12.6171 13.1741 11.8438 14.146 11.8438 15.334C11.8438 16.5219 12.6171 17.4939 13.5662 17.4939C14.5153 17.4939 15.2886 16.5219 15.2886 15.334C15.2886 14.146 14.5153 13.1741 13.5662 13.1741ZM3.68879 13.3541C3.65364 13.3541 3.61849 13.3541 3.58334 13.3181C3.47789 13.2821 3.40759 13.1381 3.44274 12.9941L5.16513 8.60229C5.20028 8.4583 5.34089 8.4223 5.48149 8.4583C5.6221 8.49429 5.65725 8.63829 5.6221 8.78228L3.8997 13.2101C3.86455 13.2821 3.79425 13.3541 3.68879 13.3541Z" fill="black"/>
<path fill-rule="evenodd" clip-rule="evenodd" d="M4.43038 17.9999C3.23525 17.9999 2.21587 16.812 2.21587 15.336C2.21587 13.8601 3.23525 12.6721 4.43038 12.6721C5.66066 12.6721 6.64489 13.8601 6.64489 15.336C6.64489 16.812 5.66066 17.9999 4.43038 17.9999ZM4.43038 13.1761C3.4813 13.1761 2.70798 14.1481 2.70798 15.336C2.70798 16.524 3.4813 17.4959 4.43038 17.4959C5.37945 17.4959 6.15277 16.524 6.15277 15.336C6.15277 14.1481 5.37945 13.1761 4.43038 13.1761ZM1.75891 13.1041C1.44255 13.1041 1.16134 13.0321 0.880133 12.8881C0.493473 12.6361 0.177114 12.2762 0.0716612 11.8082C-0.0689425 11.3402 0.00135936 10.8722 0.247416 10.4403C0.458322 10.0083 0.844982 9.72029 1.30194 9.61229L5.30915 8.46035C5.44976 8.42435 5.59036 8.49634 5.62551 8.64034C5.66066 8.74833 5.59036 8.89233 5.44976 8.92832L1.4074 10.0803C1.09104 10.1883 0.809831 10.4043 0.669227 10.6922C0.493473 10.9802 0.458322 11.3402 0.528623 11.6642C0.634076 11.9882 0.844982 12.2762 1.12619 12.4562C1.44255 12.6002 1.75891 12.6721 2.07526 12.5642L3.93826 12.0242C4.07887 11.9882 4.21947 12.0962 4.25462 12.2042C4.28977 12.3482 4.21947 12.4922 4.07887 12.5282L2.21587 13.0321C2.07526 13.1041 1.89951 13.1041 1.75891 13.1041ZM16.2411 13.1041C16.1005 13.1041 15.9247 13.1041 15.7841 13.0321L13.9211 12.5282C13.7805 12.4922 13.7102 12.3482 13.7454 12.2042C13.7805 12.0962 13.9211 11.9882 14.0617 12.0242L15.9247 12.5642C16.2411 12.6721 16.5575 12.6002 16.8738 12.4562C17.155 12.2762 17.3659 11.9882 17.4714 11.6642C17.5417 11.3402 17.5065 10.9802 17.3308 10.6922C17.1902 10.4043 16.909 10.1883 16.5926 10.0803L12.5502 8.92832C12.4096 8.89233 12.3393 8.74833 12.3745 8.64034C12.4096 8.49634 12.5502 8.42435 12.6908 8.46035L16.6981 9.61229C17.155 9.72029 17.5417 10.0083 17.7526 10.4403C17.9986 10.8722 18.0689 11.3402 17.9283 11.8082C17.8229 12.2762 17.5065 12.6361 17.1199 12.8881C16.8387 13.0321 16.5575 13.1041 16.2411 13.1041Z" fill="black"/>
<path fill-rule="evenodd" clip-rule="evenodd" d="M12.4091 17.5329H5.58981C5.4492 17.5329 5.34375 17.4249 5.34375 17.2809C5.34375 17.137 5.4492 17.029 5.58981 17.029H12.4091C12.5497 17.029 12.6551 17.137 12.6551 17.2809C12.6551 17.4249 12.5497 17.5329 12.4091 17.5329ZM8.99945 15.877C8.92915 15.877 8.894 15.841 8.82369 15.805C7.80432 14.7971 6.78494 13.7531 6.78494 12.6732C6.78494 11.9892 7.3122 11.4492 8.01522 11.4492C8.47218 11.4492 8.78854 11.6292 8.99945 11.9532C9.21035 11.6292 9.52671 11.4492 9.98367 11.4492C10.6867 11.4492 11.214 11.9892 11.214 12.6732C11.214 13.7531 10.1946 14.7971 9.1752 15.805C9.14005 15.841 9.06975 15.877 8.99945 15.877ZM8.01522 11.9532C7.59341 11.9532 7.27705 12.2772 7.27705 12.6732C7.27705 13.5011 8.12067 14.4011 8.99945 15.265C9.87822 14.4011 10.7218 13.5011 10.7218 12.6732C10.7218 12.2772 10.4055 11.9532 9.98367 11.9532C9.63216 11.9532 9.45641 12.0972 9.21035 12.5652C9.1752 12.6372 9.1049 12.6732 8.99945 12.6732C8.894 12.6732 8.82369 12.6372 8.78854 12.5652C8.54249 12.0972 8.36673 11.9532 8.01522 11.9532Z" fill="black"/>
</svg>
