<svg width="20" height="20" viewBox="0 0 20 20" fill="none" xmlns="http://www.w3.org/2000/svg">
<path d="M19.2594 6.175C19.2948 6.14626 19.3235 6.1101 19.3435 6.06907C19.3635 6.02804 19.3742 5.98313 19.375 5.9375V4.6875C19.3768 4.45813 19.2945 4.23604 19.1437 4.06327C18.9928 3.8905 18.7838 3.77905 18.5563 3.75L17.85 3.25C17.621 3.0827 17.4469 2.85098 17.3501 2.58439C17.2533 2.31781 17.238 2.02842 17.3063 1.75313C17.3586 1.54509 17.3627 1.32786 17.3184 1.11799C17.274 0.908112 17.1823 0.711128 17.0503 0.542048C16.9183 0.372967 16.7495 0.23625 16.5566 0.142315C16.3638 0.0483806 16.152 -0.000293754 15.9375 1.33374e-06C15.723 -0.000293754 15.5112 0.0483806 15.3184 0.142315C15.1255 0.23625 14.9567 0.372967 14.8247 0.542048C14.6927 0.711128 14.601 0.908112 14.5566 1.11799C14.5123 1.32786 14.5164 1.54509 14.5688 1.75313C14.6372 2.02795 14.622 2.31695 14.5251 2.58309C14.4282 2.84922 14.2541 3.08036 14.025 3.24688L13.3188 3.75C13.0912 3.77905 12.8822 3.8905 12.7313 4.06327C12.5805 4.23604 12.4982 4.45813 12.5 4.6875V5.9375C12.5008 5.98313 12.5115 6.02804 12.5315 6.06907C12.5515 6.1101 12.5802 6.14626 12.6156 6.175C12.3833 6.37993 12.1971 6.63188 12.0694 6.91418C11.9417 7.19648 11.8754 7.50267 11.875 7.8125V9.42813C11.6568 9.46259 11.4332 9.4333 11.2313 9.34375C11.1813 8.728 10.9917 8.13175 10.6766 7.60034C10.3616 7.06892 9.92955 6.61636 9.41331 6.27706C8.89706 5.93775 8.31023 5.72066 7.69746 5.64228C7.08468 5.5639 6.4621 5.62631 5.87707 5.82474C5.29205 6.02318 4.75998 6.35243 4.32134 6.78744C3.88271 7.22246 3.54906 7.75178 3.34578 8.33514C3.14249 8.9185 3.07493 9.54054 3.14822 10.1539C3.22152 10.7673 3.43374 11.356 3.76875 11.875H2.8125C2.37609 11.8738 1.94587 11.7716 1.55553 11.5764C1.16519 11.3813 0.825313 11.0984 0.562501 10.75C0.523126 10.6972 0.468084 10.6582 0.40523 10.6386C0.342376 10.6189 0.274924 10.6197 0.212501 10.6406C0.150432 10.6616 0.0965213 10.7015 0.0583892 10.7548C0.020257 10.8081 -0.000168071 10.872 1.04173e-06 10.9375V14.6875C1.04173e-06 16.0965 0.559709 17.4477 1.556 18.444C2.55228 19.4403 3.90354 20 5.3125 20H7.5C8.31843 20.0059 9.11601 19.7421 9.7695 19.2493C10.423 18.7566 10.896 18.0623 11.1154 17.2738C11.3349 16.4853 11.2885 15.6465 10.9835 14.887C10.6786 14.1275 10.1319 13.4896 9.42813 13.0719C9.78655 12.8299 10.1032 12.5312 10.3656 12.1875H10.8094C11.1805 12.1896 11.5464 12.1006 11.875 11.9281V19.0625C11.875 19.3111 11.9738 19.5496 12.1496 19.7254C12.3254 19.9012 12.5639 20 12.8125 20H19.0625C19.3111 20 19.5496 19.9012 19.7254 19.7254C19.9012 19.5496 20 19.3111 20 19.0625V7.8125C19.9996 7.50267 19.9333 7.19648 19.8056 6.91418C19.6779 6.63188 19.4918 6.37993 19.2594 6.175ZM15.175 1.6C15.1472 1.48466 15.1459 1.3645 15.1712 1.24859C15.1965 1.13267 15.2478 1.02401 15.3212 0.930789C15.3947 0.837568 15.4883 0.762216 15.595 0.710405C15.7017 0.658594 15.8188 0.631676 15.9375 0.631676C16.0562 0.631676 16.1733 0.658594 16.28 0.710405C16.3867 0.762216 16.4803 0.837568 16.5538 0.930789C16.6272 1.02401 16.6785 1.13267 16.7038 1.24859C16.7291 1.3645 16.7278 1.48466 16.7 1.6C16.6006 1.99511 16.6216 2.4109 16.7603 2.794C16.8989 3.17709 17.1489 3.51001 17.4781 3.75H14.3969C14.7258 3.50973 14.9755 3.17678 15.1141 2.79378C15.2527 2.41077 15.2739 1.99512 15.175 1.6ZM13.125 4.6875C13.125 4.60462 13.1579 4.52514 13.2165 4.46653C13.2751 4.40793 13.3546 4.375 13.4375 4.375H18.4375C18.5204 4.375 18.5999 4.40793 18.6585 4.46653C18.7171 4.52514 18.75 4.60462 18.75 4.6875V5.625H13.125V4.6875ZM8.63125 12.8125C8.57603 12.838 8.52946 12.8791 8.49726 12.9308C8.46507 12.9824 8.44864 13.0423 8.45 13.1031C8.45152 13.1637 8.47065 13.2226 8.50506 13.2726C8.53946 13.3225 8.58765 13.3614 8.64375 13.3844C9.12098 13.5703 9.54464 13.8717 9.87678 14.2616C10.2089 14.6515 10.4392 15.1177 10.547 15.6184C10.6547 16.1191 10.6366 16.6387 10.4942 17.1307C10.3519 17.6227 10.0897 18.0717 9.73125 18.4375C9.44111 18.7353 9.09408 18.9717 8.71079 19.1327C8.3275 19.2938 7.91575 19.3762 7.5 19.375H5.3125C4.0693 19.375 2.87701 18.8811 1.99794 18.0021C1.11886 17.123 0.625001 15.9307 0.625001 14.6875V11.7125C1.24057 12.2211 2.014 12.4995 2.8125 12.5H4.39688C4.45752 12.5005 4.51699 12.4833 4.56804 12.4506C4.61909 12.4178 4.65951 12.3709 4.68438 12.3156C4.70924 12.2603 4.71745 12.1989 4.70802 12.139C4.69859 12.079 4.67191 12.0232 4.63125 11.9781C4.14944 11.4383 3.85024 10.7603 3.77627 10.0405C3.70229 9.32078 3.85732 8.59604 4.21925 7.96953C4.58119 7.34302 5.1316 6.84669 5.79206 6.55124C6.45253 6.25578 7.18939 6.17626 7.89769 6.32401C8.60598 6.47176 9.2496 6.83923 9.73687 7.3741C10.2241 7.90897 10.5302 8.58395 10.6115 9.30291C10.6928 10.0219 10.5451 10.7482 10.1896 11.3783C9.83401 12.0085 9.28868 12.5104 8.63125 12.8125ZM10.8188 11.5625H10.7844C11.0371 11.0771 11.1891 10.5456 11.2313 10C11.6543 10.1191 12.1064 10.0768 12.5 9.88125C12.5 10.102 12.4565 10.3207 12.372 10.5246C12.2875 10.7286 12.1637 10.914 12.0076 11.0701C11.8515 11.2262 11.6661 11.35 11.4621 11.4345C11.2582 11.519 11.0395 11.5625 10.8188 11.5625ZM19.375 9.375H18.125C18.0421 9.375 17.9626 9.40792 17.904 9.46653C17.8454 9.52514 17.8125 9.60462 17.8125 9.6875C17.8125 9.77038 17.8454 9.84987 17.904 9.90847C17.9626 9.96708 18.0421 10 18.125 10H19.375V11.25H18.125C18.0421 11.25 17.9626 11.2829 17.904 11.3415C17.8454 11.4001 17.8125 11.4796 17.8125 11.5625C17.8125 11.6454 17.8454 11.7249 17.904 11.7835C17.9626 11.8421 18.0421 11.875 18.125 11.875H19.375V13.125H18.125C18.0421 13.125 17.9626 13.1579 17.904 13.2165C17.8454 13.2751 17.8125 13.3546 17.8125 13.4375C17.8125 13.5204 17.8454 13.5999 17.904 13.6585C17.9626 13.7171 18.0421 13.75 18.125 13.75H19.375V15H18.125C18.0421 15 17.9626 15.0329 17.904 15.0915C17.8454 15.1501 17.8125 15.2296 17.8125 15.3125C17.8125 15.3954 17.8454 15.4749 17.904 15.5335C17.9626 15.5921 18.0421 15.625 18.125 15.625H19.375V16.875H18.125C18.0421 16.875 17.9626 16.9079 17.904 16.9665C17.8454 17.0251 17.8125 17.1046 17.8125 17.1875C17.8125 17.2704 17.8454 17.3499 17.904 17.4085C17.9626 17.4671 18.0421 17.5 18.125 17.5H19.375V19.0625C19.375 19.1454 19.3421 19.2249 19.2835 19.2835C19.2249 19.3421 19.1454 19.375 19.0625 19.375H12.8125C12.7296 19.375 12.6501 19.3421 12.5915 19.2835C12.5329 19.2249 12.5 19.1454 12.5 19.0625V11.4531C12.8996 11.0308 13.1231 10.472 13.125 9.89063C13.1233 9.78262 13.0936 9.67691 13.0388 9.5838C12.984 9.49069 12.9061 9.41337 12.8125 9.35938C12.7182 9.30211 12.6103 9.27084 12.5 9.26875V7.8125C12.5 7.3981 12.6646 7.00067 12.9576 6.70765C13.2507 6.41462 13.6481 6.25 14.0625 6.25H17.8125C18.2269 6.25 18.6243 6.41462 18.9174 6.70765C19.2104 7.00067 19.375 7.3981 19.375 7.8125V9.375Z" fill="white"/>
<path d="M8.4375 8.125C8.25208 8.125 8.07082 8.17998 7.91665 8.283C7.76248 8.38601 7.64232 8.53243 7.57136 8.70373C7.50041 8.87504 7.48184 9.06354 7.51801 9.2454C7.55419 9.42725 7.64348 9.5943 7.77459 9.72541C7.9057 9.85652 8.07275 9.94581 8.2546 9.98199C8.43646 10.0182 8.62496 9.99959 8.79627 9.92864C8.96757 9.85768 9.11399 9.73752 9.217 9.58335C9.32002 9.42918 9.375 9.24792 9.375 9.0625C9.375 8.81386 9.27623 8.5754 9.10041 8.39959C8.9246 8.22377 8.68614 8.125 8.4375 8.125ZM8.4375 9.375C8.37569 9.375 8.31528 9.35667 8.26388 9.32233C8.21249 9.288 8.17244 9.23919 8.14879 9.18209C8.12514 9.12499 8.11895 9.06215 8.13101 9.00153C8.14306 8.94091 8.17283 8.88523 8.21653 8.84153C8.26023 8.79782 8.31592 8.76806 8.37653 8.756C8.43715 8.74395 8.49999 8.75014 8.55709 8.77379C8.61419 8.79744 8.663 8.83749 8.69734 8.88888C8.73167 8.94027 8.75 9.00069 8.75 9.0625C8.75 9.14538 8.71708 9.22487 8.65847 9.28347C8.59987 9.34208 8.52038 9.375 8.4375 9.375Z" fill="white"/>
</svg>
