<svg width="18" height="18" viewBox="0 0 18 18" fill="none" xmlns="http://www.w3.org/2000/svg">
<path d="M17.129 3.48387H13.3548V0.870968C13.3548 0.390847 12.964 0 12.4839 0H5.51613C5.03601 0 4.64516 0.390847 4.64516 0.870968V3.48387H0.870968C0.390847 3.48387 0 3.87472 0 4.35484V8.12903C0 8.50696 0.243508 8.82635 0.580645 8.94654V16.2581H5.80645V17.4194H5.22581V18H12.7742V17.4194H12.1935V16.2581H17.4194V8.94654C17.7565 8.82635 18 8.50696 18 8.12903V4.35484C18 3.87472 17.6092 3.48387 17.129 3.48387ZM5.22581 0.870968C5.22581 0.711073 5.35623 0.580645 5.51613 0.580645H12.4839C12.6438 0.580645 12.7742 0.711073 12.7742 0.870968V3.48387H12.1935V1.16129H5.80645V3.48387H5.22581V0.870968ZM11.6129 3.48387H6.3871V1.74194H11.6129V3.48387ZM6.96774 17.4194H6.3871V15.6774H6.96774V17.4194ZM9.29032 17.4194H8.70968V14.5161H9.29032V17.4194ZM11.0323 17.4194V13.3548H11.6129V17.4194H11.0323ZM12.1935 15.6774V12.7742H10.4516V17.4194H9.87097V13.9355H8.12903V17.4194H7.54839V15.0968H5.80645V15.6774H1.16129V9H5.82119C5.81255 9.09581 5.80645 9.19223 5.80645 9.29032C5.80645 11.0511 7.23919 12.4839 9 12.4839C10.7608 12.4839 12.1935 11.0511 12.1935 9.29032C12.1935 9.19223 12.1875 9.09581 12.1788 9H16.8387V15.6774H12.1935ZM6.3871 9.29032C6.3871 7.84978 7.55946 6.67742 9 6.67742C10.4405 6.67742 11.6129 7.84978 11.6129 9.29032C11.6129 10.7309 10.4405 11.9032 9 11.9032C7.55946 11.9032 6.3871 10.7309 6.3871 9.29032ZM17.4194 8.12903C17.4194 8.28893 17.2889 8.41935 17.129 8.41935H12.0699C11.6896 7.081 10.4588 6.09677 9 6.09677C7.54117 6.09677 6.31071 7.081 5.93006 8.41935H0.870968C0.711073 8.41935 0.580645 8.28893 0.580645 8.12903V4.35484C0.580645 4.19494 0.711073 4.06452 0.870968 4.06452H17.129C17.2889 4.06452 17.4194 4.19494 17.4194 4.35484V8.12903Z" fill="#212529"/>
<path d="M1.16016 4.64453H1.7408V5.22518H1.16016V4.64453ZM2.32145 4.64453H2.90209V5.22518H2.32145V4.64453ZM3.48274 4.64453H4.06338V5.22518H3.48274V4.64453ZM1.16016 5.80582H1.7408V6.38647H1.16016V5.80582ZM2.32145 5.80582H2.90209V6.38647H2.32145V5.80582ZM16.2569 7.25743H16.8376V7.83808H16.2569V7.25743ZM15.0956 7.25743H15.6763V7.83808H15.0956V7.25743ZM13.9343 7.25743H14.515V7.83808H13.9343V7.25743ZM16.2569 6.09614H16.8376V6.67679H16.2569V6.09614ZM15.0956 6.09614H15.6763V6.67679H15.0956V6.09614ZM1.7408 13.3542H3.48274V13.9349H1.7408V13.3542ZM1.7408 14.5155H4.06338V15.0961H1.7408V14.5155Z" fill="#212529"/>
</svg>
