<svg width="20" height="20" viewBox="0 0 20 20" fill="none" xmlns="http://www.w3.org/2000/svg">
<path fill-rule="evenodd" clip-rule="evenodd" d="M14.5594 9.78058L14.4248 14.3473C14.4237 14.3852 14.4303 14.4229 14.444 14.4583C14.4577 14.4936 14.4784 14.5258 14.5048 14.553C14.5312 14.5802 14.5628 14.6019 14.5978 14.6166C14.6327 14.6314 14.6702 14.639 14.7081 14.639H15.81C15.8479 14.639 15.8854 14.6314 15.9204 14.6166C15.9553 14.6019 15.9869 14.5802 16.0133 14.553C16.0397 14.5258 16.0604 14.4936 16.0741 14.4583C16.0879 14.4229 16.0944 14.3852 16.0933 14.3473L15.9588 9.78058C17.3891 9.4582 18.4389 8.16763 18.4389 6.67877C18.4389 4.92541 17.0125 3.49894 15.2591 3.49894C13.5058 3.49894 12.0793 4.92541 12.0793 6.67877C12.0792 8.16763 13.129 9.45816 14.5594 9.78058ZM15 14.0722L15.1518 8.91941C15.154 8.84575 15.1274 8.77414 15.0776 8.71978L14.1878 7.74698L14.2333 7.70148L14.7206 8.14723C14.7604 8.1836 14.8097 8.20788 14.8628 8.21721C14.9158 8.22654 14.9705 8.22055 15.0203 8.19992C15.0701 8.1793 15.113 8.1449 15.1439 8.10077C15.1748 8.05663 15.1925 8.00459 15.195 7.95075L15.2269 7.23302H15.2913L15.3233 7.95075C15.3257 8.00459 15.3434 8.05663 15.3743 8.10077C15.4052 8.1449 15.4481 8.1793 15.4979 8.19992C15.5477 8.22055 15.6024 8.22654 15.6554 8.21721C15.7085 8.20788 15.7578 8.1836 15.7976 8.14723L16.2849 7.70148L16.3304 7.74698L15.4406 8.71978C15.3908 8.77415 15.3642 8.84575 15.3664 8.91941L15.5182 14.0722H15ZM15.2591 4.06574C16.6999 4.06574 17.8721 5.23792 17.8721 6.67877C17.8721 7.8648 17.0617 8.89759 15.9417 9.20107L15.9363 9.01759L16.9316 7.92953C16.9808 7.87568 17.0074 7.8049 17.0058 7.73193C17.0042 7.65896 16.9745 7.58944 16.9228 7.53784L16.494 7.10901C16.4424 7.05742 16.3728 7.02772 16.2999 7.0261C16.2269 7.02448 16.1562 7.05106 16.1023 7.10031L15.8624 7.31974L15.8454 6.93699C15.8422 6.86408 15.8109 6.79524 15.7582 6.74481C15.7055 6.69437 15.6353 6.66622 15.5623 6.66622H14.9558C14.8829 6.66622 14.8127 6.69437 14.76 6.74481C14.7072 6.79524 14.676 6.86408 14.6727 6.93699L14.6557 7.3197L14.4159 7.10031C14.362 7.05105 14.2913 7.02447 14.2183 7.02609C14.1454 7.02771 14.0758 7.05741 14.0242 7.10901L13.5954 7.53784C13.5438 7.58944 13.514 7.65896 13.5124 7.73193C13.5108 7.8049 13.5374 7.87568 13.5866 7.92953L14.5819 9.01759L14.5765 9.20107C13.4565 8.89759 12.6461 7.86484 12.6461 6.67877C12.646 5.23792 13.8182 4.06574 15.2591 4.06574ZM7.35733 3.09266C7.51826 3.15266 7.63607 3.28246 7.68061 3.44861C7.72514 3.61477 7.68798 3.7861 7.57862 3.91857C7.54185 3.96312 7.51957 4.01785 7.51477 4.07542C7.50997 4.13299 7.52288 4.19065 7.55177 4.24068C7.58066 4.29071 7.62414 4.33072 7.6764 4.35534C7.72866 4.37996 7.7872 4.38802 7.84417 4.37845C8.0136 4.34999 8.18044 4.40339 8.3021 4.52505C8.42376 4.64671 8.4772 4.81363 8.44874 4.98302C8.43917 5.04 8.44724 5.09853 8.47187 5.15079C8.49649 5.20306 8.53649 5.24655 8.58651 5.27545C8.63655 5.3043 8.69421 5.31718 8.75177 5.31238C8.80933 5.30757 8.86405 5.28531 8.90861 5.24857C9.04003 5.14011 9.21116 5.10351 9.37812 5.14828C9.54508 5.19298 9.675 5.31023 9.73456 5.46986C9.75478 5.52396 9.79105 5.57058 9.8385 5.6035C9.88595 5.63642 9.94233 5.65406 10.0001 5.65406C10.0578 5.65406 10.1142 5.63642 10.1617 5.6035C10.2091 5.57058 10.2454 5.52396 10.2656 5.46986C10.3256 5.30893 10.4554 5.19108 10.6216 5.14658C10.7878 5.10205 10.9591 5.13922 11.0915 5.24857C11.1361 5.28534 11.1908 5.30762 11.2484 5.31242C11.3059 5.31722 11.3636 5.30431 11.4136 5.27542C11.4636 5.24654 11.5037 5.20305 11.5283 5.15079C11.5529 5.09853 11.561 5.03999 11.5514 4.98302C11.5229 4.81363 11.5764 4.64671 11.698 4.52505C11.8196 4.40339 11.9866 4.34999 12.156 4.37845C12.2129 4.38806 12.2715 4.38002 12.3238 4.35539C12.376 4.33076 12.4195 4.29073 12.4484 4.24067C12.4773 4.19065 12.4902 4.13298 12.4854 4.07541C12.4806 4.01784 12.4583 3.96312 12.4215 3.91857C12.313 3.78715 12.2764 3.61602 12.3212 3.44906C12.3659 3.28209 12.4831 3.15217 12.6428 3.09262C12.6969 3.07244 12.7436 3.03618 12.7766 2.98872C12.8095 2.94126 12.8272 2.88486 12.8272 2.82707C12.8272 2.76929 12.8095 2.71289 12.7766 2.66543C12.7436 2.61797 12.6969 2.58171 12.6428 2.56153C12.4819 2.50153 12.364 2.37173 12.3195 2.20558C12.275 2.03942 12.3121 1.86809 12.4215 1.73566C12.4583 1.69111 12.4805 1.63638 12.4853 1.57882C12.4901 1.52125 12.4772 1.4636 12.4484 1.41357C12.4195 1.36354 12.376 1.32354 12.3237 1.29891C12.2715 1.27429 12.213 1.26622 12.156 1.27578C11.9866 1.30428 11.8196 1.25076 11.698 1.1291C11.5764 1.00744 11.5229 0.840519 11.5514 0.671127C11.561 0.61415 11.5529 0.5556 11.5283 0.503326C11.5037 0.451052 11.4637 0.407553 11.4137 0.37866C11.3636 0.349767 11.3059 0.336861 11.2484 0.341673C11.1908 0.346485 11.1361 0.368784 11.0915 0.40558C10.9601 0.514042 10.789 0.55056 10.622 0.505904C10.455 0.461167 10.3252 0.343961 10.2656 0.184326C10.2454 0.130198 10.2092 0.0835363 10.1617 0.0505922C10.1142 0.0176481 10.0578 -4.4036e-06 10.0001 8.24002e-10C9.9423 4.40525e-06 9.8859 0.0176655 9.83845 0.0506168C9.791 0.0835682 9.75475 0.130236 9.73456 0.184366C9.67452 0.345297 9.54476 0.463151 9.37857 0.507645C9.21242 0.552179 9.04108 0.515013 8.90861 0.405621C8.86406 0.368848 8.80933 0.346569 8.75176 0.341769C8.69419 0.336969 8.63653 0.349878 8.5865 0.378766C8.53647 0.407654 8.49647 0.45114 8.47185 0.5034C8.44723 0.55566 8.43916 0.614196 8.44874 0.671167C8.4772 0.840559 8.42376 1.00748 8.30214 1.12914C8.18052 1.2508 8.01352 1.30432 7.84417 1.27582C7.7872 1.26626 7.72867 1.27433 7.67642 1.29895C7.62417 1.32358 7.58069 1.36359 7.55181 1.41361C7.52293 1.46364 7.51002 1.52129 7.51482 1.57886C7.51962 1.63642 7.5419 1.69115 7.57866 1.7357C7.68713 1.86708 7.72368 2.03821 7.67895 2.20517C7.63421 2.37214 7.51701 2.50205 7.35733 2.56161C7.3032 2.5818 7.25654 2.61806 7.22359 2.66551C7.19064 2.71297 7.17299 2.76936 7.17299 2.82713C7.17299 2.88491 7.19064 2.9413 7.22359 2.98876C7.25654 3.03621 7.3032 3.07247 7.35733 3.09266ZM8.22639 2.35185C8.27397 2.17426 8.27613 1.98755 8.23267 1.8089C8.40716 1.7589 8.56837 1.66448 8.70291 1.52991C8.83679 1.39602 8.93092 1.2357 8.98108 1.06222C9.15642 1.10546 9.34237 1.10416 9.52525 1.05509C9.70901 1.00586 9.87136 0.913474 10.0019 0.787361C10.1349 0.914335 10.2977 1.00582 10.4753 1.05341C10.6529 1.10099 10.8396 1.10315 11.0183 1.05967C11.0683 1.23416 11.1626 1.39534 11.2972 1.52987C11.4311 1.6638 11.5914 1.75793 11.7649 1.80813C11.7216 1.98347 11.723 2.16942 11.772 2.3523C11.8212 2.53606 11.9136 2.69841 12.0397 2.82894C11.9128 2.96192 11.8213 3.12468 11.7736 3.30226C11.7261 3.47987 11.7239 3.66659 11.7674 3.84525C11.5929 3.89525 11.4317 3.98962 11.2972 4.12416C11.1633 4.25808 11.0691 4.41841 11.0189 4.59193C10.8436 4.54869 10.6577 4.55007 10.4748 4.59901C10.291 4.64829 10.1286 4.74067 9.99812 4.86679C9.86512 4.73982 9.70234 4.64834 9.52474 4.60075C9.34714 4.55316 9.16043 4.55099 8.98177 4.59444C8.93177 4.41995 8.8374 4.25873 8.70283 4.12424C8.56894 3.99031 8.40862 3.89618 8.23514 3.84602C8.27842 3.67068 8.27704 3.48472 8.22805 3.30185C8.17882 3.11809 8.08639 2.95574 7.96032 2.82521C8.08732 2.69225 8.17882 2.52946 8.22639 2.35185ZM10.0001 4.40776C10.8716 4.40776 11.5807 3.69869 11.5807 2.82711C11.5807 1.95554 10.8716 1.24647 10.0001 1.24647C9.12849 1.24647 8.41943 1.95554 8.41943 2.82711C8.41943 3.69869 9.12853 4.40776 10.0001 4.40776ZM10.0001 1.81327C10.5591 1.81327 11.0139 2.26805 11.0139 2.82711C11.0139 3.38618 10.5591 3.84096 10.0001 3.84096C9.44104 3.84096 8.98622 3.38618 8.98622 2.82711C8.98622 2.26805 9.44104 1.81327 10.0001 1.81327ZM4.54011 10.3056H3.43554C3.13891 10.3056 2.89761 10.547 2.89761 10.8436V12.8137C2.89761 13.1103 3.13891 13.3517 3.43554 13.3517H4.54007C4.8367 13.3517 5.07804 13.1103 5.07804 12.8137V10.8436C5.07804 10.547 4.8367 10.3056 4.54011 10.3056ZM4.51124 12.7849H3.46441V10.8724H4.51124V12.7849ZM10.9992 10.3213C11.0281 10.3448 11.0613 10.3623 11.097 10.3729C11.1327 10.3835 11.1701 10.3869 11.2071 10.3831C11.2441 10.3792 11.28 10.3681 11.3127 10.3503C11.3454 10.3326 11.3743 10.3086 11.3978 10.2797L12.2074 9.28111C12.2309 9.2522 12.2484 9.21896 12.259 9.18328C12.2696 9.1476 12.273 9.11019 12.2692 9.07317C12.2653 9.03615 12.2542 9.00026 12.2364 8.96754C12.2187 8.93482 12.1947 8.90592 12.1658 8.88249L6.71968 4.46695C6.37665 4.188 5.88224 4.19092 5.5431 4.47347L3.95525 5.76083V5.42691C3.95525 5.35175 3.9254 5.27966 3.87225 5.22651C3.8191 5.17337 3.74702 5.14351 3.67186 5.14351H2.63361C2.55844 5.14351 2.48636 5.17337 2.43321 5.22651C2.38007 5.27966 2.35021 5.35175 2.35021 5.42691V7.06213L0.105085 8.88241C0.0761756 8.90585 0.0521656 8.93475 0.0344262 8.96747C0.0166868 9.00018 0.00556541 9.03608 0.00169695 9.07309C-0.00217152 9.11011 0.00128874 9.14752 0.0118802 9.1832C0.0224716 9.21888 0.0399868 9.25212 0.0634256 9.28103L0.873014 10.2796C0.896449 10.3085 0.925352 10.3325 0.958072 10.3503C0.990791 10.368 1.02669 10.3792 1.06371 10.383C1.10073 10.3869 1.13815 10.3835 1.17383 10.3729C1.20951 10.3623 1.24276 10.3448 1.27167 10.3213L1.83058 9.8682V13.527C1.63896 13.6219 1.48959 13.7847 1.41163 13.9838C1.07155 14.004 0.7618 14.2283 0.650263 14.5714C0.53913 14.9132 0.657955 15.2768 0.921151 15.4937C0.890882 15.6084 0.884925 15.7281 0.903661 15.8452C0.920866 15.9562 0.959957 16.0626 1.01866 16.1583C1.07736 16.254 1.1545 16.3371 1.2456 16.4027C1.43155 16.5374 1.67195 16.5907 1.90543 16.5487C1.91159 16.5476 1.91742 16.5458 1.92349 16.5445V17.2454C1.55649 16.8334 0.89686 16.5638 0.279254 16.5725C0.205617 16.5737 0.135315 16.6034 0.0832399 16.6555C0.0311646 16.7076 0.0014062 16.7779 0.000268222 16.8515C-0.00965072 17.4907 0.256258 18.1377 0.677671 18.4998C1.03228 18.8047 1.54957 18.9358 1.92345 19.0124V19.7165C1.92345 19.7917 1.95331 19.8638 2.00646 19.9169C2.0596 19.9701 2.13169 19.9999 2.20685 19.9999C2.28201 19.9999 2.35409 19.9701 2.40724 19.9169C2.46039 19.8638 2.49025 19.7917 2.49025 19.7165V19.0126C2.86421 18.936 3.38198 18.8048 3.73684 18.4998C4.15825 18.1377 4.42416 17.4906 4.41424 16.8515C4.41309 16.7778 4.38333 16.7075 4.33126 16.6555C4.27918 16.6034 4.20889 16.5736 4.13525 16.5725C3.51753 16.5649 2.85709 16.8336 2.49025 17.2462V16.5448C2.50336 16.5475 2.5162 16.5511 2.52952 16.5532C2.57652 16.5609 2.62344 16.5647 2.67004 16.5647C2.8488 16.5648 3.02299 16.5083 3.16765 16.4032H9.61735C10.0711 16.4032 10.4403 16.0341 10.4403 15.5803V9.8682L10.9992 10.3213ZM1.04714 18.07C0.820221 17.875 0.649939 17.5278 0.590101 17.1641C0.948276 17.2262 1.30192 17.3992 1.50086 17.623C1.67843 17.8228 1.76803 18.1113 1.83766 18.4123C1.56196 18.3449 1.24568 18.2407 1.04714 18.07ZM2.91364 17.623C3.11263 17.3992 3.46619 17.2262 3.82441 17.1641C3.76457 17.5278 3.59429 17.875 3.36736 18.07C3.16882 18.2407 2.85255 18.3449 2.5768 18.4123C2.64648 18.1114 2.73607 17.8228 2.91364 17.623ZM2.917 5.71035H3.38846V6.22039L2.917 6.60261V5.71035ZM1.13479 9.70257L0.682165 9.14427L5.90168 4.91246L5.90516 4.90958C6.03653 4.7995 6.22876 4.79833 6.3624 4.90703L11.5886 9.14431L11.136 9.70257L6.31386 5.79298C6.26338 5.75204 6.20037 5.7297 6.13538 5.7297C6.07039 5.7297 6.00737 5.75204 5.9569 5.79298L1.13479 9.70257ZM2.89907 15.5432C2.92141 15.5737 2.93747 15.6083 2.94633 15.6451C2.95518 15.6818 2.95665 15.7199 2.95065 15.7572C2.94484 15.7943 2.93172 15.8299 2.91204 15.8619C2.89237 15.894 2.86653 15.9217 2.83603 15.9437C2.77413 15.9885 2.69765 16.0063 2.62081 15.9938C2.54575 15.9815 2.48073 15.9417 2.4377 15.8814C2.41148 15.8447 2.37688 15.8148 2.33677 15.7941C2.29666 15.7735 2.2522 15.7627 2.20709 15.7627L2.20252 15.7628C2.15664 15.7635 2.11163 15.7754 2.07136 15.7973C2.03108 15.8193 1.99675 15.8507 1.9713 15.8889C1.92385 15.9601 1.84681 15.9833 1.80511 15.9908C1.7239 16.0053 1.63904 15.9878 1.57819 15.9437C1.51617 15.8988 1.47544 15.8324 1.46349 15.7567C1.45155 15.6811 1.46981 15.6054 1.51495 15.5435C1.54126 15.5074 1.55867 15.4656 1.56576 15.4215C1.57284 15.3774 1.56941 15.3323 1.55574 15.2898C1.54206 15.2472 1.51853 15.2085 1.48707 15.1768C1.4556 15.1451 1.41709 15.1213 1.37467 15.1073C1.22135 15.0568 1.13993 14.8983 1.18929 14.7466C1.23799 14.5968 1.39949 14.5146 1.54936 14.5632C1.5919 14.577 1.6371 14.5805 1.68127 14.5735C1.72543 14.5665 1.76732 14.5492 1.8035 14.5229C1.83968 14.4966 1.86913 14.4621 1.88944 14.4223C1.90976 14.3825 1.92035 14.3384 1.92037 14.2937C1.92037 14.135 2.04904 14.006 2.20717 14.006C2.36535 14.006 2.49401 14.1351 2.49401 14.2937C2.49402 14.3384 2.5046 14.3825 2.5249 14.4223C2.5452 14.4622 2.57464 14.4966 2.61081 14.5229C2.64699 14.5492 2.68887 14.5666 2.73304 14.5736C2.77721 14.5806 2.82241 14.577 2.86494 14.5632C3.01478 14.5145 3.17631 14.5967 3.22502 14.7466C3.23674 14.7823 3.24124 14.8201 3.23824 14.8576C3.23524 14.8951 3.22482 14.9317 3.20757 14.9651C3.19065 14.9986 3.16725 15.0283 3.13874 15.0526C3.11022 15.0769 3.07715 15.0953 3.04146 15.1067C2.99879 15.1204 2.95999 15.1441 2.92824 15.1757C2.89648 15.2073 2.87268 15.246 2.85878 15.2886C2.84488 15.3312 2.84129 15.3765 2.84829 15.4208C2.8553 15.465 2.8727 15.507 2.89907 15.5432ZM8.49789 15.8365H6.28827V10.945C6.28827 10.9056 6.32151 10.8724 6.36082 10.8724H8.42534C8.46465 10.8724 8.49789 10.9056 8.49789 10.945V15.8365ZM9.8735 15.5804C9.87343 15.6483 9.84642 15.7134 9.79841 15.7614C9.75039 15.8094 9.68529 15.8364 9.61739 15.8365H9.06468V10.945C9.06468 10.5924 8.77789 10.3056 8.42534 10.3056H6.36082C6.00827 10.3056 5.72147 10.5924 5.72147 10.945V15.8365H3.51178C3.52881 15.7227 3.52257 15.6066 3.49344 15.4953C3.58442 15.4207 3.65894 15.328 3.71226 15.2232C3.81619 15.0198 3.83461 14.7883 3.76408 14.5713C3.65259 14.2283 3.34283 14.0039 3.00275 13.9838C2.90101 13.7229 2.67466 13.5242 2.39737 13.4608V9.40864L6.13544 6.37792L9.87354 9.40864V15.5804H9.8735ZM17.5264 15.0586C17.5264 14.9121 17.6459 14.7925 17.7925 14.7925C17.9391 14.7925 18.0586 14.9121 18.0586 15.0586C18.0586 15.2052 17.9391 15.3247 17.7925 15.3247C17.6459 15.3247 17.5264 15.2052 17.5264 15.0586ZM19.7208 16.5726C19.1035 16.5638 18.4426 16.8338 18.0758 17.2463V16.5449C18.0889 16.5477 18.1017 16.5512 18.1151 16.5533C18.1621 16.561 18.209 16.5648 18.2556 16.5648C18.4347 16.5649 18.6093 16.5082 18.7541 16.4028C18.9388 16.2689 19.0602 16.0713 19.0959 15.8462C19.1147 15.7294 19.1089 15.6099 19.0789 15.4954C19.1699 15.4208 19.2444 15.3282 19.2977 15.2233C19.3491 15.1235 19.3801 15.0145 19.389 14.9026C19.3979 14.7907 19.3845 14.6781 19.3495 14.5715C19.238 14.2284 18.9283 14.004 18.5881 13.9839C18.4639 13.6655 18.1541 13.4393 17.7926 13.4393C17.431 13.4393 17.1212 13.6654 16.997 13.9839C16.657 14.0041 16.3472 14.2284 16.2357 14.5714C16.1245 14.9133 16.2434 15.2768 16.5066 15.4937C16.4763 15.6084 16.4704 15.7282 16.4891 15.8454C16.5063 15.9563 16.5454 16.0627 16.6041 16.1584C16.6628 16.254 16.74 16.3371 16.8311 16.4027C17.017 16.5375 17.2575 16.5908 17.4909 16.5487C17.497 16.5476 17.5029 16.5458 17.5089 16.5446V17.2454C17.1419 16.8334 16.4821 16.5623 15.8647 16.5726C15.791 16.5737 15.7207 16.6035 15.6687 16.6556C15.6166 16.7076 15.5868 16.778 15.5857 16.8516C15.5758 17.4907 15.8417 18.1377 16.2632 18.5C16.6177 18.8048 17.1351 18.9359 17.5089 19.0125V19.7166C17.5089 19.7918 17.5388 19.8638 17.5919 19.917C17.6451 19.9701 17.7172 20 17.7923 20C17.8675 20 17.9396 19.9701 17.9927 19.917C18.0459 19.8638 18.0757 19.7918 18.0757 19.7166V19.0127C18.4497 18.9361 18.9675 18.8049 19.3223 18.5C19.7437 18.1377 20.0097 17.4907 19.9997 16.8516C19.9986 16.778 19.9689 16.7077 19.9168 16.6556C19.8647 16.6035 19.7945 16.5738 19.7208 16.5726ZM16.6326 18.0701C16.4057 17.8751 16.2354 17.5279 16.1756 17.1641C16.5337 17.2263 16.8874 17.3993 17.0864 17.623C17.264 17.8229 17.3536 18.1114 17.4232 18.4125C17.1474 18.3451 16.8312 18.2408 16.6326 18.0701ZM17.3906 15.9909C17.3094 16.0056 17.2245 15.9879 17.1637 15.9438C17.1331 15.9218 17.1073 15.894 17.0876 15.8619C17.0679 15.8298 17.0548 15.7941 17.049 15.7569C17.043 15.7197 17.0445 15.6817 17.0533 15.6451C17.0622 15.6085 17.0782 15.574 17.1004 15.5436C17.1268 15.5075 17.1442 15.4657 17.1513 15.4216C17.1584 15.3775 17.1549 15.3324 17.1413 15.2898C17.1276 15.2473 17.104 15.2086 17.0726 15.1769C17.0411 15.1452 17.0026 15.1214 16.9602 15.1075C16.8068 15.0569 16.7254 14.8985 16.7748 14.7467C16.8235 14.5969 16.985 14.5146 17.1349 14.5633C17.2211 14.5914 17.3157 14.5764 17.389 14.523C17.4624 14.4697 17.5058 14.3845 17.5058 14.2938C17.5058 14.1352 17.6345 14.0062 17.7926 14.0062C17.9508 14.0062 18.0795 14.1352 18.0795 14.2938C18.0795 14.3385 18.0901 14.3826 18.1104 14.4225C18.1307 14.4623 18.1601 14.4968 18.1963 14.5231C18.2325 14.5494 18.2744 14.5667 18.3186 14.5737C18.3627 14.5807 18.4079 14.5772 18.4505 14.5633C18.6003 14.5147 18.7618 14.5969 18.8106 14.7467C18.8223 14.7825 18.8267 14.8203 18.8237 14.8578C18.8207 14.8953 18.8103 14.9319 18.7931 14.9653C18.7761 14.9987 18.7528 15.0285 18.7242 15.0528C18.6957 15.0771 18.6627 15.0954 18.627 15.1069C18.5843 15.1206 18.5456 15.1442 18.5138 15.1758C18.4821 15.2074 18.4583 15.2461 18.4444 15.2887C18.4305 15.3313 18.4269 15.3766 18.4339 15.4208C18.4408 15.4651 18.4582 15.5071 18.4846 15.5433C18.5069 15.5738 18.523 15.6084 18.5318 15.6451C18.5407 15.6819 18.5422 15.72 18.5362 15.7573C18.5304 15.7944 18.5173 15.83 18.4976 15.862C18.4779 15.894 18.4521 15.9218 18.4216 15.9437C18.3596 15.9886 18.2831 16.0064 18.2063 15.9939C18.1313 15.9816 18.0663 15.9417 18.0232 15.8815C17.997 15.8447 17.9624 15.8148 17.9223 15.7942C17.8822 15.7735 17.8377 15.7628 17.7926 15.7628L17.7881 15.7628C17.7422 15.7635 17.6972 15.7754 17.6569 15.7974C17.6166 15.8194 17.5823 15.8508 17.5568 15.889C17.5093 15.9602 17.4323 15.9834 17.3906 15.9909ZM18.9529 18.0701C18.7544 18.2408 18.4381 18.3451 18.1624 18.4125C18.232 18.1115 18.3216 17.8228 18.4992 17.623C18.6982 17.3992 19.0518 17.2263 19.41 17.1641C19.3501 17.5279 19.1798 17.8751 18.9529 18.0701ZM12.459 15.0586C12.459 14.9121 12.5786 14.7925 12.7251 14.7925C12.8717 14.7925 12.9913 14.9121 12.9913 15.0586C12.9913 15.2052 12.8717 15.3247 12.7251 15.3247C12.5785 15.3247 12.459 15.2052 12.459 15.0586ZM14.6534 16.5726C14.0357 16.5632 13.3753 16.8337 13.0084 17.2462V16.5449C13.0215 16.5477 13.0343 16.5512 13.0477 16.5533C13.0947 16.561 13.1416 16.5648 13.1882 16.5648C13.3668 16.5648 13.54 16.5091 13.6867 16.4028C13.8714 16.2689 13.9928 16.0713 14.0286 15.8463C14.0473 15.7294 14.0415 15.6099 14.0115 15.4954C14.1025 15.4208 14.177 15.3282 14.2303 15.2233C14.2817 15.1235 14.3127 15.0145 14.3216 14.9026C14.3305 14.7907 14.3171 14.6781 14.2821 14.5715C14.1706 14.2284 13.8609 14.004 13.5208 13.9839C13.3966 13.6655 13.0868 13.4393 12.7252 13.4393C12.3636 13.4393 12.0538 13.6655 11.9297 13.9839C11.5896 14.0041 11.2798 14.2284 11.1683 14.5714C11.0572 14.9133 11.176 15.2768 11.4392 15.4937C11.4089 15.6084 11.403 15.7282 11.4217 15.8453C11.4389 15.9562 11.478 16.0626 11.5367 16.1583C11.5954 16.254 11.6726 16.3371 11.7636 16.4027C11.9496 16.5375 12.19 16.5908 12.4235 16.5487C12.4296 16.5476 12.4355 16.5458 12.4416 16.5446V17.2454C12.0746 16.8334 11.4139 16.5623 10.7973 16.5726C10.7237 16.5737 10.6534 16.6035 10.6013 16.6556C10.5492 16.7076 10.5195 16.778 10.5184 16.8516C10.5084 17.4907 10.7743 18.1377 11.1958 18.5C11.5504 18.8047 12.0677 18.9359 12.4416 19.0125V19.7166C12.4416 19.7918 12.4714 19.8638 12.5246 19.917C12.5777 19.9701 12.6498 20 12.725 20C12.8001 20 12.8722 19.9701 12.9254 19.917C12.9785 19.8638 13.0084 19.7918 13.0084 19.7166V19.0127C13.3823 18.9361 13.9001 18.8049 14.2549 18.5C14.6763 18.1377 14.9422 17.4907 14.9324 16.8516C14.9312 16.778 14.9015 16.7077 14.8494 16.6556C14.7973 16.6035 14.7271 16.5738 14.6534 16.5726ZM11.5652 18.0701C11.3383 17.8751 11.168 17.5279 11.1082 17.1641C11.4663 17.2263 11.82 17.3992 12.019 17.623C12.1966 17.8228 12.2862 18.1115 12.3558 18.4125C12.08 18.345 11.7638 18.2408 11.5652 18.0701ZM12.3232 15.9909C12.242 16.0054 12.1571 15.9879 12.0963 15.9438C12.0657 15.9218 12.0399 15.894 12.0202 15.8619C12.0005 15.8298 11.9874 15.7941 11.9816 15.7569C11.9756 15.7197 11.9771 15.6817 11.9859 15.6451C11.9947 15.6085 12.0108 15.574 12.033 15.5437C12.0594 15.5076 12.0768 15.4658 12.0839 15.4217C12.091 15.3775 12.0876 15.3324 12.0739 15.2899C12.0602 15.2473 12.0367 15.2086 12.0052 15.1769C11.9737 15.1452 11.9352 15.1214 11.8928 15.1075C11.7394 15.0569 11.658 14.8985 11.7074 14.7467C11.7561 14.5969 11.9176 14.5146 12.0675 14.5633C12.1537 14.5914 12.2482 14.5764 12.3216 14.523C12.3949 14.4697 12.4384 14.3845 12.4384 14.2938C12.4384 14.1352 12.567 14.0062 12.7252 14.0062C12.8834 14.0062 13.012 14.1352 13.012 14.2938C13.012 14.3385 13.0226 14.3826 13.0429 14.4225C13.0632 14.4623 13.0927 14.4968 13.1289 14.5231C13.165 14.5494 13.2069 14.5667 13.2511 14.5737C13.2953 14.5807 13.3405 14.5772 13.383 14.5633C13.5328 14.5147 13.6944 14.5969 13.7431 14.7467C13.7548 14.7825 13.7593 14.8203 13.7563 14.8578C13.7533 14.8953 13.7429 14.9319 13.7256 14.9653C13.7087 14.9987 13.6853 15.0285 13.6568 15.0528C13.6283 15.0771 13.5953 15.0954 13.5596 15.1069C13.5169 15.1206 13.4781 15.1442 13.4464 15.1758C13.4147 15.2074 13.3909 15.2461 13.377 15.2887C13.3631 15.3313 13.3595 15.3766 13.3664 15.4208C13.3734 15.4651 13.3908 15.5071 13.4172 15.5433C13.4395 15.5738 13.4556 15.6084 13.4644 15.6451C13.4733 15.6819 13.4748 15.72 13.4688 15.7573C13.463 15.7944 13.4498 15.83 13.4302 15.862C13.4105 15.894 13.3846 15.9218 13.3541 15.9437C13.2922 15.9886 13.2158 16.0064 13.1389 15.9939C13.0639 15.9816 12.9989 15.9417 12.9558 15.8815C12.9296 15.8447 12.895 15.8148 12.8549 15.7942C12.8148 15.7735 12.7703 15.7628 12.7252 15.7628L12.7206 15.7628C12.6748 15.7635 12.6298 15.7754 12.5895 15.7974C12.5492 15.8194 12.5149 15.8508 12.4894 15.889C12.4419 15.9602 12.3649 15.9834 12.3232 15.9909ZM13.8855 18.0701C13.687 18.2408 13.3707 18.345 13.095 18.4125C13.1646 18.1114 13.2542 17.8229 13.4318 17.623C13.6308 17.3992 13.9844 17.2263 14.3425 17.1641C14.2827 17.5279 14.1124 17.8751 13.8855 18.0701ZM2.47312 15.0585C2.47312 15.2051 2.35357 15.3246 2.20701 15.3246C2.06045 15.3246 1.9409 15.2051 1.9409 15.0585C1.9409 14.9119 2.06045 14.7924 2.20701 14.7924C2.35357 14.7924 2.47312 14.912 2.47312 15.0585Z" fill="#212529"/>
</svg>
