<svg width="20" height="20" viewBox="0 0 20 20" fill="none" xmlns="http://www.w3.org/2000/svg">
<path d="M19.999 16.2623C19.9951 16.2221 19.9805 16.1804 19.9575 16.147L15.8615 10.1955C16.3885 10.0262 16.7588 9.6323 16.7588 9.17446C16.7588 8.85116 16.5741 8.55981 16.28 8.35683C16.5741 8.15385 16.7588 7.8625 16.7588 7.53924C16.7588 7.03175 16.3036 6.60301 15.6845 6.47148V5.29629C16.7087 5.15804 17.4885 4.48246 17.4885 3.67233C17.4885 2.76263 16.5052 2.0225 15.2966 2.0225C14.5147 2.0225 13.7865 2.33963 13.396 2.85013C13.3452 2.91722 13.3318 2.99673 13.3587 3.07126C13.3856 3.14578 13.4506 3.20926 13.5395 3.24778C13.6284 3.28631 13.734 3.29675 13.8331 3.27682C13.9323 3.25689 14.0168 3.20821 14.0684 3.14144C14.3208 2.81146 14.7914 2.60645 15.2966 2.60645C16.0775 2.60645 16.7127 3.0846 16.7127 3.67233C16.7127 4.26006 16.0774 4.73821 15.2966 4.73821C15.1938 4.73821 15.0951 4.76898 15.0223 4.82373C14.9496 4.87849 14.9087 4.95275 14.9087 5.03018V6.46633C14.2774 6.59176 13.8106 7.02515 13.8106 7.5392C13.8106 7.86246 13.9953 8.15381 14.2893 8.35679C13.9953 8.55977 13.8106 8.85112 13.8106 9.17442C13.8106 9.63222 14.1809 10.0261 14.7078 10.1955L10.6118 16.1469C10.6007 16.163 10.5917 16.1799 10.585 16.1973C10.5482 16.2923 10.5843 16.4107 10.6751 16.4824L11.916 17.4651C11.9872 17.5201 12.0843 17.5518 12.1864 17.5533C12.2884 17.5548 12.3871 17.5259 12.4611 17.473C12.535 17.4201 12.5783 17.3474 12.5816 17.2706C12.5848 17.1938 12.5477 17.1192 12.4783 17.0628L11.6587 16.4138L13.2186 16.0251L14.8967 17.2971V18.9781L13.7241 18.0495C13.6891 18.0217 13.647 17.9994 13.6005 17.9838C13.5539 17.9682 13.5038 17.9597 13.4528 17.9587C13.4019 17.9578 13.3512 17.9643 13.3037 17.9781C13.2561 17.9919 13.2127 18.0126 13.1757 18.039C13.1388 18.0654 13.1092 18.097 13.0885 18.1321C13.0678 18.1671 13.0565 18.2049 13.0552 18.2432C13.0539 18.2815 13.0626 18.3197 13.0809 18.3555C13.0992 18.3913 13.1267 18.424 13.1618 18.4518L15.0034 19.9103C15.1487 20.0294 15.4208 20.0304 15.5657 19.9103L19.8941 16.4824C19.931 16.4532 19.9594 16.4186 19.9775 16.3807C19.9955 16.3428 20.0029 16.3024 19.999 16.2623ZM18.8303 15.7788L17.5672 15.4641L16.522 12.4247L18.8303 15.7788ZM15.2846 7.01362C15.6697 7.01362 15.9829 7.24942 15.9829 7.53928C15.9829 7.8291 15.6697 8.0649 15.2846 8.0649C14.8996 8.0649 14.5863 7.8291 14.5863 7.53928C14.5863 7.24942 14.8996 7.01362 15.2846 7.01362ZM15.2846 8.64884C15.6697 8.64884 15.9829 8.88463 15.9829 9.1745C15.9829 9.46432 15.6697 9.70015 15.2846 9.70015C14.8996 9.70015 14.5863 9.46436 14.5863 9.1745C14.5863 8.88463 14.8996 8.64884 15.2846 8.64884ZM13.0021 15.4641L11.739 15.7788L14.0474 12.4247L13.0021 15.4641ZM15.2846 16.7625L13.7555 15.6035L15.2846 11.1572L15.4157 11.5382L16.8138 15.6035L15.2846 16.7625ZM15.6725 18.9782V17.2972L17.3507 16.0253L18.9105 16.4139L15.6725 18.9782ZM9.34676 14.4415C9.44018 14.3532 9.45814 14.2252 9.38875 14.1244L5.29276 8.17299C5.81973 8.00368 6.19003 7.60979 6.19003 7.15199C6.19003 6.82873 6.00532 6.53734 5.71127 6.33436C6.00532 6.13138 6.19003 5.84004 6.19003 5.51674C6.19003 5.00921 5.73483 4.58051 5.11578 4.44898V3.27379C6.14 3.13554 6.91973 2.45995 6.91973 1.64983C6.91973 0.740123 5.93645 0 4.72789 0C3.94604 0 3.2178 0.317128 2.82731 0.827589C2.80189 0.860815 2.78542 0.897485 2.77883 0.935505C2.77224 0.973525 2.77566 1.01215 2.78891 1.04917C2.80215 1.0862 2.82495 1.12089 2.85601 1.15128C2.88707 1.18167 2.92578 1.20716 2.96993 1.22628C3.01407 1.24542 3.06279 1.25782 3.1133 1.26278C3.16381 1.26774 3.21512 1.26516 3.26431 1.25519C3.3135 1.24523 3.35959 1.22806 3.39997 1.20468C3.44034 1.1813 3.4742 1.15216 3.49961 1.11893C3.75204 0.788915 4.22271 0.583902 4.72789 0.583902C5.50871 0.583902 6.14395 1.06206 6.14395 1.64979C6.14395 2.23752 5.50871 2.71567 4.72789 2.71567C4.62502 2.71567 4.52636 2.74643 4.45361 2.80119C4.38087 2.85594 4.34 2.93021 4.34 3.00764V4.44378C3.70871 4.56922 3.24178 5.0026 3.24178 5.5167C3.24178 5.83996 3.42648 6.13134 3.72054 6.33433C3.42648 6.53731 3.24178 6.82869 3.24178 7.15195C3.24178 7.60975 3.61207 8.00364 4.13905 8.17295L1.899 11.4277C1.85224 11.4964 1.84354 11.5763 1.8748 11.6498C1.90607 11.7234 1.97475 11.7846 2.06583 11.8201C2.15691 11.8556 2.26297 11.8625 2.3608 11.8393C2.45863 11.8161 2.54027 11.7647 2.58785 11.6963L3.47864 10.402L2.4333 13.4415L1.17019 13.7561L1.77128 12.8828C1.79472 12.8487 1.80901 12.8115 1.81335 12.7733C1.81769 12.7351 1.81199 12.6967 1.79657 12.6601C1.78115 12.6236 1.75632 12.5897 1.7235 12.5603C1.69067 12.531 1.65049 12.5069 1.60526 12.4892C1.56003 12.4716 1.51063 12.4608 1.45987 12.4576C1.40912 12.4543 1.358 12.4586 1.30945 12.4702C1.2609 12.4818 1.21586 12.5005 1.17691 12.5252C1.13796 12.5499 1.10585 12.5801 1.08243 12.6142L0.0430578 14.1244C-0.000694619 14.1889 -0.0115502 14.2633 0.0125412 14.3334C0.0295667 14.3807 0.061771 14.4241 0.106322 14.4599L4.43477 17.8878C4.58216 18.0045 4.84555 18.0079 4.99704 17.8878L9.32548 14.4599C9.33291 14.454 9.34002 14.4479 9.34676 14.4415ZM8.26162 13.7562L6.99851 13.4415L6.30888 11.4363L5.95317 10.402L8.26162 13.7562ZM4.7159 4.99108C5.10099 4.99108 5.41425 5.22688 5.41425 5.51674C5.41425 5.80656 5.10099 6.04239 4.7159 6.04239C4.33082 6.04239 4.01756 5.8066 4.01756 5.51674C4.01756 5.22688 4.33087 4.99108 4.7159 4.99108ZM4.01756 7.15195C4.01756 6.86209 4.33082 6.6263 4.7159 6.6263C5.10099 6.6263 5.41425 6.86209 5.41425 7.15195C5.41425 7.44177 5.10099 7.67757 4.7159 7.67757C4.33087 7.67761 4.01756 7.44181 4.01756 7.15195ZM4.7159 9.13465L6.24504 13.581L4.7159 14.74L3.18676 13.581L4.7159 9.13465ZM2.64982 14.0027L4.32801 15.2747V16.9557L1.09001 14.3913L2.64982 14.0027ZM5.10379 16.9557V15.2747L6.78199 14.0027L8.3418 14.3913L5.10379 16.9557Z" fill="#212529"/>
</svg>
