<svg width="20" height="20" viewBox="0 0 20 20" fill="none" xmlns="http://www.w3.org/2000/svg">
<path d="M19.7059 10.9882V15.3522H13.1566M11.7607 15.3522H0.292969V1.02734H19.7059V10.4023M17.5532 14.0606H13.1566M18.4143 3.23869V13.1604M5.88984 2.31893H17.5532M2.42604 2.31893H5.30765M1.58455 13.1017V3.25826M11.7607 14.0606H2.44561" stroke="#212529" stroke-width="0.587084" stroke-miterlimit="10"/>
<path d="M17.6315 17.7495H18.9231M14.4221 17.7495H17.0444M10.5865 18.9725H19.997M1.66283 3.24112H0.292969V1.02734H2.44561V2.45834C2.44561 2.89067 2.09516 3.24112 1.66283 3.24112ZM18.336 3.24112H19.7059V1.02734H17.5532V2.45834C17.5532 2.89067 17.9037 3.24112 18.336 3.24112ZM1.66283 13.1384H0.292969V15.3522H2.44561V13.9212C2.44561 13.4889 2.09516 13.1384 1.66283 13.1384ZM18.336 13.1384H19.7059V15.3522H17.5532V13.9212C17.5532 13.4889 17.9037 13.1384 18.336 13.1384ZM18.9231 18.9725H14.4221V17.3091C14.4221 16.8768 14.7726 16.5264 15.2049 16.5264H18.1403C18.5727 16.5264 18.9231 16.8768 18.9231 17.3091V18.9725ZM11.7607 14.825H13.1566V18.9677H11.7607V14.825ZM11.7607 12.7666H13.1566V14.8202H11.7607V12.7666ZM3.80244 3.89752V11.5753H12.8348L3.80244 3.89752Z" stroke="#212529" stroke-width="0.587084" stroke-miterlimit="10"/>
<path d="M7.39503 7.75968V8.34676M7.39503 8.93385V9.52093M7.39503 10.108V10.6951M10.7652 4.94719L9.50426 6.20817M10.7652 6.20817L9.50426 4.94719M14.8076 4.90806L15.4381 5.53855L16.0686 4.90806M12.8072 4.68606V6.46931M13.6988 5.57768H11.9156M15.4381 5.57768V6.43428M8.7535 6.7434C8.43577 6.45232 8.23652 6.034 8.23652 5.56911C8.23652 5.12946 8.41471 4.73146 8.70282 4.44336M16.8277 6.7434C17.1454 6.45232 17.3447 6.034 17.3447 5.56911C17.3447 5.12946 17.1665 4.73146 16.8784 4.44336M3.80078 9.27033V11.5745H6.10497C6.10497 10.3019 5.07334 9.27033 3.80078 9.27033Z" stroke="#212529" stroke-width="0.587084" stroke-miterlimit="10"/>
</svg>
