<svg width="20" height="12" viewBox="0 0 20 12" fill="none" xmlns="http://www.w3.org/2000/svg">
<path d="M0.506598 8.08231C-0.850224 5.44619 0.938644 1.22064 1.02243 1.02631C1.04789 0.969109 1.0827 0.919824 1.12443 0.881922C1.16616 0.84402 1.2138 0.818421 1.26398 0.806925C1.31417 0.795428 1.36569 0.798313 1.41492 0.815377C1.46415 0.832441 1.5099 0.86327 1.54895 0.905696C1.55654 0.914631 2.34546 1.76341 4.33259 2.15786C5.58563 2.40803 6.89624 1.22332 7.56517 0.49471C7.85837 0.176888 8.22812 0.00189161 8.61041 1.52471e-05C8.99269 -0.00186112 9.36345 0.1695 9.6585 0.484435L12.0956 3.0799C12.1539 3.14204 12.1949 3.22727 12.2122 3.3225C12.2295 3.41773 12.2222 3.51769 12.1915 3.60703L12.1266 3.79466C12.8049 4.36512 14.8868 5.94965 16.7443 5.63426C17.6512 5.47746 18.3728 5.68564 18.8904 6.24896C19.1985 6.59086 19.4227 7.04191 19.5355 7.54669C19.5875 7.52232 19.6432 7.5144 19.698 7.52359C19.7528 7.53278 19.8051 7.55881 19.8505 7.59951C19.896 7.64021 19.9333 7.6944 19.9593 7.75755C19.9853 7.82071 19.9992 7.89101 20 7.96259V9.67175C19.9999 9.75758 19.9808 9.84157 19.9448 9.91367C19.9088 9.98576 19.8576 10.0429 19.7973 10.0783C16.6347 11.9116 14.9934 11.8187 12.2449 11.9978C9.64437 12.0586 8.18652 10.8185 6.61247 10.7166C6.53955 10.8608 6.43973 10.9788 6.32226 11.0597C6.20479 11.1406 6.07346 11.1818 5.94043 11.1794H0.84589C0.64978 11.1911 0.458057 11.1019 0.312532 10.9312C0.167006 10.7604 0.0794773 10.5221 0.0690365 10.2681V8.89847C0.0728168 8.72198 0.116264 8.55076 0.194048 8.40579C0.271832 8.26081 0.380228 8.1484 0.506598 8.08231ZM16.8347 6.51967C14.8137 6.86767 12.6673 5.30548 11.8411 4.6211L11.4181 5.84646C11.3927 5.91993 11.3525 5.98316 11.3017 6.02948C11.2509 6.07579 11.1914 6.10347 11.1295 6.10958C8.91648 6.32713 7.68758 7.36353 7.10313 8.0488C7.57899 8.13465 8.05049 8.25712 8.51512 8.41556C8.5265 8.42182 9.67368 9.05617 13.0728 9.22547C15.0636 9.27069 17.0423 8.81558 18.8994 7.8853C18.7183 6.92306 17.9429 6.27397 16.8347 6.51967ZM6.71763 9.83168C8.79373 10.0336 9.76712 11.3349 12.9914 11.0722C15.2168 10.8846 16.6819 10.8801 19.3104 9.38138V8.64116C17.3207 9.67607 15.1898 10.1785 13.0462 10.118C8.20514 9.79996 9.26715 9.28712 6.71763 8.89088V9.83168ZM0.845545 10.286H5.94078C5.9694 10.2837 5.99768 10.2766 6.02491 10.265C6.0282 10.2329 6.02935 10.2004 6.02836 10.1681V8.8806H0.84589C0.792101 8.8806 0.759689 8.91187 0.758999 8.89847L0.754862 10.2449C0.76716 10.2594 0.781597 10.2705 0.797302 10.2776C0.813005 10.2846 0.829651 10.2875 0.846235 10.286H0.845545ZM1.33965 7.98716H6.19456C6.70212 6.99364 8.45857 5.50248 10.8715 5.24159L11.4543 3.55343L11.0139 3.08437L10.7657 3.64634C10.7438 3.69874 10.7141 3.74494 10.6783 3.78223C10.6424 3.81953 10.6012 3.84716 10.557 3.86351C10.5128 3.87986 10.4665 3.88459 10.4209 3.87743C10.3752 3.87027 10.3312 3.85136 10.2913 3.82181C10.2514 3.79227 10.2164 3.75268 10.1885 3.70538C10.1606 3.65808 10.1402 3.60402 10.1286 3.54638C10.1171 3.48874 10.1145 3.42869 10.1211 3.36976C10.1277 3.31082 10.1434 3.25419 10.1671 3.20319L10.474 2.50899L9.78436 1.77457L9.5323 2.34504C9.48695 2.44794 9.41189 2.52328 9.32366 2.55448C9.23543 2.58569 9.14124 2.57021 9.06181 2.51144C8.98239 2.45268 8.92424 2.35544 8.90015 2.24113C8.87606 2.12682 8.88801 2.00479 8.93337 1.90189L9.2437 1.19919L9.22094 1.17462C9.05018 0.992311 8.83565 0.892947 8.61438 0.893681C8.39311 0.894415 8.17898 0.995201 8.00894 1.17864C7.08313 2.1869 5.67493 3.33096 4.22812 3.04103C3.25714 2.88671 2.31694 2.49886 1.45586 1.89742C1.03071 3.0665 0.0438652 6.29318 1.33965 7.98716Z" fill="#212529"/>
</svg>
