<svg width="20" height="18" viewBox="0 0 20 18" fill="none" xmlns="http://www.w3.org/2000/svg">
<path d="M6.88306 10.5118C5.47711 10.5118 4.33331 11.6462 4.33331 13.0406C4.33331 14.435 5.47711 15.5695 6.88306 15.5695C8.28901 15.5695 9.43281 14.435 9.43281 13.0406C9.43281 11.6462 8.28897 10.5118 6.88306 10.5118ZM6.88306 15.0073C5.78966 15.0073 4.90011 14.125 4.90011 13.0406C4.90011 11.9562 5.78966 11.0739 6.88306 11.0739C7.97646 11.0739 8.86601 11.9562 8.86601 13.0406C8.86601 14.125 7.97646 15.0073 6.88306 15.0073ZM16.2555 7.45957C15.516 7.45957 14.7201 7.69495 14.7201 8.21172C14.7201 8.7285 15.516 8.96388 16.2555 8.96388C16.995 8.96388 17.7909 8.7285 17.7909 8.21172C17.7909 7.69495 16.995 7.45957 16.2555 7.45957ZM16.2555 8.40173C15.7688 8.40173 15.4423 8.29239 15.3221 8.21172C15.4423 8.13106 15.7687 8.02172 16.2555 8.02172C16.7423 8.02172 17.0687 8.13106 17.189 8.21172C17.0687 8.29239 16.7423 8.40173 16.2555 8.40173ZM19.7166 1.54089H18.8018C18.7555 1.26725 18.5157 1.05785 18.2268 1.05785H16.3537V0.281075C16.3537 0.206529 16.3238 0.135037 16.2707 0.0823249C16.2175 0.0296131 16.1455 0 16.0703 0H15.1054C15.0303 0 14.9582 0.0296131 14.905 0.0823249C14.8519 0.135037 14.822 0.206529 14.822 0.281075V0.456988H14.1406C14.0654 0.456988 13.9933 0.486601 13.9402 0.539313C13.887 0.592024 13.8572 0.663517 13.8572 0.738063V0.840575H11.5017C11.1799 0.840575 10.918 1.10025 10.918 1.41947V1.86774H10.781C10.7058 1.86774 10.6337 1.89736 10.5806 1.95007C10.5274 2.00278 10.4976 2.07427 10.4976 2.14882C10.4976 2.22336 10.5274 2.29486 10.5806 2.34757C10.6337 2.40028 10.7058 2.42989 10.781 2.42989H10.918V2.47045H10.5074C10.4766 2.47041 10.447 2.45824 10.4252 2.43662C10.4034 2.415 10.3912 2.3857 10.3912 2.35513V2.13721C10.3912 2.06267 10.3613 1.99118 10.3081 1.93846C10.255 1.88575 10.1829 1.85614 10.1078 1.85614C10.0326 1.85614 9.96051 1.88575 9.90736 1.93846C9.85421 1.99118 9.82435 2.06267 9.82435 2.13721V2.35513C9.82435 2.72868 10.1307 3.0326 10.5074 3.0326H10.9397C11.0081 3.27697 11.2338 3.45706 11.5016 3.45706H13.8571V3.55929C13.8571 3.63384 13.887 3.70533 13.9401 3.75804C13.9933 3.81075 14.0654 3.84037 14.1405 3.84037H14.822V4.01628C14.822 4.09083 14.8519 4.16232 14.905 4.21503C14.9581 4.26774 15.0302 4.29735 15.1054 4.29735H16.0703C16.1454 4.29735 16.2175 4.26774 16.2706 4.21503C16.3238 4.16232 16.3537 4.09083 16.3537 4.01628V3.23975H18.2268C18.5156 3.23975 18.7555 3.03035 18.8017 2.7567H19.7166C19.7917 2.7567 19.8638 2.72709 19.917 2.67438C19.9701 2.62167 20 2.55017 20 2.47563V1.82197C20 1.74742 19.9701 1.67593 19.917 1.62322C19.8638 1.57051 19.7917 1.54089 19.7166 1.54089ZM12.8775 1.40268V2.89483H12.4645V1.40268H12.8775ZM11.4849 2.87809V1.41943C11.4849 1.41067 11.4929 1.40268 11.5017 1.40268H11.8977V2.89483H11.5017C11.4973 2.89466 11.4931 2.89284 11.49 2.88974C11.4869 2.88663 11.485 2.88247 11.4849 2.87809ZM13.4443 2.89483V1.40268H13.8572V2.89483H13.4443ZM14.424 3.27814V1.0191H14.822V3.2781L14.424 3.27814ZM15.7869 3.73512H15.3889V0.56215H15.7869V3.73512ZM18.2436 2.66078C18.2435 2.66516 18.2417 2.66932 18.2385 2.67243C18.2354 2.67553 18.2312 2.67735 18.2268 2.67752H16.3537V1.62H18.2268C18.2356 1.62 18.2436 1.62795 18.2436 1.63674V2.66078ZM19.4332 2.19443H18.8104V2.10304H19.4332V2.19443ZM18.8034 7.02808C18.1183 6.77033 17.2134 6.62835 16.2555 6.62835C16.1911 6.62835 16.1271 6.62911 16.0632 6.63036V6.50861C16.0632 6.31005 15.9857 6.13362 15.839 5.99842L15.1405 5.35472C14.9326 5.16319 14.6419 5.11416 14.382 5.22651C14.1022 5.34745 13.9604 5.58167 13.9604 5.92261C13.9604 5.99665 13.8996 6.05688 13.825 6.05688H13.5552C13.5193 6.05685 13.4849 6.0427 13.4595 6.01752C13.4341 5.99235 13.4198 5.95822 13.4198 5.92261V5.45008C13.4198 5.06609 13.1048 4.75366 12.7176 4.75366H10.7681C10.7358 4.75366 10.6849 4.70122 10.611 4.62119L9.83225 3.77982C9.70949 3.64691 9.54136 3.46493 9.25723 3.46493H7.34492V2.42126H8.73419C8.80935 2.42126 8.88144 2.39165 8.93459 2.33893C8.98773 2.28622 9.01759 2.21473 9.01759 2.14019C9.01759 2.06564 8.98773 1.99415 8.93459 1.94143C8.88144 1.88872 8.80935 1.85911 8.73419 1.85911H5.38885C5.31369 1.85911 5.24161 1.88872 5.18846 1.94143C5.13531 1.99415 5.10545 2.06564 5.10545 2.14019C5.10545 2.21473 5.13531 2.28622 5.18846 2.33893C5.24161 2.39165 5.31369 2.42126 5.38885 2.42126H6.77812V3.46501H4.16404C3.89064 3.46501 3.64773 3.61707 3.5302 3.86177L3.32833 4.28173C3.30428 4.33181 3.26202 4.35823 3.20611 4.35823H2.44396C2.0568 4.35823 1.74174 4.67062 1.74174 5.05465V7.15537H0.5668V5.18194C0.5668 5.10739 0.536942 5.0359 0.483794 4.98319C0.430647 4.93048 0.358563 4.90086 0.2834 4.90086C0.208238 4.90086 0.136154 4.93048 0.083006 4.98319C0.0298582 5.0359 0 5.10739 0 5.18194V9.69094C0 9.76549 0.0298582 9.83698 0.083006 9.88969C0.136154 9.9424 0.208238 9.97202 0.2834 9.97202C0.358563 9.97202 0.430647 9.9424 0.483794 9.88969C0.536942 9.83698 0.5668 9.76549 0.5668 9.69094V7.71752H1.74174V9.81823C1.74174 10.2022 2.05676 10.5147 2.44396 10.5147H2.88943C2.91886 10.5826 2.96102 10.6444 3.01368 10.6967C3.27817 10.9591 3.2719 11.2932 3.17781 11.5185C3.08376 11.7438 2.84991 11.9845 2.47591 11.9845C2.14878 11.9845 1.88267 12.2484 1.88267 12.5728V13.5085C1.88267 13.8329 2.14878 14.0968 2.47591 14.0968C2.84991 14.0968 3.08376 14.3376 3.17781 14.5628C3.2719 14.788 3.27817 15.1222 3.01372 15.3845C2.78238 15.6139 2.78238 15.9872 3.01372 16.2167L3.68076 16.8782C3.79283 16.9894 3.94177 17.0506 4.10028 17.0506C4.25878 17.0506 4.40776 16.9894 4.51975 16.8782C4.78469 16.6155 5.12165 16.6215 5.34865 16.7147C5.57562 16.808 5.81817 17.04 5.81817 17.4116C5.81817 17.736 6.08428 18 6.41136 18H7.35476C7.68185 18 7.94796 17.736 7.94796 17.4116C7.94796 17.0406 8.19063 16.8088 8.41776 16.7154C8.64476 16.6221 8.9818 16.6159 9.2463 16.8782C9.30126 16.933 9.36664 16.9765 9.43865 17.006C9.51066 17.0356 9.58787 17.0507 9.66581 17.0505C9.82427 17.0505 9.97326 16.9893 10.0853 16.8782L10.7524 16.2166C10.9837 15.9871 10.9837 15.6139 10.7524 15.3845C10.4879 15.1222 10.4942 14.788 10.5883 14.5627C10.6823 14.3375 10.9162 14.0968 11.2902 14.0968C11.6173 14.0968 11.8834 13.8329 11.8834 13.5084V12.5728C11.8834 12.2484 11.6173 11.9844 11.2902 11.9844C10.9978 11.9844 10.7914 11.8372 10.6702 11.6653H12.5111V16.4166C12.5111 16.8896 12.936 17.3099 13.7077 17.6003C14.3927 17.858 15.2975 18 16.2555 18C17.2135 18 18.1183 17.8581 18.8034 17.6003C19.575 17.3099 20 16.8896 20 16.4166V8.21172C20 7.7388 19.575 7.31843 18.8034 7.02808ZM11.2902 12.5466C11.3048 12.5466 11.3167 12.5583 11.3167 12.5728V13.5084C11.3167 13.5229 11.3048 13.5346 11.2902 13.5346C10.7437 13.5346 10.2741 13.8462 10.0647 14.3476C9.85524 14.8491 9.9652 15.3987 10.3517 15.782C10.3566 15.7869 10.3594 15.7936 10.3594 15.8006C10.3594 15.8075 10.3566 15.8142 10.3517 15.8191L9.6846 16.4807C9.67961 16.4856 9.67287 16.4884 9.66585 16.4884C9.65883 16.4884 9.65209 16.4856 9.64711 16.4807C9.26067 16.0974 8.7065 15.9884 8.20087 16.1961C7.69525 16.4038 7.38116 16.8696 7.38116 17.4116C7.38116 17.426 7.3693 17.4378 7.35476 17.4378H6.41136C6.40436 17.4378 6.39765 17.435 6.39271 17.4301C6.38776 17.4252 6.38498 17.4185 6.38497 17.4116C6.38497 16.869 6.07096 16.403 5.56558 16.1953C5.39614 16.1258 5.22137 16.0918 5.04914 16.0918C4.70752 16.0918 4.37619 16.2256 4.11898 16.4807C4.11399 16.4856 4.10726 16.4883 4.10025 16.4883C4.09325 16.4883 4.08652 16.4856 4.08153 16.4807L3.41449 15.8191C3.41202 15.8167 3.41007 15.8138 3.40874 15.8106C3.4074 15.8074 3.40671 15.804 3.40671 15.8006C3.40671 15.7971 3.40739 15.7937 3.40871 15.7905C3.41004 15.7873 3.41199 15.7844 3.41445 15.782C3.80092 15.3987 3.91088 14.8491 3.70145 14.3476C3.49198 13.8462 3.02242 13.5346 2.47591 13.5346C2.4689 13.5346 2.46218 13.5319 2.45722 13.527C2.45227 13.522 2.44948 13.5154 2.44947 13.5084V12.5728C2.44947 12.5583 2.46133 12.5466 2.47591 12.5466C3.02242 12.5466 3.49202 12.2351 3.70145 11.7336C3.91092 11.2321 3.80096 10.6825 3.41449 10.2992C3.40954 10.2943 3.40676 10.2876 3.40677 10.2806C3.40678 10.2737 3.40957 10.267 3.41453 10.2621L4.08157 9.60048C4.08403 9.59804 4.08695 9.5961 4.09016 9.59478C4.09337 9.59346 4.09682 9.59278 4.1003 9.59278C4.10377 9.59278 4.10722 9.59346 4.11043 9.59478C4.11364 9.5961 4.11656 9.59804 4.11902 9.60048C4.50554 9.98374 5.05971 10.0928 5.56529 9.88509C6.07092 9.67737 6.38501 9.21163 6.38501 8.6696C6.38501 8.65514 6.39687 8.64338 6.4114 8.64338H7.3548C7.36934 8.64338 7.3812 8.65514 7.3812 8.6696C7.3812 9.21163 7.69529 9.67737 8.20091 9.88509C8.7065 10.0928 9.26071 9.98374 9.64715 9.60048C9.6496 9.59804 9.65252 9.5961 9.65574 9.59478C9.65895 9.59346 9.66239 9.59278 9.66587 9.59278C9.66935 9.59278 9.67279 9.59346 9.676 9.59478C9.67922 9.5961 9.68214 9.59804 9.6846 9.60048L10.3517 10.2621C10.3541 10.2645 10.3561 10.2674 10.3574 10.2706C10.3588 10.2738 10.3594 10.2772 10.3594 10.2807C10.3594 10.2841 10.3588 10.2875 10.3574 10.2907C10.3561 10.2939 10.3541 10.2968 10.3517 10.2992C9.96524 10.6825 9.85528 11.2322 10.0647 11.7336C10.2741 12.2351 10.7437 12.5466 11.2902 12.5466ZM10.5391 11.1032C10.5617 10.9645 10.6257 10.8224 10.7524 10.6967C10.9837 10.4674 10.9837 10.0941 10.7524 9.86465L10.0853 9.20296C9.85399 8.97364 9.47759 8.97372 9.2463 9.203C8.98193 9.46528 8.64496 9.45914 8.41776 9.36578C8.19063 9.27246 7.94796 9.04061 7.94796 8.66964C7.94796 8.34519 7.68185 8.08127 7.35476 8.08127H6.41136C6.08428 8.08127 5.81817 8.34523 5.81817 8.66964C5.81817 9.04061 5.57549 9.27246 5.34837 9.36578C5.12124 9.4591 4.78428 9.46532 4.51979 9.203C4.28853 8.97368 3.91218 8.9736 3.68076 9.203L3.01368 9.86465C2.98665 9.89153 2.96231 9.92095 2.94101 9.9525H2.44396C2.40806 9.95247 2.37364 9.93832 2.34825 9.91314C2.32286 9.88797 2.30858 9.85383 2.30854 9.81823V5.05465C2.30854 4.98061 2.36927 4.92038 2.44396 4.92038H3.20607C3.47947 4.92038 3.72234 4.76832 3.83991 4.52358L4.04177 4.10361C4.06582 4.05358 4.10809 4.02712 4.164 4.02712H9.25723C9.28954 4.02712 9.34043 4.07956 9.41435 4.15959L10.1931 5.00101C10.3158 5.13387 10.484 5.31585 10.7681 5.31585H12.7176C12.7922 5.31585 12.853 5.37608 12.853 5.45012V5.92265C12.853 6.30664 13.168 6.61907 13.5552 6.61907H13.825C14.2122 6.61907 14.5272 6.30668 14.5272 5.92265C14.5272 5.77701 14.5613 5.76224 14.6085 5.74184C14.6609 5.71919 14.7128 5.72803 14.7547 5.76657L15.4532 6.41024C15.4839 6.43854 15.4964 6.46705 15.4964 6.50865V6.65911C14.8262 6.7136 14.2081 6.83976 13.7076 7.02808C12.936 7.31843 12.511 7.7388 12.511 8.21177V11.1032H10.5391ZM13.0779 10.3366C13.2407 10.4463 13.437 10.5466 13.6647 10.6352V15.7127C13.2858 15.5334 13.0779 15.331 13.0779 15.1604V10.3366ZM16.2555 17.4378C14.3158 17.4378 13.0779 16.833 13.0779 16.4166V16.029C13.2509 16.1455 13.4616 16.2514 13.7077 16.344C14.3927 16.6017 15.2976 16.7437 16.2556 16.7437C17.2135 16.7437 18.1184 16.6018 18.8034 16.344C19.0496 16.2514 19.2602 16.1455 19.4332 16.029V16.4166C19.4332 16.833 18.1953 17.4378 16.2555 17.4378ZM14.2316 15.9229V10.8156C14.4253 10.8651 14.6211 10.9061 14.8184 10.9384V16.0596C14.6055 16.021 14.4092 15.9747 14.2316 15.9229ZM15.3852 16.1389V11.0112C15.5767 11.0292 15.7728 11.0413 15.9721 11.0472V16.1773C15.7761 16.1713 15.5803 16.1585 15.3852 16.1389ZM16.5389 16.1772V11.0472C16.7382 11.0413 16.9343 11.0292 17.1258 11.0112V16.1389C16.9307 16.1585 16.7349 16.1713 16.5389 16.1772ZM17.6926 16.0596V10.9384C17.897 10.9046 18.0933 10.8635 18.2794 10.8156V15.9229C18.1017 15.9747 17.9057 16.021 17.6926 16.0596ZM18.8462 15.7127V10.6352C19.074 10.5466 19.2703 10.4464 19.4332 10.3366V15.1604C19.4332 15.331 19.2252 15.5334 18.8462 15.7127ZM16.2555 10.4892C14.3158 10.4892 13.0779 9.88436 13.0779 9.46797V9.08037C13.2509 9.19689 13.4616 9.30278 13.7077 9.39537C14.3927 9.65312 15.2976 9.7951 16.2556 9.7951C17.2135 9.7951 18.1184 9.65316 18.8034 9.39537C19.0496 9.30278 19.2602 9.19689 19.4332 9.08037V9.46797C19.4332 9.88436 18.1953 10.4892 16.2555 10.4892ZM16.2555 9.23295C14.3158 9.23295 13.0779 8.62812 13.0779 8.21172C13.0779 7.79533 14.3158 7.1905 16.2555 7.1905C18.1953 7.1905 19.4332 7.79533 19.4332 8.21172C19.4332 8.62812 18.1953 9.23295 16.2555 9.23295Z" fill="#212529"/>
</svg>
