<svg width="20" height="18" viewBox="0 0 20 18" fill="none" xmlns="http://www.w3.org/2000/svg">
<path d="M17.9844 7.44156C16.9178 6.48161 15.5622 5.87647 14.0943 5.69105C14.2934 4.68977 14.2214 3.70469 13.8825 2.82484C13.496 1.82169 12.7889 1.03014 11.8375 0.535813C10.6083 -0.102871 9.11711 -0.172972 7.63875 0.338375C6.18304 0.841883 4.91113 1.85217 4.0573 3.18311C3.54781 3.97719 3.22398 4.82168 3.09492 5.69313C2.97109 6.52904 3.03933 7.36418 3.29226 8.10826C3.86394 9.79013 3.63543 11.622 2.66535 13.1341L0.93699 15.8279C0.878677 15.8328 0.820921 15.842 0.764334 15.8556C0.498201 15.9198 0.275779 16.0734 0.137967 16.2882C-0.146369 16.7315 0.0229667 17.3004 0.515545 17.5564L1.12054 17.8708C1.27675 17.9521 1.45405 17.995 1.63453 17.9949C1.99133 17.9949 2.33875 17.8284 2.52957 17.5309C2.66734 17.3162 2.70394 17.066 2.63262 16.8265C2.61737 16.7755 2.59736 16.7258 2.57281 16.6778L4.30082 13.984C4.79176 13.219 5.46215 12.5526 6.25734 12.033C6.31738 13.6033 7.0248 15.0718 8.26551 16.1885C9.56359 17.3567 11.2893 18 13.125 18C14.9606 18 16.6864 17.3567 17.9844 16.1885C19.2824 15.0203 19.9972 13.4671 19.9972 11.815C19.9972 10.163 19.2823 8.60973 17.9844 7.44156ZM15.8394 14.7277L14.8907 13.7239L15.6752 11.5508L17.252 10.9134L19.3632 12.2941C19.2826 13.1556 18.9813 13.9885 18.483 14.7277L15.8394 14.7277ZM10.4105 14.7277H7.76691C7.26858 13.9886 6.96729 13.1556 6.88668 12.2941L8.99785 10.9135L10.5747 11.5509L11.3592 13.7239L10.4105 14.7277ZM10.7871 11.0338L9.21023 10.3964L8.39191 8.12991C9.01586 7.4817 9.80105 6.96245 10.6908 6.62326L12.8196 8.01516V9.70477L10.7871 11.0338ZM8.82437 6.99036L7.13273 6.11131L8.41265 4.11609L10.105 4.99545L8.82601 6.98916L8.82437 6.99036ZM13.1252 7.53518L11.3895 6.40037C11.9408 6.25704 12.523 6.17997 13.125 6.17997C13.7269 6.17997 14.3091 6.25704 14.8604 6.40037L13.1252 7.53518ZM9.95941 6.32236L10.6343 5.27037L11.6136 5.77926C11.0383 5.89489 10.4823 6.07746 9.95941 6.32236ZM12.3414 5.52241L10.9398 4.79408L11.5157 3.8964L11.9829 3.16828C12.3682 3.83414 12.497 4.67177 12.3414 5.52241ZM11.0402 3.53766L10.4105 4.51919L8.7182 3.63983L9.11672 3.01862L9.91218 1.77866C10.243 1.83195 10.5557 1.93443 10.8443 2.08441C11.1328 2.23435 11.3878 2.42683 11.6045 2.65806L11.0402 3.53766ZM8.18902 3.36484L7.98711 3.25993L6.78707 2.63636C7.52847 2.08898 8.39824 1.77064 9.23226 1.73861L8.18902 3.36484ZM7.88347 3.84113L6.60359 5.83629L5.03972 5.02368C5.15242 4.68168 5.30894 4.34805 5.50629 4.0294L5.59613 3.8893C5.80445 3.57563 6.04722 3.28686 6.31957 3.0285L7.88347 3.84113ZM6.29805 6.31262L5.255 7.93842C4.86894 7.27235 4.74043 6.43549 4.89637 5.58429L6.29805 6.31262ZM6.82722 6.58768L8.34176 7.37469C8.31629 7.39691 8.2907 7.41898 8.26558 7.44159C7.6825 7.96633 7.21758 8.56898 6.88176 9.22317C6.71237 9.17022 6.5489 9.10304 6.39351 9.0225C6.10469 8.87231 5.84961 8.67969 5.63324 8.44868L6.82722 6.58768ZM7.94043 8.65905L8.6023 10.4923L6.86769 11.6267C6.90797 10.5299 7.29781 9.51141 7.94043 8.65905ZM11.9245 13.5101L11.1826 11.455L13.125 10.1849L15.0673 11.455L14.3254 13.5101H11.9245ZM17.6476 10.4923L18.3095 8.65902C18.9521 9.51138 19.342 10.5299 19.3822 11.6266L17.6476 10.4923ZM17.858 8.12991L17.0397 10.3964L15.4628 11.0338L13.4307 9.70506V8.01516L15.5591 6.62329C16.4489 6.96245 17.2341 7.4817 17.858 8.12991ZM4.58652 3.45814C6.19285 0.954172 9.30851 -0.143195 11.532 1.01211C13.1217 1.83814 13.8881 3.67695 13.4836 5.63839C13.3642 5.63285 13.2446 5.63006 13.125 5.63002C13.0636 5.63002 13.0023 5.63087 12.9411 5.63231C13.166 4.45229 12.9105 3.31671 12.2191 2.4718L12.2186 2.47109C11.9275 2.1157 11.568 1.82534 11.1498 1.60808C10.7318 1.39088 10.2728 1.25581 9.78539 1.20663L9.78515 1.20659C8.49902 1.07652 7.13984 1.54307 6.05597 2.48674C6.05591 2.48679 6.05586 2.48685 6.05582 2.48691C5.67828 2.81503 5.34672 3.19254 5.07035 3.60903L5.06804 3.61258L4.9759 3.75623C4.97515 3.7574 4.9744 3.75857 4.97367 3.75975C4.71148 4.18275 4.51394 4.63007 4.38652 5.08925L4.38644 5.08953C4.02051 6.40578 4.25117 7.6983 5.01929 8.63578L5.01937 8.63574C5.30992 8.99082 5.66941 9.28118 6.08797 9.49883C6.26719 9.59183 6.45531 9.67019 6.65008 9.73297C6.56553 9.94682 6.49426 10.1647 6.4366 10.3857C6.18221 10.3123 5.93723 10.2148 5.70582 10.0947C4.8332 9.64118 4.20097 8.89959 3.87746 7.95012L3.87656 7.94742C3.3989 6.54205 3.65761 4.90577 4.58652 3.45814ZM2.00039 17.2559C1.88449 17.4366 1.62683 17.4988 1.42609 17.3944L0.821092 17.08C0.620349 16.9757 0.551287 16.7438 0.667185 16.5631C0.723357 16.4756 0.814021 16.413 0.922498 16.3868C1.03097 16.3606 1.14426 16.3741 1.24152 16.4246L1.84656 16.739C1.94383 16.7896 2.01336 16.8712 2.04242 16.9688C2.07148 17.0664 2.05656 17.1684 2.00039 17.2559ZM2.13816 16.2554L1.70992 16.033L1.56078 15.9555L3.19453 13.4091C3.26343 13.3016 3.32901 13.1924 3.39121 13.0816L3.98894 13.3922C3.91331 13.496 3.84088 13.6016 3.77172 13.709L2.13816 16.2554ZM4.34523 12.9423L3.64566 12.5788C4.06433 11.6546 4.25367 10.6565 4.2041 9.66016C4.5398 10.0255 4.94086 10.3321 5.40023 10.5708C5.69133 10.7219 6.00081 10.8423 6.32254 10.9297C6.29988 11.0723 6.28272 11.2156 6.27109 11.3593C5.53333 11.784 4.88194 12.3195 4.34523 12.9423ZM8.18883 15.2776H10.3298L10.9925 17.1133C9.87629 16.7483 8.90715 16.1053 8.18883 15.2776ZM11.7037 17.3035L10.8951 15.0638L11.8438 14.06H14.4062L15.3549 15.0638L14.5462 17.3035C14.0895 17.3993 13.6137 17.45 13.125 17.45C12.6363 17.45 12.1605 17.3993 11.7037 17.3035ZM15.2574 17.1133L15.9202 15.2776H18.0611C17.3428 16.1053 16.3736 16.7483 15.2574 17.1133Z" fill="#212529"/>
</svg>
