<svg width="20" height="20" viewBox="0 0 20 20" fill="none" xmlns="http://www.w3.org/2000/svg">
<path d="M10 12.9036C8.17241 12.9036 6.41379 11.2907 5.89655 9.22629C5.41379 9.065 4.82759 8.58115 4.82759 7.41989C4.82759 7.09732 4.89655 6.80701 5 6.54895C5.10345 6.32315 5.31035 6.16187 5.55172 6.09735C6.17241 5.93607 7.7931 4.67804 7.93103 3.48453C7.93103 3.35551 8.03448 3.25874 8.17241 3.22648C8.31035 3.19422 8.44828 3.22648 8.55172 3.35551C9.62069 4.7103 12.6207 6.03284 14.2759 6.12961C14.5862 6.16187 14.8966 6.32315 15 6.61347C15.1034 6.83927 15.1724 7.09732 15.1724 7.41989C15.1724 8.58115 14.5517 9.065 14.1034 9.22629C13.5862 11.2907 11.8276 12.9036 10 12.9036ZM8.44828 4.22645C7.93103 5.51673 6.41379 6.58121 5.75862 6.74249C5.72414 6.74249 5.65517 6.77475 5.65517 6.83927C5.58621 6.93604 5.51724 7.12958 5.51724 7.41989C5.51724 8.51663 6.17241 8.64566 6.24138 8.64566C6.37931 8.67792 6.51724 8.77469 6.55172 8.90372C6.96552 10.9682 8.65517 12.2584 10 12.2584C11.3448 12.2584 13.0345 10.9682 13.4483 8.90372C13.4828 8.77469 13.5862 8.64566 13.7586 8.64566C13.8276 8.64566 14.4828 8.51663 14.4828 7.41989C14.4828 7.12958 14.4138 6.96829 14.3793 6.87152C14.3448 6.80701 14.3103 6.77475 14.2414 6.77475C12.5862 6.67798 9.86207 5.54898 8.44828 4.22645ZM19.6552 20.0001C19.4483 20.0001 19.3103 19.8711 19.3103 19.6776C19.3103 18.4518 18.4828 17.2905 16.9655 16.3873C16.7931 16.2906 16.7586 16.097 16.8621 15.9358C16.9655 15.7745 17.1724 15.7422 17.3448 15.839C19.6552 17.226 20 18.8389 20 19.6776C20 19.8711 19.8621 20.0001 19.6552 20.0001ZM0.344828 20.0001C0.137931 20.0001 0 19.8711 0 19.6776C0 18.3228 0.827586 17.0647 2.34483 16.0648C2.55172 15.9358 2.7931 15.7745 3.03448 15.6777C3.2069 15.5809 3.41379 15.6454 3.51724 15.8067C3.62069 15.968 3.55172 16.1615 3.37931 16.2583C3.17241 16.3873 2.96552 16.4841 2.75862 16.6131C1.03448 17.7099 0.689655 18.8711 0.689655 19.6776C0.689655 19.8711 0.551724 20.0001 0.344828 20.0001Z" fill="#212529"/>
<path d="M2.5167 16.6769C2.30981 16.6769 2.17188 16.5479 2.17188 16.3543C2.17188 13.2254 3.03394 9.74162 3.58567 7.64492C3.75808 7.03203 3.86153 6.51592 3.9305 6.19335C4.58567 2.77411 6.20636 1.3548 7.10291 0.838683C7.82705 0.419341 8.62015 0.225799 9.27532 0.32257C9.5167 0.193542 10.1374 0 11.0339 0C15.5512 0 16.5512 7.16106 16.5512 9.67711C16.5512 10.1287 16.6202 10.6448 16.6891 11.2254C16.7926 11.9351 16.896 12.7415 16.896 13.548C16.896 13.7415 16.7581 13.8705 16.5512 13.8705C16.3443 13.8705 16.2064 13.7415 16.2064 13.548C16.2064 12.7738 16.1029 11.9996 15.9995 11.3222C15.9305 10.7093 15.8615 10.161 15.8615 9.67711C15.8615 7.77395 15.0339 0.645141 11.0339 0.645141C10.0339 0.645141 9.48222 0.935454 9.48222 0.935454C9.41325 0.967711 9.30981 0.967711 9.20636 0.967711C8.82705 0.87094 8.17188 0.935454 7.44774 1.3548C6.65463 1.83865 5.20636 3.12893 4.58567 6.29012C4.5167 6.64495 4.37877 7.12881 4.24084 7.77395C3.7236 9.8384 2.86153 13.3222 2.86153 16.3543C2.86153 16.5156 2.7236 16.6769 2.5167 16.6769Z" fill="#212529"/>
<path d="M16.2092 20.0008C12.2782 20.0008 11.7265 16.7429 11.7265 13.2269C11.7265 13.0333 11.8644 12.9043 12.0713 12.9043C12.2782 12.9043 12.4161 13.0333 12.4161 13.2269C12.4161 16.7106 12.9679 19.0009 15.5196 19.3234C15.3472 19.0009 15.1748 18.5815 15.1748 18.0654C15.1748 16.9042 15.4851 16.0655 15.761 15.2913C16.0023 14.6784 16.2092 14.1301 16.2092 13.5494C16.2092 13.3559 16.3472 13.2269 16.5541 13.2269C16.761 13.2269 16.8989 13.3559 16.8989 13.5494C16.8989 14.2591 16.6575 14.872 16.4161 15.5171C16.1403 16.259 15.8644 17.0009 15.8644 18.0654C15.8644 18.8718 16.4506 19.4525 16.4506 19.4525C16.5541 19.5492 16.5541 19.6783 16.5196 19.8073C16.4851 19.9363 16.3472 20.0008 16.2092 20.0008ZM3.79544 20.0008C3.65751 20.0008 3.51958 19.9363 3.4851 19.8073C3.41613 19.6783 3.45062 19.5492 3.55406 19.4525C3.55406 19.4525 4.14027 18.9041 4.14027 18.0654C4.14027 17.0655 4.03682 16.2913 3.93337 15.5816C3.86441 14.9687 3.79544 14.4204 3.79544 13.7752C3.79544 13.0011 3.89889 12.1946 4.14027 11.1947C4.17475 11.0334 4.38165 10.9044 4.55406 10.9366C4.72648 10.9689 4.86441 11.1624 4.82993 11.3237C4.58855 12.2592 4.4851 13.0333 4.4851 13.743C4.4851 14.3236 4.55406 14.872 4.62303 15.4526C4.72648 16.1623 4.82993 16.9687 4.82993 18.0009C4.82993 18.517 4.65751 18.9364 4.4851 19.2589C7.03682 18.9364 7.58855 16.6461 7.58855 13.1624C7.58855 12.9688 7.72648 12.8398 7.93337 12.8398C8.14027 12.8398 8.2782 12.9688 8.2782 13.1624C8.2782 16.7429 7.72648 20.0008 3.79544 20.0008Z" fill="#212529"/>
<path d="M9.99765 19.353C9.96317 19.353 9.8942 19.353 9.85972 19.3207C9.13558 19.0304 8.48041 18.5465 7.99765 17.9336C7.8942 17.8046 7.92868 17.5788 8.06661 17.482C8.20455 17.3853 8.44592 17.4175 8.54937 17.5466C8.92868 18.0304 9.41144 18.4175 9.99765 18.6756C10.5839 18.4175 11.0666 18.0304 11.4459 17.5466C11.5494 17.4175 11.7908 17.3853 11.9287 17.482C12.0666 17.5788 12.1011 17.8046 11.9976 17.9336C11.5149 18.5465 10.8597 19.0304 10.1356 19.3207C10.1011 19.353 10.0321 19.353 9.99765 19.353Z" fill="#212529"/>
</svg>
