<svg width="20" height="18" viewBox="0 0 20 18" fill="none" xmlns="http://www.w3.org/2000/svg">
<path d="M10.6521 17.2432C10.5686 17.2432 10.4886 17.2085 10.4295 17.1468C10.3705 17.085 10.3373 17.0012 10.3373 16.9138V16.4373C10.3201 16.1393 10.46 15.5434 11.1185 15.3186C11.1386 15.3117 11.1593 15.3069 11.1803 15.3043L15.9299 14.7321C16.0109 14.7258 16.0912 14.7525 16.1538 14.8067C16.2165 14.8609 16.2567 14.9383 16.266 15.0228C16.2754 15.1073 16.2531 15.1922 16.2039 15.26C16.1547 15.3277 16.0824 15.3728 16.0021 15.386L11.285 15.9546C10.9451 16.0862 10.9646 16.3854 10.9658 16.398C10.967 16.4107 10.9658 16.416 10.9658 16.4254V16.9138C10.9658 17.001 10.9328 17.0846 10.874 17.1463C10.8152 17.2081 10.7354 17.2429 10.6521 17.2432ZM15.9767 14.126H15.9721C15.8886 14.1247 15.8091 14.0888 15.7509 14.0262C15.6928 13.9636 15.6608 13.8794 15.6619 13.7921L15.692 11.5687C15.6932 11.4822 15.7269 11.3997 15.7857 11.339C15.8445 11.2783 15.9238 11.2442 16.0064 11.2441H16.0111C16.0946 11.2454 16.1741 11.2813 16.2322 11.3439C16.2904 11.4066 16.3224 11.4908 16.3213 11.5781L16.2912 13.8015C16.29 13.8879 16.2563 13.9704 16.1975 14.0311C16.1387 14.0918 16.0594 14.1259 15.9767 14.126Z" fill="#212529"/>
<path d="M15.7489 15.4125C15.6684 15.4116 15.5913 15.3784 15.5335 15.3199C15.4756 15.2613 15.4414 15.1818 15.4378 15.0976C15.4343 15.0135 15.4617 14.9311 15.5144 14.8674C15.5671 14.8037 15.6411 14.7636 15.7212 14.7553L16.4575 14.6862C16.5394 14.6808 16.6201 14.709 16.6824 14.7649C16.7447 14.8208 16.7837 14.9 16.791 14.9855C16.7984 15.0711 16.7735 15.1562 16.7217 15.2228C16.6699 15.2895 16.5953 15.3323 16.5138 15.3422L15.7775 15.4113C15.7678 15.4121 15.7583 15.4125 15.7489 15.4125Z" fill="#212529"/>
<path d="M7.83437 17.4409C7.75087 17.4409 7.67079 17.4062 7.61175 17.3444C7.5527 17.2826 7.51953 17.1988 7.51953 17.1115C7.51953 17.0241 7.5527 16.9403 7.61175 16.8785C7.67079 16.8167 7.75087 16.782 7.83437 16.782H13.1352L17.0777 16.7698C17.343 16.7685 17.5969 16.6574 17.7842 16.4608C17.9714 16.2643 18.0766 15.9981 18.077 15.7206L18.0746 11.8378C18.0824 10.2594 17.2914 9.46075 16.434 8.83296C15.9578 8.48351 15.023 7.96567 14.3926 7.70164C14.3149 7.66912 14.2527 7.60564 14.2197 7.52516C14.1868 7.44468 14.1857 7.35379 14.2168 7.27249C14.2479 7.19119 14.3086 7.12614 14.3855 7.09165C14.4624 7.05716 14.5493 7.05605 14.627 7.08857C15.2941 7.36772 16.2875 7.91867 16.7961 8.29182C17.7445 8.98664 18.7133 9.95284 18.7039 11.8374L18.7063 15.7202C18.7058 16.1721 18.5345 16.6055 18.2296 16.9256C17.9248 17.2457 17.5112 17.4266 17.0793 17.4286L13.134 17.4409H7.83437ZM13.143 7.2214C12.9783 7.22153 12.816 7.18047 12.6695 7.10165C12.1617 6.82699 11.2488 6.17673 10.8672 4.90604C10.7535 4.57907 10.7008 3.94924 10.6953 3.87771C10.6947 3.8656 10.6947 3.85345 10.6953 3.84134V3.77921C10.6957 3.6934 10.7281 3.61113 10.7856 3.54993C10.8431 3.48872 10.9211 3.4534 11.0031 3.45148C11.0851 3.44956 11.1646 3.4812 11.2246 3.53966C11.2847 3.59812 11.3205 3.67879 11.3246 3.7645V3.84052C11.3445 4.08166 11.3977 4.50877 11.4605 4.6841C11.4626 4.6901 11.4646 4.69609 11.4664 4.70209C11.7789 5.74921 12.5352 6.28831 12.9586 6.51637C13.0154 6.54745 13.0786 6.56369 13.1428 6.56369C13.2069 6.56369 13.2701 6.54745 13.327 6.51637C13.7449 6.29117 14.493 5.76025 14.8113 4.73192C14.895 4.38375 14.9459 4.02783 14.9633 3.66927C14.9633 3.5819 14.9965 3.49811 15.0555 3.43633C15.1145 3.37455 15.1946 3.33984 15.2781 3.33984C15.3616 3.33984 15.4417 3.37455 15.5008 3.43633C15.5598 3.49811 15.593 3.5819 15.593 3.66927C15.576 4.08875 15.517 4.5052 15.4168 4.91176L15.4129 4.92484C15.027 6.18327 14.1211 6.82781 13.616 7.10001C13.4699 7.17948 13.3077 7.2211 13.143 7.2214Z" fill="#212529"/>
<path d="M15.2039 4.70453C15.1365 4.70457 15.0709 4.682 15.0167 4.64014C14.9625 4.59827 14.9226 4.53932 14.9028 4.47194C14.883 4.40456 14.8843 4.33231 14.9067 4.26581C14.929 4.19931 14.9712 4.14207 15.027 4.10249C15.2695 3.93042 15.4238 3.54215 15.4504 3.03657C15.484 2.39979 15.3063 1.87786 15.2055 1.78835C15.13 1.7168 15.0315 1.67769 14.9297 1.67882C14.8791 1.68995 14.8266 1.68722 14.7774 1.6709C14.7281 1.65457 14.6837 1.6252 14.6484 1.58563C14.612 1.5445 14.5863 1.49424 14.5738 1.4397C14.5612 1.38516 14.5623 1.32816 14.577 1.27419C14.5852 1.23945 14.5801 1.15362 14.509 1.05512C14.4141 0.922698 14.1406 0.693001 13.4051 0.661121C12.1602 0.605944 11.2566 1.11602 10.9867 2.025C10.8935 2.32175 10.8466 2.63225 10.8477 2.94461C10.9575 2.74261 11.0826 2.55016 11.2219 2.36914C11.2633 2.31747 11.3189 2.28036 11.3812 2.26282C11.4434 2.24528 11.5093 2.24815 11.5699 2.27105C12.9332 2.78603 13.7617 2.00456 13.7965 1.97105C13.8576 1.91372 13.9377 1.88365 14.0198 1.88724C14.1018 1.89084 14.1792 1.92781 14.2356 1.99029C14.2919 2.05276 14.3227 2.13579 14.3214 2.22168C14.3201 2.30757 14.2868 2.38952 14.2285 2.45006C14.1852 2.49339 13.1891 3.45836 11.5793 2.96709C11.5017 3.08284 11.43 3.20275 11.3645 3.32635C11.357 3.62961 11.352 4.08451 11.3645 4.22552C11.3707 4.28882 11.3592 4.35265 11.3315 4.40929C11.3038 4.46593 11.261 4.51296 11.2082 4.54469C11.1555 4.57642 11.0951 4.59149 11.0344 4.58809C10.9737 4.58469 10.9152 4.56295 10.866 4.52551C10.8234 4.49282 9.82773 3.70808 10.384 1.83168C10.7434 0.619023 11.8828 -0.0639381 13.4309 0.00472591C14.3758 0.0455973 14.8117 0.385648 15.0113 0.662756C15.0958 0.779233 15.1557 0.913092 15.1871 1.05553C15.3443 1.09813 15.4899 1.17798 15.6129 1.28891C15.9645 1.60116 16.1125 2.4239 16.0781 3.07499C16.0391 3.798 15.7922 4.35712 15.3793 4.64976C15.3274 4.68592 15.2663 4.705 15.2039 4.70453ZM19.6852 18C19.6017 18 19.5216 17.9653 19.4625 17.9035C19.4035 17.8417 19.3703 17.7579 19.3703 17.6706C19.3702 17.611 19.3475 17.5539 19.3073 17.5117C19.267 17.4696 19.2124 17.4459 19.1555 17.4458H0.844531C0.787583 17.4459 0.732997 17.4696 0.692728 17.5117C0.652459 17.5539 0.629791 17.611 0.629688 17.6706C0.629688 17.7579 0.596517 17.8417 0.537472 17.9035C0.478427 17.9653 0.398346 18 0.314844 18C0.231342 18 0.15126 17.9653 0.0922156 17.9035C0.0331709 17.8417 0 17.7579 0 17.6706C0.000206855 17.4363 0.0892504 17.2117 0.247586 17.046C0.405921 16.8803 0.620611 16.7872 0.844531 16.7869H19.1555C19.3794 16.7872 19.5941 16.8803 19.7524 17.046C19.9107 17.2117 19.9998 17.4363 20 17.6706C20 17.7579 19.9668 17.8417 19.9078 17.9035C19.8487 17.9653 19.7687 18 19.6852 18Z" fill="#212529"/>
<path d="M8.45703 17.4261H2.7207C2.6372 17.4261 2.55712 17.3914 2.49807 17.3296C2.43903 17.2678 2.40586 17.184 2.40586 17.0967C2.40627 16.7305 2.54547 16.3795 2.79291 16.1206C3.04036 15.8617 3.37584 15.7161 3.72578 15.7156H4.37812C4.46646 15.7155 4.55116 15.6787 4.61362 15.6134C4.67609 15.548 4.71122 15.4594 4.71133 15.367V15.3224H1.61914C1.30902 15.3219 1.01174 15.1928 0.792451 14.9633C0.57316 14.7339 0.449735 14.4228 0.449219 14.0983V8.10496C0.449735 7.78047 0.57316 7.46943 0.792451 7.23999C1.01174 7.01054 1.30902 6.8814 1.61914 6.88086H9.55898C9.86911 6.8814 10.1664 7.01054 10.3857 7.23999C10.605 7.46943 10.7284 7.78047 10.7289 8.10496V14.0983C10.7284 14.4228 10.605 14.7339 10.3857 14.9633C10.1664 15.1928 9.86911 15.3219 9.55898 15.3224H6.46641V15.367C6.46651 15.4594 6.50165 15.548 6.56411 15.6134C6.62658 15.6787 6.71127 15.7155 6.79961 15.7156H7.45195C7.80189 15.7161 8.13738 15.8617 8.38482 16.1206C8.63227 16.3795 8.77146 16.7305 8.77187 17.0967C8.77187 17.184 8.7387 17.2678 8.67966 17.3296C8.62061 17.3914 8.54053 17.4261 8.45703 17.4261ZM3.11133 16.7672H8.06641C8.00844 16.6489 7.92041 16.5496 7.81201 16.4803C7.70361 16.4109 7.57902 16.3742 7.45195 16.3741H6.79961C6.54443 16.3737 6.2998 16.2675 6.11936 16.0787C5.93892 15.8899 5.83742 15.634 5.83711 15.367V14.993C5.83711 14.9056 5.87028 14.8219 5.92932 14.7601C5.98837 14.6983 6.06845 14.6636 6.15195 14.6636H9.55898C9.7022 14.6634 9.83949 14.6038 9.94076 14.4978C10.042 14.3918 10.099 14.2482 10.0992 14.0983V8.10496C10.099 7.95511 10.042 7.81146 9.94076 7.7055C9.83949 7.59955 9.7022 7.53992 9.55898 7.53971H1.61914C1.47592 7.53992 1.33863 7.59955 1.23737 7.7055C1.1361 7.81146 1.07911 7.95511 1.07891 8.10496V14.0983C1.07911 14.2482 1.1361 14.3918 1.23737 14.4978C1.33863 14.6038 1.47592 14.6634 1.61914 14.6636H5.02578C5.10928 14.6636 5.18936 14.6983 5.24841 14.7601C5.30745 14.8219 5.34062 14.9056 5.34062 14.993V15.367C5.34031 15.634 5.23881 15.8899 5.05837 16.0787C4.87794 16.2675 4.6333 16.3737 4.37812 16.3741H3.72578C3.59871 16.3742 3.47413 16.4109 3.36572 16.4803C3.25732 16.5496 3.1693 16.6489 3.11133 16.7672Z" fill="#212529"/>
<path d="M5.57656 12.2618C5.37909 12.2618 5.18605 12.2006 5.02186 12.0858C4.85767 11.971 4.7297 11.8078 4.65413 11.6169C4.57856 11.426 4.55879 11.216 4.59731 11.0133C4.63584 10.8107 4.73093 10.6246 4.87056 10.4785C5.0102 10.3324 5.1881 10.2329 5.38178 10.1925C5.57546 10.1522 5.77621 10.1729 5.95865 10.252C6.14109 10.3311 6.29702 10.465 6.40673 10.6368C6.51644 10.8086 6.575 11.0105 6.575 11.2171C6.57469 11.4941 6.4694 11.7596 6.28222 11.9555C6.09505 12.1513 5.84127 12.2615 5.57656 12.2618ZM5.57656 10.8313C5.50363 10.8313 5.43234 10.854 5.3717 10.8963C5.31106 10.9387 5.26379 10.999 5.23588 11.0695C5.20797 11.14 5.20067 11.2176 5.2149 11.2924C5.22913 11.3673 5.26425 11.436 5.31582 11.49C5.36739 11.5439 5.43309 11.5807 5.50462 11.5956C5.57615 11.6104 5.6503 11.6028 5.71768 11.5736C5.78506 11.5444 5.84265 11.495 5.88317 11.4315C5.92369 11.3681 5.94531 11.2935 5.94531 11.2171C5.94521 11.1149 5.90633 11.0168 5.83719 10.9444C5.76806 10.8721 5.67433 10.8314 5.57656 10.8313ZM12.1207 9.6248C12.0517 9.62502 11.9845 9.6013 11.9297 9.55736L11.2824 9.03952C11.2486 9.01364 11.2201 8.98097 11.1985 8.94341C11.1769 8.90585 11.1627 8.86415 11.1567 8.82078C11.1507 8.7774 11.153 8.7332 11.1636 8.69078C11.1741 8.64836 11.1926 8.60856 11.218 8.57372C11.2435 8.53889 11.2753 8.50971 11.3116 8.48789C11.3479 8.46608 11.3881 8.45207 11.4296 8.44669C11.4712 8.44131 11.5134 8.44467 11.5537 8.45656C11.594 8.46846 11.6317 8.48865 11.6645 8.51596L12.1113 8.87276L12.8949 8.18449C12.9508 8.13542 13.0213 8.10818 13.0942 8.10744C13.1672 8.10669 13.2381 8.13248 13.2949 8.1804L14.1207 8.87522L14.5113 8.56378C14.5442 8.53652 14.5819 8.5164 14.6223 8.5046C14.6626 8.4928 14.7048 8.48955 14.7464 8.49504C14.788 8.50054 14.8281 8.51467 14.8644 8.5366C14.9007 8.55854 14.9325 8.58784 14.9578 8.62278C14.9832 8.65772 15.0016 8.69761 15.012 8.74009C15.0224 8.78258 15.0246 8.82681 15.0184 8.8702C15.0123 8.91358 14.9979 8.95525 14.9762 8.99274C14.9544 9.03024 14.9257 9.06282 14.8918 9.08857L14.3031 9.55573C14.2472 9.60012 14.1786 9.62367 14.1084 9.62264C14.0382 9.6216 13.9704 9.59603 13.9156 9.55L13.0996 8.86214L12.3211 9.54551C12.2653 9.59582 12.1943 9.6239 12.1207 9.6248Z" fill="#212529"/>
<path d="M13.1001 8.74735C13.0385 8.74746 12.9783 8.72855 12.927 8.69299L11.5782 7.76317L11.243 7.952C11.1697 7.99111 11.0847 7.99865 11.0062 7.97299C10.9276 7.94733 10.8618 7.89051 10.8228 7.8147C10.7838 7.73889 10.7747 7.65012 10.7975 7.56738C10.8202 7.48464 10.873 7.41452 10.9446 7.37203L11.4454 7.09002C11.4954 7.06189 11.5518 7.04845 11.6085 7.05111C11.6653 7.05377 11.7202 7.07244 11.7677 7.10514L13.0958 8.02066L14.3458 7.11004C14.4143 7.06598 14.4964 7.05103 14.5751 7.06829C14.6539 7.08554 14.7233 7.13368 14.7692 7.20282C14.8151 7.27197 14.834 7.35686 14.8219 7.44009C14.8098 7.52332 14.7678 7.59856 14.7044 7.65036L13.2798 8.6885C13.2271 8.72698 13.1643 8.74753 13.1001 8.74735ZM12.9759 14.5004C12.9145 14.5006 12.8544 14.4818 12.8032 14.4465L11.9493 13.8628C11.901 13.8297 11.8623 13.7833 11.8375 13.7288C11.8127 13.6742 11.8027 13.6135 11.8087 13.5534C11.8106 13.5334 12.0102 11.5176 12.1821 9.06247C12.1905 8.9772 12.2303 8.89869 12.2931 8.84363C12.3558 8.78856 12.4367 8.76126 12.5184 8.76754C12.6001 8.77382 12.6762 8.81317 12.7306 8.87725C12.7851 8.94132 12.8135 9.02506 12.8098 9.1107C12.668 11.1289 12.5083 12.8517 12.454 13.4218L12.9661 13.7729L13.5552 13.3233L13.4641 10.5792C13.4617 10.4922 13.4923 10.4077 13.5492 10.3443C13.6062 10.2808 13.6848 10.2435 13.7679 10.2404C13.8511 10.2374 13.932 10.2689 13.9929 10.3281C14.0539 10.3873 14.0901 10.4694 14.0934 10.5563L14.1903 13.4749C14.1921 13.5287 14.1813 13.5821 14.1588 13.6305C14.1364 13.6789 14.1029 13.7207 14.0614 13.7525L13.163 14.4399C13.1084 14.4805 13.0428 14.5017 12.9759 14.5004Z" fill="#212529"/>
<path d="M11.6668 7.72265C11.6202 7.72269 11.5742 7.7119 11.532 7.69107C11.4899 7.67024 11.4527 7.63988 11.4232 7.60219C11.3936 7.56449 11.3724 7.5204 11.3611 7.4731C11.3498 7.4258 11.3487 7.37646 11.3578 7.32865L11.5566 6.2897C11.5748 6.2059 11.6236 6.13285 11.6925 6.08614C11.7614 6.03942 11.8451 6.02274 11.9256 6.03964C12.0061 6.05654 12.0771 6.1057 12.1235 6.17662C12.1699 6.24754 12.1879 6.33461 12.1738 6.41926L11.975 7.45821C11.9607 7.53272 11.9222 7.59976 11.866 7.64795C11.8098 7.69615 11.7394 7.72254 11.6668 7.72265ZM14.5211 7.70834C14.4507 7.70827 14.3823 7.68351 14.327 7.63802C14.2716 7.59253 14.2324 7.52893 14.2156 7.45739L14.0023 6.54923C13.9915 6.50689 13.9888 6.46272 13.9945 6.41929C14.0002 6.37587 14.0141 6.33407 14.0354 6.29634C14.0568 6.25861 14.0851 6.22571 14.1187 6.19957C14.1523 6.17343 14.1906 6.15457 14.2313 6.1441C14.2719 6.13363 14.3142 6.13176 14.3556 6.1386C14.3969 6.14543 14.4366 6.16084 14.4722 6.18391C14.5078 6.20699 14.5387 6.23727 14.563 6.27298C14.5873 6.30869 14.6045 6.34911 14.6137 6.39187L14.827 7.30004C14.8384 7.34859 14.8391 7.39923 14.8291 7.44813C14.8191 7.49702 14.7985 7.54289 14.7691 7.58226C14.7396 7.62163 14.702 7.65348 14.659 7.67539C14.616 7.69731 14.5689 7.70871 14.5211 7.70875V7.70834ZM7.7875 16.3212C7.704 16.3212 7.62392 16.2865 7.56487 16.2247C7.50583 16.1629 7.47266 16.0791 7.47266 15.9918V14.992C7.47266 14.9047 7.50583 14.8209 7.56487 14.7591C7.62392 14.6973 7.704 14.6626 7.7875 14.6626C7.871 14.6626 7.95108 14.6973 8.01013 14.7591C8.06917 14.8209 8.10234 14.9047 8.10234 14.992V15.9922C8.10224 16.0795 8.06902 16.1631 8.00999 16.2248C7.95096 16.2865 7.87093 16.3212 7.7875 16.3212Z" fill="#212529"/>
<path d="M10.416 8.35296C10.3461 8.3519 10.2784 8.32649 10.2238 8.28074C10.1692 8.235 10.1307 8.17152 10.1144 8.10034C10.0981 8.02915 10.1049 7.95431 10.1338 7.88764C10.1627 7.82096 10.2119 7.76624 10.2738 7.73212L10.9496 7.37041C10.9865 7.34995 11.0269 7.33737 11.0684 7.3334C11.11 7.32942 11.1519 7.33414 11.1917 7.34726C11.2315 7.36038 11.2684 7.38165 11.3003 7.40984C11.3322 7.43803 11.3584 7.47256 11.3774 7.51144C11.3964 7.55032 11.4078 7.59276 11.411 7.6363C11.4142 7.67984 11.4091 7.72361 11.396 7.76507C11.3828 7.80652 11.362 7.84483 11.3346 7.87776C11.3072 7.9107 11.2738 7.9376 11.2363 7.95692L10.5605 8.31863C10.5157 8.34203 10.4661 8.35381 10.416 8.35296ZM6.38906 15.3224H4.67031C4.58681 15.3224 4.50673 15.2876 4.44768 15.2259C4.38864 15.1641 4.35547 15.0803 4.35547 14.9929C4.35547 14.9056 4.38864 14.8218 4.44768 14.76C4.50673 14.6982 4.58681 14.6635 4.67031 14.6635H6.38906C6.47256 14.6635 6.55265 14.6982 6.61169 14.76C6.67074 14.8218 6.70391 14.9056 6.70391 14.9929C6.70391 15.0803 6.67074 15.1641 6.61169 15.2259C6.55265 15.2876 6.47256 15.3224 6.38906 15.3224ZM12.7254 17.2437C12.6419 17.2437 12.5618 17.209 12.5028 17.1472C12.4437 17.0855 12.4105 17.0017 12.4105 16.9143V15.4495C12.4105 15.3621 12.4437 15.2783 12.5028 15.2165C12.5618 15.1547 12.6419 15.12 12.7254 15.12C12.8089 15.12 12.889 15.1547 12.948 15.2165C13.0071 15.2783 13.0402 15.3621 13.0402 15.4495V16.9143C13.0402 17.0017 13.0071 17.0855 12.948 17.1472C12.889 17.209 12.8089 17.2437 12.7254 17.2437Z" fill="#212529"/>
</svg>
