<?xml version="1.0" encoding="UTF-8"?>
<svg xmlns="http://www.w3.org/2000/svg" xmlns:xlink="http://www.w3.org/1999/xlink" width="0" height="0">
<symbol id="bold" viewBox="0 0 12 12"><path d="M11.216 6.44517C10.7046 5.89826 9.94622 5.51816 8.94041 5.30459C9.64526 5.0077 10.0714 4.80721 10.2191 4.70309C10.577 4.45827 10.8469 4.18477 11.0285 3.88274C11.2103 3.58059 11.3011 3.24728 11.3011 2.88275C11.3011 2.54424 11.2416 2.22655 11.1222 1.92966C11.0028 1.63271 10.8182 1.3619 10.5682 1.11713C10.3126 0.872423 10.0228 0.674395 9.6989 0.52335C9.39773 0.387984 9.12498 0.286439 8.88065 0.218742C8.29547 0.0780948 7.75283 0.00777117 7.25288 0.00777117H6.62218C6.50856 0.00777117 6.39334 0.00645773 6.27689 0.00383086C6.16053 0.00136816 6.09945 0 6.09378 0C6.06545 0 6.0256 0.00136816 5.97431 0.00385822C5.92318 0.0064851 5.8833 0.00779853 5.85494 0.00779853L5.47135 0.0156518L2.2328 0.117197L0.0169257 0.164098L0.0510161 0.81247C0.528221 0.869824 0.852228 0.903782 1.02262 0.914125C1.31239 0.929749 1.50842 0.968906 1.61072 1.03132C1.67329 1.07305 1.70738 1.10427 1.71305 1.1251C1.76983 1.23967 1.801 1.5235 1.80679 1.97667C1.82947 2.74752 1.85512 3.79958 1.88345 5.13286L1.90049 9.0156C1.90049 9.68214 1.87497 10.1875 1.82383 10.5312C1.80111 10.6562 1.74138 10.789 1.64481 10.9297C1.38343 11.0285 1.03402 11.1094 0.596521 11.1718C0.465921 11.1874 0.272693 11.2186 0.0170451 11.2657L0 12C1.35791 11.9582 2.13061 11.9297 2.31835 11.914C3.53417 11.8462 4.38087 11.8177 4.85811 11.828L6.53701 11.8592C7.19634 11.88 7.7588 11.8513 8.22463 11.7733C8.96321 11.6483 9.53979 11.4919 9.95476 11.3044C10.3751 11.1169 10.7728 10.8356 11.1477 10.4607C11.4321 10.1743 11.6336 9.86963 11.7529 9.54658C11.9177 9.10401 12 8.6848 12 8.28888C12.0001 7.61194 11.7389 6.99728 11.216 6.44517ZM4.54276 0.906436C4.98593 0.838739 5.35525 0.804891 5.65069 0.804891C6.62224 0.804891 7.34685 1.00024 7.82403 1.39082C8.30669 1.78135 8.54831 2.26839 8.54831 2.85166C8.54831 3.67984 8.29556 4.26314 7.78991 4.60165C7.28425 4.94014 6.53421 5.10946 5.53992 5.10946C5.16492 5.10946 4.85527 5.09127 4.611 5.05482C4.60524 4.8777 4.6024 4.6772 4.6024 4.45321L4.611 3.68761C4.61661 2.87 4.59957 2.14347 4.55983 1.50796C4.54843 1.33612 4.54276 1.13574 4.54276 0.906436ZM8.8042 9.92956C8.59395 10.3045 8.24726 10.5988 7.76447 10.8124C7.28145 11.026 6.66773 11.1327 5.92351 11.1327C5.55986 11.1327 5.16212 11.0495 4.73032 10.8828C4.66213 10.7319 4.62801 10.6171 4.62789 10.539L4.6024 8.42961L4.611 7.07809V5.95307C4.76443 5.901 5.0514 5.875 5.47182 5.875C6.42071 5.875 7.12234 5.95835 7.57692 6.12497C8.04848 6.29177 8.44911 6.61986 8.77867 7.10944C9.0116 7.45329 9.12805 7.92197 9.12805 8.51575C9.12794 9.09372 9.01993 9.56502 8.8042 9.92956Z"/></symbol><symbol id="center" viewBox="0 0 10 12"><path d="M9.61207 0H0.381305C0.190125 0 0.0351562 0.154992 0.0351562 0.346148V1.32471C0.0351562 1.51589 0.190148 1.67086 0.381305 1.67086H9.61207C9.80325 1.67086 9.95822 1.51587 9.95822 1.32471V0.346148C9.95822 0.154992 9.80325 0 9.61207 0ZM8.45822 2.58227H1.53516C1.34398 2.58227 1.18901 2.73727 1.18901 2.92842V3.90698C1.18901 4.09816 1.344 4.25313 1.53516 4.25313H8.45824C8.64942 4.25313 8.80439 4.09814 8.80439 3.90698V2.92842C8.80439 2.73727 8.6494 2.58227 8.45822 2.58227ZM9.61207 5.16457H0.381305C0.190125 5.16457 0.0351562 5.31956 0.0351562 5.51072V6.48928C0.0351562 6.68046 0.190148 6.83543 0.381305 6.83543H9.61207C9.80325 6.83543 9.95822 6.68044 9.95822 6.48928V5.51072C9.95822 5.31956 9.80325 5.16457 9.61207 5.16457ZM8.45822 7.74684H1.53516C1.34398 7.74684 1.18901 7.90184 1.18901 8.09299V9.07156C1.18901 9.26273 1.344 9.4177 1.53516 9.4177H8.45824C8.64942 9.4177 8.80439 9.26271 8.80439 9.07156V8.09299C8.80439 7.90184 8.6494 7.74684 8.45822 7.74684ZM9.61207 10.3291H0.381305C0.190125 10.3291 0.0351562 10.4841 0.0351562 10.6753V11.6539C0.0351562 11.845 0.190148 12 0.381305 12H9.61207C9.80325 12 9.95822 11.845 9.95822 11.6539V10.6753C9.95822 10.4841 9.80325 10.3291 9.61207 10.3291Z"/></symbol><symbol id="double-t" viewBox="0 0 20 20"><path d="M8.22461 4.63477H16.1641V7.33008H13.5469V19H10.7734V7.33008H8.22461V4.63477Z" /><path d="M0.232422 9.83496H5.12695V10.6621H3.1582V17.2725H2.19434V10.6621H0.232422V9.83496Z" /></symbol><symbol id="image" viewBox="0 0 20 20"><path d="M4 0C1.801 0 0 1.801 0 4V14.77L4.531 10.738C5.418 9.95 6.778 9.83 7.766 10.563L9.559 11.893C9.763 12.043 10.027 12.023 10.207 11.843L13.379 8.672C13.5899 8.46234 13.8405 8.29673 14.116 8.1848C14.3916 8.07286 14.6866 8.01684 14.984 8.02C15.564 8.022 16.144 8.237 16.586 8.639L20 11.74V4C20 1.801 18.199 0 16 0H4ZM5.48 3.962C5.88286 3.962 6.26923 4.12204 6.5541 4.4069C6.83896 4.69177 6.999 5.07814 6.999 5.481C6.999 5.88386 6.83896 6.27023 6.5541 6.5551C6.26923 6.83996 5.88286 7 5.48 7C5.08667 6.98573 4.71422 6.81944 4.44101 6.53613C4.1678 6.25282 4.01513 5.87458 4.01513 5.481C4.01513 5.08742 4.1678 4.70918 4.44101 4.42587C4.71422 4.14256 5.08667 3.97627 5.48 3.962ZM14.793 10.086L11.621 13.258C10.751 14.128 9.356 14.231 8.367 13.498L6.574 12.17C6.362 12.013 6.089 12.03 5.859 12.234L0.221 17.25C0.75 18.838 2.24 20 4 20H16C18.199 20 20 18.199 20 16V14.441L15.24 10.117C15.097 9.994 14.912 9.951 14.793 10.086Z" /></symbol><symbol id="italic" viewBox="0 0 12 12"><path d="M7.20975 1.2L3.20925 10.8H0V12H7.5V10.8H4.79025L8.79075 1.2H12V0H4.5V1.2H7.20975Z"/></symbol><symbol id="left-side" viewBox="0 0 16 18"><path d="M14.924 0H1.07782C0.791047 0 0.558594 0.232488 0.558594 0.519223V1.98707C0.558594 2.27384 0.791082 2.50629 1.07782 2.50629H14.924C15.2107 2.50629 15.4432 2.2738 15.4432 1.98707V0.519223C15.4432 0.232488 15.2107 0 14.924 0ZM11.4624 3.87341H1.07782C0.791047 3.87341 0.558594 4.1059 0.558594 4.39263V5.86048C0.558594 6.14725 0.791082 6.3797 1.07782 6.3797H11.4624C11.7492 6.3797 11.9817 6.14721 11.9817 5.86048V4.39263C11.9817 4.1059 11.7492 3.87341 11.4624 3.87341ZM14.924 7.74686H1.07782C0.791047 7.74686 0.558594 7.97934 0.558594 8.26608V9.73392C0.558594 10.0207 0.791082 10.2531 1.07782 10.2531H14.924C15.2107 10.2531 15.4432 10.0207 15.4432 9.73392V8.26608C15.4432 7.97934 15.2107 7.74686 14.924 7.74686ZM11.4624 11.6203H1.07782C0.791047 11.6203 0.558594 11.8528 0.558594 12.1395V13.6073C0.558594 13.8941 0.791082 14.1266 1.07782 14.1266H11.4624C11.7492 14.1266 11.9817 13.8941 11.9817 13.6073V12.1395C11.9817 11.8528 11.7492 11.6203 11.4624 11.6203ZM14.924 15.4937H1.07782C0.791047 15.4937 0.558594 15.7262 0.558594 16.0129V17.4808C0.558594 17.7675 0.791082 18 1.07782 18H14.924C15.2107 18 15.4432 17.7675 15.4432 17.4808V16.0129C15.4432 15.7262 15.2107 15.4937 14.924 15.4937Z"/></symbol><symbol id="letter-up" viewBox="0 0 12 12"><path d="M4.21094 0.944336H6.15234L10.0215 11H8.03223L7.24609 8.92871H3.14453L2.32422 11H0.334961L4.21094 0.944336ZM5.19531 3.61035L3.85547 7.0625H6.52832L5.19531 3.61035Z"/><path d="M10.0848 1.52266L8.44256 2.80013C8.38373 2.84205 8.38373 2.91004 8.44256 2.95196C8.50139 2.99388 8.59685 2.99388 8.65568 2.95196L10.199 1.75151L11.7423 2.95185C11.8011 2.99377 11.8965 2.99377 11.9554 2.95185C12.0142 2.90993 12.0142 2.84195 11.9554 2.80003L10.3132 1.52255C10.2818 1.50021 10.2402 1.49063 10.1991 1.49212C10.1578 1.49073 10.1163 1.50031 10.0848 1.52266Z"/></symbol><symbol id="marker-list" viewBox="0 0 18 18"><path fill-rule="evenodd" clip-rule="evenodd" d="M2.7052 1.60274C2.7052 2.02781 2.5627 2.43548 2.30903 2.73605C2.05537 3.03662 1.71133 3.20548 1.3526 3.20548C0.993869 3.20548 0.64983 3.03662 0.396168 2.73605C0.142506 2.43548 0 2.02781 0 1.60274C0 1.17767 0.142506 0.770004 0.396168 0.469432C0.64983 0.16886 0.993869 0 1.3526 0C1.71133 0 2.05537 0.16886 2.30903 0.469432C2.5627 0.770004 2.7052 1.17767 2.7052 1.60274ZM4.47399 1.60274C4.47399 1.27576 4.58361 0.962174 4.77873 0.730965C4.97386 0.499756 5.2385 0.369863 5.51445 0.369863H16.9595C17.2355 0.369863 17.5001 0.499756 17.6953 0.730965C17.8904 0.962174 18 1.27576 18 1.60274C18 1.92972 17.8904 2.24331 17.6953 2.47452C17.5001 2.70572 17.2355 2.83562 16.9595 2.83562H5.51445C5.2385 2.83562 4.97386 2.70572 4.77873 2.47452C4.58361 2.24331 4.47399 1.92972 4.47399 1.60274ZM5.51445 7.76712C5.2385 7.76712 4.97386 7.89702 4.77873 8.12823C4.58361 8.35944 4.47399 8.67302 4.47399 9C4.47399 9.32698 4.58361 9.64057 4.77873 9.87178C4.97386 10.103 5.2385 10.2329 5.51445 10.2329H16.9595C17.2355 10.2329 17.5001 10.103 17.6953 9.87178C17.8904 9.64057 18 9.32698 18 9C18 8.67302 17.8904 8.35944 17.6953 8.12823C17.5001 7.89702 17.2355 7.76712 16.9595 7.76712H5.51445ZM5.51445 15.1644C5.2385 15.1644 4.97386 15.2943 4.77873 15.5255C4.58361 15.7567 4.47399 16.0703 4.47399 16.3973C4.47399 16.7242 4.58361 17.0378 4.77873 17.269C4.97386 17.5002 5.2385 17.6301 5.51445 17.6301H16.9595C17.2355 17.6301 17.5001 17.5002 17.6953 17.269C17.8904 17.0378 18 16.7242 18 16.3973C18 16.0703 17.8904 15.7567 17.6953 15.5255C17.5001 15.2943 17.2355 15.1644 16.9595 15.1644H5.51445ZM1.3526 10.6027C1.53023 10.6027 1.70611 10.5613 1.87022 10.4807C2.03432 10.4002 2.18343 10.2821 2.30903 10.1333C2.43464 9.98448 2.53427 9.8078 2.60224 9.61334C2.67022 9.41889 2.7052 9.21048 2.7052 9C2.7052 8.78953 2.67022 8.58111 2.60224 8.38666C2.53427 8.19221 2.43464 8.01552 2.30903 7.86669C2.18343 7.71786 2.03432 7.59981 1.87022 7.51926C1.70611 7.43872 1.53023 7.39726 1.3526 7.39726C0.993869 7.39726 0.64983 7.56612 0.396168 7.86669C0.142506 8.16726 2.48066e-07 8.57493 2.48066e-07 9C2.48066e-07 9.42507 0.142506 9.83274 0.396168 10.1333C0.64983 10.4339 0.993869 10.6027 1.3526 10.6027ZM2.7052 16.3973C2.7052 16.8223 2.5627 17.23 2.30903 17.5306C2.05537 17.8311 1.71133 18 1.3526 18C0.993869 18 0.64983 17.8311 0.396168 17.5306C0.142506 17.23 0 16.8223 0 16.3973C0 15.9722 0.142506 15.5645 0.396168 15.264C0.64983 14.9634 0.993869 14.7945 1.3526 14.7945C1.71133 14.7945 2.05537 14.9634 2.30903 15.264C2.5627 15.5645 2.7052 15.9722 2.7052 16.3973Z"/></symbol><symbol id="numeric-list" viewBox="0 0 18 18"><path d="M17.619 0.574109H5.11036C5.00931 0.574109 4.91239 0.618035 4.84093 0.696224C4.76947 0.774413 4.72933 0.88046 4.72933 0.991036V3.2339C4.72933 3.34447 4.76947 3.45052 4.84093 3.52871C4.91239 3.6069 5.00931 3.65082 5.11036 3.65082H17.619C17.72 3.65082 17.8169 3.6069 17.8884 3.52871C17.9599 3.45052 18 3.34447 18 3.2339V0.991036C18 0.88046 17.9599 0.774413 17.8884 0.696224C17.8169 0.618035 17.72 0.574109 17.619 0.574109ZM17.619 7.58599H5.11036C5.00931 7.58599 4.91239 7.62992 4.84093 7.70811C4.76947 7.78629 4.72933 7.89234 4.72933 8.00292V10.2462C4.72933 10.3568 4.76947 10.4628 4.84093 10.541C4.91239 10.6192 5.00931 10.6631 5.11036 10.6631H17.619C17.72 10.6631 17.8169 10.6192 17.8884 10.541C17.9599 10.4628 18 10.3568 18 10.2462V8.00292C18 7.89234 17.9599 7.78629 17.8884 7.70811C17.8169 7.62992 17.72 7.58599 17.619 7.58599ZM17.619 14.8097H5.11036C5.00931 14.8097 4.91239 14.8536 4.84093 14.9318C4.76947 15.01 4.72933 15.116 4.72933 15.2266V17.4695C4.72933 17.58 4.76947 17.6861 4.84093 17.7643C4.91239 17.8425 5.00931 17.8864 5.11036 17.8864H17.619C17.72 17.8864 17.8169 17.8425 17.8884 17.7643C17.9599 17.6861 18 17.58 18 17.4695V15.2266C18 15.116 17.9599 15.01 17.8884 14.9318C17.8169 14.8536 17.72 14.8097 17.619 14.8097ZM0.351052 1.46696C0.431641 1.47759 0.51261 1.45028 0.573385 1.39191L0.747518 1.22535V3.92975C0.747518 4.01268 0.777627 4.09222 0.83122 4.15086C0.884814 4.2095 0.957502 4.24244 1.03329 4.24244H1.32783C1.36536 4.24244 1.40252 4.23436 1.4372 4.21864C1.47187 4.20293 1.50337 4.17989 1.52991 4.15086C1.55644 4.12182 1.57749 4.08735 1.59186 4.04941C1.60622 4.01147 1.61361 3.97081 1.61361 3.92975V0.312695C1.61361 0.229763 1.5835 0.150228 1.52991 0.0915864C1.47631 0.0329447 1.40363 0 1.32783 0H1.02472C0.956897 0 0.891168 0.0264749 0.839348 0.07463L0.100522 0.763185C0.0463478 0.813652 0.0113266 0.884415 0.00230664 0.961637C-0.00671328 1.03886 0.0109168 1.11699 0.0517492 1.18074L0.151199 1.33604C0.198257 1.4088 0.270654 1.45633 0.351052 1.46696ZM0.485176 6.96956C0.425214 6.99293 0.374096 7.03752 0.339929 7.09628C0.305761 7.15505 0.2905 7.2246 0.296564 7.29393L0.314854 7.50219C0.319358 7.55316 0.335229 7.60215 0.361073 7.64485C0.386917 7.68755 0.421944 7.72265 0.46308 7.74708C0.504217 7.77151 0.550204 7.78452 0.597007 7.78497C0.64381 7.78541 0.689997 7.77328 0.731515 7.74964C0.956325 7.62143 1.09788 7.58808 1.28821 7.63832C1.42347 7.6723 1.51454 7.76047 1.56217 7.89368C1.63419 8.13196 1.63742 8.51011 1.01843 9.32645L0.540998 9.95101C0.428783 10.0944 0.352385 10.1843 0.292944 10.2437C0.263644 10.273 0.240244 10.3086 0.224237 10.3484C0.208229 10.3881 0.199965 10.431 0.199972 10.4745V10.7819C0.199972 10.8649 0.23008 10.9444 0.283673 11.0031C0.337267 11.0617 0.409955 11.0946 0.485748 11.0946H2.22555C2.30134 11.0946 2.37403 11.0617 2.42763 11.0031C2.48122 10.9444 2.51133 10.8649 2.51133 10.7819V10.6198C2.51133 10.5368 2.48122 10.4573 2.42763 10.3987C2.37403 10.34 2.30134 10.3071 2.22555 10.3071H1.31393C1.42627 10.1668 1.53528 10.0234 1.64085 9.87701C2.17487 9.15405 2.60506 8.49177 2.45855 7.71399C2.39968 7.36544 2.22098 7.09568 1.93825 6.93183C1.78088 6.84344 1.58027 6.79862 1.3425 6.79862C1.07254 6.79862 0.768094 6.85929 0.485176 6.96956ZM1.99884 15.7284C2.04647 15.7002 2.09162 15.6681 2.13982 15.6277C2.46713 15.354 2.48294 14.9325 2.48008 14.8178C2.47989 14.4263 2.34443 14.1261 2.06742 13.9004C1.87195 13.7398 1.58465 13.655 1.23658 13.655C0.979949 13.655 0.705604 13.6992 0.463648 13.7792C0.401928 13.7998 0.348349 13.8425 0.311592 13.9005C0.274835 13.9585 0.257053 14.0284 0.261128 14.0988L0.272178 14.2823C0.275057 14.3305 0.288131 14.3774 0.310371 14.4192C0.33261 14.4609 0.363409 14.4965 0.400343 14.5231C0.437277 14.5496 0.479338 14.5664 0.523217 14.5722C0.567096 14.5779 0.611595 14.5724 0.653212 14.5562C0.817819 14.4922 0.952515 14.4624 1.07673 14.4624C1.12036 14.4624 1.1638 14.4663 1.21429 14.4755C1.39337 14.502 1.51206 14.59 1.57627 14.743C1.62142 14.8514 1.61247 15.0442 1.56046 15.1359C1.43586 15.3473 1.09597 15.3896 0.904505 15.3965C0.830309 15.3989 0.759901 15.4329 0.70822 15.4912C0.656538 15.5495 0.627649 15.6276 0.627683 15.7088V15.8459C0.627683 16.0186 0.758568 16.1586 0.916317 16.1586C1.21638 16.1586 1.3566 16.2231 1.4109 16.2597C1.55131 16.3567 1.6138 16.4772 1.61399 16.6596C1.61875 16.8497 1.54769 16.9944 1.3989 17.1017C1.20571 17.2374 0.895931 17.2366 0.540617 17.1084C0.499464 17.0934 0.455728 17.0889 0.412733 17.0951C0.369738 17.1014 0.328614 17.1183 0.292487 17.1446C0.25636 17.1708 0.22618 17.2058 0.20424 17.2467C0.1823 17.2877 0.169177 17.3335 0.165869 17.3809L0.152914 17.5626C0.148135 17.6295 0.163105 17.6963 0.19562 17.7531C0.228135 17.81 0.276476 17.8539 0.333524 17.8785C0.396395 17.9056 0.438499 17.9166 0.528233 17.937C0.691506 17.9779 0.878785 18 1.06968 18C1.35413 18 1.879 17.9485 2.20212 17.6C2.5178 17.2477 2.5782 16.7432 2.49932 16.4057C2.4075 15.976 2.18364 15.818 1.99884 15.7284Z"/></symbol><symbol id="quote" viewBox="0 0 12 12"><path d="M10.9213 0.970589C11.5955 1.94118 12 3 12 4.76471C12 7.85294 10.3146 10.5882 7.95506 12L7.34831 10.8529C9.57303 9.26471 10.0449 7.23529 10.1798 5.91177C9.8427 6.17647 9.37079 6.26471 8.89888 6.17647C7.68539 6 6.74157 4.76471 6.74157 3.08824C6.74157 2.29412 7.01124 1.5 7.41573 0.882353C7.88764 0.264706 8.42697 0 9.10112 0C9.8427 0 10.5169 0.441177 10.9213 0.970589ZM4.17978 0.970589C4.85393 1.94118 5.25843 3 5.25843 4.76471C5.25843 7.85294 3.57303 10.5882 1.21348 12L0.606742 10.8529C2.83146 9.26471 3.30337 7.23529 3.4382 5.91177C3.10112 6.17647 2.62921 6.26471 2.1573 6.17647C0.94382 6 0 4.67647 0 3.08824C0 2.29412 0.269663 1.5 0.674157 0.882353C1.14607 0.264706 1.68539 0 2.35955 0C3.10112 0 3.77528 0.441177 4.17978 0.970589Z"/></symbol><symbol id="right-side" viewBox="0 0 10 12"><path d="M9.62379 0.000976562H0.393023C0.201844 0.000976562 0.046875 0.155969 0.046875 0.347125V1.32569C0.046875 1.51687 0.201867 1.67184 0.393023 1.67184H9.62379C9.81497 1.67184 9.96994 1.51684 9.96994 1.32569V0.347125C9.96994 0.155969 9.81497 0.000976562 9.62379 0.000976562ZM9.62379 2.58325H2.7007C2.50952 2.58325 2.35455 2.73824 2.35455 2.9294V3.90796C2.35455 4.09914 2.50955 4.25411 2.7007 4.25411H9.62379C9.81497 4.25411 9.96994 4.09912 9.96994 3.90796V2.9294C9.96994 2.73824 9.81497 2.58325 9.62379 2.58325ZM9.62379 5.16555H0.393023C0.201844 5.16555 0.046875 5.32054 0.046875 5.51169V6.49026C0.046875 6.68144 0.201867 6.83641 0.393023 6.83641H9.62379C9.81497 6.83641 9.96994 6.68141 9.96994 6.49026V5.51169C9.96994 5.32054 9.81497 5.16555 9.62379 5.16555ZM9.62379 7.74782H2.7007C2.50952 7.74782 2.35455 7.90281 2.35455 8.09397V9.07253C2.35455 9.26371 2.50955 9.41868 2.7007 9.41868H9.62379C9.81497 9.41868 9.96994 9.26369 9.96994 9.07253V8.09397C9.96994 7.90281 9.81497 7.74782 9.62379 7.74782ZM9.62379 10.3301H0.393023C0.201844 10.3301 0.046875 10.4851 0.046875 10.6763V11.6548C0.046875 11.846 0.201867 12.001 0.393023 12.001H9.62379C9.81497 12.001 9.96994 11.846 9.96994 11.6548V10.6763C9.96994 10.4851 9.81497 10.3301 9.62379 10.3301Z"/></symbol><symbol id="through-letter" viewBox="0 0 12 12"><path d="M3.23442 5.49983H8.20971C8.04454 5.37497 7.83246 5.23947 7.57352 5.09363C7.10945 4.8541 6.72304 4.68218 6.41496 4.57806C5.46418 4.25524 4.84141 3.91923 4.54675 3.57033C4.25209 3.22137 4.10479 2.85685 4.10479 2.47662C4.10479 2.01821 4.25441 1.63798 4.55348 1.33595C4.85706 1.02875 5.26331 0.875001 5.77223 0.875001C6.31687 0.875001 6.78561 1.11196 7.17852 1.58591C7.41506 1.87748 7.64511 2.41133 7.86823 3.18741L7.96214 3.20296L8.52463 3.2498L8.60508 3.22643C8.62739 3.08573 8.63862 2.9687 8.63862 2.87482C8.63862 2.56231 8.60733 2.08588 8.54471 1.44524C8.49543 1.02872 8.44871 0.721305 8.4041 0.523364C7.90869 0.335958 7.51346 0.210911 7.21882 0.148469C6.69653 0.0494989 6.32363 0 6.10064 0C4.9398 0 4.06265 0.330841 3.46882 0.992167C2.87061 1.65877 2.57154 2.46356 2.57154 3.40623C2.57154 3.8801 2.67868 4.36961 2.89301 4.87484C2.99556 5.10928 3.1094 5.31762 3.23442 5.49983ZM6.62945 7.49978C7.08928 7.71852 7.39518 7.90355 7.54688 8.05442C7.90855 8.43468 8.08932 8.84351 8.08932 9.2809C8.08932 9.63513 7.98431 9.97104 7.77451 10.2887C7.57369 10.6011 7.30143 10.8254 6.95758 10.9605C6.62293 11.1014 6.31256 11.1716 6.02697 11.1716C5.70112 11.1716 5.40648 11.1142 5.14309 10.9997C4.86632 10.8902 4.63191 10.742 4.43992 10.5543C4.23905 10.3616 4.06042 10.1169 3.90419 9.81991C3.88184 9.7784 3.8539 9.708 3.82043 9.60914C3.78701 9.51006 3.73667 9.36435 3.66978 9.17175C3.60525 8.98567 3.53829 8.80075 3.46892 8.61705L2.78589 8.63268V8.97641L2.7725 9.26566C2.76809 9.46343 2.76809 9.6405 2.7725 9.79676C2.78137 10.0467 2.78589 10.453 2.78589 11.0156V11.1172C2.78589 11.1901 2.80372 11.2473 2.83939 11.2891C2.90636 11.3513 3.06707 11.4244 3.32155 11.5077L4.25901 11.8202C4.62056 11.9401 5.05588 12 5.5648 12C6.11397 12 6.56685 11.9453 6.92418 11.8359C7.25013 11.7419 7.59133 11.5701 7.94877 11.3203C8.27015 11.0805 8.51352 10.8698 8.67871 10.6873C8.89278 10.4322 9.05147 10.1614 9.15413 9.87475C9.33731 9.34878 9.42871 8.79669 9.42871 8.21874C9.42871 7.94259 9.41324 7.70314 9.38209 7.49995L6.62945 7.49978ZM11.9398 6.07009C11.8995 6.02327 11.8483 5.99988 11.7857 5.99988H0.214258C0.151728 5.99988 0.100433 6.02327 0.0602315 6.07009C0.0201475 6.11691 0 6.17683 0 6.24989V6.74972C0 6.82278 0.0200537 6.88259 0.0602315 6.92952C0.100433 6.97634 0.151822 6.99957 0.214258 6.99957H11.7857C11.8483 6.99957 11.8995 6.97634 11.9398 6.92952C11.9799 6.88259 12 6.82278 12 6.74972V6.24989C12 6.17683 11.9799 6.11691 11.9398 6.07009Z"/></symbol><symbol id="video" viewBox="0 0 20 18"><path d="M19.5879 2.81656C19.3575 1.71519 18.6819 0.847012 17.8252 0.550442C16.2602 -3.83085e-08 9.99977 0 9.99977 0C9.99977 0 3.73963 0 2.17457 0.529594C1.33435 0.825843 0.642345 1.7154 0.411876 2.81656C0 4.82816 0 9.00004 0 9.00004C0 9.00004 0 13.1929 0.411876 15.1834C0.642564 16.2846 1.31788 17.1529 2.17469 17.4494C3.7561 18 10 18 10 18C10 18 16.2602 18 17.8252 17.4704C18.682 17.174 19.3575 16.3058 19.5882 15.2046C19.9999 13.1928 19.9999 9.02117 19.9999 9.02117C19.9999 9.02117 20.0164 4.82812 19.5879 2.81656ZM8.00658 12.8541V5.14586L13.2124 8.99996L8.00658 12.8541Z" /></symbol></svg>
