<?xml version="1.0" encoding="UTF-8"?><svg xmlns="http://www.w3.org/2000/svg" xmlns:xlink="http://www.w3.org/1999/xlink" width="0" height="0"><symbol id="master-card-sc" viewBox="0 0 50 20" fill="none" xmlns="http://www.w3.org/2000/svg"><path fill-rule="evenodd" clip-rule="evenodd" d="M47.258 7.83129C47.258 7.22888 47.6858 6.72286 48.199 6.72286C48.7337 6.72286 49.14 7.22888 49.14 7.83129C49.14 8.43369 48.7337 8.93972 48.199 8.93972C47.6858 8.96381 47.258 8.45779 47.258 7.83129ZM48.199 8.69875C48.6053 8.69875 48.9047 8.31321 48.9047 7.85538C48.9047 7.39755 48.584 7.01201 48.199 7.01201C47.7927 7.01201 47.4933 7.39755 47.4933 7.85538C47.4933 8.31321 47.8141 8.69875 48.199 8.69875ZM48.0707 8.33731H47.8782V7.34936H48.2418C48.3059 7.34936 48.3915 7.34936 48.4556 7.39755C48.5198 7.44575 48.5626 7.54213 48.5626 7.63852C48.5626 7.759 48.4984 7.85538 48.4129 7.87948L48.5626 8.31321H48.3487L48.2204 7.92767H48.0707V8.33731ZM48.0707 7.78309H48.1776C48.2204 7.78309 48.2632 7.78309 48.2846 7.759C48.3059 7.7349 48.3273 7.68671 48.3273 7.63852C48.3273 7.61442 48.3059 7.56623 48.2846 7.54213C48.2632 7.51803 48.199 7.51804 48.1776 7.51804H48.0707C48.0921 7.54213 48.0707 7.78309 48.0707 7.78309ZM33.8064 0.433732L33.5497 2.33734C32.9937 1.99999 32.5874 1.87951 32.1383 1.87951C30.9621 1.87951 30.1494 3.2289 30.1494 5.1325C30.1494 6.4578 30.7054 7.25298 31.625 7.25298C32.01 7.25298 32.4377 7.1084 32.9723 6.79515L32.6943 8.79514C32.1169 8.98791 31.7319 9.0602 31.3042 9.0602C29.6148 9.0602 28.5455 7.61442 28.5455 5.30118C28.5455 2.19276 29.9997 0 32.0955 0C32.3735 0 32.6088 0.0240948 32.8012 0.0963836L33.4642 0.289154C33.6139 0.361443 33.6567 0.361443 33.8064 0.433732ZM28.5668 1.73493C28.5241 1.71083 28.4599 1.71083 28.4172 1.71083C27.9039 1.71083 27.6045 2.02409 27.1126 2.86745L27.2623 1.78312H25.8295L24.8671 8.86743H26.4497C27.0271 4.5301 27.1554 3.78311 27.9253 3.78311H28.0322C28.1819 2.93974 28.353 2.31324 28.631 1.73493H28.5668ZM19.1571 8.77104C18.7294 8.93971 18.3872 9.012 18.0237 9.012C17.2324 9.012 16.7833 8.45779 16.7833 7.44575C16.7833 7.25298 16.8047 7.03611 16.826 6.79515L16.933 6.09635L16.9971 5.54214L17.6815 0.69879H19.2426L19.0502 1.73493H19.8628L19.6276 3.44577H18.8577L18.43 6.4578C18.4086 6.57828 18.4086 6.67467 18.4086 6.74696C18.4086 7.1084 18.5797 7.27707 18.9432 7.27707C19.1357 7.27707 19.264 7.25298 19.371 7.20478L19.1571 8.77104ZM12.9338 4.02408C12.9338 4.91564 13.2974 5.54214 14.1314 5.99997C14.7516 6.36141 14.8799 6.4578 14.8799 6.79515C14.8799 7.22888 14.6019 7.44575 13.9817 7.44575C13.5112 7.44575 13.0835 7.37346 12.5703 7.15659L12.3564 8.79514L12.4206 8.81923L12.6986 8.89152C12.8055 8.91562 12.9338 8.93972 13.1049 8.96381C13.4685 8.98791 13.7679 9.0361 13.9817 9.0361C15.6284 9.0361 16.3983 8.28912 16.3983 6.67467C16.3983 5.71082 16.0775 5.13251 15.2863 4.69877C14.6233 4.33733 14.5592 4.26504 14.5592 3.92769C14.5592 3.54215 14.8158 3.34938 15.329 3.34938C15.6498 3.34938 16.0562 3.39757 16.4625 3.46986L16.6977 1.83132C16.2486 1.73493 15.7781 1.68674 15.3077 1.68674C13.5326 1.63855 12.9338 2.69878 12.9338 4.02408ZM46.3598 8.86743H44.8628L44.927 8.16863C44.4993 8.72285 44.0502 8.96381 43.4728 8.96381C42.3179 8.96381 41.5694 7.7831 41.5694 6.02407C41.5694 3.66263 42.7456 1.66264 44.1357 1.66264C44.7559 1.66264 45.205 1.97589 45.6541 2.62649L45.9963 0.144577H47.5574L46.3598 8.86743ZM44.0288 7.20478C44.7773 7.20478 45.2905 6.21684 45.2905 4.81925C45.2905 3.92769 44.9911 3.42167 44.4565 3.42167C43.7508 3.42167 43.2375 4.40962 43.2375 5.8072C43.2161 6.72286 43.4941 7.20478 44.0288 7.20478ZM24.14 8.72285C23.6053 8.91562 23.0707 9.012 22.5147 9.012C20.761 9.012 19.8414 7.92767 19.8414 5.8313C19.8414 3.39757 21.0177 1.61445 22.6002 1.61445C23.9047 1.61445 24.7174 2.62649 24.7174 4.19275C24.7174 4.69877 24.6532 5.22889 24.5249 5.95178H21.3812C21.3598 6.07226 21.3598 6.12045 21.3598 6.16864C21.3598 7.01201 21.8303 7.42165 22.7499 7.42165C23.3059 7.42165 23.8192 7.27707 24.3966 6.96382C24.3752 6.96382 24.14 8.72285 24.14 8.72285ZM23.2632 4.48191C23.2846 4.33733 23.2846 4.21685 23.2846 4.12046C23.2846 3.54215 23.0065 3.2048 22.5361 3.2048C22.0442 3.2048 21.6806 3.66263 21.5309 4.48191H23.2632ZM6.60363 8.86743H5.04247L5.94067 2.16866L3.90902 8.86743H2.83973L2.71142 2.21686L1.74906 8.86743H0.273438L1.5352 0.144577H3.80209L3.86625 5.54214L5.38464 0.144577H7.84401L6.60363 8.86743ZM10.6669 5.71082C10.4958 5.68672 10.4317 5.68672 10.3034 5.68672C9.40517 5.68672 8.95607 6.04816 8.95607 6.77105C8.95607 7.20478 9.19132 7.49394 9.53349 7.49394C10.1751 7.46984 10.6455 6.74695 10.6669 5.71082ZM11.8218 8.86743H10.5172L10.5386 8.12044C10.1323 8.72285 9.61903 8.96381 8.89192 8.96381C8.03648 8.96381 7.45907 8.16863 7.45907 7.03611C7.45907 5.30118 8.48558 4.31323 10.2178 4.31323C10.4103 4.31323 10.6242 4.33733 10.8594 4.36142C10.9022 4.12046 10.9236 4.02408 10.9236 3.90359C10.9236 3.44577 10.6455 3.253 9.91843 3.253C9.46933 3.253 8.95607 3.32528 8.6139 3.46986L8.37866 3.54215L8.22896 3.59034L8.44281 1.99999C9.23409 1.73493 9.74735 1.61445 10.3248 1.61445C11.6721 1.61445 12.3992 2.33734 12.3992 3.68673C12.3992 4.04817 12.3778 4.28914 12.2709 5.10841L11.9501 7.63852L11.8859 8.09635L11.8432 8.45779L11.8218 8.72285C11.8432 8.67466 11.8218 8.86743 11.8218 8.86743ZM36.5224 5.71082C36.3727 5.68672 36.2871 5.68672 36.1588 5.68672C35.2606 5.68672 34.8115 6.04816 34.8115 6.77105C34.8115 7.20478 35.0467 7.49394 35.3889 7.49394C36.0305 7.46984 36.501 6.74695 36.5224 5.71082ZM37.6558 8.86743H36.3513L36.3727 8.12044C35.9663 8.72285 35.4531 8.96381 34.726 8.96381C33.8705 8.96381 33.2931 8.16863 33.2931 7.03611C33.2931 5.30118 34.3196 4.31323 36.0519 4.31323C36.223 4.31323 36.4582 4.33733 36.6935 4.36142C36.7362 4.12046 36.7576 4.02408 36.7576 3.90359C36.7576 3.44577 36.4796 3.253 35.7525 3.253C35.3034 3.253 34.7901 3.32528 34.4479 3.46986L34.2127 3.54215L34.063 3.59034L34.2769 1.99999C35.0681 1.73493 35.5814 1.61445 36.1588 1.61445C37.5061 1.61445 38.2332 2.33734 38.2332 3.68673C38.2332 4.04817 38.2118 4.28914 38.1049 5.10841L37.7841 7.61442L37.7414 8.07225L37.6986 8.43369L37.6772 8.67466L37.6558 8.86743ZM42.0613 1.73493C42.0185 1.71083 41.9544 1.71083 41.9116 1.71083C41.3983 1.71083 41.0989 2.02409 40.6071 2.86745L40.7568 1.78312H39.3239L38.3615 8.86743H39.9441C40.5215 4.5301 40.6498 3.78311 41.4197 3.78311H41.5266C41.6336 3.06023 41.8474 2.38553 42.1255 1.73493H42.0613Z" fill="#E52727"/>
<path fill-rule="evenodd" clip-rule="evenodd" d="M35.4577 15.734C35.4577 17.3485 35.0086 18.2882 34.3242 18.2882C33.8109 18.3123 33.5115 17.6617 33.5115 16.7219C33.5115 15.5894 33.9606 14.3123 34.6878 14.3123C35.2652 14.3123 35.4577 15.0111 35.4577 15.734ZM37.0188 15.7581C37.0188 13.975 36.2275 12.5774 34.7733 12.5774C33.0838 12.5774 31.9718 14.2641 31.9718 16.746C31.9718 18.5292 32.6347 19.999 34.2173 19.999C35.8212 19.999 37.0188 18.7219 37.0188 15.7581ZM32.4636 11.3485L32.2284 13.2521C31.6938 12.9147 31.3302 12.7943 30.9239 12.7943C29.8332 12.7943 29.0633 14.1436 29.0633 16.0472C29.0633 17.3725 29.5766 18.1677 30.432 18.1677C30.7956 18.1677 31.2019 18.0231 31.6938 17.7099L31.4371 19.7099C30.9025 19.9027 30.5389 19.9749 30.1326 19.9749C28.55 19.9749 27.5449 18.5292 27.5449 16.2159C27.5449 13.1075 28.9136 10.9147 30.8597 10.9147C31.1163 10.9147 31.3302 10.9388 31.5227 11.0111L32.1215 11.2039C32.2926 11.2521 32.3353 11.2762 32.4636 11.3485ZM22.7331 12.6256C22.6903 12.6015 22.6262 12.6015 22.5834 12.6015C22.0915 12.6015 21.8349 12.9147 21.3644 13.7581L21.5141 12.6738H20.1882L19.29 19.7581H20.7656C21.3003 15.4207 21.4286 14.6738 22.1343 14.6738C22.1771 14.6738 22.1771 14.6738 22.2412 14.6979C22.3695 13.8545 22.562 13.228 22.7973 12.6497L22.7331 12.6256ZM41.9375 19.7099H40.5475L40.6116 19.0111C40.2053 19.5653 39.7776 19.8063 39.2429 19.8063C38.1737 19.8063 37.4679 18.6256 37.4679 16.8665C37.4679 14.5051 38.5586 12.5051 39.8631 12.5051C40.4405 12.5051 40.8683 12.8184 41.2746 13.493L41.5954 11.0111H43.0496L41.9375 19.7099ZM39.7562 18.0472C40.4619 18.0472 40.9324 17.0593 40.9324 15.6617C40.9324 14.7701 40.6544 14.2882 40.1411 14.2882C39.4782 14.2882 39.0077 15.2762 39.0077 16.6738C39.0077 17.5653 39.2643 18.0472 39.7562 18.0472ZM8.93926 19.6858C8.44739 19.8786 7.93413 19.9749 7.42087 19.9749C5.77417 19.9749 4.91873 18.8906 4.91873 16.7942C4.91873 14.3605 6.00941 12.5774 7.48503 12.5774C8.70402 12.5774 9.47391 13.5653 9.47391 15.1557C9.47391 15.6617 9.40975 16.1918 9.28144 16.9147H6.37297C6.35158 17.0352 6.35158 17.0834 6.35158 17.1316C6.35158 17.9509 6.80068 18.3605 7.65612 18.3605C8.19076 18.3605 8.66125 18.2159 9.17451 17.9027L8.93926 19.6858ZM8.10522 15.4689C8.10522 15.3244 8.12661 15.2039 8.12661 15.1075C8.12661 14.5292 7.86997 14.1918 7.42087 14.1918C6.95039 14.1918 6.6296 14.6497 6.4799 15.4689H8.10522ZM26.4328 19.6858C25.941 19.8786 25.4277 19.9749 24.9145 19.9749C23.2677 19.9749 22.4123 18.8906 22.4123 16.7942C22.4123 14.3605 23.503 12.5774 24.9786 12.5774C26.1976 12.5774 26.9675 13.5653 26.9675 15.1557C26.9675 15.6617 26.9033 16.1918 26.775 16.9147H23.8452C23.8238 17.0352 23.8238 17.0834 23.8238 17.1316C23.8238 17.9509 24.2729 18.3605 25.1283 18.3605C25.663 18.3605 26.1334 18.2159 26.6467 17.9027L26.4328 19.6858ZM25.6202 15.4689C25.6416 15.3244 25.6416 15.2039 25.6416 15.1075C25.6416 14.5292 25.3849 14.1918 24.9358 14.1918C24.4654 14.1918 24.1446 14.6497 23.9949 15.4689H25.6202ZM46.9632 19.6858C46.4713 19.8786 45.9581 19.9749 45.4448 19.9749C43.7981 19.9749 42.9427 18.8906 42.9427 16.7942C42.9427 14.3605 44.0334 12.5774 45.5304 12.5774C46.7494 12.5774 47.5192 13.5653 47.5192 15.1557C47.5192 15.6617 47.4551 16.1918 47.3268 16.9147H44.3969C44.3755 17.0352 44.3755 17.0834 44.3755 17.1316C44.3755 17.9509 44.8246 18.3605 45.6801 18.3605C46.2147 18.3605 46.6852 18.2159 47.1985 17.9027L46.9632 19.6858ZM46.1292 15.4689C46.1292 15.3244 46.1506 15.2039 46.1506 15.1075C46.1506 14.5292 45.8939 14.1918 45.4448 14.1918C44.9743 14.1918 44.6535 14.6497 44.5038 15.4689H46.1292ZM4.57656 12.9629C4.29855 12.7461 3.89222 12.5533 3.35757 12.5533C2.75877 12.5533 2.28828 12.6979 2.28828 13.3967C2.28828 14.6497 4.44825 14.1918 4.44825 16.8906C4.44825 19.3484 3.0154 19.999 1.73225 19.999C1.15483 19.999 0.491873 19.7822 0 19.5412L0.363559 17.734C0.66296 18.0472 1.24038 18.24 1.75364 18.24C2.22412 18.24 2.92985 18.0954 2.92985 17.1798C2.92985 15.7581 0.769889 16.2882 0.769889 13.7822C0.769889 11.4931 2.03165 10.8184 3.27203 10.8184C3.95637 10.8184 4.61933 10.9388 4.98289 11.228L4.57656 12.9629ZM13.2378 19.6858C12.9384 19.8545 12.5321 19.9508 11.9333 19.9508C10.6501 19.9508 9.85885 18.5051 9.85885 16.746C9.85885 14.4328 11.0137 12.6015 12.7032 12.6015C13.0667 12.6015 13.6441 12.7702 14.0932 13.0593L13.7725 14.7461C13.4517 14.5051 13.1309 14.3605 12.7887 14.3605C11.9974 14.3605 11.4414 15.1798 11.4414 16.6256C11.4414 17.4689 11.8477 18.1436 12.4893 18.1436C12.8743 18.1436 13.1523 18.0472 13.4731 17.8304L13.2378 19.6858ZM18.7553 17.9027C18.6698 18.5051 18.627 19.1316 18.5629 19.734H17.1514L17.2583 18.6015H17.237C16.7879 19.3725 16.3388 19.9027 15.5261 19.9027C14.6493 19.9027 14.1574 18.8424 14.1574 17.4689C14.1574 16.987 14.1788 16.7219 14.2643 15.9991L14.6707 12.722H16.2532L15.8255 16.0232C15.7827 16.3846 15.7186 16.7219 15.7186 17.1075C15.7186 17.5171 15.8896 17.9509 16.3174 17.9027C16.9589 17.9027 17.3439 17.0111 17.4508 15.975L17.8999 12.722H19.4183L18.7553 17.9027ZM48.4174 19.6376H48.1822V18.481H47.84V18.2159H48.7596V18.481H48.4174V19.6376ZM50 19.6376H49.7648V18.4569L49.5509 19.6376H49.3157L49.1018 18.4569V19.6376H48.8665V18.2159H49.2301L49.4226 19.3484H49.444L49.6364 18.2159H49.9786C50 18.2159 50 19.6376 50 19.6376Z" fill="#F3AE12"/></symbol><symbol id="verified-visa" viewBox="0 0 50 20" xmlns="http://www.w3.org/2000/svg"><path d="M20.2249 10.6788L17.7249 16.9419L17.4571 15.6676C16.8321 14.1066 15.4791 12.4691 13.9062 11.8001L16.2002 19.8473H18.9131L22.9447 10.666H20.2249V10.6788Z" fill="#11559C"/><path d="M22.3672 19.8664L23.9675 10.666H26.5293L24.929 19.8664H22.3672Z" fill="#11559C"/><path d="M34.2176 10.8945C33.7094 10.7097 32.9127 10.5059 31.9237 10.5059C29.3893 10.5059 27.6105 11.7547 27.5968 13.5387C27.583 14.8639 28.8674 15.5966 29.8358 16.0363C30.8385 16.4886 31.1682 16.7754 31.1682 17.1768C31.1613 17.7948 30.3715 18.0751 29.6366 18.0751C28.6132 18.0751 28.0707 17.935 27.2259 17.5973L26.8962 17.4507L26.5391 19.5087C27.1366 19.7636 28.2424 19.9866 29.3962 19.9993C32.0816 19.9993 33.833 18.7633 33.8536 16.8582C33.8674 15.8069 33.1805 15.0168 31.7039 14.3606C30.811 13.9337 30.2616 13.6534 30.2685 13.2201C30.2685 12.8378 30.7286 12.43 31.7382 12.43C32.5762 12.4173 33.1805 12.5957 33.6544 12.7868L33.8811 12.8952L34.2176 10.8945Z" fill="#11559C"/><path d="M40.7785 10.6777H38.8005C38.1892 10.6777 37.7291 10.837 37.4543 11.4423L33.6562 19.8717H36.3417C36.3417 19.8717 36.7813 18.7376 36.8843 18.4891C37.1796 18.4891 39.7895 18.4955 40.1604 18.4955C40.2428 18.8141 40.4694 19.8717 40.4694 19.8717H42.8527L40.7785 10.6777ZM37.6192 16.6032C37.8321 16.0744 38.6356 14.0291 38.6356 14.0291C38.6219 14.0546 38.8486 13.5003 38.9791 13.1499L39.1508 13.9399C39.1508 13.9399 39.6453 16.1381 39.7483 16.5968C39.3499 16.6032 38.1205 16.6032 37.6192 16.6032Z" fill="#11559C"/><path d="M15.3896 10.6719H11.2618L11.2344 10.8312C14.4418 11.5957 16.564 13.4626 17.4432 15.6735L16.5503 11.4428C16.3992 10.863 15.9459 10.691 15.3896 10.6719Z" fill="#F2A724"/><path d="M3.51648 8.44842H1.88874L0 0.573312L1.80632 0.292969L3.09753 6.45416L6.3805 0.375797H8.11127L3.51648 8.44842Z" fill="#11559C"/><path d="M12.0194 5.87476H8.12519C8.0153 6.97065 8.56475 7.44851 9.49882 7.44851C10.2749 7.44851 10.9617 7.18091 11.6966 6.74765L11.6898 7.84354C10.9686 8.26405 10.1307 8.53165 9.14854 8.53165C7.45211 8.53165 6.33261 7.63328 6.66915 5.60716C6.97134 3.77855 8.3381 2.66992 9.91777 2.66992C11.7378 2.66992 12.3422 3.93784 12.0812 5.53707C12.0675 5.65176 12.0263 5.79193 12.0194 5.87476ZM9.72547 3.63838C9.12107 3.63838 8.55788 4.07801 8.29689 5.00187H10.7076C10.7488 4.12898 10.4535 3.63838 9.72547 3.63838Z" fill="#11559C"/><path d="M14.5476 5.18716L14.0119 8.41111H12.5078L13.4419 2.78512H14.7262V3.91287C15.2345 3.26298 15.9281 2.71503 16.8828 2.66406L16.8897 4.05304C15.9281 4.11675 15.0765 4.58187 14.5476 5.18716Z" fill="#11559C"/><path d="M16.8594 8.4109L17.7934 2.78491H19.2976L18.3704 8.4109H16.8594ZM18.7138 1.84193C18.2124 1.84193 17.8621 1.51699 17.9445 1.05187C18.027 0.574015 18.4803 0.236328 18.9816 0.236328C19.4693 0.236328 19.8195 0.574015 19.7371 1.05187C19.6616 1.51699 19.2083 1.84193 18.7138 1.84193Z" fill="#11559C"/><path d="M23.472 1.24842C22.9569 1.24842 22.6478 1.45868 22.5654 1.96202L22.4281 2.79031H23.5819V3.9308H22.2357L21.494 8.40993H19.9967L20.7385 3.92443H19.8594L20.0517 2.78394H20.9308L21.0888 1.81548C21.2948 0.566678 22.2289 0.101562 23.472 0.101562C23.733 0.101562 23.9322 0.127048 24.0833 0.146162L24.097 1.28665C23.9459 1.27391 23.7261 1.24842 23.472 1.24842Z" fill="#11559C"/><path d="M23.4844 8.4109L24.4184 2.78491H25.9226L24.9954 8.4109H23.4844ZM25.3456 1.84193C24.8443 1.84193 24.494 1.51699 24.5695 1.05187C24.652 0.574015 25.1053 0.236328 25.6066 0.236328C26.0943 0.236328 26.4445 0.574015 26.3621 1.05187C26.2866 1.51699 25.8333 1.84193 25.3456 1.84193Z" fill="#11559C"/><path d="M31.7772 5.87476H27.883C27.78 6.97065 28.3226 7.44851 29.2566 7.44851C30.0327 7.44851 30.7195 7.18091 31.4544 6.74765L31.4476 7.84354C30.7264 8.26405 29.8885 8.53165 28.9064 8.53165C27.2099 8.53165 26.0904 7.63328 26.427 5.60716C26.7292 3.77855 28.0959 2.66992 29.6756 2.66992C31.4956 2.66992 32.1 3.93784 31.839 5.53707C31.8253 5.65176 31.7841 5.79193 31.7772 5.87476ZM29.4833 3.63838C28.8789 3.63838 28.3157 4.07801 28.0547 5.00187H30.4654C30.5066 4.12898 30.2113 3.63838 29.4833 3.63838Z" fill="#11559C"/><path d="M36.2343 8.41031L36.2412 7.62662C35.7329 8.10448 35.0736 8.525 34.2357 8.525C32.9651 8.525 32.0928 7.65211 32.4087 5.75342C32.759 3.65721 34.1533 2.72698 35.5612 2.72698C36.1381 2.72698 36.5914 2.82255 36.9348 2.93724L37.3881 0.223001L38.9335 0L37.5392 8.41031H36.2343ZM36.7425 4.09047C36.3923 3.92481 36.1175 3.84835 35.6024 3.84835C34.8126 3.84835 34.1326 4.4409 33.9335 5.67696C33.7549 6.77285 34.167 7.28256 34.8332 7.28256C35.3826 7.28256 35.8634 6.97674 36.3442 6.51162L36.7425 4.09047Z" fill="#11559C"/><path d="M42.1463 8.46734C41.432 8.46734 40.8482 8.35903 40.3125 8.187L41.3015 2.21058L42.4691 2.04492L42.0433 4.63173C42.3867 4.35139 42.8606 4.06467 43.4375 4.06467C44.4059 4.06467 45.0584 4.73367 44.818 6.16725C44.557 7.73462 43.5131 8.46734 42.1463 8.46734ZM42.9911 4.9949C42.6133 4.9949 42.2287 5.23065 41.8922 5.54922L41.5694 7.47977C41.796 7.55622 41.9471 7.59445 42.2699 7.59445C42.9911 7.59445 43.4993 7.18668 43.6573 6.21822C43.7946 5.40267 43.4993 4.9949 42.9911 4.9949Z" fill="#11559C"/><path d="M47.5125 8.64687C46.9287 9.69816 46.3518 10.0231 45.4658 10.0231C45.2667 10.0231 45.1568 10.004 45.0537 9.9785L45.0469 9.10562C45.1911 9.14384 45.3491 9.16933 45.5689 9.16933C45.8985 9.16933 46.1939 9.02916 46.3862 8.71696L46.5373 8.43661L45.5689 4.23783L46.7845 4.09766L47.3477 7.13047L48.8656 4.155H49.9988L47.5125 8.64687Z" fill="#11559C"/></symbol><symbol id="gpay" viewBox="0 0 51 20" xmlns="http://www.w3.org/2000/svg"><path d="M23.3357 9.72677V15.6231H21.5V1.0625H26.3665C27.5998 1.0625 28.6515 1.48158 29.512 2.31975C30.3916 3.15791 30.8314 4.18125 30.8314 5.38976C30.8314 6.62751 30.3916 7.65085 29.512 8.47927C28.6611 9.30768 27.6094 9.71702 26.3665 9.71702H23.3357V9.72677ZM23.3357 2.85578V7.93349H26.4047C27.1314 7.93349 27.7433 7.68009 28.2213 7.18304C28.7089 6.68599 28.9575 6.08173 28.9575 5.3995C28.9575 4.72703 28.7089 4.13252 28.2213 3.63547C27.7433 3.11892 27.1409 2.86552 26.4047 2.86552H23.3357V2.85578Z" fill="#3C4043"/><path d="M35.6235 5.33008C36.9812 5.33008 38.052 5.70043 38.836 6.44113C39.62 7.18183 40.012 8.19543 40.012 9.48191V15.6219H38.2623V14.238H38.1859C37.4305 15.3783 36.4171 15.9436 35.155 15.9436C34.0747 15.9436 33.1759 15.6219 32.4493 14.9689C31.7227 14.316 31.3594 13.507 31.3594 12.5324C31.3594 11.4993 31.7418 10.6807 32.5067 10.0764C33.2716 9.46241 34.2946 9.16029 35.5662 9.16029C36.6561 9.16029 37.5548 9.36495 38.2528 9.77429V9.34546C38.2528 8.69247 38.0042 8.14669 37.4975 7.68863C36.9907 7.23056 36.398 7.0064 35.7191 7.0064C34.6961 7.0064 33.8835 7.44498 33.2907 8.33187L31.6749 7.29878C32.564 5.98306 33.8835 5.33008 35.6235 5.33008ZM33.2524 12.5617C33.2524 13.049 33.4532 13.4583 33.8643 13.7799C34.2659 14.1015 34.7439 14.2672 35.2889 14.2672C36.0633 14.2672 36.7517 13.9748 37.3541 13.3901C37.9564 12.8053 38.2623 12.1231 38.2623 11.3337C37.6887 10.8756 36.8951 10.6417 35.8721 10.6417C35.1264 10.6417 34.5049 10.8269 34.0077 11.1875C33.501 11.5676 33.2524 12.0256 33.2524 12.5617Z" fill="#3C4043"/><path d="M50.0056 5.65234L43.8866 19.9986H41.9936L44.2691 14.9793L40.2344 5.65234H42.2326L45.1391 12.806H45.1774L48.0074 5.65234H50.0056Z" fill="#3C4043"/><path d="M16.0351 8.53652C16.0351 7.92642 15.9815 7.34262 15.8821 6.78125H8.1875V9.99746L12.619 9.99843C12.4392 11.0686 11.8608 11.9808 10.9745 12.5889V14.6756H13.6123C15.1526 13.2224 16.0351 11.0744 16.0351 8.53652Z" fill="#4285F4"/><path d="M10.973 12.5894C10.2388 13.0943 9.2932 13.3896 8.187 13.3896C6.05015 13.3896 4.2374 11.9218 3.58822 9.94336H0.867188V12.0953C2.21527 14.8222 4.98602 16.6935 8.187 16.6935C10.3994 16.6935 12.258 15.9518 13.6109 14.6751L10.973 12.5894Z" fill="#34A853"/><path d="M3.33579 8.34697C3.33579 7.79145 3.42662 7.25444 3.59202 6.74959V4.59766H0.870996C0.313596 5.72528 0 6.99812 0 8.34697C0 9.69583 0.314552 10.9687 0.870996 12.0963L3.59202 9.94436C3.42662 9.43951 3.33579 8.9025 3.33579 8.34697Z" fill="#FABB05"/><path d="M8.187 3.30392C9.39454 3.30392 10.4759 3.72787 11.3297 4.55629L13.6673 2.17533C12.2475 0.827443 10.3965 0 8.187 0C4.98697 0 2.21527 1.87125 0.867188 4.5982L3.58822 6.75013C4.2374 4.77168 6.05015 3.30392 8.187 3.30392Z" fill="#E94235"/></symbol></svg>