<svg width="0" height="0" class="hidden">
  <symbol fill="none" xmlns="http://www.w3.org/2000/svg" viewBox="0 0 24 24" id="facebook">
    <g clip-path="url(#clip0_1294_118797)">
      <path d="M20.7657 0H3.23405C1.44797 0 0 1.44791 0 3.23405V20.7658C0 22.552 1.44791 23.9999 3.23405 23.9999H11.8806L11.8953 15.4236H9.66721C9.52814 15.4236 9.39472 15.3685 9.2962 15.2704C9.19767 15.1722 9.14205 15.039 9.14152 14.8999L9.13084 12.1354C9.13057 12.0662 9.14398 11.9977 9.17028 11.9336C9.19659 11.8696 9.23527 11.8114 9.28412 11.7624C9.33296 11.7134 9.39101 11.6745 9.45493 11.6479C9.51884 11.6214 9.58737 11.6077 9.65659 11.6077H11.8806V8.93651C11.8806 5.83661 13.7739 4.14869 16.5392 4.14869H18.8083C18.9478 4.14869 19.0815 4.20408 19.1801 4.30268C19.2787 4.40128 19.3341 4.53501 19.3341 4.67444V7.00547C19.3341 7.14486 19.2787 7.27854 19.1802 7.37713C19.0817 7.47572 18.948 7.53114 18.8086 7.53122L17.4161 7.53187C15.9122 7.53187 15.621 8.24648 15.621 9.29522V11.6078H18.9255C19.2404 11.6078 19.4847 11.8827 19.4476 12.1954L19.1199 14.9599C19.1047 15.0877 19.0432 15.2055 18.947 15.291C18.8508 15.3765 18.7266 15.4237 18.5978 15.4237H15.6357L15.621 24H20.7658C22.5519 24 23.9998 22.5521 23.9998 20.766V3.23405C23.9998 1.44791 22.5519 0 20.7657 0Z" fill="#475993"></path>
    </g>
    <defs>
      <clipPath id="clip0_1294_118797">
        <rect width="24" height="24" fill="white"></rect>
      </clipPath>
    </defs>
  </symbol>
  <symbol fill="none" xmlns="http://www.w3.org/2000/svg" viewBox="0 0 24 24" id="instagram">
    <g clip-path="url(#clip0_1294_118793)">
      <path d="M1.49971 1.63231C-0.386289 3.59131 -0.000289023 5.67231 -0.000289023 11.9943C-0.000289023 17.2443 -0.916289 22.5073 3.87771 23.7463C5.37471 24.1313 18.6387 24.1313 20.1337 23.7443C22.1297 23.2293 23.7537 21.6103 23.9757 18.7873C24.0067 18.3933 24.0067 5.60231 23.9747 5.20031C23.7387 2.19331 21.8877 0.460314 19.4487 0.109314C18.8897 0.028314 18.7777 0.00431397 15.9097 -0.000686027C5.73671 0.00431397 3.50671 -0.448686 1.49971 1.63231Z" fill="url(#paint0_linear_1294_118793)"></path>
      <path d="M11.9978 3.13746C8.36681 3.13746 4.91881 2.81446 3.60181 6.19446C3.05781 7.59046 3.13681 9.40346 3.13681 11.9995C3.13681 14.2775 3.06381 16.4185 3.60181 17.8035C4.91581 21.1855 8.39181 20.8615 11.9958 20.8615C15.4728 20.8615 19.0578 21.2235 20.3908 17.8035C20.9358 16.3935 20.8558 14.6075 20.8558 11.9995C20.8558 8.53746 21.0468 6.30246 19.3678 4.62446C17.6678 2.92446 15.3688 3.13746 11.9938 3.13746H11.9978ZM11.2038 4.73446C18.7778 4.72246 19.7418 3.88046 19.2098 15.5775C19.0208 19.7145 15.8708 19.2605 11.9988 19.2605C4.93881 19.2605 4.73581 19.0585 4.73581 11.9955C4.73581 4.85046 5.29581 4.73846 11.2038 4.73246V4.73446ZM16.7278 6.20546C16.4459 6.20546 16.1755 6.31745 15.9762 6.5168C15.7768 6.71615 15.6648 6.98653 15.6648 7.26846C15.6648 7.55038 15.7768 7.82076 15.9762 8.02011C16.1755 8.21946 16.4459 8.33146 16.7278 8.33146C17.0097 8.33146 17.2801 8.21946 17.4795 8.02011C17.6788 7.82076 17.7908 7.55038 17.7908 7.26846C17.7908 6.98653 17.6788 6.71615 17.4795 6.5168C17.2801 6.31745 17.0097 6.20546 16.7278 6.20546ZM11.9978 7.44846C11.4002 7.44852 10.8085 7.56629 10.2565 7.79504C9.70439 8.02378 9.20278 8.35902 8.78027 8.78162C7.92698 9.6351 7.44768 10.7926 7.44781 11.9995C7.44795 13.2063 7.9275 14.3637 8.78098 15.217C9.63446 16.0703 10.7919 16.5496 11.9988 16.5495C13.2057 16.5493 14.3631 16.0698 15.2164 15.2163C16.0696 14.3628 16.5489 13.2053 16.5488 11.9985C16.5487 10.7916 16.0691 9.63421 15.2156 8.78092C14.3622 7.92763 13.2047 7.44833 11.9978 7.44846ZM11.9978 9.04546C15.9028 9.04546 15.9078 14.9535 11.9978 14.9535C8.09381 14.9535 8.08781 9.04546 11.9978 9.04546Z" fill="white"></path>
    </g>
    <defs>
      <linearGradient id="paint0_linear_1294_118793" x1="1.54573" y1="22.4664" x2="23.8512" y2="3.16129" gradientUnits="userSpaceOnUse">
        <stop stop-color="#FFDD55"></stop>
        <stop offset="0.5" stop-color="#FF543E"></stop>
        <stop offset="1" stop-color="#C837AB"></stop>
      </linearGradient>
      <clipPath id="clip0_1294_118793">
        <rect width="24" height="24" fill="white"></rect>
      </clipPath>
    </defs>
  </symbol>
  <symbol fill="none" xmlns="http://www.w3.org/2000/svg" viewBox="0 0 24 24" id="telegram">
    <g clip-path="url(#clip0_1294_118806)">
      <path d="M20.7273 0H3.27273C1.46525 0 0 1.46525 0 3.27273V20.7273C0 22.5347 1.46525 24 3.27273 24H20.7273C22.5347 24 24 22.5347 24 20.7273V3.27273C24 1.46525 22.5347 0 20.7273 0Z" fill="#1C8ADB"></path>
      <path d="M18.5362 6.20528L18.288 6.29528L4.81802 11.1485C4.72256 11.178 4.6396 11.2383 4.58213 11.3201C4.52466 11.4018 4.49594 11.5003 4.50046 11.6001C4.50499 11.6999 4.5425 11.7954 4.60712 11.8716C4.67175 11.9478 4.75983 12.0004 4.85757 12.0212L8.34438 12.9757L8.99484 14.8848L9.64529 16.7939C9.68266 16.8875 9.7423 16.9706 9.81905 17.0359C9.8958 17.1012 9.98733 17.1467 10.0857 17.1686C10.184 17.1905 10.2863 17.1881 10.3835 17.1615C10.4807 17.135 10.5699 17.0851 10.6435 17.0162L12.4448 15.3144L15.9821 17.713C16.4144 18.0076 17.0307 17.7894 17.1412 17.3039L19.4839 6.95255C19.5985 6.43983 19.0585 6.01846 18.5362 6.20528ZM16.8167 8.50301L10.7307 13.4776L10.4444 13.7121C10.3815 13.762 10.3404 13.8343 10.3298 13.9139L10.2657 14.443L10.0898 15.9294C10.0913 15.9475 10.0855 15.9654 10.0737 15.9792C10.062 15.993 10.0452 16.0016 10.0271 16.003C10.009 16.0045 9.99111 15.9987 9.9773 15.9869C9.96349 15.9751 9.95492 15.9584 9.95347 15.9403L9.45848 14.4553L8.94711 12.9348C8.92548 12.8665 8.92836 12.7927 8.95524 12.7263C8.98212 12.6598 9.03132 12.6048 9.09438 12.5707L15.4271 8.94073L16.6189 8.25892C16.7921 8.15801 16.9694 8.37755 16.8167 8.50301Z" fill="white"></path>
    </g>
    <defs>
      <clipPath id="clip0_1294_118806">
        <rect width="24" height="24" fill="white"></rect>
      </clipPath>
    </defs>
  </symbol>
  <symbol fill="none" xmlns="http://www.w3.org/2000/svg" viewBox="0 0 24 24" id="twitter">
    <g clip-path="url(#clip0_1294_118811)">
      <path d="M19.708 23.5916C14.5862 24.1381 9.42075 24.1381 4.29892 23.5916C3.3043 23.4866 2.37575 23.0438 1.66804 22.3371C0.960338 21.6304 0.516254 20.7025 0.409826 19.708C-0.136609 14.5862 -0.136609 9.42075 0.409826 4.29892C0.514858 3.3043 0.957639 2.37575 1.66435 1.66804C2.37106 0.960338 3.299 0.516254 4.29346 0.409826C9.41529 -0.136609 14.5807 -0.136609 19.7026 0.409826C20.6972 0.514858 21.6257 0.957639 22.3334 1.66435C23.0411 2.37106 23.4852 3.299 23.5916 4.29346C24.1381 9.41529 24.1381 14.5807 23.5916 19.7026C23.4866 20.6972 23.0438 21.6257 22.3371 22.3334C21.6304 23.0411 20.7025 23.4852 19.708 23.5916Z" fill="#00B2EF"></path>
      <path d="M23.592 19.6774C23.4852 20.6695 23.0416 21.595 22.3352 22.2998C21.6287 23.0045 20.7021 23.4458 19.7097 23.5501C17.0601 23.832 14.397 23.9686 11.7324 23.9592L4.91016 17.1478L8.7897 16.5124L7.3497 15.0833L7.98516 14.6197L6.95561 13.5451L6.16743 12.7597L12.8192 11.0988L19.3511 6.34375L23.9874 10.9733C24.0307 13.88 23.8986 16.7866 23.592 19.6774Z" fill="#008FBF"></path>
      <path d="M19.7453 7.59694C19.3892 8.12877 18.9558 8.60447 18.4593 9.0083C18.3949 9.05952 18.343 9.12465 18.3073 9.1988C18.2717 9.27295 18.2532 9.35421 18.2534 9.43649V9.48694C18.2478 10.5586 18.051 11.6207 17.6725 12.6233C17.2826 13.6742 16.7035 14.6447 15.9639 15.4869C14.9745 16.6149 13.7 17.456 12.2739 17.9224C11.3342 18.2274 10.3518 18.3802 9.36389 18.3751C7.79932 18.3735 6.26294 17.9586 4.91025 17.1724C4.86181 17.1449 4.82373 17.1022 4.80181 17.051C4.77989 16.9998 4.77535 16.9428 4.78889 16.8888C4.8026 16.8353 4.83383 16.788 4.87758 16.7544C4.92133 16.7208 4.97508 16.7028 5.03025 16.7033H5.40389C6.59311 16.7031 7.75512 16.3474 8.74071 15.6819C8.1532 15.5859 7.60346 15.33 7.15174 14.9423C6.70002 14.5545 6.36376 14.0499 6.1798 13.4838C6.17077 13.4558 6.16916 13.4261 6.17513 13.3973C6.18109 13.3686 6.19443 13.3419 6.21382 13.3199C6.23322 13.2979 6.25801 13.2813 6.28575 13.2718C6.3135 13.2623 6.34324 13.2601 6.37207 13.2656C6.55188 13.2998 6.73449 13.3171 6.91752 13.3174H6.98571C6.41626 13.0557 5.93483 12.6347 5.59965 12.1052C5.26447 11.5757 5.08991 10.9604 5.09707 10.3338C5.09746 10.3044 5.10544 10.2756 5.12025 10.2502C5.13506 10.2248 5.15618 10.2036 5.18157 10.1888C5.20696 10.174 5.23575 10.166 5.26515 10.1656C5.29455 10.1652 5.32355 10.1724 5.34934 10.1865C5.58039 10.3155 5.8282 10.4119 6.08571 10.4728C5.57578 9.96872 5.24758 9.3096 5.15256 8.59886C5.05755 7.88813 5.2011 7.16595 5.56071 6.54558C5.5745 6.52272 5.59351 6.50345 5.61619 6.48935C5.63886 6.47525 5.66455 6.46672 5.69116 6.46445C5.71776 6.46219 5.74453 6.46626 5.76926 6.47634C5.79398 6.48641 5.81598 6.50219 5.83343 6.5224C6.54762 7.40525 7.43189 8.13563 8.43377 8.67019C9.43565 9.20474 10.5347 9.53257 11.6657 9.63421H11.678C11.6947 9.63366 11.7112 9.62976 11.7264 9.62273C11.7417 9.61571 11.7553 9.6057 11.7666 9.5933C11.7775 9.5809 11.7856 9.56637 11.7906 9.55064C11.7955 9.53491 11.7971 9.51832 11.7953 9.50194C11.753 9.10593 11.7789 8.70561 11.8716 8.3183C11.9529 7.97924 12.0912 7.65646 12.2807 7.36376C12.6783 6.73925 13.2841 6.27553 13.9907 6.05467C14.3222 5.95074 14.6674 5.89742 15.0148 5.89649C15.8026 5.89571 16.5634 6.1828 17.1543 6.70376C17.2296 6.77067 17.3264 6.8084 17.4271 6.81012C17.4602 6.80957 17.4932 6.80499 17.5253 6.79649C18.0808 6.65595 18.6131 6.43595 19.1057 6.1433C19.1354 6.12617 19.1695 6.11837 19.2036 6.12092C19.2378 6.12346 19.2704 6.13624 19.2972 6.15758C19.324 6.17892 19.3437 6.20784 19.3538 6.24056C19.3639 6.27329 19.364 6.3083 19.3539 6.34103C19.1886 6.85714 18.896 7.3233 18.503 7.69649C18.8574 7.61183 19.2034 7.49498 19.5366 7.34739C19.5702 7.33243 19.6078 7.32882 19.6436 7.33712C19.6794 7.34542 19.7116 7.36517 19.7352 7.39339C19.7587 7.4216 19.7725 7.45674 19.7743 7.49347C19.7761 7.53021 19.7659 7.56653 19.7453 7.59694Z" fill="white"></path>
    </g>
    <defs>
      <clipPath id="clip0_1294_118811">
        <rect width="24" height="24" fill="white"></rect>
      </clipPath>
    </defs>
  </symbol>
  <symbol fill="none" xmlns="http://www.w3.org/2000/svg" viewBox="0 0 24 24" id="viber">
    <g clip-path="url(#clip0_1294_118818)">
      <path d="M19.708 23.5916C14.5862 24.1381 9.42075 24.1381 4.29892 23.5916C3.3043 23.4866 2.37575 23.0438 1.66804 22.3371C0.960338 21.6304 0.516254 20.7025 0.409826 19.708C-0.136609 14.5862 -0.136609 9.42075 0.409826 4.29892C0.514858 3.3043 0.957639 2.37575 1.66435 1.66804C2.37106 0.960338 3.299 0.516254 4.29346 0.409826C9.41529 -0.136609 14.5807 -0.136609 19.7026 0.409826C20.6972 0.514858 21.6257 0.957639 22.3334 1.66435C23.0411 2.37106 23.4852 3.299 23.5916 4.29346C24.1381 9.41529 24.1381 14.5807 23.5916 19.7026C23.4866 20.6972 23.0438 21.6257 22.3371 22.3334C21.6304 23.0411 20.7025 23.4852 19.708 23.5916Z" fill="#6F3FAA"></path>
      <path d="M18.9303 8.38007V8.36234C18.7694 7.71052 18.3494 7.03689 17.7985 6.46961C17.1548 5.80416 16.3353 5.28189 15.5526 5.1128H15.5362C13.202 4.66553 10.8041 4.66553 8.46983 5.1128H8.45347C6.99983 5.4278 5.42211 6.94689 5.07029 8.36234V8.38007C4.63803 10.3425 4.63803 12.3754 5.07029 14.3378V14.3542C5.3212 15.3633 6.19393 16.4242 7.20029 17.0651C7.52895 17.2792 7.8867 17.445 8.26256 17.5573V19.1364C8.26309 19.2626 8.30118 19.3858 8.37198 19.4903C8.44279 19.5947 8.54309 19.6758 8.66011 19.723C8.77712 19.7702 8.90556 19.7816 9.02905 19.7556C9.15253 19.7295 9.26547 19.6673 9.35347 19.5769L10.9544 17.9132C11.3007 17.9323 11.6498 17.9433 11.9962 17.9433C13.1819 17.9429 14.3648 17.8306 15.5294 17.6078H15.5457C16.9953 17.2914 18.5744 15.7723 18.9235 14.3569V14.3405C19.3584 12.3778 19.3607 10.3438 18.9303 8.38007ZM17.6635 14.046C17.4289 14.9692 16.2317 16.1187 15.2785 16.3301C14.0404 16.5672 12.7804 16.6701 11.5203 16.6369C11.508 16.6361 11.4957 16.6382 11.4844 16.6429C11.473 16.6477 11.4629 16.6549 11.4548 16.6642L10.2862 17.8642L9.04256 19.1392C9.02267 19.1602 8.99692 19.1748 8.96865 19.181C8.94038 19.1872 8.91089 19.1848 8.88401 19.1741C8.85712 19.1634 8.83407 19.1448 8.81785 19.1208C8.80163 19.0969 8.79297 19.0686 8.79302 19.0396V16.4214C8.79305 16.4004 8.7857 16.38 8.77224 16.3638C8.75879 16.3476 8.74008 16.3366 8.71938 16.3328C8.52057 16.2856 8.32889 16.2122 8.14938 16.1146C7.33938 15.6823 6.52256 14.796 6.33438 14.046C5.9446 12.2721 5.9446 10.4348 6.33438 8.66098C6.56756 7.74189 7.77165 6.59507 8.71802 6.38234C10.8852 5.96768 13.1113 5.96768 15.2785 6.38234C15.8035 6.49961 16.4035 6.89916 16.8726 7.39007C17.2585 7.78961 17.5544 8.25052 17.6635 8.66507C18.0527 10.4376 18.0527 12.2735 17.6635 14.046Z" fill="white"></path>
      <path d="M15.3132 14.1822C15.1361 14.5865 14.8315 14.9217 14.446 15.1367C14.325 15.1881 14.1994 15.2278 14.071 15.2554C13.925 15.2117 13.786 15.1817 13.6619 15.1285C12.6282 14.7263 11.6659 14.1604 10.8119 13.4526C10.5582 13.2363 10.3199 13.0025 10.0987 12.7531C9.55246 12.1241 9.09376 11.4241 8.73505 10.6722C8.5605 10.3163 8.41323 9.94808 8.26323 9.58126C8.12686 9.24717 8.32868 8.89945 8.53595 8.6499C8.73884 8.41847 8.9884 8.23258 9.26823 8.10445C9.3667 8.05496 9.47938 8.0415 9.58674 8.06641C9.69409 8.09132 9.78934 8.15302 9.85595 8.24081C10.2044 8.63225 10.5114 9.0586 10.7723 9.51308C10.8545 9.64523 10.8826 9.80395 10.8509 9.9563C10.8192 10.1086 10.73 10.2429 10.6019 10.3313C10.5337 10.379 10.4655 10.4335 10.4069 10.4867C10.3491 10.5295 10.2992 10.5821 10.2596 10.6422C10.2254 10.6984 10.2047 10.7617 10.199 10.8272C10.1933 10.8927 10.2028 10.9587 10.2269 11.0199C10.49 11.744 10.8896 12.3481 11.4869 12.7722C11.689 12.9151 11.9068 13.0345 12.136 13.1281C12.2856 13.2095 12.4538 13.2508 12.6241 13.2481C12.9214 13.2126 13.0196 12.884 13.2269 12.7149C13.322 12.637 13.4397 12.5919 13.5626 12.5862C13.6854 12.5806 13.8068 12.6147 13.9087 12.6835C14.1296 12.8199 14.3423 12.974 14.555 13.124C14.7655 13.2676 14.968 13.4224 15.1619 13.5876C15.2525 13.6535 15.3173 13.749 15.3449 13.8576C15.3726 13.9661 15.3614 14.081 15.3132 14.1822ZM12.391 7.64763H12.2164C12.2723 7.6449 12.331 7.64763 12.391 7.64763Z" fill="white"></path>
      <path d="M15.4081 11.7339C15.2717 11.7339 15.2049 11.618 15.1953 11.4912C15.1776 11.2416 15.164 10.9907 15.1299 10.7425C15.0709 10.3238 14.9251 9.92203 14.7017 9.563C14.4721 9.18897 14.1665 8.8673 13.8048 8.61878C13.4431 8.37027 13.0332 8.20043 12.6017 8.12027C12.4053 8.08481 12.2049 8.07663 12.0072 8.05618C11.8817 8.04254 11.7167 8.03436 11.6894 7.87891C11.6853 7.84871 11.6878 7.818 11.6965 7.78881C11.7053 7.75963 11.7201 7.73265 11.7401 7.70967C11.7601 7.6867 11.7848 7.66826 11.8125 7.65558C11.8402 7.64291 11.8703 7.63629 11.9008 7.63618C11.9335 7.63429 11.9663 7.63429 11.999 7.63618C12.595 7.64122 13.1806 7.79319 13.7039 8.07862C14.2272 8.36405 14.672 8.77413 14.999 9.27254C15.2571 9.67427 15.4323 10.1235 15.5144 10.5939C15.5662 10.8885 15.5853 11.1912 15.6085 11.4912C15.6132 11.5206 15.6115 11.5506 15.6037 11.5794C15.5958 11.6081 15.582 11.6348 15.563 11.6577C15.5441 11.6807 15.5204 11.6994 15.4937 11.7125C15.467 11.7256 15.4378 11.7329 15.4081 11.7339Z" fill="white"></path>
      <path d="M14.6709 11.0976C14.6701 11.1381 14.6646 11.1784 14.6545 11.2176C14.6426 11.257 14.6189 11.2918 14.5865 11.3173C14.5541 11.3427 14.5147 11.3576 14.4735 11.3598C14.4324 11.362 14.3916 11.3516 14.3566 11.3298C14.3217 11.308 14.2943 11.276 14.2782 11.2381C14.2632 11.183 14.2563 11.126 14.2577 11.069C14.2609 10.764 14.2005 10.4616 14.0804 10.1813C14.0532 10.1213 14.0232 10.0599 13.9891 10.0013C13.7939 9.66481 13.5042 9.39311 13.1559 9.21989C12.9458 9.12068 12.7227 9.05181 12.4932 9.01534C12.3923 8.99898 12.2914 8.98943 12.1904 8.9758C12.1642 8.97448 12.1385 8.96779 12.1149 8.95613C12.0913 8.94448 12.0704 8.92811 12.0534 8.90805C12.0364 8.88798 12.0237 8.86464 12.0161 8.83947C12.0084 8.8143 12.0061 8.78783 12.0091 8.76171C12.0091 8.73498 12.0148 8.70856 12.0257 8.68418C12.0367 8.6598 12.0526 8.63801 12.0726 8.62024C12.0925 8.60247 12.116 8.58912 12.1415 8.58107C12.167 8.57302 12.1939 8.57045 12.2204 8.57353C12.6208 8.58898 13.0131 8.69134 13.37 8.87353C13.8058 9.09283 14.1613 9.44405 14.3859 9.87716C14.5124 10.1301 14.5971 10.4017 14.6368 10.6817C14.6442 10.7182 14.6496 10.7551 14.6532 10.7922C14.66 10.874 14.6627 10.9558 14.6695 11.0567C14.6695 11.0663 14.6709 11.0785 14.6709 11.0976Z" fill="white"></path>
      <path d="M13.738 10.9105C13.7303 10.945 13.7124 10.9765 13.6867 11.0008C13.6609 11.0251 13.6284 11.0411 13.5935 11.0468H13.5635C13.5188 11.0497 13.4744 11.038 13.437 11.0134C13.3996 10.9888 13.3712 10.9526 13.3562 10.9105C13.3477 10.8881 13.3422 10.8647 13.3399 10.8409C13.3327 10.7492 13.319 10.658 13.2989 10.5682C13.2584 10.3863 13.1551 10.2246 13.0071 10.1114C12.9356 10.06 12.8558 10.0213 12.7712 9.99682C12.6635 9.96546 12.5503 9.97364 12.4439 9.94773C12.3914 9.93842 12.3446 9.90865 12.314 9.86494C12.2833 9.82124 12.2712 9.76716 12.2803 9.71455C12.2905 9.66416 12.3186 9.61919 12.3595 9.58807C12.4005 9.55694 12.4513 9.54179 12.5026 9.54546C13.1271 9.59046 13.5935 9.89046 13.7135 10.56C13.7258 10.6222 13.7345 10.685 13.7394 10.7482C13.747 10.802 13.7466 10.8567 13.738 10.9105Z" fill="white"></path>
    </g>
    <defs>
      <clipPath id="clip0_1294_118818">
        <rect width="24" height="24" fill="white"></rect>
      </clipPath>
    </defs>
  </symbol>
  <symbol fill="none" xmlns="http://www.w3.org/2000/svg" viewBox="0 0 24 24" id="youtube">
    <g clip-path="url(#clip0_1294_118800)">
      <path d="M19.708 23.5916C14.5862 24.1381 9.42075 24.1381 4.29892 23.5916C3.3043 23.4866 2.37575 23.0438 1.66804 22.3371C0.960338 21.6304 0.516254 20.7025 0.409826 19.708C-0.136609 14.5862 -0.136609 9.42075 0.409826 4.29892C0.514858 3.3043 0.957639 2.37575 1.66435 1.66804C2.37106 0.960338 3.299 0.516254 4.29346 0.409826C9.41529 -0.136609 14.5807 -0.136609 19.7026 0.409826C20.6972 0.514858 21.6257 0.957639 22.3334 1.66435C23.0411 2.37106 23.4852 3.299 23.5916 4.29346C24.1381 9.41529 24.1381 14.5807 23.5916 19.7026C23.4866 20.6972 23.0438 21.6257 22.3371 22.3334C21.6304 23.0411 20.7025 23.4852 19.708 23.5916Z" fill="#E60000"></path>
      <path d="M19.1499 8.39181C18.8499 7.46863 17.8572 6.90953 16.9435 6.78135C13.6573 6.43226 10.3434 6.43226 7.05715 6.78135C6.14352 6.90953 5.14806 7.46317 4.85079 8.39181C4.38307 10.775 4.38307 13.2264 4.85079 15.6095C5.15079 16.5314 6.14352 17.0918 7.05715 17.22C10.3434 17.5691 13.6573 17.5691 16.9435 17.22C17.8572 17.0918 18.8526 16.5382 19.1499 15.6095C19.6176 13.2264 19.6176 10.775 19.1499 8.39181ZM10.2058 14.8745V9.12544L14.8858 12C13.3081 12.9695 11.7767 13.9091 10.2058 14.8745Z" fill="white"></path>
    </g>
    <defs>
      <clipPath id="clip0_1294_118800">
        <rect width="24" height="24" fill="white"></rect>
      </clipPath>
    </defs>
  </symbol>
  <symbol xmlns="http://www.w3.org/2000/svg" xmlns:v="https://vecta.io/nano" id="google" viewBox="0 0 186.69 190.5"><g transform="translate(1184.583 765.171)"><path clip-path="none" mask="none" d="M-1089.333-687.239v36.888h51.262c-2.251 11.863-9.006 21.908-19.137 28.662l30.913 23.986c18.011-16.625 28.402-41.044 28.402-70.052 0-6.754-.606-13.249-1.732-19.483z" fill="#4285f4"/><path clip-path="none" mask="none" d="M-1142.714-651.791l-6.972 5.337-24.679 19.223h0c15.673 31.086 47.796 52.561 85.03 52.561 25.717 0 47.278-8.486 63.038-23.033l-30.913-23.986c-8.486 5.715-19.31 9.179-32.125 9.179-24.765 0-45.806-16.712-53.34-39.226z" fill="#34a853"/><path clip-path="none" mask="none" d="M-1174.365-712.61c-6.494 12.815-10.217 27.276-10.217 42.689s3.723 29.874 10.217 42.689c0 .086 31.693-24.592 31.693-24.592-1.905-5.715-3.031-11.776-3.031-18.098s1.126-12.383 3.031-18.098z" fill="#fbbc05"/><path d="M-1089.333-727.244c14.028 0 26.497 4.849 36.455 14.201l27.276-27.276c-16.539-15.413-38.013-24.852-63.731-24.852-37.234 0-69.359 21.388-85.032 52.561l31.692 24.592c7.533-22.514 28.575-39.226 53.34-39.226z" fill="#ea4335" clip-path="none" mask="none"/></g></symbol>
</svg>