<svg width="24" height="24" viewBox="0 0 24 24" fill="none" xmlns="http://www.w3.org/2000/svg">
<g clip-path="url(#clip0_1294_118811)">
<path d="M19.708 23.5916C14.5862 24.1381 9.42075 24.1381 4.29892 23.5916C3.3043 23.4866 2.37575 23.0438 1.66804 22.3371C0.960338 21.6304 0.516254 20.7025 0.409826 19.708C-0.136609 14.5862 -0.136609 9.42075 0.409826 4.29892C0.514858 3.3043 0.957639 2.37575 1.66435 1.66804C2.37106 0.960338 3.299 0.516254 4.29346 0.409826C9.41529 -0.136609 14.5807 -0.136609 19.7026 0.409826C20.6972 0.514858 21.6257 0.957639 22.3334 1.66435C23.0411 2.37106 23.4852 3.299 23.5916 4.29346C24.1381 9.41529 24.1381 14.5807 23.5916 19.7026C23.4866 20.6972 23.0438 21.6257 22.3371 22.3334C21.6304 23.0411 20.7025 23.4852 19.708 23.5916Z" fill="#00B2EF"/>
<path d="M23.592 19.6774C23.4852 20.6695 23.0416 21.595 22.3352 22.2998C21.6287 23.0045 20.7021 23.4458 19.7097 23.5501C17.0601 23.832 14.397 23.9686 11.7324 23.9592L4.91016 17.1478L8.7897 16.5124L7.3497 15.0833L7.98516 14.6197L6.95561 13.5451L6.16743 12.7597L12.8192 11.0988L19.3511 6.34375L23.9874 10.9733C24.0307 13.88 23.8986 16.7866 23.592 19.6774Z" fill="#008FBF"/>
<path d="M19.7453 7.59694C19.3892 8.12877 18.9558 8.60447 18.4593 9.0083C18.3949 9.05952 18.343 9.12465 18.3073 9.1988C18.2717 9.27295 18.2532 9.35421 18.2534 9.43649V9.48694C18.2478 10.5586 18.051 11.6207 17.6725 12.6233C17.2826 13.6742 16.7035 14.6447 15.9639 15.4869C14.9745 16.6149 13.7 17.456 12.2739 17.9224C11.3342 18.2274 10.3518 18.3802 9.36389 18.3751C7.79932 18.3735 6.26294 17.9586 4.91025 17.1724C4.86181 17.1449 4.82373 17.1022 4.80181 17.051C4.77989 16.9998 4.77535 16.9428 4.78889 16.8888C4.8026 16.8353 4.83383 16.788 4.87758 16.7544C4.92133 16.7208 4.97508 16.7028 5.03025 16.7033H5.40389C6.59311 16.7031 7.75512 16.3474 8.74071 15.6819C8.1532 15.5859 7.60346 15.33 7.15174 14.9423C6.70002 14.5545 6.36376 14.0499 6.1798 13.4838C6.17077 13.4558 6.16916 13.4261 6.17513 13.3973C6.18109 13.3686 6.19443 13.3419 6.21382 13.3199C6.23322 13.2979 6.25801 13.2813 6.28575 13.2718C6.3135 13.2623 6.34324 13.2601 6.37207 13.2656C6.55188 13.2998 6.73449 13.3171 6.91752 13.3174H6.98571C6.41626 13.0557 5.93483 12.6347 5.59965 12.1052C5.26447 11.5757 5.08991 10.9604 5.09707 10.3338C5.09746 10.3044 5.10544 10.2756 5.12025 10.2502C5.13506 10.2248 5.15618 10.2036 5.18157 10.1888C5.20696 10.174 5.23575 10.166 5.26515 10.1656C5.29455 10.1652 5.32355 10.1724 5.34934 10.1865C5.58039 10.3155 5.8282 10.4119 6.08571 10.4728C5.57578 9.96872 5.24758 9.3096 5.15256 8.59886C5.05755 7.88813 5.2011 7.16595 5.56071 6.54558C5.5745 6.52272 5.59351 6.50345 5.61619 6.48935C5.63886 6.47525 5.66455 6.46672 5.69116 6.46445C5.71776 6.46219 5.74453 6.46626 5.76926 6.47634C5.79398 6.48641 5.81598 6.50219 5.83343 6.5224C6.54762 7.40525 7.43189 8.13563 8.43377 8.67019C9.43565 9.20474 10.5347 9.53257 11.6657 9.63421H11.678C11.6947 9.63366 11.7112 9.62976 11.7264 9.62273C11.7417 9.61571 11.7553 9.6057 11.7666 9.5933C11.7775 9.5809 11.7856 9.56637 11.7906 9.55064C11.7955 9.53491 11.7971 9.51832 11.7953 9.50194C11.753 9.10593 11.7789 8.70561 11.8716 8.3183C11.9529 7.97924 12.0912 7.65646 12.2807 7.36376C12.6783 6.73925 13.2841 6.27553 13.9907 6.05467C14.3222 5.95074 14.6674 5.89742 15.0148 5.89649C15.8026 5.89571 16.5634 6.1828 17.1543 6.70376C17.2296 6.77067 17.3264 6.8084 17.4271 6.81012C17.4602 6.80957 17.4932 6.80499 17.5253 6.79649C18.0808 6.65595 18.6131 6.43595 19.1057 6.1433C19.1354 6.12617 19.1695 6.11837 19.2036 6.12092C19.2378 6.12346 19.2704 6.13624 19.2972 6.15758C19.324 6.17892 19.3437 6.20784 19.3538 6.24056C19.3639 6.27329 19.364 6.3083 19.3539 6.34103C19.1886 6.85714 18.896 7.3233 18.503 7.69649C18.8574 7.61183 19.2034 7.49498 19.5366 7.34739C19.5702 7.33243 19.6078 7.32882 19.6436 7.33712C19.6794 7.34542 19.7116 7.36517 19.7352 7.39339C19.7587 7.4216 19.7725 7.45674 19.7743 7.49347C19.7761 7.53021 19.7659 7.56653 19.7453 7.59694Z" fill="white"/>
</g>
<defs>
<clipPath id="clip0_1294_118811">
<rect width="24" height="24" fill="white"/>
</clipPath>
</defs>
</svg>
