<svg width="24" height="24" viewBox="0 0 24 24" fill="none" xmlns="http://www.w3.org/2000/svg">
<g clip-path="url(#clip0_1294_118818)">
<path d="M19.708 23.5916C14.5862 24.1381 9.42075 24.1381 4.29892 23.5916C3.3043 23.4866 2.37575 23.0438 1.66804 22.3371C0.960338 21.6304 0.516254 20.7025 0.409826 19.708C-0.136609 14.5862 -0.136609 9.42075 0.409826 4.29892C0.514858 3.3043 0.957639 2.37575 1.66435 1.66804C2.37106 0.960338 3.299 0.516254 4.29346 0.409826C9.41529 -0.136609 14.5807 -0.136609 19.7026 0.409826C20.6972 0.514858 21.6257 0.957639 22.3334 1.66435C23.0411 2.37106 23.4852 3.299 23.5916 4.29346C24.1381 9.41529 24.1381 14.5807 23.5916 19.7026C23.4866 20.6972 23.0438 21.6257 22.3371 22.3334C21.6304 23.0411 20.7025 23.4852 19.708 23.5916Z" fill="#6F3FAA"/>
<path d="M18.9303 8.38007V8.36234C18.7694 7.71052 18.3494 7.03689 17.7985 6.46961C17.1548 5.80416 16.3353 5.28189 15.5526 5.1128H15.5362C13.202 4.66553 10.8041 4.66553 8.46983 5.1128H8.45347C6.99983 5.4278 5.42211 6.94689 5.07029 8.36234V8.38007C4.63803 10.3425 4.63803 12.3754 5.07029 14.3378V14.3542C5.3212 15.3633 6.19393 16.4242 7.20029 17.0651C7.52895 17.2792 7.8867 17.445 8.26256 17.5573V19.1364C8.26309 19.2626 8.30118 19.3858 8.37198 19.4903C8.44279 19.5947 8.54309 19.6758 8.66011 19.723C8.77712 19.7702 8.90556 19.7816 9.02905 19.7556C9.15253 19.7295 9.26547 19.6673 9.35347 19.5769L10.9544 17.9132C11.3007 17.9323 11.6498 17.9433 11.9962 17.9433C13.1819 17.9429 14.3648 17.8306 15.5294 17.6078H15.5457C16.9953 17.2914 18.5744 15.7723 18.9235 14.3569V14.3405C19.3584 12.3778 19.3607 10.3438 18.9303 8.38007ZM17.6635 14.046C17.4289 14.9692 16.2317 16.1187 15.2785 16.3301C14.0404 16.5672 12.7804 16.6701 11.5203 16.6369C11.508 16.6361 11.4957 16.6382 11.4844 16.6429C11.473 16.6477 11.4629 16.6549 11.4548 16.6642L10.2862 17.8642L9.04256 19.1392C9.02267 19.1602 8.99692 19.1748 8.96865 19.181C8.94038 19.1872 8.91089 19.1848 8.88401 19.1741C8.85712 19.1634 8.83407 19.1448 8.81785 19.1208C8.80163 19.0969 8.79297 19.0686 8.79302 19.0396V16.4214C8.79305 16.4004 8.7857 16.38 8.77224 16.3638C8.75879 16.3476 8.74008 16.3366 8.71938 16.3328C8.52057 16.2856 8.32889 16.2122 8.14938 16.1146C7.33938 15.6823 6.52256 14.796 6.33438 14.046C5.9446 12.2721 5.9446 10.4348 6.33438 8.66098C6.56756 7.74189 7.77165 6.59507 8.71802 6.38234C10.8852 5.96768 13.1113 5.96768 15.2785 6.38234C15.8035 6.49961 16.4035 6.89916 16.8726 7.39007C17.2585 7.78961 17.5544 8.25052 17.6635 8.66507C18.0527 10.4376 18.0527 12.2735 17.6635 14.046Z" fill="white"/>
<path d="M15.3132 14.1822C15.1361 14.5865 14.8315 14.9217 14.446 15.1367C14.325 15.1881 14.1994 15.2278 14.071 15.2554C13.925 15.2117 13.786 15.1817 13.6619 15.1285C12.6282 14.7263 11.6659 14.1604 10.8119 13.4526C10.5582 13.2363 10.3199 13.0025 10.0987 12.7531C9.55246 12.1241 9.09376 11.4241 8.73505 10.6722C8.5605 10.3163 8.41323 9.94808 8.26323 9.58126C8.12686 9.24717 8.32868 8.89945 8.53595 8.6499C8.73884 8.41847 8.9884 8.23258 9.26823 8.10445C9.3667 8.05496 9.47938 8.0415 9.58674 8.06641C9.69409 8.09132 9.78934 8.15302 9.85595 8.24081C10.2044 8.63225 10.5114 9.0586 10.7723 9.51308C10.8545 9.64523 10.8826 9.80395 10.8509 9.9563C10.8192 10.1086 10.73 10.2429 10.6019 10.3313C10.5337 10.379 10.4655 10.4335 10.4069 10.4867C10.3491 10.5295 10.2992 10.5821 10.2596 10.6422C10.2254 10.6984 10.2047 10.7617 10.199 10.8272C10.1933 10.8927 10.2028 10.9587 10.2269 11.0199C10.49 11.744 10.8896 12.3481 11.4869 12.7722C11.689 12.9151 11.9068 13.0345 12.136 13.1281C12.2856 13.2095 12.4538 13.2508 12.6241 13.2481C12.9214 13.2126 13.0196 12.884 13.2269 12.7149C13.322 12.637 13.4397 12.5919 13.5626 12.5862C13.6854 12.5806 13.8068 12.6147 13.9087 12.6835C14.1296 12.8199 14.3423 12.974 14.555 13.124C14.7655 13.2676 14.968 13.4224 15.1619 13.5876C15.2525 13.6535 15.3173 13.749 15.3449 13.8576C15.3726 13.9661 15.3614 14.081 15.3132 14.1822ZM12.391 7.64763H12.2164C12.2723 7.6449 12.331 7.64763 12.391 7.64763Z" fill="white"/>
<path d="M15.4081 11.7339C15.2717 11.7339 15.2049 11.618 15.1953 11.4912C15.1776 11.2416 15.164 10.9907 15.1299 10.7425C15.0709 10.3238 14.9251 9.92203 14.7017 9.563C14.4721 9.18897 14.1665 8.8673 13.8048 8.61878C13.4431 8.37027 13.0332 8.20043 12.6017 8.12027C12.4053 8.08481 12.2049 8.07663 12.0072 8.05618C11.8817 8.04254 11.7167 8.03436 11.6894 7.87891C11.6853 7.84871 11.6878 7.818 11.6965 7.78881C11.7053 7.75963 11.7201 7.73265 11.7401 7.70967C11.7601 7.6867 11.7848 7.66826 11.8125 7.65558C11.8402 7.64291 11.8703 7.63629 11.9008 7.63618C11.9335 7.63429 11.9663 7.63429 11.999 7.63618C12.595 7.64122 13.1806 7.79319 13.7039 8.07862C14.2272 8.36405 14.672 8.77413 14.999 9.27254C15.2571 9.67427 15.4323 10.1235 15.5144 10.5939C15.5662 10.8885 15.5853 11.1912 15.6085 11.4912C15.6132 11.5206 15.6115 11.5506 15.6037 11.5794C15.5958 11.6081 15.582 11.6348 15.563 11.6577C15.5441 11.6807 15.5204 11.6994 15.4937 11.7125C15.467 11.7256 15.4378 11.7329 15.4081 11.7339Z" fill="white"/>
<path d="M14.6709 11.0976C14.6701 11.1381 14.6646 11.1784 14.6545 11.2176C14.6426 11.257 14.6189 11.2918 14.5865 11.3173C14.5541 11.3427 14.5147 11.3576 14.4735 11.3598C14.4324 11.362 14.3916 11.3516 14.3566 11.3298C14.3217 11.308 14.2943 11.276 14.2782 11.2381C14.2632 11.183 14.2563 11.126 14.2577 11.069C14.2609 10.764 14.2005 10.4616 14.0804 10.1813C14.0532 10.1213 14.0232 10.0599 13.9891 10.0013C13.7939 9.66481 13.5042 9.39311 13.1559 9.21989C12.9458 9.12068 12.7227 9.05181 12.4932 9.01534C12.3923 8.99898 12.2914 8.98943 12.1904 8.9758C12.1642 8.97448 12.1385 8.96779 12.1149 8.95613C12.0913 8.94448 12.0704 8.92811 12.0534 8.90805C12.0364 8.88798 12.0237 8.86464 12.0161 8.83947C12.0084 8.8143 12.0061 8.78783 12.0091 8.76171C12.0091 8.73498 12.0148 8.70856 12.0257 8.68418C12.0367 8.6598 12.0526 8.63801 12.0726 8.62024C12.0925 8.60247 12.116 8.58912 12.1415 8.58107C12.167 8.57302 12.1939 8.57045 12.2204 8.57353C12.6208 8.58898 13.0131 8.69134 13.37 8.87353C13.8058 9.09283 14.1613 9.44405 14.3859 9.87716C14.5124 10.1301 14.5971 10.4017 14.6368 10.6817C14.6442 10.7182 14.6496 10.7551 14.6532 10.7922C14.66 10.874 14.6627 10.9558 14.6695 11.0567C14.6695 11.0663 14.6709 11.0785 14.6709 11.0976Z" fill="white"/>
<path d="M13.738 10.9105C13.7303 10.945 13.7124 10.9765 13.6867 11.0008C13.6609 11.0251 13.6284 11.0411 13.5935 11.0468H13.5635C13.5188 11.0497 13.4744 11.038 13.437 11.0134C13.3996 10.9888 13.3712 10.9526 13.3562 10.9105C13.3477 10.8881 13.3422 10.8647 13.3399 10.8409C13.3327 10.7492 13.319 10.658 13.2989 10.5682C13.2584 10.3863 13.1551 10.2246 13.0071 10.1114C12.9356 10.06 12.8558 10.0213 12.7712 9.99682C12.6635 9.96546 12.5503 9.97364 12.4439 9.94773C12.3914 9.93842 12.3446 9.90865 12.314 9.86494C12.2833 9.82124 12.2712 9.76716 12.2803 9.71455C12.2905 9.66416 12.3186 9.61919 12.3595 9.58807C12.4005 9.55694 12.4513 9.54179 12.5026 9.54546C13.1271 9.59046 13.5935 9.89046 13.7135 10.56C13.7258 10.6222 13.7345 10.685 13.7394 10.7482C13.747 10.802 13.7466 10.8567 13.738 10.9105Z" fill="white"/>
</g>
<defs>
<clipPath id="clip0_1294_118818">
<rect width="24" height="24" fill="white"/>
</clipPath>
</defs>
</svg>
