<svg width="12" height="12" viewBox="0 0 12 12" fill="none" xmlns="http://www.w3.org/2000/svg">
<path d="M9.78129 0H2.21871C1.63045 0.000567331 1.06644 0.234506 0.650473 0.650473C0.234506 1.06644 0.000567331 1.63045 0 2.21871V9.78129C0.000567331 10.3696 0.234506 10.9336 0.650473 11.3495C1.06644 11.7655 1.63045 11.9994 2.21871 12H9.78129C9.79843 12 9.81429 11.9953 9.83143 11.9949C9.8399 11.997 9.84849 11.9987 9.85714 12C9.88486 11.9972 9.91226 11.9919 9.939 11.9841C10.4973 11.9453 11.0202 11.6965 11.4025 11.2878C11.7848 10.8792 11.9983 10.3409 12 9.78129V2.21871C11.9994 1.63045 11.7655 1.06644 11.3495 0.650473C10.9336 0.234506 10.3696 0.000567331 9.78129 0ZM2.21871 0.857143H9.78129C10.1423 0.857483 10.4884 1.00104 10.7437 1.25631C10.999 1.51158 11.1425 1.85771 11.1429 2.21871V8.05114L9.21729 6.12557C9.13692 6.04523 9.02793 6.00009 8.91429 6.00009C8.80064 6.00009 8.69166 6.04523 8.61129 6.12557L6.81429 7.92257L3.08871 4.197C3.00835 4.11666 2.89936 4.07152 2.78571 4.07152C2.67207 4.07152 2.56308 4.11666 2.48271 4.197L0.857143 5.82257V2.21871C0.857483 1.85771 1.00104 1.51158 1.25631 1.25631C1.51158 1.00104 1.85771 0.857483 2.21871 0.857143ZM0.857143 9.78129V7.03457L2.78571 5.106L8.82257 11.1429H2.21871C1.85771 11.1425 1.51158 10.999 1.25631 10.7437C1.00104 10.4884 0.857483 10.1423 0.857143 9.78129ZM10.0114 11.1197L7.42029 8.52857L8.91429 7.03457L11.1429 9.26314V9.78129C11.142 10.1019 11.0281 10.4119 10.8211 10.6567C10.6141 10.9016 10.3274 11.0655 10.0114 11.1197Z" fill="#999999"/>
<path d="M8.78125 4.71484C9.07792 4.71484 9.36793 4.62687 9.61461 4.46205C9.86128 4.29723 10.0535 4.06296 10.1671 3.78887C10.2806 3.51478 10.3103 3.21318 10.2524 2.92221C10.1946 2.63124 10.0517 2.36396 9.84191 2.15418C9.63213 1.94441 9.36486 1.80154 9.07389 1.74367C8.78291 1.68579 8.48131 1.71549 8.20722 1.82903C7.93314 1.94256 7.69887 2.13482 7.53405 2.38149C7.36922 2.62816 7.28125 2.91817 7.28125 3.21484C7.28125 3.61267 7.43928 3.9942 7.72059 4.2755C8.00189 4.55681 8.38343 4.71484 8.78125 4.71484ZM8.78125 2.57199C8.9084 2.57199 9.03268 2.60969 9.1384 2.68033C9.24412 2.75097 9.32652 2.85137 9.37517 2.96883C9.42383 3.0863 9.43656 3.21556 9.41175 3.34026C9.38695 3.46496 9.32572 3.57951 9.23582 3.66941C9.14591 3.75932 9.03137 3.82054 8.90666 3.84535C8.78196 3.87015 8.65271 3.85742 8.53524 3.80877C8.41777 3.76011 8.31737 3.67771 8.24673 3.572C8.1761 3.46628 8.13839 3.34199 8.13839 3.21484C8.13839 3.04435 8.20612 2.88083 8.32668 2.76028C8.44724 2.63972 8.61075 2.57199 8.78125 2.57199Z" fill="#999999"/>
</svg>
