<svg width="18" height="18" viewBox="0 0 18 18" fill="none" xmlns="http://www.w3.org/2000/svg">
<path fill-rule="evenodd" clip-rule="evenodd" d="M2.7052 1.60274C2.7052 2.02781 2.5627 2.43548 2.30903 2.73605C2.05537 3.03662 1.71133 3.20548 1.3526 3.20548C0.993869 3.20548 0.64983 3.03662 0.396168 2.73605C0.142506 2.43548 0 2.02781 0 1.60274C0 1.17767 0.142506 0.770004 0.396168 0.469432C0.64983 0.16886 0.993869 0 1.3526 0C1.71133 0 2.05537 0.16886 2.30903 0.469432C2.5627 0.770004 2.7052 1.17767 2.7052 1.60274ZM4.47399 1.60274C4.47399 1.27576 4.58361 0.962174 4.77873 0.730965C4.97386 0.499756 5.2385 0.369863 5.51445 0.369863H16.9595C17.2355 0.369863 17.5001 0.499756 17.6953 0.730965C17.8904 0.962174 18 1.27576 18 1.60274C18 1.92972 17.8904 2.24331 17.6953 2.47452C17.5001 2.70572 17.2355 2.83562 16.9595 2.83562H5.51445C5.2385 2.83562 4.97386 2.70572 4.77873 2.47452C4.58361 2.24331 4.47399 1.92972 4.47399 1.60274ZM5.51445 7.76712C5.2385 7.76712 4.97386 7.89702 4.77873 8.12823C4.58361 8.35944 4.47399 8.67302 4.47399 9C4.47399 9.32698 4.58361 9.64057 4.77873 9.87178C4.97386 10.103 5.2385 10.2329 5.51445 10.2329H16.9595C17.2355 10.2329 17.5001 10.103 17.6953 9.87178C17.8904 9.64057 18 9.32698 18 9C18 8.67302 17.8904 8.35944 17.6953 8.12823C17.5001 7.89702 17.2355 7.76712 16.9595 7.76712H5.51445ZM5.51445 15.1644C5.2385 15.1644 4.97386 15.2943 4.77873 15.5255C4.58361 15.7567 4.47399 16.0703 4.47399 16.3973C4.47399 16.7242 4.58361 17.0378 4.77873 17.269C4.97386 17.5002 5.2385 17.6301 5.51445 17.6301H16.9595C17.2355 17.6301 17.5001 17.5002 17.6953 17.269C17.8904 17.0378 18 16.7242 18 16.3973C18 16.0703 17.8904 15.7567 17.6953 15.5255C17.5001 15.2943 17.2355 15.1644 16.9595 15.1644H5.51445ZM1.3526 10.6027C1.53023 10.6027 1.70611 10.5613 1.87022 10.4807C2.03432 10.4002 2.18343 10.2821 2.30903 10.1333C2.43464 9.98448 2.53427 9.8078 2.60224 9.61334C2.67022 9.41889 2.7052 9.21048 2.7052 9C2.7052 8.78953 2.67022 8.58111 2.60224 8.38666C2.53427 8.19221 2.43464 8.01552 2.30903 7.86669C2.18343 7.71786 2.03432 7.59981 1.87022 7.51926C1.70611 7.43872 1.53023 7.39726 1.3526 7.39726C0.993869 7.39726 0.64983 7.56612 0.396168 7.86669C0.142506 8.16726 2.48066e-07 8.57493 2.48066e-07 9C2.48066e-07 9.42507 0.142506 9.83274 0.396168 10.1333C0.64983 10.4339 0.993869 10.6027 1.3526 10.6027ZM2.7052 16.3973C2.7052 16.8223 2.5627 17.23 2.30903 17.5306C2.05537 17.8311 1.71133 18 1.3526 18C0.993869 18 0.64983 17.8311 0.396168 17.5306C0.142506 17.23 0 16.8223 0 16.3973C0 15.9722 0.142506 15.5645 0.396168 15.264C0.64983 14.9634 0.993869 14.7945 1.3526 14.7945C1.71133 14.7945 2.05537 14.9634 2.30903 15.264C2.5627 15.5645 2.7052 15.9722 2.7052 16.3973Z" fill="#999999"/>
</svg>
