<svg width="12" height="12" viewBox="0 0 12 12" fill="none" xmlns="http://www.w3.org/2000/svg">
<path d="M10.9213 0.970589C11.5955 1.94118 12 3 12 4.76471C12 7.85294 10.3146 10.5882 7.95506 12L7.34831 10.8529C9.57303 9.26471 10.0449 7.23529 10.1798 5.91177C9.8427 6.17647 9.37079 6.26471 8.89888 6.17647C7.68539 6 6.74157 4.76471 6.74157 3.08824C6.74157 2.29412 7.01124 1.5 7.41573 0.882353C7.88764 0.264706 8.42697 0 9.10112 0C9.8427 0 10.5169 0.441177 10.9213 0.970589ZM4.17978 0.970589C4.85393 1.94118 5.25843 3 5.25843 4.76471C5.25843 7.85294 3.57303 10.5882 1.21348 12L0.606742 10.8529C2.83146 9.26471 3.30337 7.23529 3.4382 5.91177C3.10112 6.17647 2.62921 6.26471 2.1573 6.17647C0.94382 6 0 4.67647 0 3.08824C0 2.29412 0.269663 1.5 0.674157 0.882353C1.14607 0.264706 1.68539 0 2.35955 0C3.10112 0 3.77528 0.441177 4.17978 0.970589Z" fill="#999999"/>
</svg>
