<svg width="10" height="12" viewBox="0 0 10 12" fill="none" xmlns="http://www.w3.org/2000/svg">
<path d="M9.62379 0.000976562H0.393023C0.201844 0.000976562 0.046875 0.155969 0.046875 0.347125V1.32569C0.046875 1.51687 0.201867 1.67184 0.393023 1.67184H9.62379C9.81497 1.67184 9.96994 1.51684 9.96994 1.32569V0.347125C9.96994 0.155969 9.81497 0.000976562 9.62379 0.000976562ZM9.62379 2.58325H2.7007C2.50952 2.58325 2.35455 2.73824 2.35455 2.9294V3.90796C2.35455 4.09914 2.50955 4.25411 2.7007 4.25411H9.62379C9.81497 4.25411 9.96994 4.09912 9.96994 3.90796V2.9294C9.96994 2.73824 9.81497 2.58325 9.62379 2.58325ZM9.62379 5.16555H0.393023C0.201844 5.16555 0.046875 5.32054 0.046875 5.51169V6.49026C0.046875 6.68144 0.201867 6.83641 0.393023 6.83641H9.62379C9.81497 6.83641 9.96994 6.68141 9.96994 6.49026V5.51169C9.96994 5.32054 9.81497 5.16555 9.62379 5.16555ZM9.62379 7.74782H2.7007C2.50952 7.74782 2.35455 7.90281 2.35455 8.09397V9.07253C2.35455 9.26371 2.50955 9.41868 2.7007 9.41868H9.62379C9.81497 9.41868 9.96994 9.26369 9.96994 9.07253V8.09397C9.96994 7.90281 9.81497 7.74782 9.62379 7.74782ZM9.62379 10.3301H0.393023C0.201844 10.3301 0.046875 10.4851 0.046875 10.6763V11.6548C0.046875 11.846 0.201867 12.001 0.393023 12.001H9.62379C9.81497 12.001 9.96994 11.846 9.96994 11.6548V10.6763C9.96994 10.4851 9.81497 10.3301 9.62379 10.3301Z" fill="#999999"/>
</svg>
