<svg width="20" height="18" viewBox="0 0 20 18" fill="none" xmlns="http://www.w3.org/2000/svg">
<path d="M19.5879 2.81656C19.3575 1.71519 18.6819 0.847012 17.8252 0.550442C16.2602 -3.83085e-08 9.99977 0 9.99977 0C9.99977 0 3.73963 0 2.17457 0.529594C1.33435 0.825843 0.642345 1.7154 0.411876 2.81656C0 4.82816 0 9.00004 0 9.00004C0 9.00004 0 13.1929 0.411876 15.1834C0.642564 16.2846 1.31788 17.1529 2.17469 17.4494C3.7561 18 10 18 10 18C10 18 16.2602 18 17.8252 17.4704C18.682 17.174 19.3575 16.3058 19.5882 15.2046C19.9999 13.1928 19.9999 9.02117 19.9999 9.02117C19.9999 9.02117 20.0164 4.82812 19.5879 2.81656ZM8.00658 12.8541V5.14586L13.2124 8.99996L8.00658 12.8541Z" fill="#999999"/>
</svg>
