<svg width="88" height="88" viewBox="0 0 88 88" fill="none" xmlns="http://www.w3.org/2000/svg">
<path d="M60.6797 81.8672H3.49375C3.46252 81.8672 3.43255 81.8549 3.41033 81.833C3.3881 81.811 3.37541 81.7812 3.375 81.75V59.1328L31.1812 31.3281C31.194 31.3152 31.2092 31.305 31.226 31.298C31.2428 31.291 31.2607 31.2874 31.2789 31.2874C31.2971 31.2874 31.315 31.291 31.3318 31.298C31.3486 31.305 31.3638 31.3152 31.3766 31.3281L56.7672 56.7188C56.9123 56.8639 57.0845 56.9791 57.2741 57.0577C57.4637 57.1363 57.6669 57.1768 57.8721 57.1769C58.0773 57.1769 58.2806 57.1366 58.4702 57.0581C58.6598 56.9797 58.8322 56.8646 58.9773 56.7195C59.1225 56.5745 59.2377 56.4022 59.3163 56.2126C59.3949 56.0231 59.4354 55.8198 59.4355 55.6146C59.4355 55.4094 59.3952 55.2061 59.3167 55.0165C59.2383 54.8269 59.1232 54.6545 58.9781 54.5094L52.1594 47.6906L64.6625 35.2031C64.6902 35.1809 64.7247 35.1688 64.7602 35.1688C64.7957 35.1688 64.8301 35.1809 64.8578 35.2031L81.8672 52.2297V60.525C81.8672 60.9394 82.0318 61.3368 82.3248 61.6299C82.6179 61.9229 83.0153 62.0875 83.4297 62.0875C83.8441 62.0875 84.2415 61.9229 84.5345 61.6299C84.8276 61.3368 84.9922 60.9394 84.9922 60.525V3.49375C84.991 2.63411 84.649 1.81 84.0413 1.20199C83.4336 0.593985 82.6096 0.251653 81.75 0.25H3.49375C2.63371 0.250827 1.80913 0.592844 1.20099 1.20099C0.592844 1.80913 0.250827 2.63371 0.25 3.49375V81.75C0.25124 82.6099 0.59339 83.4343 1.20144 84.0423C1.80949 84.6504 2.63384 84.9925 3.49375 84.9938H60.6797C61.0941 84.9938 61.4915 84.8291 61.7845 84.5361C62.0776 84.2431 62.2422 83.8456 62.2422 83.4313C62.2422 83.0168 62.0776 82.6194 61.7845 82.3264C61.4915 82.0334 61.0941 81.8672 60.6797 81.8672ZM3.49375 3.375H81.75C81.7815 3.375 81.8117 3.38751 81.834 3.40978C81.8562 3.43205 81.8688 3.46226 81.8688 3.49375V47.8078L67.0687 32.9937C66.7659 32.6907 66.4063 32.4502 66.0105 32.2861C65.6147 32.122 65.1905 32.0375 64.762 32.0373C64.3336 32.0372 63.9093 32.1214 63.5134 32.2853C63.1175 32.4491 62.7577 32.6893 62.4547 32.9922L49.9516 45.4781L33.5875 29.1156C32.9753 28.5045 32.1455 28.1613 31.2805 28.1613C30.4154 28.1613 29.5857 28.5045 28.9734 29.1156L3.375 54.7141V3.49531C3.37479 3.47959 3.37771 3.46398 3.38359 3.44939C3.38946 3.4348 3.39818 3.42152 3.40922 3.41033C3.42027 3.39914 3.43343 3.39025 3.44794 3.38419C3.46245 3.37812 3.47802 3.375 3.49375 3.375Z" fill="#999999"/>
<path d="M50.6328 30.5811C52.1749 30.5811 53.6823 30.1238 54.9645 29.267C56.2467 28.4103 57.2461 27.1926 57.8362 25.7679C58.4263 24.3432 58.5807 22.7755 58.2799 21.2631C57.979 19.7506 57.2365 18.3614 56.146 17.271C55.0556 16.1805 53.6664 15.438 52.1539 15.1371C50.6415 14.8363 49.0738 14.9907 47.6491 15.5808C46.2244 16.1709 45.0067 17.1703 44.1499 18.4525C43.2932 19.7347 42.8359 21.2421 42.8359 22.7842C42.8384 24.8513 43.6607 26.833 45.1223 28.2947C46.584 29.7563 48.5657 30.5786 50.6328 30.5811ZM50.6328 18.1123C51.5568 18.1123 52.4601 18.3863 53.2284 18.8997C53.9967 19.413 54.5955 20.1427 54.9491 20.9963C55.3027 21.85 55.3952 22.7894 55.2149 23.6956C55.0347 24.6019 54.5897 25.4343 53.9363 26.0877C53.283 26.7411 52.4505 27.186 51.5443 27.3663C50.638 27.5466 49.6986 27.454 48.845 27.1004C47.9913 26.7468 47.2616 26.148 46.7483 25.3797C46.2349 24.6115 45.9609 23.7082 45.9609 22.7842C45.9626 21.5456 46.4553 20.3583 47.3311 19.4825C48.2069 18.6067 49.3943 18.114 50.6328 18.1123ZM86.1875 74.5326H77.6594V66.0045C77.6594 65.5901 77.4948 65.1927 77.2017 64.8996C76.9087 64.6066 76.5113 64.442 76.0969 64.442C75.6825 64.442 75.285 64.6066 74.992 64.8996C74.699 65.1927 74.5344 65.5901 74.5344 66.0045V74.5326H66.0047C65.5903 74.5326 65.1929 74.6972 64.8998 74.9903C64.6068 75.2833 64.4422 75.6807 64.4422 76.0951C64.4422 76.5095 64.6068 76.907 64.8998 77.2C65.1929 77.493 65.5903 77.6576 66.0047 77.6576H74.5344V86.1873C74.5344 86.6017 74.699 86.9991 74.992 87.2922C75.285 87.5852 75.6825 87.7498 76.0969 87.7498C76.5113 87.7498 76.9087 87.5852 77.2017 87.2922C77.4948 86.9991 77.6594 86.6017 77.6594 86.1873V77.6592H86.1875C86.6019 77.6592 86.9993 77.4946 87.2924 77.2015C87.5854 76.9085 87.75 76.5111 87.75 76.0967C87.75 75.6823 87.5854 75.2849 87.2924 74.9918C86.9993 74.6988 86.6019 74.5326 86.1875 74.5326Z" fill="#999999"/>
</svg>
