<svg width="18" height="20" viewBox="0 0 18 20" fill="none" xmlns="http://www.w3.org/2000/svg">
<path d="M16.5716 4.88869C16.5435 4.60367 16.407 4.33916 16.189 4.14696C15.9711 3.95477 15.6872 3.84876 15.3932 3.84969H13.3239C13.227 2.79811 12.7294 1.81991 11.9292 1.10749C11.129 0.395066 10.0839 0 8.99961 0C7.91531 0 6.87026 0.395066 6.07001 1.10749C5.26977 1.81991 4.77226 2.79811 4.67535 3.84969H2.60602C2.31209 3.84874 2.02837 3.95465 1.81041 4.14668C1.59245 4.33871 1.45594 4.60304 1.42761 4.88792L0.00593866 18.731C-0.0106154 18.8914 0.00753225 19.0534 0.0592116 19.2065C0.110891 19.3597 0.194955 19.5006 0.305983 19.6201C0.417011 19.7397 0.552539 19.8353 0.703828 19.9007C0.855116 19.9661 1.01881 19.9999 1.18435 20H16.8149C16.9805 20.0001 17.1442 19.9663 17.2956 19.9009C17.447 19.8355 17.5826 19.74 17.6938 19.6204C17.8049 19.5008 17.889 19.3599 17.9407 19.2067C17.9925 19.0535 18.0106 18.8915 17.9941 18.731L16.5716 4.88869ZM8.99961 0.77344C9.87133 0.775932 10.7116 1.09098 11.3599 1.65842C12.0082 2.22586 12.4192 3.00594 12.5143 3.84969H5.4857C5.58082 3.00607 5.99166 2.2261 6.63981 1.65867C7.28796 1.09125 8.12801 0.776121 8.99961 0.77344ZM17.1079 19.104C17.071 19.1442 17.0259 19.1762 16.9753 19.1981C16.9248 19.22 16.8701 19.2312 16.8149 19.2309H1.18435C1.12912 19.231 1.0745 19.2198 1.02401 19.198C0.973516 19.1762 0.928276 19.1444 0.89121 19.1045C0.854143 19.0646 0.826075 19.0177 0.808817 18.9666C0.79156 18.9155 0.785496 18.8615 0.791018 18.808L2.21269 4.96483C2.22213 4.86991 2.2676 4.78184 2.34019 4.71783C2.41279 4.65383 2.5073 4.6185 2.60523 4.61875H15.3924C15.4905 4.61831 15.5852 4.65355 15.6579 4.71758C15.7307 4.7816 15.7763 4.86978 15.7857 4.96483L17.2074 18.808C17.2132 18.8614 17.2074 18.9153 17.1902 18.9664C17.1731 19.0174 17.145 19.0643 17.1079 19.104Z" fill="#424242"/>
<path d="M12.9472 6.9266C12.6711 6.92673 12.4038 7.02085 12.1915 7.19267C11.9792 7.36448 11.8353 7.60317 11.7847 7.86741C11.7341 8.13165 11.7799 8.40481 11.9144 8.63959C12.0488 8.87438 12.2633 9.05601 12.5207 9.15304C12.4481 10.0142 12.0455 10.8172 11.3929 11.4026C10.7403 11.988 9.88544 12.313 8.99811 12.313C8.11077 12.313 7.25589 11.988 6.60329 11.4026C5.95069 10.8172 5.54811 10.0142 5.47552 9.15304C5.73669 9.05577 5.95425 8.87192 6.08991 8.63383C6.22556 8.39574 6.27061 8.11869 6.21713 7.85144C6.16364 7.5842 6.01505 7.34389 5.79751 7.17282C5.57997 7.00175 5.30743 6.9109 5.02786 6.91624C4.74829 6.92158 4.47962 7.02278 4.26914 7.20203C4.05866 7.38128 3.91987 7.62708 3.8772 7.89616C3.83452 8.16525 3.89071 8.44037 4.03585 8.67308C4.181 8.9058 4.4058 9.08121 4.67069 9.16842C4.75158 10.2321 5.24261 11.2266 6.04525 11.9524C6.84788 12.6783 7.90273 13.0816 8.99811 13.0816C10.0935 13.0816 11.1483 12.6783 11.951 11.9524C12.7536 11.2266 13.2446 10.2321 13.3255 9.16842C13.5919 9.08181 13.818 8.90562 13.9631 8.67145C14.1082 8.43728 14.1628 8.16043 14.1173 7.89056C14.0717 7.62068 13.929 7.37543 13.7145 7.19878C13.5001 7.02213 13.2281 6.92564 12.9472 6.9266ZM5.04901 7.69566C5.12712 7.69566 5.20347 7.71821 5.26841 7.76047C5.33336 7.80272 5.38397 7.86278 5.41386 7.93304C5.44375 8.0033 5.45157 8.08062 5.43633 8.15521C5.4211 8.2298 5.38349 8.29832 5.32826 8.3521C5.27303 8.40588 5.20266 8.4425 5.12606 8.45734C5.04945 8.47217 4.97005 8.46456 4.89789 8.43545C4.82573 8.40635 4.76405 8.35706 4.72066 8.29383C4.67726 8.23059 4.6541 8.15625 4.6541 8.08019C4.6541 7.97821 4.69571 7.8804 4.76977 7.80829C4.84383 7.73618 4.94428 7.69566 5.04901 7.69566ZM12.9472 8.46473C12.8691 8.46473 12.7927 8.44217 12.7278 8.39992C12.6629 8.35767 12.6122 8.29761 12.5824 8.22735C12.5525 8.15708 12.5446 8.07977 12.5599 8.00518C12.5751 7.93058 12.6127 7.86207 12.668 7.80829C12.7232 7.75451 12.7936 7.71789 12.8702 7.70305C12.9468 7.68821 13.0262 7.69583 13.0983 7.72493C13.1705 7.75404 13.2322 7.80332 13.2756 7.86656C13.3189 7.9298 13.3421 8.00414 13.3421 8.08019C13.3421 8.18218 13.3005 8.27999 13.2264 8.3521C13.1524 8.42421 13.0519 8.46473 12.9472 8.46473Z" fill="#424242"/>
</svg>
