<svg width="14" height="16" viewBox="0 0 14 16" fill="none" xmlns="http://www.w3.org/2000/svg">
<path d="M9.35809 14.2233C9.2227 14.7319 8.91766 15.1824 8.49086 15.504C8.06407 15.8255 7.53968 16 7.00001 16C6.46034 16 5.93595 15.8255 5.50916 15.504C5.08236 15.1824 4.77732 14.7319 4.64193 14.2233H9.35809ZM13.5955 12.0489C13.0577 11.8199 12.1739 11.0672 12.1739 8.59325V5.92638C12.1739 3.61213 10.4699 1.68783 8.2174 1.2715L7.91305 1.2152V0.888957C7.91305 0.653191 7.81686 0.427081 7.64563 0.260369C7.4744 0.0936577 7.24216 0 7.00001 0C6.75786 0 6.52562 0.0936577 6.35439 0.260369C6.18316 0.427081 6.08697 0.653191 6.08697 0.888957V1.2152L5.78262 1.2715C3.53014 1.68783 1.8261 3.61213 1.8261 5.92638V8.59325C1.8261 11.0672 0.942279 11.8199 0.404497 12.0489C0.283273 12.1016 0.180448 12.1875 0.108609 12.2962C0.0367704 12.4049 -0.000966155 12.5316 1.88002e-05 12.6608C1.88002e-05 12.7493 0.0179123 12.8368 0.0526775 12.9186C0.0874428 13.0003 0.138399 13.0745 0.202637 13.1371C0.266875 13.1996 0.343136 13.2492 0.427067 13.2831C0.510998 13.3169 0.600954 13.3343 0.6918 13.3343H13.3079C13.4914 13.3343 13.6674 13.2634 13.7972 13.1371C13.927 13.0108 13.9999 12.8395 14 12.6608C14 12.3968 13.8442 12.1547 13.5955 12.0489Z" fill="#B73D25"/>
</svg>
