<svg width="14" height="16" viewBox="0 0 14 16" fill="none" xmlns="http://www.w3.org/2000/svg">
<path d="M13.4388 12.4169L13.4389 12.417C13.5378 12.4591 13.5999 12.5548 13.6 12.6606C13.6 12.7297 13.5719 12.7982 13.5182 12.8504C13.4642 12.903 13.3888 12.9343 13.3079 12.9343H0.6918C0.652022 12.9343 0.612872 12.9267 0.576676 12.9121L0.428086 13.2806L0.576672 12.9121C0.540491 12.8975 0.508302 12.8764 0.481676 12.8505C0.455068 12.8246 0.434548 12.7944 0.420752 12.762C0.406967 12.7296 0.400019 12.6952 0.40003 12.6608L0.400007 12.6578C0.399633 12.6087 0.413908 12.5597 0.442296 12.5168C0.470591 12.474 0.512076 12.4385 0.562915 12.4162C0.910118 12.2679 1.33498 11.9626 1.66778 11.3551C1.99745 10.7533 2.2261 9.87517 2.2261 8.59325V5.92638C2.2261 3.81632 3.78116 2.04821 5.85532 1.66484L5.85538 1.66483L6.15973 1.60853L6.48697 1.548V1.2152V0.888957C6.48697 0.76278 6.53835 0.639539 6.63343 0.546967L6.35439 0.260369L6.63343 0.546967C6.72887 0.454042 6.86054 0.4 7.00001 0.4C7.13948 0.4 7.27115 0.454042 7.36659 0.546967C7.46167 0.639539 7.51305 0.762781 7.51305 0.888957V1.2152V1.54799L7.84029 1.60853L8.14464 1.66483L8.1447 1.66484C10.2189 2.04821 11.7739 3.81632 11.7739 5.92638V8.59325C11.7739 9.87517 12.0026 10.7533 12.3322 11.3551C12.6656 11.9636 13.0913 12.2689 13.4388 12.4169ZM5.24233 14.6233H8.75769C8.62802 14.8381 8.45643 15.0291 8.25016 15.1845C7.89347 15.4532 7.45376 15.6 7.00001 15.6C6.54626 15.6 6.10655 15.4532 5.74986 15.1845C5.54359 15.0291 5.372 14.8381 5.24233 14.6233Z" stroke="#8B7AA8" stroke-width="0.8"/>
</svg>
