<svg width="18" height="22" viewBox="0 0 18 22" fill="none" xmlns="http://www.w3.org/2000/svg">
<path d="M17.3077 2.2H12.4615V0.733333C12.4615 0.538841 12.3886 0.352315 12.2588 0.214788C12.1289 0.0772617 11.9528 0 11.7692 0H6.23077C6.04716 0 5.87107 0.0772617 5.74123 0.214788C5.6114 0.352315 5.53846 0.538841 5.53846 0.733333V2.2H0.692308C0.508696 2.2 0.332605 2.27726 0.202772 2.41479C0.0729393 2.55232 0 2.73884 0 2.93333V5.13333C0 5.32783 0.0729393 5.51435 0.202772 5.65188C0.332605 5.7894 0.508696 5.86667 0.692308 5.86667H1.38462V19.0667C1.38462 20.6844 2.62662 22 4.15385 22H13.8462C15.3734 22 16.6154 20.6844 16.6154 19.0667V5.86667H17.3077C17.4913 5.86667 17.6674 5.7894 17.7972 5.65188C17.9271 5.51435 18 5.32783 18 5.13333V2.93333C18 2.73884 17.9271 2.55232 17.7972 2.41479C17.6674 2.27726 17.4913 2.2 17.3077 2.2ZM6.92308 1.46667H11.0769V2.2H6.92308V1.46667ZM15.2308 19.0667C15.2308 19.8755 14.6098 20.5333 13.8462 20.5333H4.15385C3.39023 20.5333 2.76923 19.8755 2.76923 19.0667V5.86667H15.2308V19.0667ZM16.6154 4.4H1.38462V3.66667H16.6154V4.4ZM8.30769 18.3333V8.06667C8.30769 7.87217 8.38063 7.68565 8.51046 7.54812C8.6403 7.4106 8.81639 7.33333 9 7.33333C9.18361 7.33333 9.3597 7.4106 9.48954 7.54812C9.61937 7.68565 9.69231 7.87217 9.69231 8.06667V18.3333C9.69231 18.5278 9.61937 18.7144 9.48954 18.8519C9.3597 18.9894 9.18361 19.0667 9 19.0667C8.81639 19.0667 8.6403 18.9894 8.51046 18.8519C8.38063 18.7144 8.30769 18.5278 8.30769 18.3333ZM4.84615 18.3333V8.06667C4.84615 7.87217 4.91909 7.68565 5.04893 7.54812C5.17876 7.4106 5.35485 7.33333 5.53846 7.33333C5.72207 7.33333 5.89816 7.4106 6.028 7.54812C6.15783 7.68565 6.23077 7.87217 6.23077 8.06667V18.3333C6.23077 18.5278 6.15783 18.7144 6.028 18.8519C5.89816 18.9894 5.72207 19.0667 5.53846 19.0667C5.35485 19.0667 5.17876 18.9894 5.04893 18.8519C4.91909 18.7144 4.84615 18.5278 4.84615 18.3333ZM11.7692 18.3333V8.06667C11.7692 7.87217 11.8422 7.68565 11.972 7.54812C12.1018 7.4106 12.2779 7.33333 12.4615 7.33333C12.6452 7.33333 12.8212 7.4106 12.9511 7.54812C13.0809 7.68565 13.1538 7.87217 13.1538 8.06667V18.3333C13.1538 18.5278 13.0809 18.7144 12.9511 18.8519C12.8212 18.9894 12.6452 19.0667 12.4615 19.0667C12.2779 19.0667 12.1018 18.9894 11.972 18.8519C11.8422 18.7144 11.7692 18.5278 11.7692 18.3333Z" fill="black"/>
</svg>
