<svg width="18" height="13" viewBox="0 0 18 13" fill="none" xmlns="http://www.w3.org/2000/svg">
<path d="M17.6306 12.099H0.369381C0.270844 12.101 0.176907 12.1493 0.107813 12.2336C0.0387192 12.3179 0 12.4313 0 12.5495C0 12.6677 0.0387192 12.7811 0.107813 12.8654C0.176907 12.9497 0.270844 12.998 0.369381 13H17.6306C17.7292 12.998 17.8231 12.9497 17.8922 12.8654C17.9613 12.7811 18 12.6677 18 12.5495C18 12.4313 17.9613 12.3179 17.8922 12.2336C17.8231 12.1493 17.7292 12.101 17.6306 12.099ZM17.6306 6.04951H0.369381C0.270844 6.0515 0.176907 6.09984 0.107813 6.18411C0.0387192 6.26838 0 6.38182 0 6.5C0 6.61818 0.0387192 6.73162 0.107813 6.81589C0.176907 6.90016 0.270844 6.9485 0.369381 6.9505H17.6306C17.7292 6.9485 17.8231 6.90016 17.8922 6.81589C17.9613 6.73162 18 6.61818 18 6.5C18 6.38182 17.9613 6.26838 17.8922 6.18411C17.8231 6.09984 17.7292 6.0515 17.6306 6.04951ZM17.6306 0H0.369381C0.270844 0.00199734 0.176907 0.0503383 0.107813 0.134605C0.0387192 0.218872 0 0.332318 0 0.450495C0 0.568672 0.0387192 0.682118 0.107813 0.766385C0.176907 0.850652 0.270844 0.898993 0.369381 0.90099H17.6306C17.7292 0.898993 17.8231 0.850652 17.8922 0.766385C17.9613 0.682118 18 0.568672 18 0.450495C18 0.332318 17.9613 0.218872 17.8922 0.134605C17.8231 0.0503383 17.7292 0.00199734 17.6306 0Z" fill="#212529"/>
</svg>
