<svg width="54" height="40" viewBox="0 0 54 40" fill="none" xmlns="http://www.w3.org/2000/svg">
<path fill-rule="evenodd" clip-rule="evenodd" d="M18.668 20.9492C18.3516 20.9492 18.0352 20.6328 18.0352 20.3164V17.7852C18.0352 17.4688 18.3516 17.1523 18.668 17.1523C18.9844 17.1523 19.3008 17.4688 19.3008 17.7852V20.3164C19.3008 20.6328 18.9844 20.9492 18.668 20.9492ZM9.80859 20.9492C9.49219 20.9492 9.17578 20.6328 9.17578 20.3164V17.3633C9.17578 16.9414 9.49219 16.7305 9.80859 16.7305C10.125 16.7305 10.4414 16.9414 10.4414 17.3633V20.3164C10.4414 20.6328 10.125 20.9492 9.80859 20.9492Z" fill="#424242"/>
<path fill-rule="evenodd" clip-rule="evenodd" d="M28.2656 39.6172H0.738281C0.316406 39.6172 0.105469 39.3008 0.105469 38.9844V27.6992C0.105469 23.2695 4.21875 19.6836 9.17578 19.6836H9.80859C10.125 19.6836 10.4414 20 10.4414 20.3164C10.4414 20.6328 10.125 20.9492 9.80859 20.9492H9.17578C4.85156 20.9492 1.37109 23.9023 1.37109 27.6992V38.3516H27.6328V27.6992C27.6328 23.9023 24.1523 20.9492 19.8281 20.9492H18.668C18.3516 20.9492 18.0352 20.6328 18.0352 20.3164C18.0352 20 18.3516 19.6836 18.668 19.6836H19.8281C24.7852 19.6836 28.8984 23.2695 28.8984 27.6992V38.9844C28.8984 39.3008 28.6875 39.6172 28.2656 39.6172Z" fill="#424242"/>
<path fill-rule="evenodd" clip-rule="evenodd" d="M14.5547 29.8076C14.2383 29.8076 14.0273 29.7021 13.9219 29.4912L9.28125 20.6318C9.07031 20.3154 9.17578 19.8936 9.49219 19.7881C9.80859 19.5771 10.2305 19.6826 10.3359 19.999L14.4492 27.8037L18.1406 19.999C18.2461 19.6826 18.668 19.5771 18.9844 19.6826C19.3008 19.8936 19.4062 20.21 19.1953 20.5264L15.082 29.4912C14.9766 29.7021 14.7656 29.8076 14.5547 29.8076ZM22.4648 39.6162C22.043 39.6162 21.832 39.2998 21.832 38.9834V20.6318C21.832 20.3154 22.043 19.999 22.4648 19.999C22.7812 19.999 23.0977 20.3154 23.0977 20.6318V38.9834C23.0977 39.2998 22.7812 39.6162 22.4648 39.6162ZM6.85547 39.6162C6.53906 39.6162 6.22266 39.2998 6.22266 38.9834V20.6318C6.22266 20.3154 6.53906 19.999 6.85547 19.999C7.27734 19.999 7.48828 20.3154 7.48828 20.6318V38.9834C7.48828 39.2998 7.27734 39.6162 6.85547 39.6162ZM20.9883 11.667C20.6719 11.667 20.4609 11.4561 20.3555 11.2451C19.7227 8.39746 17.6133 5.97168 15.3984 5.44434C14.0273 5.2334 12.8672 5.76074 11.918 7.02637C11.707 7.2373 11.4961 7.34277 11.1797 7.2373C10.9688 7.13184 10.7578 6.9209 10.7578 6.70996V5.86621C9.80859 6.60449 8.4375 8.18652 8.64844 11.0342C8.64844 11.3506 8.4375 11.667 8.12109 11.667C7.69922 11.667 7.38281 11.4561 7.38281 11.0342C7.27734 8.39746 8.22656 6.70996 9.17578 5.65527C10.125 4.60059 11.0742 4.17871 11.1797 4.17871C11.2852 4.07324 11.6016 4.07324 11.707 4.17871C11.918 4.28418 12.0234 4.49512 12.0234 4.70605V5.12793C13.0781 4.28418 14.3438 3.96777 15.7148 4.28418C18.3516 4.81152 20.8828 7.65918 21.6211 10.9287C21.6211 11.2451 21.4102 11.5615 21.0938 11.667H20.9883Z" fill="#424242"/>
<path fill-rule="evenodd" clip-rule="evenodd" d="M20.9872 11.6679C20.6708 11.6679 20.3544 11.3515 20.3544 11.0351L20.249 5.65619C20.038 4.28509 19.6162 3.33587 18.7724 2.914C17.6122 2.17572 15.8193 2.70306 15.8193 2.70306C15.6083 2.80853 15.3974 2.70306 15.2919 2.59759C15.2919 2.59759 13.288 1.2265 11.0732 1.75384C10.0185 1.96478 9.06928 2.59759 8.22553 3.75775H8.43647C8.54193 3.75775 8.75287 3.86322 8.85834 3.96869C8.96381 4.07416 9.06928 4.28509 9.06928 4.39056L8.75287 9.45306C8.6474 9.76947 8.43647 10.0859 8.01459 10.0859C7.69818 9.9804 7.48725 9.76947 7.48725 9.34759L7.69818 5.02337H7.06537C6.85443 5.02337 6.6435 4.91791 6.53803 4.70697C6.32709 4.49603 6.32709 4.28509 6.43256 4.07416C7.59272 2.07025 9.06928 0.910093 10.8622 0.488218C13.0771 -0.0391259 15.081 1.01556 15.7138 1.43744C16.4521 1.2265 18.0341 1.01556 19.5107 1.85931C20.5654 2.49212 21.3037 3.75775 21.5146 5.55072L21.6201 11.0351C21.6201 11.3515 21.3037 11.6679 20.9872 11.6679Z" fill="#424242"/>
<path fill-rule="evenodd" clip-rule="evenodd" d="M14.5547 20C10.5469 20 7.38281 16.8359 7.38281 12.8281V11.0352C7.38281 10.6133 7.69922 10.4023 8.01562 10.4023C8.33203 10.4023 8.64844 10.6133 8.64844 11.0352V12.8281C8.64844 16.0977 11.2852 18.7344 14.5547 18.7344C17.7188 18.7344 20.3555 16.0977 20.3555 12.8281V11.0352C20.3555 10.7188 20.6719 10.4023 20.9883 10.4023C21.3047 10.4023 21.6211 10.7188 21.6211 11.0352V12.8281C21.6211 16.8359 18.457 20 14.5547 20ZM49.5703 30.4414H33.8555C33.5391 30.4414 33.2227 30.125 33.2227 29.8086C33.2227 29.4922 33.5391 29.1758 33.8555 29.1758H49.1484L52.3125 20.3164C52.3125 20.2109 52.1016 20.1055 51.8906 20.1055H32.6953C32.3789 20.1055 32.0625 19.7891 32.0625 19.4727C32.0625 19.0508 32.3789 18.8398 32.6953 18.8398H51.8906C52.418 18.8398 53.0508 19.0508 53.3672 19.5781C53.5781 19.8945 53.6836 20.3164 53.4727 20.7383L50.2031 30.0195C50.0977 30.2305 49.8867 30.4414 49.5703 30.4414ZM29.3203 17.3633H24.6797C24.3633 17.3633 24.0469 17.1523 24.0469 16.7305V14.6211C24.0469 14.3047 24.3633 13.9883 24.6797 13.9883H29.3203C29.6367 13.9883 29.9531 14.3047 29.9531 14.6211V16.7305C29.9531 17.1523 29.6367 17.3633 29.3203 17.3633ZM25.3125 16.0977H28.6875V15.2539H25.3125V16.0977Z" fill="#424242"/>
<path fill-rule="evenodd" clip-rule="evenodd" d="M34.0664 32.6562C33.75 32.6562 33.5391 32.4453 33.4336 32.1289L31.6406 16.2031H29.3203C28.8984 16.2031 28.6875 15.8867 28.6875 15.5703C28.6875 15.1484 28.8984 14.9375 29.3203 14.9375H32.2734C32.5898 14.9375 32.8008 15.1484 32.9062 15.4648L34.6992 32.0234C34.8047 32.3398 34.4883 32.6562 34.1719 32.6562H34.0664Z" fill="#424242"/>
<path fill-rule="evenodd" clip-rule="evenodd" d="M35.2266 39.6172C32.9062 39.6172 31.0078 37.7188 31.0078 35.3984C31.0078 33.0781 32.9062 31.2852 35.2266 31.2852C37.5469 31.2852 39.4453 33.0781 39.4453 35.3984C39.4453 37.7188 37.5469 39.6172 35.2266 39.6172ZM35.2266 32.5508C33.6445 32.5508 32.2734 33.8164 32.2734 35.3984C32.2734 37.0859 33.6445 38.3516 35.2266 38.3516C36.9141 38.3516 38.1797 37.0859 38.1797 35.3984C38.1797 33.8164 36.9141 32.5508 35.2266 32.5508ZM49.7812 39.6172C47.4609 39.6172 45.5625 37.7188 45.5625 35.3984C45.5625 33.0781 47.4609 31.2852 49.7812 31.2852C52.1016 31.2852 53.8945 33.0781 53.8945 35.3984C53.8945 37.7188 52.1016 39.6172 49.7812 39.6172ZM49.7812 32.5508C48.0938 32.5508 46.8281 33.8164 46.8281 35.3984C46.8281 37.0859 48.0938 38.3516 49.7812 38.3516C51.3633 38.3516 52.6289 37.0859 52.6289 35.3984C52.6289 33.8164 51.3633 32.5508 49.7812 32.5508Z" fill="#424242"/>
<path fill-rule="evenodd" clip-rule="evenodd" d="M46.1953 36.5586H38.8125C38.4961 36.5586 38.1797 36.2422 38.1797 35.9258C38.1797 35.5039 38.4961 35.293 38.8125 35.293H46.1953C46.5117 35.293 46.8281 35.5039 46.8281 35.9258C46.8281 36.2422 46.5117 36.5586 46.1953 36.5586ZM49.7812 37.2969C48.7266 37.2969 47.8828 36.4531 47.8828 35.3984C47.8828 34.4492 48.7266 33.6055 49.7812 33.6055C50.7305 33.6055 51.5742 34.4492 51.5742 35.3984C51.5742 36.4531 50.7305 37.2969 49.7812 37.2969ZM49.7812 34.8711C49.3594 34.8711 49.1484 35.082 49.1484 35.3984C49.1484 35.8203 49.3594 36.0312 49.7812 36.0312C50.0977 36.0312 50.3086 35.8203 50.3086 35.3984C50.3086 35.082 50.0977 34.8711 49.7812 34.8711ZM35.2266 37.2969C34.1719 37.2969 33.3281 36.4531 33.3281 35.3984C33.3281 34.4492 34.1719 33.6055 35.2266 33.6055C36.2812 33.6055 37.125 34.4492 37.125 35.3984C37.125 36.4531 36.2812 37.2969 35.2266 37.2969ZM35.2266 34.8711C34.9102 34.8711 34.5938 35.082 34.5938 35.3984C34.5938 35.8203 34.9102 36.0312 35.2266 36.0312C35.6484 36.0312 35.8594 35.8203 35.8594 35.3984C35.8594 35.082 35.6484 34.8711 35.2266 34.8711ZM52.1016 23.4805H33.1172C32.6953 23.4805 32.4844 23.1641 32.4844 22.8477C32.4844 22.5312 32.6953 22.2148 33.1172 22.2148H52.1016C52.418 22.2148 52.7344 22.5312 52.7344 22.8477C52.7344 23.1641 52.418 23.4805 52.1016 23.4805ZM50.8359 26.9609H33.4336C33.1172 26.9609 32.8008 26.75 32.8008 26.3281C32.8008 26.0117 33.1172 25.6953 33.4336 25.6953H50.8359C51.1523 25.6953 51.4688 26.0117 51.4688 26.3281C51.4688 26.75 51.1523 26.9609 50.8359 26.9609ZM50.4141 13.6719H37.0195C36.4922 13.6719 36.0703 13.25 36.0703 12.7227V10.6133C36.0703 10.1914 36.4922 9.76953 37.0195 9.76953H50.4141C50.9414 9.76953 51.3633 10.1914 51.3633 10.6133V12.7227C51.3633 13.25 50.9414 13.6719 50.4141 13.6719ZM37.3359 12.4062H50.0977V11.0352H37.3359V12.4062Z" fill="#424242"/>
<path fill-rule="evenodd" clip-rule="evenodd" d="M48.7266 20.1058H38.707C38.1797 20.1058 37.8633 19.684 37.7578 19.2621L36.9141 13.1449C36.9141 12.934 36.9141 12.723 37.125 12.6176C37.2305 12.5121 37.3359 12.4066 37.5469 12.4066H49.8867C49.9922 12.4066 50.2031 12.5121 50.3086 12.6176C50.4141 12.723 50.5195 12.934 50.5195 13.1449L49.5703 19.2621C49.5703 19.684 49.1484 20.1058 48.7266 20.1058ZM39.0234 18.8402H48.4102L49.1484 13.6722H38.2852L39.0234 18.8402ZM39.4453 11.0355C39.3398 11.0355 39.2344 10.9301 39.1289 10.9301C38.8125 10.7191 38.707 10.2972 38.918 10.0863L41.7656 5.12927C41.8711 4.81287 42.293 4.7074 42.6094 4.91834C42.9258 5.0238 43.0312 5.44568 42.8203 5.76209L39.9727 10.7191C39.8672 10.8246 39.6562 11.0355 39.4453 11.0355ZM47.9883 11.0355C47.7773 11.0355 47.5664 10.8246 47.4609 10.7191L44.6133 5.76209C44.4023 5.44568 44.5078 5.0238 44.8242 4.91834C45.1406 4.7074 45.457 4.81287 45.668 5.12927L48.5156 10.0863C48.7266 10.2972 48.6211 10.7191 48.3047 10.9301C48.1992 10.9301 48.0938 11.0355 47.9883 11.0355Z" fill="#424242"/>
</svg>
