<svg width="15" height="14" viewBox="0 0 15 14" fill="none" xmlns="http://www.w3.org/2000/svg">
<path d="M13.3275 1.62266H12.9375V1.01105C12.9375 0.446687 12.4896 -0.0273438 11.925 -0.0273438H10.9519C10.3875 -0.0273438 9.93751 0.446657 9.93751 1.01105V1.62266H5.0625V1.01105C5.0625 0.446687 4.6125 -0.0273438 4.04811 -0.0273438H3.075C2.5104 -0.0273438 2.0625 0.446657 2.0625 1.01105V1.62266H1.6725C0.74823 1.62581 0.0006 2.37572 0 3.29984V12.1789C0.0015 13.1014 0.75 13.8482 1.6725 13.8477H13.3275C14.25 13.8483 14.9986 13.1014 15 12.1789V3.29984C14.9994 2.37572 14.2518 1.62584 13.3275 1.62266ZM10.6875 1.01105C10.6875 0.860117 10.8011 0.722657 10.9519 0.722657H11.925C12.0759 0.722657 12.1875 0.860117 12.1875 1.01105V3.27266H10.6875V1.01105ZM2.8125 1.01105C2.8125 0.860117 2.92395 0.722657 3.075 0.722657H4.04814C4.19895 0.722657 4.3125 0.860117 4.3125 1.01105V3.27266H2.8125V1.01105ZM1.6725 2.37266H2.0625V3.64238C2.05677 3.84665 2.21778 4.01693 2.42214 4.02266H4.69689C4.90209 4.01936 5.06589 3.85016 5.0625 3.64496V2.37266H9.93751V3.64238C9.93271 3.84758 10.0952 4.01798 10.3006 4.02266H12.5738C12.7781 4.01915 12.9409 3.85076 12.9375 3.64646V2.37266H13.3275C13.8376 2.37536 14.2499 2.7896 14.25 3.29984V4.92266H0.75V3.29984C0.75012 2.7896 1.16238 2.37536 1.6725 2.37266ZM13.3275 13.0977H1.6725C1.16415 13.0988 0.75105 12.6875 0.75 12.1792V5.67266H14.25V12.1789C14.249 12.6873 13.836 13.0986 13.3275 13.0977Z" fill="#212529"/>
</svg>
