<svg width="26" height="18" viewBox="0 0 26 18" fill="none" xmlns="http://www.w3.org/2000/svg">
<path d="M25.9362 2.65339C25.9037 2.60772 25.8606 2.57045 25.8106 2.54472C25.7605 2.51899 25.705 2.50555 25.6486 2.50553H5.56209L5.26602 1.32189C5.17211 0.944252 4.95299 0.60874 4.64374 0.369074C4.3345 0.129408 3.953 -0.000551492 3.56034 1.75914e-06H0.345511C0.253339 0.00155399 0.165473 0.0389105 0.100844 0.104022C0.0362161 0.169133 0 0.256787 0 0.348095C0 0.439404 0.0362161 0.527058 0.100844 0.592169C0.165473 0.65728 0.253339 0.694637 0.345511 0.696189H3.56034C4.05385 0.696189 4.46501 1.01495 4.58377 1.48937L7.71144 13.9923C7.80524 14.3699 8.0243 14.7055 8.33353 14.9452C8.64276 15.1848 9.02426 15.3148 9.41691 15.3142H9.53566C9.32929 15.5937 9.20597 15.9368 9.20597 16.3089C9.20597 17.2414 9.97177 18 10.9133 18C11.8548 18 12.6206 17.2414 12.6206 16.3089C12.6206 15.9369 12.4972 15.5937 12.2909 15.3142H17.0226C16.8163 15.5937 16.6929 15.9368 16.6929 16.3089C16.6929 17.2414 17.4587 18 18.4002 18C19.3417 18 20.1075 17.2414 20.1075 16.3089C20.1075 15.9369 19.9842 15.5937 19.7778 15.3142H21.2499C21.3421 15.3126 21.43 15.2753 21.4946 15.2101C21.5592 15.145 21.5954 15.0574 21.5954 14.9661C21.5954 14.8748 21.5592 14.7871 21.4946 14.722C21.43 14.6569 21.3421 14.6195 21.2499 14.618H9.41681C8.9233 14.618 8.51214 14.2994 8.39364 13.8249L8.1287 12.7658H21.187C21.9375 12.7658 22.5866 12.3139 22.8403 11.6146L25.9792 2.9715C25.9983 2.91895 26.0044 2.86261 25.9969 2.80724C25.9894 2.75188 25.9686 2.69911 25.9362 2.65339ZM11.9176 16.3089C11.9176 16.8574 11.4671 17.3038 10.9132 17.3038C10.3593 17.3038 9.90874 16.8574 9.90874 16.3089C9.90874 15.7604 10.3592 15.3141 10.9132 15.3141C11.4671 15.3142 11.9176 15.7604 11.9176 16.3089ZM19.4045 16.3089C19.4045 16.8574 18.954 17.3038 18.4 17.3038C17.8461 17.3038 17.3956 16.8574 17.3956 16.3089C17.3956 15.7604 17.8461 15.3141 18.4 15.3141C18.954 15.3141 19.4045 15.7604 19.4045 16.3089ZM14.8258 7.98377L14.5949 12.0696H11.6228L11.2272 7.98377H14.8258ZM11.1599 7.28758L10.7643 3.20172H15.0961L14.8652 7.28758H11.1599ZM15.53 7.98377H19.1228L18.2653 12.0696H15.2991L15.53 7.98377ZM15.5693 7.28758L15.8002 3.20172H20.1263L19.2688 7.28758H15.5693ZM10.0582 3.20172L10.4538 7.28758H6.75836L5.73626 3.20172H10.0582ZM6.93243 7.98377H10.5211L10.9167 12.0696H7.95453L6.93243 7.98377ZM22.1791 11.379C22.0245 11.8049 21.6442 12.0696 21.187 12.0696H18.9833L19.8407 7.98372H23.4121L22.1791 11.379ZM23.6649 7.28758H19.9868L20.8442 3.20172H25.1487L23.6649 7.28758Z" fill="#424242"/>
</svg>
