<svg width="15" height="8" viewBox="0 0 15 8" fill="none" xmlns="http://www.w3.org/2000/svg">
<path d="M10.6173 0.702391C10.3457 0.427771 9.90319 0.424307 9.62735 0.694672L4.45318 5.80849L2.20392 3.47995C1.93565 3.20035 1.49153 3.19117 1.21195 3.45944C0.932349 3.72771 0.923172 4.17184 1.19144 4.45141L1.19506 4.45515L3.93755 7.29725C4.00253 7.36355 4.08001 7.41628 4.16552 7.45241C4.25103 7.48854 4.34285 7.50734 4.43568 7.50772H4.4434C4.62735 7.50714 4.80372 7.43433 4.9345 7.30497L10.611 1.69232C10.8852 1.42035 10.888 0.977862 10.6173 0.702391ZM8.14701 7.29725C8.21183 7.36338 8.28909 7.41602 8.37434 7.45214C8.45959 7.48826 8.55115 7.50715 8.64374 7.50772H8.65146C8.83541 7.50714 9.01178 7.43433 9.14257 7.30497L14.8191 1.69232C15.0764 1.4026 15.0501 0.959173 14.7604 0.701875C14.4977 0.468613 14.1031 0.465544 13.8368 0.694672L8.66477 5.80849L8.48025 5.61696C8.21201 5.33735 7.76789 5.32815 7.48828 5.59641C7.20868 5.86465 7.19947 6.30878 7.46774 6.58838L7.47139 6.59215L8.14701 7.29725Z" fill="#679B00"/>
</svg>
