<svg width="22" height="12" viewBox="0 0 22 12" fill="none" xmlns="http://www.w3.org/2000/svg">
<path d="M11.6037 11.7468L21.7512 1.46972C22.0835 1.133 22.0829 0.587846 21.7495 0.251693C21.4161 -0.0842 20.876 -0.083332 20.5435 0.253429L11 9.91881L1.45647 0.253081C1.12389 -0.0836359 0.584166 -0.0845039 0.250729 0.251346C0.171162 0.331298 0.108044 0.426361 0.0650139 0.531059C0.0219841 0.635756 -0.000110626 0.748019 5.72205e-06 0.861378C-0.000133514 0.974327 0.0217896 1.08619 0.0645161 1.19057C0.107244 1.29496 0.169939 1.3898 0.24901 1.46967L10.3963 11.7468C10.556 11.909 10.7734 12 11 12C11.2265 12 11.4437 11.9087 11.6037 11.7468Z" fill="white"/>
</svg>
