<svg width="14" height="8" viewBox="0 0 14 8" fill="none" xmlns="http://www.w3.org/2000/svg">
<path d="M7.38418 7.83121L13.8417 0.979811C14.0531 0.755333 14.0528 0.391897 13.8406 0.167795C13.6284 -0.0561333 13.2847 -0.0555547 13.0731 0.168953L6.99997 6.61254L0.926842 0.168721C0.715201 -0.0557573 0.371738 -0.0563359 0.159552 0.167564C0.108917 0.220865 0.0687523 0.284241 0.0413694 0.354039C0.0139866 0.423837 -7.34329e-05 0.498679 9.53674e-07 0.574252C-8.7738e-05 0.649551 0.0138626 0.724129 0.0410528 0.793716C0.068243 0.863303 0.10814 0.926532 0.158458 0.979782L6.6158 7.83121C6.71746 7.93933 6.85582 8 6.99997 8C7.14413 8 7.28232 7.93916 7.38418 7.83121Z" fill="#212529"/>
</svg>
