<svg width="8" height="12" viewBox="0 0 8 12" fill="none" xmlns="http://www.w3.org/2000/svg">
<path d="M7.83121 5.6707L0.979811 0.1357C0.755333 -0.0455414 0.391897 -0.0452367 0.167795 0.136638C-0.0561333 0.318488 -0.0555547 0.613073 0.168953 0.794456L6.61254 6.00002L0.168721 11.2056C-0.0557573 11.387 -0.0563359 11.6814 0.167564 11.8632C0.220865 11.9066 0.284241 11.9411 0.354039 11.9645C0.423837 11.988 0.498679 12.0001 0.574252 12C0.649551 12.0001 0.724129 11.9881 0.793716 11.9648C0.863303 11.9415 0.926532 11.9073 0.979782 11.8642L7.83121 6.32932C7.93933 6.24218 8 6.12358 8 6.00002C8 5.87646 7.93916 5.75801 7.83121 5.6707Z" fill="#8B7AA8"/>
</svg>
