<svg width="20" height="20" viewBox="0 0 20 20" fill="none" xmlns="http://www.w3.org/2000/svg">
<path d="M9.99687 19.2008C15.0697 19.2008 19.1969 15.0736 19.1969 10.0008C19.1969 4.92798 15.0697 0.800781 9.99687 0.800781C4.92408 0.800781 0.796875 4.92798 0.796875 10.0008C0.796875 15.0736 4.92408 19.2008 9.99687 19.2008ZM9.99687 1.20078C14.8493 1.20078 18.7969 5.14838 18.7969 10.0008C18.7969 14.8532 14.8493 18.8008 9.99687 18.8008C5.14448 18.8008 1.19688 14.8532 1.19688 10.0008C1.19688 5.14838 5.14448 1.20078 9.99687 1.20078Z" fill="#424242"/>
<path d="M17.1986 10.2006H17.9066C17.9597 10.2006 18.0105 10.1795 18.048 10.142C18.0856 10.1045 18.1066 10.0536 18.1066 10.0006C18.1066 9.94753 18.0856 9.89666 18.048 9.85916C18.0105 9.82165 17.9597 9.80058 17.9066 9.80058H17.1986C17.1456 9.80058 17.0947 9.82165 17.0572 9.85916C17.0197 9.89666 16.9986 9.94753 16.9986 10.0006C16.9986 10.0536 17.0197 10.1045 17.0572 10.142C17.0947 10.1795 17.1456 10.2006 17.1986 10.2006ZM2.79862 9.80058H2.09062C2.03758 9.80058 1.98671 9.82165 1.9492 9.85916C1.9117 9.89666 1.89062 9.94753 1.89062 10.0006C1.89062 10.0536 1.9117 10.1045 1.9492 10.142C1.98671 10.1795 2.03758 10.2006 2.09062 10.2006H2.79862C2.85167 10.2006 2.90254 10.1795 2.94005 10.142C2.97755 10.1045 2.99862 10.0536 2.99862 10.0006C2.99862 9.94753 2.97755 9.89666 2.94005 9.85916C2.90254 9.82165 2.85167 9.80058 2.79862 9.80058ZM9.99862 3.00058C10.0517 3.00058 10.1025 2.97951 10.14 2.942C10.1776 2.90449 10.1986 2.85362 10.1986 2.80058V2.09258C10.1986 2.03953 10.1776 1.98866 10.14 1.95116C10.1025 1.91365 10.0517 1.89258 9.99862 1.89258C9.94558 1.89258 9.89471 1.91365 9.8572 1.95116C9.8197 1.98866 9.79862 2.03953 9.79862 2.09258V2.80058C9.79862 2.85362 9.8197 2.90449 9.8572 2.942C9.89471 2.97951 9.94558 3.00058 9.99862 3.00058ZM9.99862 18.1086C10.0517 18.1086 10.1025 18.0875 10.14 18.05C10.1776 18.0125 10.1986 17.9616 10.1986 17.9086V17.2006C10.1986 17.1475 10.1776 17.0967 10.14 17.0592C10.1025 17.0216 10.0517 17.0006 9.99862 17.0006C9.94558 17.0006 9.89471 17.0216 9.8572 17.0592C9.8197 17.0967 9.79862 17.1475 9.79862 17.2006V17.9086C9.79862 17.9616 9.8197 18.0125 9.8572 18.05C9.89471 18.0875 9.94558 18.1086 9.99862 18.1086ZM15.0906 5.10858C15.1169 5.10861 15.1429 5.10344 15.1672 5.09339C15.1914 5.08333 15.2135 5.06858 15.232 5.04998L15.732 4.54998C15.7506 4.53141 15.7653 4.50936 15.7754 4.4851C15.7854 4.46084 15.7906 4.43484 15.7906 4.40858C15.7906 4.38232 15.7854 4.35631 15.7754 4.33205C15.7653 4.30779 15.7506 4.28575 15.732 4.26718C15.7135 4.24861 15.6914 4.23388 15.6672 4.22383C15.6429 4.21378 15.6169 4.20861 15.5906 4.20861C15.5644 4.20861 15.5384 4.21378 15.5141 4.22383C15.4898 4.23388 15.4678 4.24861 15.4492 4.26718L14.9492 4.76718C14.9212 4.79511 14.902 4.83075 14.8943 4.86957C14.8865 4.9084 14.8904 4.94865 14.9056 4.98523C14.9207 5.02181 14.9464 5.05307 14.9794 5.07503C15.0123 5.09699 15.051 5.10867 15.0906 5.10858ZM4.40663 15.7926C4.43289 15.7926 4.45891 15.7874 4.48317 15.7774C4.50744 15.7673 4.52948 15.7526 4.54802 15.734L5.04802 15.234C5.06659 15.2154 5.08132 15.1934 5.09137 15.1691C5.10142 15.1448 5.10659 15.1188 5.10659 15.0926C5.10659 15.0663 5.10142 15.0403 5.09137 15.0161C5.08132 14.9918 5.06659 14.9697 5.04802 14.9512C5.02946 14.9326 5.00741 14.9179 4.98315 14.9078C4.95889 14.8978 4.93289 14.8926 4.90663 14.8926C4.88036 14.8926 4.85436 14.8978 4.8301 14.9078C4.80584 14.9179 4.78379 14.9326 4.76522 14.9512L4.26522 15.4512C4.23716 15.4791 4.21804 15.5147 4.21027 15.5536C4.2025 15.5924 4.20644 15.6327 4.22159 15.6692C4.23674 15.7058 4.26242 15.7371 4.29536 15.759C4.32831 15.781 4.36703 15.7927 4.40663 15.7926ZM4.76522 5.04998C4.78376 5.06861 4.80579 5.08341 4.83005 5.0935C4.85432 5.10359 4.88034 5.10879 4.90663 5.10879C4.93291 5.10879 4.95893 5.10359 4.9832 5.0935C5.00746 5.08341 5.02949 5.06861 5.04802 5.04998C5.06661 5.03142 5.08136 5.00938 5.09142 4.98512C5.10149 4.96085 5.10666 4.93484 5.10666 4.90858C5.10666 4.88231 5.10149 4.8563 5.09142 4.83204C5.08136 4.80778 5.06661 4.78574 5.04802 4.76718L4.54802 4.26718C4.52946 4.24861 4.50741 4.23388 4.48315 4.22383C4.45889 4.21378 4.43289 4.20861 4.40663 4.20861C4.38036 4.20861 4.35436 4.21378 4.3301 4.22383C4.30584 4.23388 4.28379 4.24861 4.26522 4.26718C4.24666 4.28575 4.23193 4.30779 4.22188 4.33205C4.21183 4.35631 4.20666 4.38232 4.20666 4.40858C4.20666 4.43484 4.21183 4.46084 4.22188 4.4851C4.23193 4.50936 4.24666 4.53141 4.26522 4.54998L4.76522 5.04998ZM15.4492 15.734C15.4678 15.7526 15.4898 15.7674 15.5141 15.7775C15.5383 15.7876 15.5643 15.7928 15.5906 15.7928C15.6169 15.7928 15.6429 15.7876 15.6672 15.7775C15.6915 15.7674 15.7135 15.7526 15.732 15.734C15.7506 15.7154 15.7654 15.6934 15.7754 15.6691C15.7855 15.6449 15.7907 15.6188 15.7907 15.5926C15.7907 15.5663 15.7855 15.5403 15.7754 15.516C15.7654 15.4918 15.7506 15.4697 15.732 15.4512L15.232 14.9512C15.2135 14.9326 15.1914 14.9179 15.1672 14.9078C15.1429 14.8978 15.1169 14.8926 15.0906 14.8926C15.0644 14.8926 15.0384 14.8978 15.0141 14.9078C14.9898 14.9179 14.9678 14.9326 14.9492 14.9512C14.9307 14.9697 14.9159 14.9918 14.9059 15.0161C14.8958 15.0403 14.8907 15.0663 14.8907 15.0926C14.8907 15.1188 14.8958 15.1448 14.9059 15.1691C14.9159 15.1934 14.9307 15.2154 14.9492 15.234L15.4492 15.734ZM12.067 12.3518C12.0856 12.3704 12.1076 12.3852 12.1319 12.3953C12.1561 12.4054 12.1821 12.4106 12.2084 12.4106C12.2347 12.4106 12.2607 12.4054 12.285 12.3953C12.3093 12.3852 12.3313 12.3704 12.3498 12.3518C12.3684 12.3332 12.3832 12.3112 12.3932 12.2869C12.4033 12.2627 12.4085 12.2366 12.4085 12.2104C12.4085 12.1841 12.4033 12.1581 12.3932 12.1338C12.3832 12.1096 12.3684 12.0875 12.3498 12.069L10.1986 9.91778V4.65858C10.1986 4.60553 10.1776 4.55466 10.14 4.51716C10.1025 4.47965 10.0517 4.45858 9.99862 4.45858C9.94558 4.45858 9.89471 4.47965 9.8572 4.51716C9.8197 4.55466 9.79862 4.60553 9.79862 4.65858V10.0006C9.79862 10.0536 9.81962 10.1046 9.85722 10.142L12.067 12.3518Z" fill="#424242"/>
</svg>
