<svg width="25" height="25" viewBox="0 0 25 25" fill="none" xmlns="http://www.w3.org/2000/svg">
<path d="M4.56872 24.0437C3.79123 24.0437 3.07033 23.5397 2.83198 22.7585L0.0791504 13.7354C-0.212823 12.7783 0.328327 11.7622 1.28532 11.4702L5.49386 10.1863V2.65999C5.49386 1.72046 6.25827 0.956055 7.19779 0.956055H23.296C24.2356 0.956055 25 1.72046 25 2.65999V12.315C25 13.2545 24.2356 14.0189 23.296 14.0189H20.5595L21.4893 17.0663C21.5595 17.2941 21.5838 17.5336 21.5608 17.7709C21.5378 18.0082 21.4679 18.2386 21.3553 18.4487C21.2438 18.6594 21.0917 18.846 20.9076 18.9975C20.7236 19.149 20.5113 19.2625 20.2831 19.3315L5.09715 23.9645C4.9259 24.017 4.74781 24.0436 4.56872 24.0437ZM1.83385 17.0423L3.51424 22.5503C3.69149 23.1311 4.30813 23.4598 4.88899 23.2823L20.0749 18.6492C20.6558 18.472 20.9841 17.8553 20.8069 17.2746L19.8334 14.0833H17.6374L17.9799 15.2009C18.0075 15.2914 17.9981 15.3891 17.9538 15.4726C17.9095 15.5561 17.8338 15.6186 17.7434 15.6464L5.02297 19.5445C4.93254 19.5722 4.83481 19.5629 4.75128 19.5185C4.66774 19.4742 4.60524 19.3985 4.57752 19.3081L4.17118 17.9819C4.14354 17.8915 4.15292 17.7938 4.19725 17.7103C4.24159 17.6268 4.31725 17.5643 4.40764 17.5365L15.676 14.0832H11.4811L1.83385 17.0423ZM4.95758 18.1139L5.15493 18.758L17.1935 15.0687L16.9961 14.4246L4.95758 18.1139ZM0.930225 14.0805L1.62568 16.36L9.04866 14.0832H7.30835C7.06891 14.0834 6.83182 14.036 6.61083 13.9438C6.38984 13.8516 6.18935 13.7165 6.02098 13.5462C5.77578 13.3123 5.60591 13.0106 5.53309 12.6796L0.930225 14.0805ZM5.49374 10.9319L1.49337 12.1525C0.956141 12.3163 0.634923 12.8561 0.729909 13.3958L5.49374 11.946V10.9319ZM6.52028 13.0373C6.70361 13.2098 6.94592 13.3059 7.19767 13.3057H23.296C23.8423 13.3057 24.2867 12.8613 24.2867 12.3151V2.65999C24.2867 2.11373 23.8423 1.66935 23.296 1.66935H7.19779C6.65153 1.66935 6.20715 2.11373 6.20715 2.65999V12.2686C6.20689 12.5559 6.31931 12.8319 6.52028 13.0373ZM22.8949 10.3873H20.3984C20.3038 10.3873 20.2131 10.3497 20.1462 10.2828C20.0793 10.216 20.0418 10.1252 20.0418 10.0307C20.0418 9.93607 20.0793 9.84535 20.1462 9.77847C20.2131 9.71159 20.3038 9.67401 20.3984 9.67401H22.8949C22.9895 9.67401 23.0802 9.71159 23.1471 9.77847C23.214 9.84535 23.2516 9.93607 23.2516 10.0307C23.2516 10.1252 23.214 10.216 23.1471 10.2828C23.0802 10.3497 22.9895 10.3873 22.8949 10.3873ZM18.6548 10.3873H16.1583C16.0637 10.3873 15.973 10.3497 15.9061 10.2828C15.8392 10.216 15.8016 10.1252 15.8016 10.0307C15.8016 9.93607 15.8392 9.84535 15.9061 9.77847C15.973 9.71159 16.0637 9.67401 16.1583 9.67401H18.6548C18.7494 9.67401 18.8401 9.71159 18.907 9.77847C18.9739 9.84535 19.0114 9.93607 19.0114 10.0307C19.0114 10.1252 18.9739 10.216 18.907 10.2828C18.8401 10.3497 18.7494 10.3873 18.6548 10.3873ZM14.4147 10.3873H11.9182C11.8236 10.3873 11.7329 10.3497 11.666 10.2828C11.5992 10.216 11.5616 10.1252 11.5616 10.0307C11.5616 9.93607 11.5992 9.84535 11.666 9.77847C11.7329 9.71159 11.8236 9.67401 11.9182 9.67401H14.4147C14.5093 9.67401 14.6 9.71159 14.6669 9.77847C14.7338 9.84535 14.7714 9.93607 14.7714 10.0307C14.7714 10.1252 14.7338 10.216 14.6669 10.2828C14.6 10.3497 14.5093 10.3873 14.4147 10.3873ZM10.1746 10.3873H7.67807C7.58348 10.3873 7.49277 10.3497 7.42589 10.2828C7.359 10.216 7.32143 10.1252 7.32143 10.0307C7.32143 9.93607 7.359 9.84535 7.42589 9.77847C7.49277 9.71159 7.58348 9.67401 7.67807 9.67401H10.1746C10.2692 9.67401 10.3599 9.71159 10.4268 9.77847C10.4937 9.84535 10.5312 9.93607 10.5312 10.0307C10.5312 10.1252 10.4937 10.216 10.4268 10.2828C10.3599 10.3497 10.2692 10.3873 10.1746 10.3873ZM9.58256 7.84418H8.2701C7.74702 7.84418 7.32143 7.41859 7.32143 6.89551V5.8207C7.32143 5.29762 7.74702 4.87214 8.2701 4.87214H9.58268C10.1058 4.87214 10.5312 5.29774 10.5312 5.8207V6.89551C10.5312 7.41859 10.1056 7.84418 9.58256 7.84418ZM8.2701 5.58543C8.14028 5.58543 8.03472 5.691 8.03472 5.8207V6.89551C8.03472 7.02532 8.14028 7.13089 8.2701 7.13089H9.58268C9.64507 7.1308 9.70487 7.10596 9.74897 7.06184C9.79308 7.01771 9.81788 6.95789 9.81794 6.89551V5.8207C9.81785 5.75833 9.79303 5.69854 9.74893 5.65444C9.70483 5.61034 9.64505 5.58552 9.58268 5.58543H8.2701Z" fill="black"/>
</svg>
