<svg width="16" height="16" viewBox="0 0 16 16" fill="none" xmlns="http://www.w3.org/2000/svg">
<path d="M15.9073 7.71737L14.5477 5.87222L14.5633 3.58003C14.564 3.47831 14.5321 3.37905 14.4723 3.29679C14.4125 3.21452 14.3279 3.15358 14.2309 3.1229L12.0457 2.43088L10.713 0.565729C10.5913 0.395266 10.3728 0.324974 10.1747 0.390859L8 1.11678L5.82533 0.390672C5.62705 0.324756 5.40857 0.395047 5.28702 0.565542L3.95445 2.43051L1.76912 3.1229C1.67216 3.15354 1.58757 3.21445 1.52775 3.29668C1.46793 3.37891 1.43603 3.47815 1.43673 3.57984L1.45235 5.87203L0.0927124 7.71718C0.0324836 7.79908 0 7.89809 0 7.99975C0 8.10142 0.0324836 8.20042 0.0927124 8.28233L1.45232 10.1275L1.4367 12.4197C1.43599 12.5214 1.46788 12.6206 1.5277 12.7029C1.58752 12.7852 1.67211 12.8461 1.76909 12.8768L3.95423 13.5688L5.28699 15.434C5.34622 15.5168 5.43046 15.5786 5.52735 15.61C5.62424 15.6415 5.72866 15.6411 5.82529 15.6088L7.99996 14.8829L10.1746 15.609C10.2713 15.6413 10.3757 15.6417 10.4726 15.6102C10.5695 15.5787 10.6537 15.517 10.7129 15.4342L12.0455 13.5692L14.2309 12.8768C14.3279 12.8462 14.4125 12.7853 14.4723 12.703C14.5321 12.6208 14.564 12.5216 14.5633 12.4199L14.5477 10.1275L15.9073 8.28236C15.9675 8.20048 16 8.1015 16 7.99986C16 7.89822 15.9675 7.79924 15.9073 7.71737ZM13.6869 9.68998C13.626 9.77272 13.5934 9.87295 13.5941 9.97571L13.6084 12.075L11.6065 12.7091C11.5082 12.7401 11.4226 12.8022 11.3628 12.8862L10.1427 14.5942L8.15083 13.9293C8.05293 13.8965 7.94703 13.8965 7.84913 13.9293L5.8573 14.5942L4.6369 12.886C4.57695 12.8022 4.49149 12.74 4.39327 12.7087L2.39153 12.0748L2.40581 9.97552C2.40651 9.87276 2.37397 9.77254 2.31305 9.68979L1.06758 7.99985L2.31292 6.30975C2.37385 6.227 2.40639 6.12677 2.40569 6.02402L2.3914 3.92477L4.39333 3.29067C4.49163 3.25967 4.57716 3.19748 4.63696 3.11352L5.85714 1.40551L7.84897 2.07046C7.94687 2.10321 8.05277 2.10321 8.15067 2.07046L10.1425 1.40551L11.3629 3.11371C11.4229 3.19756 11.5083 3.25977 11.6065 3.29105L13.6083 3.92495L13.594 6.02421C13.5933 6.12696 13.6258 6.22719 13.6868 6.30994L14.9325 7.99985L13.6869 9.68998Z" fill="#424242"/>
<path d="M10.3402 5.87763L7.10557 9.11249L5.6566 7.66352C5.47051 7.47743 5.16918 7.47743 4.98325 7.66352C4.79734 7.84961 4.79716 8.15094 4.98325 8.33687L6.76899 10.1226C6.86194 10.2156 6.98383 10.262 7.10575 10.262C7.22768 10.262 7.34938 10.2156 7.44252 10.1226L11.014 6.55117C11.2001 6.36507 11.2001 6.06375 11.014 5.87781C10.8279 5.69188 10.5261 5.69172 10.3402 5.87763Z" fill="#424242"/>
</svg>
