<svg width="20" height="18" viewBox="0 0 20 18" fill="none" xmlns="http://www.w3.org/2000/svg">
<path d="M18.378 1.63965C17.3298 0.589137 15.9154 0 14.4416 0C12.9679 0 11.5535 0.589137 10.5053 1.63965L9.91313 2.22624L9.33124 1.63965C8.27226 0.658505 6.88095 0.129254 5.44688 0.162042C4.01281 0.194831 2.64645 0.787132 1.63215 1.81568C0.617848 2.84422 0.0337514 4.22978 0.00141743 5.684C-0.0309166 7.13821 0.491003 8.54906 1.45856 9.62292L9.55031 17.8492C9.64701 17.9458 9.77735 18 9.91313 18C10.0489 18 10.1793 17.9458 10.276 17.8492L18.378 9.63333C19.4171 8.56993 20 7.13349 20 5.63649C20 4.13948 19.4171 2.70304 18.378 1.63965Z" fill="#8B7AA8"/>
</svg>
