<svg width="24" height="20" viewBox="0 0 24 20" fill="none" xmlns="http://www.w3.org/2000/svg">
<path d="M12 20C11.4251 20.0005 10.8622 19.8339 10.3782 19.52C9.00522 18.6272 6.36467 16.795 4.13108 14.5578C1.39002 11.81 0 9.2222 0 6.86442C0 5.22609 0.478902 3.72497 1.38508 2.52386C2.24439 1.38178 3.45826 0.565034 4.83169 0.204832C6.20511 -0.155371 7.65837 -0.0381202 8.95799 0.537747C10.1212 1.04553 11.1586 1.90164 12 3.03775C12.8414 1.89886 13.8788 1.04275 15.042 0.537747C16.3416 -0.0381202 17.7949 -0.155371 19.1683 0.204832C20.5417 0.565034 21.7556 1.38178 22.6149 2.52386C23.5211 3.72497 24 5.22609 24 6.86442C24 9.2222 22.61 11.8089 19.8689 14.5555C17.6353 16.7928 14.9959 18.625 13.6218 19.5178C13.1381 19.8325 12.5751 19.9998 12 20ZM6.40696 1.39219C5.97257 1.3918 5.54006 1.44971 5.12073 1.56442C4.06827 1.85671 3.13944 2.48973 2.47634 3.36664C1.75469 4.32331 1.373 5.53331 1.373 6.86665C1.373 8.83998 2.62572 11.0955 5.09712 13.5711C7.23899 15.7189 9.79112 17.4878 11.1202 18.3489C11.3826 18.5185 11.6875 18.6086 11.9989 18.6086C12.3103 18.6086 12.6152 18.5185 12.8776 18.3489C14.2067 17.4855 16.7566 15.7167 18.9007 13.5711C21.3721 11.0955 22.6248 8.83998 22.6248 6.86665C22.6248 5.53331 22.2431 4.32553 21.5215 3.36664C20.8584 2.48973 19.9295 1.85671 18.8771 1.56442C17.0005 1.04886 14.3638 1.58775 12.5898 4.64664C12.5294 4.75118 12.4429 4.83788 12.339 4.89813C12.2352 4.95838 12.1175 4.99008 11.9978 4.99008C11.8781 4.99008 11.7604 4.95838 11.6566 4.89813C11.5527 4.83788 11.4662 4.75118 11.4058 4.64664C10.0119 2.23886 8.08092 1.39219 6.40696 1.39219Z" fill="black"/>
</svg>
