<svg width="23" height="24" viewBox="0 0 23 24" fill="none" xmlns="http://www.w3.org/2000/svg">
<path d="M22.7378 10.5382L12.0587 0.227438C11.7476 -0.0758127 11.2514 -0.0758127 10.9403 0.227438L0.261607 10.5378C0.183801 10.6129 0.121921 10.7029 0.0796584 10.8024C0.0373962 10.9019 0.0156185 11.009 0.015625 11.1171C0.015625 11.5618 0.376144 11.9223 0.820805 11.9223H2.23993V23.1948C2.23993 23.6395 2.6004 24 3.04511 24H8.68137C9.12609 24 9.48655 23.6395 9.48655 23.1948V16.7534H13.5125V23.1948C13.5125 23.6395 13.8729 24 14.3176 24H19.9539C20.3986 24 20.7591 23.6395 20.7591 23.1948V11.9223H22.1782C22.3965 11.9223 22.6054 11.8337 22.7571 11.6767C23.0662 11.3569 23.0575 10.8472 22.7378 10.5382ZM20.7591 11.1171C20.3144 11.1171 19.9539 11.4776 19.9539 11.9223V23.1948H14.3176V16.7534C14.3176 16.3086 13.9572 15.9482 13.5125 15.9482H9.48655C9.04184 15.9482 8.68137 16.3086 8.68137 16.7534V23.1948H3.04511V11.9223C3.04511 11.4776 2.68465 11.1171 2.23993 11.1171H0.820805L11.4995 0.806765L22.1822 11.1171H20.7591Z" fill="#212529"/>
</svg>
