<svg width="20" height="18" viewBox="0 0 20 18" fill="none" xmlns="http://www.w3.org/2000/svg">
<path d="M16.0764 17.5526C15.9805 17.5526 15.8878 17.5186 15.8147 17.4566L11.761 14.0201H2.7802C1.24718 14.02 0 12.7659 0 11.2244V3.24489C0 1.70334 1.24718 0.449219 2.7802 0.449219H17.2198C18.7528 0.449219 20 1.70338 20 3.24489V11.2244C20 12.7659 18.7528 14.02 17.2198 14.02H16.4822V17.1445C16.4823 17.2221 16.4603 17.2982 16.4187 17.3637C16.3771 17.4293 16.3177 17.4816 16.2474 17.5146C16.1939 17.5396 16.1355 17.5526 16.0764 17.5526ZM2.7802 1.26555C1.69482 1.26555 0.811796 2.15346 0.811796 3.24489V11.2244C0.811796 12.3157 1.69482 13.2037 2.7802 13.2037H11.9093C12.0051 13.2038 12.0978 13.2378 12.1709 13.2998L15.6704 16.2665V13.6119C15.6704 13.3864 15.8522 13.2037 16.0763 13.2037H17.2198C18.3052 13.2037 19.1882 12.3157 19.1882 11.2244V3.24489C19.1882 2.15346 18.3052 1.26555 17.2198 1.26555H2.7802Z" fill="#212529"/>
<path d="M16.5394 5.01945H3.46447C3.24031 5.01945 3.05859 4.83668 3.05859 4.61129C3.05859 4.38586 3.24031 4.20312 3.46447 4.20312H16.5394C16.7635 4.20312 16.9452 4.38586 16.9452 4.61129C16.9452 4.83668 16.7636 5.01945 16.5394 5.01945ZM16.5394 7.63308H3.46447C3.24031 7.63308 3.05859 7.45031 3.05859 7.22492C3.05859 6.99949 3.24031 6.81676 3.46447 6.81676H16.5394C16.7635 6.81676 16.9452 6.99949 16.9452 7.22492C16.9452 7.45031 16.7636 7.63308 16.5394 7.63308ZM16.5394 10.2468H3.46447C3.24031 10.2468 3.05859 10.064 3.05859 9.83859C3.05859 9.61317 3.24031 9.43043 3.46447 9.43043H16.5394C16.7635 9.43043 16.9452 9.61312 16.9452 9.83859C16.9452 10.064 16.7636 10.2468 16.5394 10.2468Z" fill="#212529"/>
</svg>
