<svg width="20" height="18" viewBox="0 0 20 18" fill="none" xmlns="http://www.w3.org/2000/svg">
<path d="M18.7097 0H1.29032C0.948108 0 0.619909 0.145879 0.377927 0.405544C0.135944 0.66521 0 1.01739 0 1.38462V16.6154C0 16.9826 0.135944 17.3348 0.377927 17.5945C0.619909 17.8541 0.948108 18 1.29032 18H18.7097C19.0519 18 19.3801 17.8541 19.6221 17.5945C19.8641 17.3348 20 16.9826 20 16.6154V1.38462C20 1.01739 19.8641 0.66521 19.6221 0.405544C19.3801 0.145879 19.0519 0 18.7097 0ZM19.3548 16.6154C19.3548 16.799 19.2869 16.9751 19.1659 17.1049C19.0449 17.2348 18.8808 17.3077 18.7097 17.3077H1.29032C1.11922 17.3077 0.955116 17.2348 0.834125 17.1049C0.713133 16.9751 0.645161 16.799 0.645161 16.6154V1.38462C0.645161 1.201 0.713133 1.02491 0.834125 0.89508C0.955116 0.765247 1.11922 0.692308 1.29032 0.692308H18.7097C18.8808 0.692308 19.0449 0.765247 19.1659 0.89508C19.2869 1.02491 19.3548 1.201 19.3548 1.38462V16.6154Z" fill="#424242"/>
<path d="M18.3858 1.38477H1.61164C1.52609 1.38477 1.44404 1.42124 1.38354 1.48615C1.32305 1.55107 1.28906 1.63911 1.28906 1.73092V16.2694C1.28906 16.3612 1.32305 16.4492 1.38354 16.5141C1.44404 16.5791 1.52609 16.6155 1.61164 16.6155H18.3858C18.4714 16.6155 18.5534 16.5791 18.6139 16.5141C18.6744 16.4492 18.7084 16.3612 18.7084 16.2694V1.73092C18.7084 1.63911 18.6744 1.55107 18.6139 1.48615C18.5534 1.42124 18.4714 1.38477 18.3858 1.38477ZM18.0633 15.9232H1.93422V2.07707H18.0633V15.9232Z" fill="#424242"/>
<path d="M2.90461 10.0379H7.09816V14.1917C7.09816 14.2835 7.13215 14.3716 7.19264 14.4365C7.25314 14.5014 7.33519 14.5379 7.42074 14.5379H12.582C12.6676 14.5379 12.7496 14.5014 12.8101 14.4365C12.8706 14.3716 12.9046 14.2835 12.9046 14.1917V10.0379H17.0982C17.1837 10.0379 17.2658 10.0014 17.3263 9.93647C17.3868 9.87156 17.4207 9.78351 17.4207 9.69171V4.84555C17.4207 4.75375 17.3868 4.6657 17.3263 4.60078C17.2658 4.53587 17.1837 4.4994 17.0982 4.4994H15.4853V3.80709C15.4853 3.71529 15.4513 3.62724 15.3908 3.56232C15.3303 3.49741 15.2482 3.46094 15.1627 3.46094H13.8724C13.7868 3.46094 13.7048 3.49741 13.6443 3.56232C13.5838 3.62724 13.5498 3.71529 13.5498 3.80709V4.4994H11.9369C11.8513 4.4994 11.7693 4.53587 11.7088 4.60078C11.6483 4.6657 11.6143 4.75375 11.6143 4.84555V8.9994H10.9691V8.30709C10.9691 8.21529 10.9351 8.12724 10.8746 8.06232C10.8142 7.99741 10.7321 7.96094 10.6465 7.96094H9.35622C9.27067 7.96094 9.18862 7.99741 9.12813 8.06232C9.06763 8.12724 9.03364 8.21529 9.03364 8.30709V8.9994H8.38848V4.84555C8.38848 4.75375 8.3545 4.6657 8.294 4.60078C8.23351 4.53587 8.15146 4.4994 8.0659 4.4994H6.453V3.80709C6.453 3.71529 6.41901 3.62724 6.35852 3.56232C6.29802 3.49741 6.21597 3.46094 6.13042 3.46094H4.8401C4.75454 3.46094 4.67249 3.49741 4.612 3.56232C4.5515 3.62724 4.51752 3.71529 4.51752 3.80709V4.4994H2.90461C2.81906 4.4994 2.73701 4.53587 2.67651 4.60078C2.61602 4.6657 2.58203 4.75375 2.58203 4.84555V9.69171C2.58203 9.78351 2.61602 9.87156 2.67651 9.93647C2.73701 10.0014 2.81906 10.0379 2.90461 10.0379ZM14.1949 4.15325H14.8401V5.53786H14.1949V4.15325ZM12.2594 5.19171H13.5498V5.88401C13.5498 5.97582 13.5838 6.06387 13.6443 6.12878C13.7048 6.1937 13.7868 6.23017 13.8724 6.23017H15.1627C15.2482 6.23017 15.3303 6.1937 15.3908 6.12878C15.4513 6.06387 15.4853 5.97582 15.4853 5.88401V5.19171H16.7756V9.34555H12.9046C12.9046 9.25375 12.8706 9.1657 12.8101 9.10079C12.7496 9.03587 12.6676 8.9994 12.582 8.9994H12.2594V5.19171ZM9.67881 8.65325H10.324V10.0379H9.67881V8.65325ZM9.35622 10.7302H10.6465C10.7321 10.7302 10.8142 10.6937 10.8746 10.6288C10.9351 10.5639 10.9691 10.4758 10.9691 10.384V9.69171H12.2594V13.8456H7.74332V9.69171H9.03364V10.384C9.03364 10.4758 9.06763 10.5639 9.12813 10.6288C9.18862 10.6937 9.27067 10.7302 9.35622 10.7302ZM5.16268 4.15325H5.80784V5.53786H5.16268V4.15325ZM3.22719 5.19171H4.51752V5.88401C4.51752 5.97582 4.5515 6.06387 4.612 6.12878C4.67249 6.1937 4.75454 6.23017 4.8401 6.23017H6.13042C6.21597 6.23017 6.29802 6.1937 6.35852 6.12878C6.41901 6.06387 6.453 5.97582 6.453 5.88401V5.19171H7.74332V8.9994H7.42074C7.33519 8.9994 7.25314 9.03587 7.19264 9.10079C7.13215 9.1657 7.09816 9.25375 7.09816 9.34555H3.22719V5.19171Z" fill="#424242"/>
<path d="M3.87109 6.57812H7.0969V7.27043H3.87109V6.57812ZM3.87109 7.96274H5.80658V8.65505H3.87109V7.96274ZM6.45174 7.96274H7.0969V8.65505H6.45174V7.96274ZM8.38722 11.0781H11.613V11.7704H8.38722V11.0781ZM8.38722 12.4627H10.3227V13.155H8.38722V12.4627ZM10.9679 12.4627H11.613V13.155H10.9679V12.4627ZM12.9034 6.57812H16.1292V7.27043H12.9034V6.57812ZM12.9034 7.96274H14.8388V8.65505H12.9034V7.96274ZM15.484 7.96274H16.1292V8.65505H15.484V7.96274Z" fill="#424242"/>
</svg>
