<svg width="22" height="20" viewBox="0 0 22 20" fill="none" xmlns="http://www.w3.org/2000/svg">
<path d="M7.09777 15.351L6.87262 17.4148M10.9568 17.4148L10.7316 15.351M14.5984 13.6327H0.320312M17.5093 2.96407H0.320312M3.28902 1.24609H17.1142C17.3325 1.24609 17.5095 1.42312 17.5095 1.64098V6.19008M1.78512 1.24609H0.715195C0.497344 1.24609 0.320312 1.42312 0.320312 1.64098V14.9561C0.320312 15.174 0.497344 15.351 0.715195 15.351H14.5984M14.5984 17.2485H21.6758M21.6758 7.6939H19.0912C19.0531 7.6939 19.0178 7.71427 18.9988 7.74735L18.7796 8.12844C18.7663 8.15143 18.7473 8.17053 18.7243 8.1838C18.7014 8.19708 18.6753 8.20407 18.6488 8.20407H17.6253C17.5988 8.20407 17.5728 8.19708 17.5498 8.1838C17.5268 8.17053 17.5078 8.15143 17.4946 8.12844L17.2753 7.74735C17.266 7.73111 17.2525 7.71763 17.2363 7.70824C17.2201 7.69886 17.2017 7.69391 17.1829 7.6939H14.5984M4.57405 18.7524H13.2556C13.3263 18.7524 13.3804 18.691 13.3735 18.6206C13.3073 17.9438 12.7366 17.415 12.0425 17.415H5.7871C5.09294 17.415 4.52231 17.9438 4.4561 18.6206C4.44922 18.6909 4.50336 18.7524 4.57405 18.7524Z" stroke="#424242" stroke-width="0.644531" stroke-miterlimit="10" stroke-linecap="round" stroke-linejoin="round"/>
<path d="M21.6768 14.788V6.8765C21.6768 6.49679 21.3691 6.189 20.9893 6.189H15.2869C14.9072 6.189 14.5994 6.49679 14.5994 6.8765V18.064C14.5994 18.4437 14.9072 18.7515 15.2869 18.7515H20.9893C21.3691 18.7515 21.6768 18.4437 21.6768 18.064V16.2919M6.20797 10.4388C5.76088 10.4388 5.39844 10.8013 5.39844 11.2484C5.39844 11.6955 5.76088 12.058 6.20797 12.058C6.65506 12.058 7.01754 11.6955 7.01754 11.2484C7.0175 10.8013 6.65506 10.4388 6.20797 10.4388ZM6.20797 10.4388H11.1423C11.2284 10.4388 11.3109 10.4046 11.3718 10.3438C11.4327 10.2829 11.4669 10.2003 11.4669 10.1142V4.83162C11.4669 4.75351 11.4979 4.6786 11.5531 4.62337C11.6084 4.56814 11.6833 4.53711 11.7614 4.53711H12.835M10.1089 10.4388C9.6618 10.4388 9.29936 10.8013 9.29936 11.2484C9.29936 11.6955 9.6618 12.058 10.1089 12.058C10.556 12.058 10.9185 11.6955 10.9185 11.2484C10.9185 10.8013 10.556 10.4388 10.1089 10.4388Z" stroke="#424242" stroke-width="0.644531" stroke-miterlimit="10" stroke-linecap="round" stroke-linejoin="round"/>
<path d="M7.10064 5.36328L7.78041 9.20232M9.28144 5.36328L9.62132 9.20709M11.4621 7.28755H5.43169M11.4623 9.20525V5.36332H5.23339C5.07505 5.36332 4.95973 5.51337 5.00042 5.66638L5.83427 8.80181C5.89636 9.0353 6.10746 9.20464 6.34903 9.20525H11.4623ZM16.3012 12.0787V14.417C16.3012 14.6543 16.4935 14.8467 16.7308 14.8467H19.5362C19.7735 14.8467 19.9659 14.6543 19.9659 14.417V12.0787C19.9659 11.8413 19.7735 11.649 19.5362 11.649H16.7308C16.4935 11.649 16.3012 11.8413 16.3012 12.0787Z" stroke="#424242" stroke-width="0.644531" stroke-miterlimit="10" stroke-linecap="round" stroke-linejoin="round"/>
<path d="M17.3984 12.2715V10.8313C17.3984 10.4251 17.7277 10.0957 18.134 10.0957C18.5402 10.0957 18.8696 10.425 18.8696 10.8313V12.2715" stroke="#424242" stroke-width="0.644531" stroke-miterlimit="10" stroke-linecap="round" stroke-linejoin="round"/>
</svg>
