<svg width="120" height="105" viewBox="0 0 120 105" fill="none" xmlns="http://www.w3.org/2000/svg">
<path d="M105.756 0H68.407C65.3173 0 62.8125 2.58108 62.8125 5.76501V96.2404C62.8125 99.4243 65.3173 102.005 68.407 102.005H105.756C108.846 102.005 111.351 99.4243 111.351 96.2404V5.76501C111.351 2.58108 108.846 0 105.756 0Z" fill="#424242"/>
<path d="M105.742 1.80078H68.4275C66.3059 1.80078 64.5859 3.57312 64.5859 5.75941V96.1126C64.5859 98.2989 66.3059 100.071 68.4275 100.071H105.742C107.863 100.071 109.583 98.2989 109.583 96.1126V5.75941C109.583 3.57312 107.863 1.80078 105.742 1.80078Z" fill="white"/>
<path d="M77.8672 1.05469H96.2988V3.01996C96.2989 3.29912 96.2456 3.57556 96.142 3.8335C96.0384 4.09143 95.8865 4.32581 95.695 4.52324C95.5035 4.72067 95.2761 4.87728 95.0258 4.98413C94.7756 5.09098 94.5073 5.14598 94.2364 5.14598H79.9296C79.3826 5.14598 78.858 4.92207 78.4713 4.52351C78.0845 4.12495 77.8672 3.58439 77.8672 3.02074V1.05469Z" fill="#424242"/>
<path opacity="0.8" d="M97.756 64.3281H76.4102C75.1524 64.3281 74.1328 65.3788 74.1328 66.6749V72.9764C74.1328 74.2725 75.1524 75.3232 76.4102 75.3232H97.756C99.0137 75.3232 100.033 74.2725 100.033 72.9764V66.6749C100.033 65.3788 99.0137 64.3281 97.756 64.3281Z" fill="#8B7AA8"/>
<path d="M100.032 72.9766V74.0564C100.032 74.3646 99.9736 74.6697 99.8592 74.9544C99.7447 75.2392 99.577 75.4979 99.3655 75.7158C99.1541 75.9337 98.903 76.1065 98.6267 76.2244C98.3504 76.3424 98.0543 76.403 97.7552 76.403H76.41C76.111 76.403 75.8148 76.3424 75.5385 76.2244C75.2622 76.1065 75.0112 75.9337 74.7997 75.7158C74.5882 75.4979 74.4205 75.2392 74.3061 74.9544C74.1916 74.6697 74.1328 74.3646 74.1328 74.0564V72.9766C74.1328 73.5988 74.3727 74.1956 74.7997 74.6356C75.2267 75.0757 75.8058 75.3229 76.4097 75.3229H97.7552C98.0542 75.3229 98.3504 75.2622 98.6266 75.1444C98.9029 75.0265 99.154 74.8536 99.3654 74.6358C99.5769 74.4179 99.7446 74.1592 99.8591 73.8745C99.9735 73.5898 100.032 73.2847 100.032 72.9766Z" fill="#8B7AA8"/>
<path d="M85.6535 73.0728C85.5642 73.0729 85.4779 73.04 85.4101 72.9803L82.9668 70.8226C82.8914 70.7561 82.8447 70.6613 82.8371 70.5593C82.8294 70.4573 82.8614 70.3563 82.926 70.2785C82.9906 70.2008 83.0825 70.1527 83.1815 70.1448C83.2805 70.1369 83.3785 70.1699 83.454 70.2364L85.6219 72.1511L90.6667 66.4634C90.7337 66.3879 90.827 66.3429 90.9262 66.3383C91.0253 66.3337 91.1222 66.3699 91.1955 66.4389C91.2687 66.5079 91.3124 66.604 91.3169 66.7062C91.3213 66.8084 91.2862 66.9082 91.2193 66.9837L85.9303 72.9471C85.8952 72.9868 85.8524 73.0184 85.8047 73.0401C85.7571 73.0617 85.7056 73.0729 85.6535 73.0728Z" fill="white"/>
<g opacity="0.5">
<path d="M103.513 35.7676C103.513 37.5152 101.865 38.9731 101.368 40.5496C100.853 42.1848 101.337 44.3583 100.376 45.7187C99.4061 47.0927 97.2433 47.2856 95.9099 48.2855C94.5897 49.2755 93.7487 51.3411 92.1627 51.8719C90.6325 52.3839 88.7808 51.2394 87.0847 51.2394C85.3887 51.2394 83.5369 52.3843 82.007 51.8719C80.4202 51.3412 79.5798 49.2755 78.2597 48.2855C76.9262 47.2856 74.7635 47.0927 73.7932 45.7187C72.8324 44.3583 73.3164 42.184 72.8014 40.5496C72.3044 38.9728 70.6562 37.5147 70.6562 35.7676C70.6562 34.0204 72.3044 32.5619 72.8014 30.9855C73.3164 29.3511 72.8324 27.1768 73.7932 25.8164C74.7635 24.4424 76.9262 24.2496 78.2597 23.2496C79.5798 22.2596 80.4208 20.1939 82.0068 19.6632C83.5372 19.1513 85.3888 20.2957 87.0847 20.2957C88.7807 20.2957 90.6326 19.1508 92.1627 19.6632C93.7495 20.1939 94.5897 22.2594 95.9099 23.2496C97.2433 24.2496 99.4061 24.4424 100.376 25.8164C101.337 27.1768 100.853 29.351 101.368 30.9853C101.865 32.5619 103.513 34.0199 103.513 35.7676Z" fill="#8B7AA8"/>
</g>
<path d="M92.0324 45.9648H96.25V26.7762H92.0324V45.9648Z" fill="#8B7AA8"/>
<path d="M88.6616 31.0495C87.8385 31.0495 87.0339 30.798 86.3495 30.3268C85.6652 29.8556 85.1318 29.1858 84.8168 28.4022C84.5018 27.6186 84.4194 26.7563 84.58 25.9245C84.7405 25.0926 85.1369 24.3285 85.7189 23.7287C86.3009 23.129 87.0425 22.7205 87.8497 22.5551C88.657 22.3896 89.4938 22.4745 90.2542 22.7991C91.0146 23.1237 91.6646 23.6733 92.1219 24.3786C92.5792 25.0838 92.8232 25.9129 92.8232 26.7611C92.822 27.8981 92.3832 28.9881 91.603 29.7921C90.8228 30.596 89.765 31.0483 88.6616 31.0495ZM88.6616 22.9354C87.9274 22.9354 87.2096 23.1598 86.5991 23.5802C85.9885 24.0005 85.5127 24.598 85.2317 25.2971C84.9507 25.9961 84.8772 26.7653 85.0204 27.5074C85.1637 28.2495 85.5173 28.9312 86.0365 29.4662C86.5557 30.0013 87.2172 30.3656 87.9373 30.5132C88.6575 30.6609 89.404 30.5851 90.0823 30.2955C90.7607 30.006 91.3405 29.5156 91.7485 28.8865C92.1564 28.2574 92.3741 27.5177 92.3741 26.7611C92.373 25.7468 91.9815 24.7744 91.2856 24.0572C90.5896 23.3399 89.6459 22.9366 88.6616 22.9354Z" fill="#8B7AA8"/>
<path d="M89.1341 26.7747C89.1341 26.77 89.1341 26.7656 89.1341 26.7611C89.1341 25.6237 88.6957 24.5329 87.9152 23.7287C87.1347 22.9245 86.0762 22.4727 84.9725 22.4727C83.8688 22.4727 82.8102 22.9245 82.0298 23.7287C81.2493 24.5329 80.8109 25.6237 80.8109 26.7611C80.8109 26.7656 80.8109 26.77 80.8109 26.7747H77.9141V45.9633H92.0306V26.7747H89.1341ZM81.26 26.7611C81.26 25.7465 81.6511 24.7734 82.3473 24.0559C83.0436 23.3385 83.9879 22.9354 84.9725 22.9354C85.9571 22.9354 86.9014 23.3385 87.5976 24.0559C88.2939 24.7734 88.685 25.7465 88.685 26.7611C88.685 26.7656 88.685 26.77 88.685 26.7747H81.26C81.2604 26.77 81.26 26.7656 81.26 26.7611Z" fill="white"/>
<path d="M12.0398 101.84L11.7162 103.954C11.6811 104.183 11.5685 104.391 11.3982 104.543C11.228 104.694 11.0111 104.779 10.7863 104.781L2.54222 104.863C2.42383 104.864 2.30858 104.824 2.21541 104.749C2.12225 104.673 2.0567 104.568 2.02954 104.449C2.00238 104.33 2.01522 104.205 2.06595 104.095C2.11667 103.985 2.20228 103.896 2.30869 103.842L7.25802 101.357L12.0398 101.84Z" fill="#F4CECA"/>
<path d="M21.6953 91.0681C21.6953 91.0681 21.6396 103.535 30.3947 104.689L38.6373 96.9157L43.7475 86.4121L24.6198 88.587L21.6953 91.0681Z" fill="#424242"/>
<path d="M21.4637 90.3882L21.4375 90.3953C21.4375 90.3953 21.3521 89.8665 21.4637 90.3882Z" fill="#424242"/>
<path d="M55.2117 54.1944C55.2108 54.189 55.2058 54.1853 55.2033 54.1805L55.3081 54.022C55.3809 53.9164 55.4161 53.7881 55.4076 53.6588C55.3992 53.5294 55.3477 53.4071 55.2618 53.3124C55.2067 53.2542 55.1398 53.2093 55.0659 53.1809C54.9919 53.1525 54.9128 53.1414 54.8342 53.1484C54.7555 53.1554 54.6794 53.1802 54.6112 53.2212C54.5431 53.2621 54.4846 53.3182 54.44 53.3853L54.1971 53.7505C54.1955 53.749 54.1955 53.7462 54.1936 53.7448C54.1916 53.7434 54.1879 53.7448 54.1853 53.7428C54.2299 53.6272 54.235 53.4995 54.1998 53.3805C54.1647 53.2615 54.0913 53.1584 53.9918 53.088C53.7461 52.889 53.4069 53.0755 53.25 53.3117L51.8027 55.4096L51.9375 54.6812C51.9662 54.5399 51.9419 54.3925 51.8694 54.2689C51.7969 54.1453 51.6817 54.0546 51.5469 54.0151C51.4766 53.9973 51.4035 53.9944 51.3321 54.0067C51.2607 54.0189 51.1925 54.046 51.1316 54.0863C51.0707 54.1266 51.0184 54.1793 50.9779 54.2412C50.9375 54.303 50.9096 54.3727 50.8962 54.446L50.1638 58.4232C50.078 58.8898 50.172 59.3725 50.426 59.7688C50.6799 60.1651 51.0738 60.4437 51.524 60.5456C52.0461 60.6636 52.5905 60.6182 53.0874 60.4154C53.5843 60.2125 54.0111 59.8614 54.3132 59.407C54.3132 59.407 55.406 54.0105 55.2117 54.1944Z" fill="#F4CECA"/>
<path d="M53.9475 48.1758L54.3874 48.2199C54.4328 48.222 54.4772 48.2335 54.5181 48.2538C54.559 48.274 54.5956 48.3026 54.6255 48.3378C54.6554 48.373 54.6781 48.414 54.6922 48.4585C54.7063 48.5029 54.7116 48.5499 54.7076 48.5965L53.5868 57.9355C53.5702 58.0324 53.5185 58.1192 53.4423 58.1784C53.366 58.2376 53.2709 58.2648 53.1759 58.2545L52.6719 58.2163L53.9475 48.1758Z" fill="#424242"/>
<path d="M52.7557 58.2264L51.8223 58.1538C51.7806 58.1529 51.7395 58.1431 51.7015 58.1252C51.6636 58.1073 51.6296 58.0815 51.6017 58.0496C51.5738 58.0176 51.5526 57.9801 51.5393 57.9393C51.526 57.8985 51.521 57.8554 51.5245 57.8125L52.6449 48.3925C52.6599 48.3046 52.7067 48.2259 52.7759 48.1723C52.845 48.1186 52.9314 48.0941 53.0175 48.1036L53.951 48.1762C53.9927 48.1772 54.0338 48.1869 54.0717 48.2048C54.1096 48.2228 54.1436 48.2485 54.1715 48.2805C54.1994 48.3124 54.2206 48.35 54.2339 48.3907C54.2472 48.4315 54.2522 48.4746 54.2487 48.5174L53.1284 57.937C53.1135 58.025 53.0667 58.1038 52.9975 58.1575C52.9282 58.2113 52.8418 58.2359 52.7557 58.2264Z" fill="#424242"/>
<path d="M52.657 58.0318L51.8303 57.9618C51.8016 57.9612 51.7734 57.9545 51.7473 57.9422C51.7212 57.9299 51.6979 57.9122 51.6787 57.8903C51.6596 57.8683 51.645 57.8425 51.6359 57.8145C51.6268 57.7865 51.6233 57.7569 51.6258 57.7275L52.7367 48.4771C52.747 48.4168 52.7792 48.3627 52.8267 48.3259C52.8742 48.2891 52.9335 48.2722 52.9927 48.2787L53.8085 48.3495C53.8372 48.3501 53.8654 48.3568 53.8914 48.3691C53.9175 48.3814 53.9408 48.3991 53.9599 48.4211C53.9791 48.443 53.9936 48.4688 54.0028 48.4968C54.0119 48.5248 54.0153 48.5544 54.0129 48.5838L52.9129 57.8334C52.9026 57.8938 52.8704 57.9478 52.8229 57.9846C52.7754 58.0215 52.7161 58.0383 52.657 58.0318Z" fill="white"/>
<path d="M53.6049 48.6616L53.243 48.6334C53.2276 48.633 53.2124 48.6295 53.1984 48.6229C53.1845 48.6163 53.1719 48.6068 53.1616 48.595C53.1514 48.5832 53.1435 48.5694 53.1386 48.5543C53.1338 48.5393 53.1319 48.5234 53.1332 48.5076L53.1674 48.2207L53.7765 48.2682L53.7423 48.555C53.7368 48.5874 53.7195 48.6164 53.694 48.6362C53.6685 48.656 53.6367 48.665 53.6049 48.6616Z" fill="#424242"/>
<path d="M52.0676 55.1957C52.1252 55.0991 52.2106 55.0234 52.3119 54.9789C52.4131 54.9345 52.5253 54.9235 52.6328 54.9475C52.6328 54.9375 52.6357 54.9277 52.6412 54.9194C52.6468 54.9132 52.6539 54.9086 52.6618 54.906C52.6697 54.9035 52.678 54.9031 52.6861 54.9049L52.3418 54.602C52.2384 54.5149 52.169 54.3922 52.1465 54.2566C52.124 54.1209 52.1498 53.9815 52.2193 53.864C52.2917 53.7503 52.4024 53.6683 52.53 53.6339C52.6577 53.5995 52.7932 53.6152 52.9102 53.6779C52.9102 53.6724 52.9136 53.6676 52.9148 53.6625L52.7731 53.538C52.6761 53.4555 52.6097 53.341 52.5851 53.2139C52.5606 53.0868 52.5794 52.9548 52.6384 52.8403C52.6767 52.7693 52.73 52.7079 52.7942 52.6606C52.8583 52.6133 52.9319 52.5813 53.0096 52.5668C53.0872 52.5524 53.167 52.5559 53.2432 52.5771C53.3194 52.5982 53.3901 52.6366 53.4502 52.6893L53.7773 52.9767C53.7785 52.9747 53.7773 52.972 53.7791 52.9702C53.7809 52.9683 53.7844 52.968 53.7867 52.966C53.7144 52.8664 53.677 52.7445 53.6808 52.6201C53.6846 52.4958 53.7293 52.3765 53.8075 52.2817C53.9942 52.0236 54.3689 52.112 54.5802 52.2981L55.2021 52.9369C55.298 53.0354 55.3688 53.1569 55.4081 53.2905C55.4475 53.4241 55.4542 53.5656 55.4277 53.7025C55.1988 54.8873 54.5295 57.9675 53.8545 57.3739L52.1929 55.9139C52.0965 55.8263 52.0317 55.7076 52.009 55.5773C51.9863 55.4469 52.0069 55.3125 52.0676 55.1957Z" fill="#F4CECA"/>
<path d="M48.7874 58.0938L46.3457 71.7091L40.1043 61.7966L35.3359 67.5692L45.2808 81.5672L45.3651 81.6484C45.8772 82.1283 46.4993 82.4659 47.173 82.6295C47.8467 82.793 48.5496 82.7772 49.2157 82.5834C49.8818 82.3896 50.489 82.0242 50.9802 81.5217C51.4713 81.0192 51.8303 80.3961 52.0231 79.7112L56.1192 59.3059L48.7874 58.0938Z" fill="#8B7AA8"/>
<path d="M46.0123 73.0491C46.0056 73.0491 45.9989 73.0481 45.9924 73.0463C45.9733 73.0409 45.9571 73.0278 45.9473 73.0101C45.9375 72.9923 45.9349 72.9713 45.9402 72.9516L46.2788 71.6894C46.2841 71.6697 46.2967 71.653 46.314 71.6429C46.3313 71.6328 46.3517 71.6302 46.3708 71.6356C46.39 71.641 46.4062 71.6541 46.416 71.6719C46.4258 71.6897 46.4284 71.7107 46.4231 71.7305L46.0845 72.9925C46.0801 73.0087 46.0707 73.0231 46.0577 73.0333C46.0446 73.0435 46.0287 73.0491 46.0123 73.0491Z" fill="#424242"/>
<path d="M19.6979 49.5995C19.6979 49.5995 19.3051 53.2234 18.4544 54.505C16.005 58.1962 15.1577 62.4365 17.3486 64.7732C19.5394 67.1099 34.1304 67.814 35.4586 62.7328C36.5769 58.4552 34.5998 57.8984 34.2687 54.3117C34.119 52.6889 33.6606 49.2793 33.6606 49.2793" fill="#424242"/>
<path d="M32.8795 60.1731C32.8542 60.1749 33.5121 64.9195 28.1472 65.6266C24.4332 66.1167 22.3338 62.393 22.25 62.4108C22.6271 62.2411 23.2488 61.95 23.4223 61.8419C24.0787 61.4329 24.5816 60.9191 24.538 59.7273C24.5128 59.0403 23.6548 55.6799 23.5777 54.9961L29.4491 55.1018C29.653 56.5379 29.7584 59.9448 31.7994 60.1209C32.1382 60.1496 32.5007 60.1654 32.8795 60.1731Z" fill="#F4CECA"/>
<path opacity="0.52" d="M30.3029 59.0345C30.1569 58.761 30.0404 58.4718 29.9555 58.1722C29.7554 57.4897 29.6284 56.7867 29.5767 56.0758C28.404 56.158 27.2324 55.8997 26.1951 55.3301C26.1696 55.7489 25.9406 57.6036 26.1749 57.9473C26.6166 58.5965 28.2588 59.4661 30.3029 59.0345Z" fill="#424242"/>
<path d="M28.8213 58.5322C26.5541 58.6532 23.6736 57.5881 23.2031 54.4624L22.7785 51.642C22.3079 48.5164 23.5196 45.7278 26.3755 45.2711C29.2314 44.8146 31.7476 47.0071 32.2182 50.1329L32.4062 51.3815C32.5868 52.5809 32.8663 58.3163 28.8213 58.5322Z" fill="#F4CECA"/>
<path opacity="0.52" d="M29.8562 54.2563H29.8617C29.9774 54.2371 30.092 54.2113 30.205 54.1792C30.3737 54.1295 30.5952 54.0454 30.5717 53.8892C30.5449 53.7111 29.7822 51.8653 29.6952 51.6553C29.6915 51.6462 29.686 51.6379 29.6792 51.631C29.6723 51.6241 29.6642 51.6186 29.6553 51.6149C29.6464 51.6112 29.6368 51.6093 29.6272 51.6094C29.6176 51.6095 29.6081 51.6115 29.5993 51.6154C29.5904 51.6192 29.5824 51.6249 29.5757 51.6319C29.5689 51.639 29.5636 51.6474 29.56 51.6565C29.5564 51.6657 29.5546 51.6755 29.5547 51.6854C29.5548 51.6953 29.5567 51.7051 29.5605 51.7143C29.8859 52.501 30.4088 53.7923 30.427 53.9123C30.4063 53.9669 30.1259 54.0624 29.8388 54.1084C29.8201 54.1113 29.8032 54.1215 29.7917 54.137C29.7802 54.1525 29.775 54.1719 29.7772 54.1913C29.7793 54.2107 29.7887 54.2284 29.8034 54.2408C29.818 54.2531 29.8367 54.2591 29.8556 54.2575L29.8562 54.2563Z" fill="#424242"/>
<path opacity="0.52" d="M29.3993 55.5822C29.8643 55.536 30.3123 55.3779 30.7071 55.1206C30.716 55.116 30.7239 55.1095 30.7303 55.1015C30.7367 55.0936 30.7414 55.0843 30.7442 55.0744C30.7469 55.0645 30.7477 55.0541 30.7464 55.0439C30.7451 55.0337 30.7418 55.0238 30.7366 55.015C30.7314 55.0061 30.7246 54.9985 30.7164 54.9925C30.7083 54.9865 30.699 54.9823 30.6892 54.9802C30.6794 54.978 30.6693 54.978 30.6595 54.98C30.6497 54.9821 30.6404 54.9862 30.6322 54.9921C29.7789 55.5245 28.9456 55.587 28.223 55.1726C28.2085 55.1637 28.1935 55.1557 28.1781 55.1486C28.1601 55.1412 28.14 55.1414 28.1223 55.1493C28.1045 55.1572 28.0905 55.172 28.0833 55.1905C28.0761 55.209 28.0764 55.2297 28.084 55.248C28.0917 55.2663 28.1061 55.2808 28.124 55.2882C28.1297 55.2908 28.139 55.2963 28.1522 55.3036C28.5318 55.5221 28.966 55.6191 29.3993 55.5822Z" fill="#424242"/>
<path d="M20.4804 52.5408L23.0402 52.147C24.9929 51.4093 25.6861 47.992 25.6861 47.992C25.6861 47.992 27.9511 50.4225 33.6658 49.2793C33.6658 49.2793 32.7907 41.0896 24.3353 43.1735C21.6088 43.8455 19.5795 46.585 19.7004 50.3429C19.785 52.9765 20.4804 52.5408 20.4804 52.5408Z" fill="#424242"/>
<path d="M23.5247 55.3873C22.6565 55.5261 21.8092 54.6817 21.6744 53.7873C21.5397 52.8929 22.1692 52.2873 23.0367 52.1484L23.5741 52.6762L24.2705 55.2677L23.5247 55.3873Z" fill="#F4CECA"/>
<path d="M30.2657 50.1865C30.5227 50.0277 30.8165 49.9431 31.1161 49.9415C31.2636 49.9398 31.4105 49.9609 31.5519 50.0041C31.692 50.0463 31.8264 50.1065 31.9519 50.1834C31.9685 50.1937 31.9807 50.2102 31.986 50.2295C31.9912 50.2488 31.9891 50.2694 31.9801 50.2871C31.9711 50.3049 31.9558 50.3184 31.9374 50.3249C31.919 50.3314 31.8989 50.3305 31.8812 50.3222L31.876 50.3196C31.7597 50.2557 31.6362 50.2071 31.5082 50.1749C31.3817 50.1425 31.2512 50.1299 31.1211 50.1377C30.863 50.1512 30.613 50.2347 30.3964 50.3799L30.3893 50.3847C30.3642 50.4022 30.3333 50.4087 30.3035 50.4027C30.2738 50.3967 30.2475 50.3788 30.2305 50.3529C30.2135 50.327 30.2073 50.2952 30.213 50.2645C30.2188 50.2338 30.2362 50.2067 30.2613 50.1893L30.2657 50.1865Z" fill="#424242"/>
<path d="M27.9707 50.6583C27.7219 50.5863 27.459 50.5835 27.2089 50.6503C27.0822 50.6827 26.9611 50.7347 26.8496 50.8045C26.7368 50.8746 26.633 50.9589 26.5406 51.0557L26.5364 51.0598C26.5294 51.0671 26.521 51.0729 26.5117 51.0769C26.5025 51.0808 26.4926 51.0829 26.4826 51.0829C26.4726 51.0829 26.4626 51.0809 26.4534 51.077C26.4441 51.073 26.4357 51.0673 26.4286 51.06C26.4216 51.0527 26.4159 51.0441 26.4121 51.0345C26.4082 51.025 26.4063 51.0148 26.4063 51.0045C26.4062 50.9942 26.4082 50.984 26.412 50.9744C26.4158 50.9649 26.4214 50.9562 26.4285 50.9489C26.5259 50.837 26.6365 50.7382 26.7578 50.6547C26.8803 50.5699 27.0144 50.5046 27.1557 50.4608C27.4421 50.37 27.747 50.3603 28.0382 50.4329C28.0676 50.4405 28.093 50.4598 28.1086 50.4866C28.1242 50.5134 28.1289 50.5455 28.1215 50.5758C28.1142 50.6062 28.0954 50.6323 28.0694 50.6484C28.0434 50.6645 28.0123 50.6693 27.9828 50.6617L27.9782 50.6603L27.9707 50.6583Z" fill="#424242"/>
<path opacity="0.52" d="M29.467 56.2893C29.5513 56.2823 29.6347 56.268 29.7166 56.2464C29.7348 56.241 29.7503 56.2286 29.7598 56.2117C29.7692 56.1948 29.7719 56.1747 29.7673 56.1558C29.7627 56.1369 29.7511 56.1205 29.7349 56.1103C29.7188 56.1 29.6995 56.0966 29.681 56.1008C29.1885 56.2287 28.9175 56.0277 28.9058 56.019C28.8982 56.0131 28.8895 56.0088 28.8802 56.0063C28.8709 56.0038 28.8613 56.0033 28.8518 56.0046C28.8423 56.006 28.8332 56.0093 28.825 56.0143C28.8167 56.0193 28.8095 56.026 28.8037 56.0338C28.7921 56.0497 28.7871 56.0698 28.7898 56.0895C28.7925 56.1092 28.8027 56.1271 28.8181 56.139C29.0111 56.2648 29.2404 56.3179 29.467 56.2893Z" fill="#424242"/>
<path d="M23.0463 52.1138L23.0234 52.0403C26.2869 50.9574 25.602 47.6714 25.5947 47.6384L25.6677 47.6211C25.675 47.6549 26.3744 51.0096 23.0463 52.1138Z" fill="#424242"/>
<path opacity="0.1" d="M27.5624 54.4062C27.9359 54.3777 28.2222 54.1257 28.2019 53.8433C28.1815 53.561 27.8623 53.3553 27.4888 53.3838C27.1153 53.4124 26.829 53.6644 26.8493 53.9467C26.8696 54.2291 27.1889 54.4348 27.5624 54.4062Z" fill="#424242"/>
<path opacity="0.1" d="M31.5401 53.4645C31.5612 53.7463 31.8803 53.9518 32.2538 53.9237C32.3184 53.9188 32.3822 53.9069 32.4444 53.8884C32.4761 53.5549 32.4912 53.2333 32.4945 52.9351C32.3927 52.9038 32.2861 52.8924 32.1802 52.9014C31.8062 52.9295 31.52 53.1814 31.5401 53.4645Z" fill="#424242"/>
<path d="M31.5357 51.6087C31.7323 51.6087 31.8917 51.4444 31.8917 51.2418C31.8917 51.0392 31.7323 50.875 31.5357 50.875C31.3391 50.875 31.1797 51.0392 31.1797 51.2418C31.1797 51.4444 31.3391 51.6087 31.5357 51.6087Z" fill="#424242"/>
<path d="M28.0122 51.9759C28.2088 51.9759 28.3682 51.8116 28.3682 51.609C28.3682 51.4064 28.2088 51.2422 28.0122 51.2422C27.8156 51.2422 27.6562 51.4064 27.6562 51.609C27.6562 51.8116 27.8156 51.9759 28.0122 51.9759Z" fill="#424242"/>
<path d="M41.4907 69.105C41.725 71.1548 43.4149 83.8957 43.7485 86.411L21.6963 91.0677C21.1267 88.8558 18.621 79.1867 17.2782 74.9095C15.9966 70.8281 14.7856 68.7518 15.0961 66.7708C15.4583 64.4586 18.4213 63.5327 20.341 62.8402C21.5133 62.4175 23.3027 61.9146 23.3027 61.9146C23.3027 61.9146 24.0928 65.083 27.7894 64.488C32.8217 63.6778 31.7687 60.1269 31.7934 60.1217C32.6007 59.952 36.6287 59.6691 37.8941 60.1201C41.3422 61.3467 40.9949 64.7607 41.4907 69.105Z" fill="#8B7AA8"/>
<path d="M41.7185 70.4817L41.5703 70.5039L42.6877 78.4197L42.8359 78.3975L41.7185 70.4817Z" fill="#424242"/>
<path d="M13.2108 103.177L6 101.109C9.33603 88.7564 14.7518 68.4394 15.0825 66.5098C15.055 66.6924 15.0431 66.8771 15.047 67.0619L22.5312 66.9528C22.5417 67.7125 22.548 68.1715 17.8124 85.9965C15.5389 94.5548 13.2339 103.091 13.2108 103.177Z" fill="#8B7AA8"/>
<path d="M20.5663 74.3784L19.0547 81.3945L19.2008 81.428L20.7124 74.4118L20.5663 74.3784Z" fill="#424242"/>
<path d="M36.6266 88.4898C36.6266 88.4898 56.2898 78.0218 61.7364 76.0857C63.1473 75.5842 65.7253 75.1225 67.9351 76.4539C74.5274 80.4258 91.935 96.5983 91.935 96.5983L87.7064 103.11L64.7097 86.1389C64.7097 86.1389 53.691 94.2394 43.7437 97.8022L33.7031 96.5798L36.6266 88.4898Z" fill="#424242"/>
<path d="M94.5234 98.4824C94.5234 98.4824 98.0454 97.8925 98.3372 94.5196C98.6289 91.1467 101.22 91.9589 101.22 91.9589L100.851 104.87L94.5902 104.681L94.5234 98.4824Z" fill="#8B7AA8"/>
<path d="M30.3947 104.688C30.3947 104.688 29.3431 104.616 31.7309 104.697C40.638 104.999 96.5653 104.848 96.5653 104.848L96.5936 96.2027L30.4136 91.3633L30.3947 104.688Z" fill="#424242"/>
<path d="M54.1839 93.1494C54.1808 93.1497 54.1776 93.1497 54.1745 93.1494L47.6514 92.3022C47.6317 92.2997 47.6138 92.2891 47.6016 92.273C47.5895 92.2568 47.584 92.2363 47.5865 92.216C47.5876 92.2059 47.5906 92.1961 47.5954 92.1872C47.6003 92.1784 47.6068 92.1706 47.6145 92.1643C47.6223 92.1581 47.6313 92.1536 47.6408 92.151C47.6504 92.1484 47.6603 92.1478 47.6701 92.1492L54.1932 92.9964C54.213 92.9977 54.2316 93.007 54.2447 93.0224C54.2579 93.0377 54.2646 93.0579 54.2634 93.0783C54.2622 93.0988 54.2531 93.1179 54.2382 93.1315C54.2233 93.145 54.2037 93.1519 54.1839 93.1507V93.1494Z" fill="white"/>
<path d="M91.3655 95.8375H91.3601L75.6867 94.6932C75.6669 94.6917 75.6485 94.6822 75.6355 94.6668C75.6225 94.6513 75.616 94.6312 75.6174 94.6108C75.6188 94.5904 75.6279 94.5714 75.6429 94.558C75.6579 94.5446 75.6774 94.5378 75.6972 94.5392L91.3706 95.6836C91.3804 95.6839 91.3901 95.6862 91.399 95.6905C91.408 95.6947 91.416 95.7006 91.4227 95.708C91.4294 95.7155 91.4347 95.7242 91.4381 95.7337C91.4416 95.7432 91.4432 95.7532 91.4428 95.7634C91.4425 95.7735 91.4402 95.7835 91.4361 95.7927C91.432 95.8019 91.4262 95.8102 91.419 95.8171C91.4118 95.824 91.4034 95.8294 91.3942 95.833C91.385 95.8365 91.3752 95.8382 91.3653 95.8378L91.3655 95.8375Z" fill="white"/>
<path d="M119.904 105.001H0.0961132C0.0836608 105.001 0.0712437 104.999 0.0596041 104.993C0.0479645 104.988 0.0373412 104.98 0.0283693 104.969C0.0193974 104.958 0.012261 104.946 0.00738663 104.932C0.00251226 104.918 0 104.902 0 104.887C0 104.872 0.00251226 104.857 0.00738663 104.843C0.012261 104.829 0.0193974 104.816 0.0283693 104.805C0.0373412 104.795 0.0479645 104.786 0.0596041 104.781C0.0712437 104.775 0.0836608 104.773 0.0961132 104.774H119.904C119.916 104.773 119.929 104.775 119.94 104.781C119.952 104.786 119.963 104.795 119.972 104.805C119.981 104.816 119.988 104.829 119.993 104.843C119.997 104.857 120 104.872 120 104.887C120 104.902 119.997 104.918 119.993 104.932C119.988 104.946 119.981 104.958 119.972 104.969C119.963 104.98 119.952 104.988 119.94 104.993C119.929 104.999 119.916 105.001 119.904 105.001Z" fill="#424242"/>
</svg>
