<svg width="20" height="20" viewBox="0 0 20 20" fill="none" xmlns="http://www.w3.org/2000/svg">
<path d="M9.93881 6.05202C10.8639 6.05202 11.4197 6.54549 11.4197 7.3779C11.4197 8.88972 8.72109 9.30643 8.72109 11.1412C8.72109 11.6347 9.04408 12.174 9.70753 12.174C10.7254 12.174 10.6023 11.4184 10.9726 10.8781C11.4656 10.1538 13.764 9.38269 13.764 7.37741C13.764 5.20365 11.8215 4.29297 9.84709 4.29297C7.96642 4.29297 6.23828 5.63481 6.23828 7.14662C6.23828 7.76321 6.70135 8.08721 7.24117 8.08721C8.73604 8.08771 7.96543 6.05202 9.93881 6.05202ZM11.0339 14.442C11.0339 13.7477 10.4632 13.1774 9.76934 13.1774C9.07549 13.1774 8.50476 13.7487 8.50476 14.442C8.50476 15.1364 9.07549 15.7066 9.76934 15.7066C10.4632 15.7066 11.0339 15.1364 11.0339 14.442Z" fill="#212529"/>
<path d="M20 10C20 4.48609 15.5139 0 10 0C4.48609 0 0 4.48609 0 10C0 15.5139 4.48609 20 10 20C15.5139 20 20 15.5144 20 10ZM0.99691 10C0.99691 5.03589 5.03589 0.99691 10 0.99691C14.9641 0.99691 19.0031 5.03589 19.0031 10C19.0031 14.9641 14.9641 19.0031 10 19.0031C5.03589 19.0031 0.99691 14.9641 0.99691 10Z" fill="#212529"/>
</svg>
