<svg width="110" height="110" viewBox="0 0 110 110" fill="none" xmlns="http://www.w3.org/2000/svg">
<path d="M15.2303 25.5165C17.2162 27.139 19.7739 27.9635 22.8378 27.9635C29.4815 27.9635 34.8866 22.514 34.8866 15.8156C34.8866 12.6287 33.8493 9.92424 31.8082 7.75954C32.1696 7.27254 32.37 6.77374 32.4183 6.25248C32.582 4.48468 30.9101 3.16362 29.6382 2.32377C27.3029 0.781783 24.7746 0 22.1235 0C20.5619 0 18.9559 0.275203 17.3497 0.818046C14.6056 1.74511 11.0275 4.08467 9.21437 7.86966C7.75668 10.9127 7.68209 14.3059 8.99305 17.9556C10.8464 23.1144 14.5228 25.1625 15.2303 25.5165ZM32.7089 18.2938H30.1552C27.9408 18.2938 26.1396 20.1099 26.1396 22.3424V23.5449C26.1396 23.7957 26.2384 24.0362 26.4143 24.2135C26.5901 24.3908 26.8287 24.4904 27.0774 24.4904C27.3261 24.4904 27.5647 24.3908 27.7405 24.2135C27.9164 24.0362 28.0152 23.7957 28.0152 23.5449V22.3424C28.0152 21.1526 28.9753 20.1849 30.1552 20.1849H32.0392C31.765 20.7687 31.4369 21.3252 31.059 21.847H29.6602C29.4115 21.847 29.173 21.9466 28.9971 22.1239C28.8212 22.3012 28.7224 22.5417 28.7224 22.7925C28.7224 23.2068 28.9883 23.5549 29.3562 23.6826C27.5896 25.173 25.3161 26.0723 22.8378 26.0723C20.5081 26.0723 18.5415 25.5347 16.979 24.4731C17.7441 22.5965 16.8385 19.8135 16.6176 19.1924C16.569 19.056 16.49 18.9327 16.3867 18.8319C16.2833 18.7312 16.1584 18.6558 16.0216 18.6115C15.6404 18.4888 15.3079 18.2469 15.0723 17.9208C14.8367 17.5948 14.7102 17.2015 14.7113 16.7981C14.7113 15.748 15.5584 14.8939 16.5999 14.8939C17.6414 14.8939 18.4886 15.748 18.4886 16.7981V21.0236C18.4886 21.2744 18.5874 21.5149 18.7633 21.6922C18.9391 21.8695 19.1777 21.9691 19.4264 21.9691H22.1555C22.3934 21.9691 22.6225 21.8779 22.7962 21.7141C22.97 21.5502 23.0755 21.3259 23.0914 21.0866C23.1139 20.7453 23.0616 20.323 22.989 19.7388C22.579 16.4372 22.4969 12.7659 26.7389 10.9892C28.3149 10.3294 29.5334 9.68997 30.4348 9.04545C32.165 10.8673 33.011 13.0887 33.011 15.8156C33.011 16.6699 32.9051 17.4998 32.7089 18.2938ZM10.9033 8.69194C12.4632 5.43599 15.5639 3.41568 17.9457 2.61076C19.3593 2.13288 20.7649 1.89083 22.1235 1.89083C24.4034 1.89083 26.586 2.56871 28.6106 3.90558C29.9118 4.76478 30.6009 5.53589 30.5508 6.07673C30.514 6.4734 29.999 7.57644 26.0193 9.24301C20.1027 11.7207 20.821 17.504 21.1277 19.9737L21.1407 20.0781H20.3642V16.7981C20.3642 14.7055 18.6755 13.0029 16.5999 13.0029C14.5244 13.0029 12.8357 14.7055 12.8357 16.7981C12.8339 17.5159 13.0347 18.2193 13.4147 18.8263C13.7946 19.4333 14.338 19.9187 14.9814 20.226C15.2894 21.247 15.4975 22.5596 15.3486 23.3923C14.1885 22.6112 11.9945 20.7577 10.7566 17.3113C9.62436 14.1591 9.67357 11.2591 10.9033 8.69194Z" fill="#424242"/>
<path d="M106.856 68.3685H105.942C106.192 67.9049 106.323 67.3853 106.322 66.8574V59.5898C106.322 57.8418 104.912 56.4195 103.178 56.4195H94.3696V52.8785C94.3696 51.1306 92.9589 49.7083 91.2252 49.7083H90.1404V47.9903C91.2435 47.4975 92.016 46.3847 92.016 45.0919V22.9554C92.016 21.2074 90.6054 19.7852 88.8716 19.7852H85.672C83.9383 19.7852 82.5276 21.2074 82.5276 22.9554V42.3383L81.7244 42.779L80.5284 40.6288C80.4681 40.5205 80.3873 40.4252 80.2906 40.3484C80.1938 40.2715 80.083 40.2147 79.9644 40.1811C79.8459 40.1474 79.7219 40.1377 79.5996 40.1523C79.4773 40.167 79.3591 40.2058 79.2516 40.2666L76.0761 42.062C75.8593 42.1848 75.6996 42.3893 75.6322 42.6306C75.5649 42.872 75.5952 43.1304 75.7166 43.3492L76.8786 45.4383L76.0249 45.9066L74.8258 43.751C74.7041 43.5323 74.5012 43.3713 74.2618 43.3034C74.0224 43.2355 73.766 43.2662 73.5491 43.3888L70.3735 45.184C70.2661 45.2447 70.1715 45.3262 70.0953 45.4237C70.0191 45.5213 69.9627 45.633 69.9294 45.7526C69.896 45.8721 69.8863 45.9971 69.9009 46.1204C69.9155 46.2437 69.954 46.3629 70.0143 46.4712L71.1792 48.5658L70.3078 49.0439L69.1674 46.9938C69.0456 46.7752 68.8428 46.6142 68.6034 46.5463C68.364 46.4784 68.1076 46.5091 67.8906 46.6316L64.7151 48.4268C64.6076 48.4875 64.5131 48.569 64.4369 48.6665C64.3607 48.7641 64.3043 48.8758 64.2709 48.9954C64.2376 49.1149 64.2279 49.2399 64.2425 49.3632C64.257 49.4865 64.2956 49.6057 64.3558 49.714L65.462 51.703L63.8194 52.6045C63.6713 52.6857 63.5477 52.8058 63.4616 52.9519C63.3754 53.0981 63.33 53.265 63.33 53.435V68.3687H50.1006C48.5445 66.7012 48.1745 65.1437 48.1445 64.1149L48.5236 64.3461C48.6289 64.4104 48.7458 64.4532 48.8676 64.4719C48.9894 64.4906 49.1136 64.4849 49.2332 64.4551C49.4747 64.3951 49.6826 64.2409 49.8114 64.0264L52.742 59.1401L56.8346 61.6354C57.0474 61.765 57.3026 61.8042 57.5441 61.7442C57.7855 61.6843 57.9935 61.5302 58.1224 61.3158L61.0912 56.3659C61.9881 54.8699 61.5111 52.917 60.0276 52.0127L55.425 49.2066C54.6948 48.7396 53.9018 48.5888 53.1308 48.7703C52.4796 48.9234 51.8547 49.322 51.3311 49.8949C50.9163 49.3539 50.412 48.889 49.8405 48.5209L32.0489 37.0489C32.0411 36.9863 32.0271 36.9247 32.0072 36.8649C30.341 31.8914 25.9258 28.4177 21.2703 28.4177H19.608C14.3975 28.4177 10.5492 32.7813 9.80357 39.5344C9.79978 39.5691 9.79787 39.604 9.79783 39.639V68.3691H3.14443C1.41069 68.3691 0 69.7914 0 71.5394V72.8743C0 74.6223 1.41069 76.0446 3.14443 76.0446H3.50301V109.055C3.50301 109.305 3.60181 109.546 3.77769 109.723C3.95356 109.9 4.1921 110 4.44082 110H107.076C107.325 110 107.563 109.9 107.739 109.723C107.915 109.546 108.014 109.305 108.014 109.055V75.8188C109.176 75.3525 110 74.2096 110 72.8743V71.5394C110 69.7906 108.589 68.3685 106.856 68.3685ZM79.3509 42.3785L79.7852 43.1592L78.2456 44.0295L77.8114 43.2489L79.3509 42.3785ZM73.6486 45.5006L74.0828 46.2812L72.5433 47.1518L72.109 46.3711L73.6486 45.5006ZM67.9904 48.7434L68.4246 49.524L66.8851 50.3946L66.4508 49.6139L67.9904 48.7434ZM104.447 59.5898V66.8574C104.447 67.5627 103.877 68.1367 103.178 68.1367H102.553V63.0569C102.553 62.8061 102.454 62.5656 102.278 62.3883C102.102 62.2109 101.864 62.1113 101.615 62.1113C101.366 62.1113 101.128 62.2109 100.952 62.3883C100.776 62.5656 100.677 62.8061 100.677 63.0569V68.1367H91.7771C91.0776 68.1367 90.5083 67.5627 90.5083 66.8574V59.5898C90.5083 58.8845 91.0776 58.3105 91.7771 58.3105H103.178C103.878 58.3105 104.447 58.8845 104.447 59.5898ZM84.5199 68.3685C83.8149 68.3685 83.0426 67.6795 83.0426 66.9687V56.0117H86.5549C86.8036 56.0117 87.0421 55.9121 87.218 55.7347C87.3939 55.5574 87.4927 55.3169 87.4927 55.0662C87.4927 54.8154 87.3939 54.5749 87.218 54.3976C87.0421 54.2203 86.8036 54.1206 86.5549 54.1206H83.0426V52.8785C83.0426 52.1733 83.6119 51.5993 84.3114 51.5993H91.2254C91.9249 51.5993 92.4942 52.1733 92.4942 52.8785V56.4195H91.7771C90.0433 56.4195 88.6326 57.8418 88.6326 59.5898V66.8574C88.6326 67.4043 88.7708 67.9191 89.0135 68.3685H84.5199ZM84.4032 22.9554C84.4032 22.2502 84.9725 21.6762 85.672 21.6762H86.6471V40.6423C86.6471 40.8931 86.7459 41.1336 86.9218 41.3109C87.0977 41.4882 87.3362 41.5879 87.5849 41.5879C87.8337 41.5879 88.0722 41.4882 88.2481 41.3109C88.4239 41.1336 88.5228 40.8931 88.5228 40.6423V21.6762H88.8716C89.5711 21.6762 90.1404 22.2502 90.1404 22.9554V45.0919C90.1404 45.7971 89.5711 46.3711 88.8716 46.3711H85.672C84.9725 46.3711 84.4032 45.7971 84.4032 45.0919V22.9554ZM65.2056 53.9965L82.5276 44.4912V45.0916C82.5276 46.8396 83.9383 48.2619 85.672 48.2619H88.2648V49.708H84.3112C82.5775 49.708 81.1668 51.1303 81.1668 52.8783V66.9684C81.1668 67.4666 81.2881 67.9413 81.4971 68.3683H78.7474C79.0544 67.8702 79.2173 67.2955 79.2177 66.709V63.1494C79.2177 61.4014 77.807 59.9791 76.0732 59.9791H70.5567C68.8229 59.9791 67.4122 61.4014 67.4122 63.1494V66.709C67.4122 67.3177 67.5863 67.885 67.8825 68.3683H65.2056V53.9965ZM73.4804 64.7254H77.342V66.7092C77.342 67.4145 76.7727 67.9885 76.0732 67.9885H70.5567C69.8572 67.9885 69.2879 67.4145 69.2879 66.7092V63.1496C69.2879 62.4444 69.8572 61.8704 70.5567 61.8704H76.0732C76.6648 61.8704 77.1617 62.2813 77.3014 62.8344H73.4804C73.2317 62.8344 72.9932 62.934 72.8173 63.1113C72.6414 63.2886 72.5426 63.5291 72.5426 63.7799C72.5426 64.0307 72.6414 64.2712 72.8173 64.4485C72.9932 64.6258 73.2317 64.7254 73.4804 64.7254ZM33.9433 68.3685L33.1891 51.9595L43.4583 58.5811C44.1417 59.0215 44.9077 59.3154 45.7086 59.4445C45.4628 60.5974 45.5934 61.9569 46.3659 62.87C46.1857 63.8894 46.1005 66.0093 47.6968 68.3683H33.9433V68.3685ZM59.4863 55.3867L57.0029 59.5275L55.8586 58.8298L58.902 53.5355L59.0573 53.6301C59.3449 53.806 59.5515 54.0897 59.6319 54.419C59.7124 54.7483 59.66 55.0963 59.4863 55.3867ZM52.3454 51.6623C52.6755 51.1121 53.1396 50.7094 53.5569 50.6111C53.7347 50.569 54.0185 50.5441 54.4258 50.8062L54.4453 50.8184L57.2964 52.5568L54.2533 57.8511L52.9103 57.0322C52.6975 56.9024 52.4423 56.8632 52.2008 56.9231C51.9593 56.9831 51.7513 57.1373 51.6225 57.3519L48.6919 62.2381L47.922 61.7687C47.3684 61.3491 47.3768 60.1827 47.6584 59.4332C48.4697 59.2937 49.2431 58.9844 49.9287 58.5253C50.6143 58.0662 51.197 57.4674 51.6391 56.7674C52.6244 55.2141 52.8044 53.3707 52.2894 51.7375C52.3079 51.7125 52.3289 51.6896 52.3454 51.6623ZM50.0585 55.7487C49.3107 56.9276 48.0346 57.6313 46.6444 57.6313C45.8739 57.6313 45.1216 57.4088 44.4687 56.9877L19.8527 41.1151C17.9729 39.9028 17.4217 37.3746 18.6239 35.4793C19.3717 34.3006 20.6478 33.5967 22.038 33.5967C22.8085 33.5967 23.5607 33.8192 24.2137 34.2403L48.8298 50.1132C50.7097 51.3252 51.2609 53.8534 50.0585 55.7487ZM11.6735 39.6915C12.1669 35.3505 14.5359 30.3079 19.608 30.3079H21.2701C24.3304 30.3079 27.368 32.2605 29.162 35.1865L25.2241 32.6472C24.2732 32.0326 23.1674 31.706 22.038 31.7059C20.005 31.7059 18.138 32.7357 17.0437 34.4606C15.2844 37.2344 16.0911 40.9342 18.8421 42.7083L31.2541 50.7116L31.612 58.4965H28.6839C28.4351 58.4965 28.1966 58.5961 28.0207 58.7735C27.8448 58.9508 27.746 59.1913 27.746 59.4421C27.746 59.6928 27.8448 59.9333 28.0207 60.1106C28.1966 60.288 28.4351 60.3876 28.6839 60.3876H31.699L32.0659 68.3685H11.6735V39.6915ZM5.37864 108.108V97.9857H49.0421C49.2908 97.9857 49.5294 97.8861 49.7053 97.7087C49.8811 97.5314 49.9799 97.2909 49.9799 97.0402C49.9799 96.7894 49.8811 96.5489 49.7053 96.3716C49.5294 96.1942 49.2908 96.0946 49.0421 96.0946H5.37864V91.0889H17.2668C17.5155 91.0889 17.7541 90.9893 17.9299 90.812C18.1058 90.6346 18.2046 90.3941 18.2046 90.1434C18.2046 89.8926 18.1058 89.6521 17.9299 89.4748C17.7541 89.2975 17.5155 89.1979 17.2668 89.1979H5.37864V76.0439H88.2648V83.6916C88.2648 83.9423 88.3636 84.1828 88.5395 84.3601C88.7153 84.5375 88.9539 84.6371 89.2026 84.6371C89.4513 84.6371 89.6899 84.5375 89.8657 84.3601C90.0416 84.1828 90.1404 83.9423 90.1404 83.6916V76.0439H96.4293V96.8177C96.4293 97.0684 96.5281 97.3089 96.704 97.4863C96.8798 97.6636 97.1184 97.7632 97.3671 97.7632C97.6158 97.7632 97.8544 97.6636 98.0302 97.4863C98.2061 97.3089 98.3049 97.0684 98.3049 96.8177V76.0439H106.138V108.108H5.37864ZM108.124 72.8736C108.124 73.5789 107.555 74.1529 106.856 74.1529H3.14443C2.44493 74.1529 1.87563 73.5789 1.87563 72.8736V71.5388C1.87563 70.8335 2.44493 70.2595 3.14443 70.2595H106.856C107.555 70.2595 108.124 70.8335 108.124 71.5388V72.8736Z" fill="#424242"/>
</svg>
