<svg width="20" height="20" viewBox="0 0 20 20" fill="none" xmlns="http://www.w3.org/2000/svg">
<path d="M12.3333 11.666H11.9667C11.8993 11.6661 11.8336 11.6455 11.7784 11.607C11.7232 11.5685 11.6811 11.5139 11.658 11.4507C11.6175 11.3446 11.5737 11.2397 11.5267 11.1363C11.4982 11.075 11.4893 11.0064 11.5012 10.9398C11.5131 10.8732 11.5453 10.812 11.5933 10.7643L11.8547 10.5027C12.2426 10.1113 12.2419 9.48014 11.853 9.08968L10.911 8.14768C10.52 7.75902 9.88862 7.75902 9.49767 8.14768L9.23633 8.40868C9.18861 8.45655 9.12735 8.48861 9.06082 8.50053C8.99429 8.51245 8.9257 8.50366 8.86433 8.47535C8.76052 8.42842 8.6556 8.38396 8.54967 8.34202C8.48611 8.31906 8.43121 8.27701 8.39248 8.22163C8.35375 8.16625 8.33309 8.10026 8.33333 8.03268V7.66602C8.33333 7.11372 7.88562 6.66602 7.33333 6.66602H6C5.44771 6.66602 5 7.11372 5 7.66602V8.03268C5.00012 8.10001 4.97952 8.16575 4.941 8.22097C4.90248 8.27619 4.8479 8.31822 4.78467 8.34135C4.678 8.38202 4.57367 8.42568 4.47033 8.47268C4.40897 8.50106 4.34037 8.50989 4.27383 8.49796C4.20728 8.48604 4.14602 8.45394 4.09833 8.40602L3.83667 8.14468C3.44575 7.75627 2.81458 7.75627 2.42367 8.14468L1.48167 9.08968C1.093 9.48064 1.093 10.1121 1.48167 10.503L1.74267 10.7643C1.7907 10.812 1.82288 10.8732 1.83482 10.9398C1.84675 11.0064 1.83785 11.075 1.80933 11.1363C1.76225 11.2399 1.71834 11.3448 1.67767 11.451C1.6544 11.5146 1.612 11.5694 1.55631 11.6079C1.50062 11.6464 1.43437 11.6667 1.36667 11.666H1C0.447708 11.666 0 12.1137 0 12.666V13.9993C0 14.5516 0.447708 14.9993 1 14.9993H1.36667C1.434 14.9992 1.49973 15.0198 1.55495 15.0583C1.61017 15.0969 1.6522 15.1515 1.67533 15.2147C1.716 15.3213 1.75967 15.4257 1.80667 15.529C1.83518 15.5903 1.84408 15.659 1.83215 15.7256C1.82022 15.7921 1.78804 15.8534 1.74 15.901L1.47867 16.1627C1.09025 16.5536 1.09025 17.1848 1.47867 17.5757L2.42067 18.5177C2.81162 18.9063 3.44304 18.9063 3.834 18.5177L4.09533 18.2567C4.14305 18.2088 4.20432 18.1768 4.27085 18.1648C4.33738 18.1529 4.40596 18.1617 4.46733 18.19C4.57115 18.2369 4.67607 18.2814 4.782 18.3233C4.84586 18.346 4.90112 18.388 4.94016 18.4434C4.97921 18.4988 5.00011 18.5649 5 18.6327V18.9993C5 19.5516 5.44771 19.9993 6 19.9993H7.33333C7.88562 19.9993 8.33333 19.5516 8.33333 18.9993V18.6327C8.33321 18.5654 8.35381 18.4996 8.39233 18.4444C8.43085 18.3892 8.48544 18.3471 8.54867 18.324C8.65533 18.2833 8.75967 18.2397 8.863 18.1927C8.92436 18.1643 8.99296 18.1555 9.0595 18.1674C9.12605 18.1793 9.18732 18.2114 9.235 18.2593L9.49667 18.5207C9.88812 18.9085 10.5191 18.9077 10.9097 18.519L11.8517 17.577C12.2403 17.1861 12.2403 16.5546 11.8517 16.1637L11.5907 15.9023C11.5426 15.8547 11.5104 15.7935 11.4985 15.7269C11.4866 15.6603 11.4955 15.5917 11.524 15.5303C11.5709 15.4265 11.6154 15.3216 11.6573 15.2157C11.6803 15.1521 11.7223 15.0972 11.7777 15.0585C11.8331 15.0198 11.8991 14.9991 11.9667 14.9993H12.3333C12.8856 14.9993 13.3333 14.5516 13.3333 13.9993V12.666C13.3333 12.1137 12.8856 11.666 12.3333 11.666ZM12.6667 13.9993C12.6667 14.0878 12.6315 14.1725 12.569 14.2351C12.5065 14.2976 12.4217 14.3327 12.3333 14.3327H11.9667C11.7642 14.3334 11.5667 14.3954 11.4002 14.5105C11.2336 14.6255 11.1057 14.7883 11.0333 14.9773C10.9981 15.0705 10.9599 15.1624 10.9187 15.253C10.8349 15.4378 10.8092 15.6437 10.8449 15.8434C10.8807 16.0431 10.9761 16.2273 11.1187 16.3717L11.3793 16.6327C11.4103 16.6636 11.4349 16.7004 11.4517 16.7408C11.4684 16.7812 11.4771 16.8246 11.4771 16.8683C11.4771 16.9121 11.4685 16.9555 11.4518 16.9959C11.4351 17.0364 11.4105 17.0731 11.3796 17.1041L11.3793 17.1043L10.4373 18.0463C10.3748 18.1088 10.2901 18.1439 10.2017 18.1439C10.1133 18.1439 10.0285 18.1088 9.966 18.0463L9.70467 17.7853C9.56039 17.6427 9.37618 17.5471 9.17643 17.5114C8.97667 17.4757 8.77078 17.5015 8.586 17.5853C8.49553 17.6264 8.40382 17.6646 8.311 17.7C8.12207 17.7724 7.95944 17.9001 7.84444 18.0666C7.72945 18.233 7.66748 18.4304 7.66667 18.6327V18.9993C7.66667 19.0878 7.63155 19.1725 7.56904 19.2351C7.50652 19.2976 7.42174 19.3327 7.33333 19.3327H6C5.91159 19.3327 5.82681 19.2976 5.7643 19.2351C5.70179 19.1725 5.66667 19.0878 5.66667 18.9993V18.6327C5.66592 18.4302 5.60395 18.2327 5.48889 18.0662C5.37383 17.8996 5.21107 17.7717 5.022 17.6993C4.9289 17.6641 4.83696 17.6259 4.74633 17.5847C4.56151 17.501 4.35567 17.4753 4.15595 17.511C3.95624 17.5467 3.77205 17.6422 3.62767 17.7847L3.36667 18.0453C3.33573 18.0763 3.299 18.1009 3.25856 18.1177C3.21813 18.1344 3.17479 18.1431 3.13101 18.1431C3.08723 18.1431 3.04388 18.1345 3.00343 18.1178C2.96298 18.1011 2.92622 18.0765 2.89525 18.0456L2.895 18.0453L1.953 17.1043C1.89051 17.0418 1.8554 16.9571 1.8554 16.8687C1.8554 16.7803 1.89051 16.6955 1.953 16.633L2.214 16.3717C2.35657 16.2273 2.45201 16.0431 2.48772 15.8434C2.52343 15.6437 2.49772 15.4378 2.414 15.253C2.37296 15.1625 2.33472 15.0708 2.29933 14.978C2.22715 14.7889 2.09943 14.626 1.93297 14.5109C1.76651 14.3957 1.56909 14.3336 1.36667 14.3327H1C0.911594 14.3327 0.82681 14.2976 0.764298 14.2351C0.701786 14.1725 0.666667 14.0878 0.666667 13.9993V12.666C0.666667 12.5776 0.701786 12.4928 0.764298 12.4303C0.82681 12.3678 0.911594 12.3327 1 12.3327H1.36667C1.56912 12.3319 1.7666 12.27 1.93318 12.1549C2.09976 12.0398 2.22763 11.8771 2.3 11.688C2.33533 11.5947 2.37354 11.5028 2.41467 11.4123C2.49838 11.2275 2.52408 11.0217 2.48837 10.822C2.45266 10.6222 2.35723 10.438 2.21467 10.2937L1.95267 10.0327C1.9217 10.0017 1.89712 9.96501 1.88035 9.92458C1.86357 9.88414 1.85493 9.8408 1.8549 9.79703C1.85488 9.75325 1.86348 9.7099 1.88021 9.66945C1.89694 9.62899 1.92148 9.59223 1.95242 9.56127L1.95267 9.56102L2.89467 8.61902C2.95718 8.55652 3.04194 8.52142 3.13033 8.52142C3.21872 8.52142 3.30349 8.55652 3.366 8.61902L3.62733 8.88002C3.77161 9.02271 3.95582 9.11823 4.15557 9.15394C4.35533 9.18965 4.56122 9.16387 4.746 9.08002C4.83647 9.03897 4.92818 9.00073 5.021 8.96535C5.21018 8.89322 5.3731 8.76553 5.48835 8.59906C5.60359 8.43259 5.66575 8.23515 5.66667 8.03268V7.66602C5.66667 7.57761 5.70179 7.49283 5.7643 7.43031C5.82681 7.3678 5.91159 7.33268 6 7.33268H7.33333C7.42174 7.33268 7.50652 7.3678 7.56904 7.43031C7.63155 7.49283 7.66667 7.57761 7.66667 7.66602V8.03268C7.66741 8.23513 7.72939 8.43262 7.84444 8.59919C7.9595 8.76577 8.12226 8.89365 8.31133 8.96602C8.40467 9.00135 8.49654 9.03956 8.587 9.08068C8.77178 9.16454 8.97767 9.19032 9.17743 9.15461C9.37718 9.11889 9.56139 9.02337 9.70567 8.88068L9.96667 8.62002C10.0294 8.55791 10.1142 8.52307 10.2025 8.52307C10.2908 8.52307 10.3756 8.55791 10.4383 8.62002L11.3803 9.56202C11.4428 9.62452 11.4779 9.70929 11.4779 9.79768C11.4779 9.88607 11.4428 9.97084 11.3803 10.0333L11.1193 10.2947C10.9768 10.439 10.8813 10.6232 10.8456 10.823C10.8099 11.0227 10.8356 11.2285 10.9193 11.4133C10.9604 11.5038 10.9986 11.5955 11.034 11.6883C11.1063 11.8773 11.2341 12.0399 11.4006 12.1549C11.567 12.2699 11.7644 12.3319 11.9667 12.3327H12.3333C12.4217 12.3327 12.5065 12.3678 12.569 12.4303C12.6315 12.4928 12.6667 12.5776 12.6667 12.666V13.9993Z" fill="#424242"/>
<path d="M9.66083 13.2C9.65779 13.1201 9.65156 13.0404 9.64217 12.961C9.6315 12.8757 9.61883 12.791 9.60117 12.708C9.5895 12.6537 9.57417 12.6 9.5595 12.546C9.54092 12.4776 9.51991 12.4099 9.4965 12.343C9.48017 12.2967 9.46317 12.2507 9.44583 12.205C9.40292 12.0982 9.35384 11.9941 9.29883 11.893C9.2945 11.8853 9.29183 11.877 9.2875 11.8693C9.20078 11.715 9.10038 11.5687 8.9875 11.4323C8.97783 11.4203 8.96683 11.409 8.95683 11.3973C8.91118 11.3431 8.86348 11.2906 8.81383 11.24C8.78783 11.213 8.7605 11.1877 8.73317 11.1617C8.69983 11.1307 8.6665 11.1 8.63317 11.0707C8.59282 11.0356 8.55158 11.0016 8.5095 10.9687L8.45483 10.928C7.93906 10.5417 7.31192 10.333 6.6675 10.3333C6.63417 10.3333 6.60083 10.3383 6.5675 10.3397C6.49603 10.3415 6.42464 10.3459 6.3535 10.353C6.31583 10.357 6.27783 10.3613 6.24017 10.3667C6.1315 10.381 6.02367 10.4011 5.91717 10.427C4.31213 10.8418 3.34721 12.4792 3.76196 14.0842C3.89616 14.6035 4.16708 15.0774 4.54652 15.4566C4.92596 15.8357 5.40006 16.1062 5.9195 16.24C5.92483 16.24 5.9305 16.2417 5.93617 16.243C6.05128 16.2717 6.1679 16.294 6.2855 16.3097C6.36317 16.3193 6.44083 16.3213 6.51883 16.325C6.57083 16.3277 6.61883 16.3353 6.67317 16.3353C6.76817 16.3353 6.86683 16.329 6.9675 16.319C6.97817 16.319 6.98883 16.316 7.00083 16.3147C7.08356 16.3057 7.16586 16.2931 7.2475 16.277C7.28083 16.2707 7.31183 16.2623 7.34383 16.255C7.40326 16.2415 7.46229 16.2263 7.52083 16.2093C7.5675 16.1953 7.61283 16.179 7.6585 16.163C7.70417 16.147 7.7515 16.1297 7.79883 16.1117C7.84617 16.0937 7.88583 16.073 7.92883 16.053C7.98483 16.0273 8.0405 16.002 8.0955 15.972H8.0975C8.40859 15.8055 8.69593 15.5979 8.95183 15.355C9.02097 15.2905 9.08107 15.2169 9.1305 15.1363C9.39067 14.7192 9.56159 14.2528 9.6325 13.7663C9.64183 13.702 9.65017 13.6377 9.65517 13.572C9.65983 13.5117 9.66317 13.4517 9.6645 13.3917C9.6645 13.3727 9.66717 13.3547 9.66717 13.3357C9.6675 13.2887 9.66283 13.2453 9.66083 13.2ZM8.9965 13.4183C8.9965 13.446 8.99417 13.4737 8.9925 13.501C8.98626 13.5822 8.97625 13.6631 8.9625 13.7433C8.90098 14.0855 8.76392 14.4097 8.56129 14.6923C8.35866 14.9748 8.09557 15.2086 7.79117 15.3767C7.75082 15.398 7.70991 15.4182 7.6685 15.4373L7.64083 15.4507C7.44718 15.5386 7.24274 15.6005 7.03283 15.6347C7.01817 15.637 7.00317 15.6397 6.98817 15.6417C6.9465 15.6477 6.9055 15.6527 6.86483 15.6563C6.81072 15.661 6.75647 15.6638 6.70217 15.6647H6.6325C6.55364 15.6638 6.47487 15.6589 6.3965 15.65L6.3565 15.6453C6.26483 15.6333 6.17391 15.6162 6.08417 15.594C4.83575 15.2745 4.08275 14.0034 4.40225 12.755C4.50591 12.3499 4.71648 11.9802 5.01195 11.6845C5.30742 11.3887 5.67693 11.1777 6.08183 11.0737V11.0733C6.27332 11.025 6.47001 11.0004 6.6675 11C6.76281 11.0005 6.85799 11.007 6.9525 11.0193C6.97783 11.0223 7.00283 11.027 7.02783 11.0307C7.09983 11.042 7.17117 11.0563 7.2415 11.0743C7.2645 11.0803 7.2875 11.0857 7.31017 11.092C7.48741 11.1432 7.65803 11.215 7.8185 11.306C7.84417 11.321 7.86917 11.3367 7.8945 11.3523C7.94717 11.3857 7.99817 11.419 8.0485 11.457C8.0755 11.4767 8.10283 11.496 8.12883 11.517C8.19425 11.5693 8.25689 11.6249 8.3165 11.6837C8.34017 11.7077 8.36183 11.734 8.38483 11.759C8.42317 11.8007 8.4605 11.8433 8.49617 11.8883C8.5208 11.9195 8.54469 11.9513 8.56783 11.9837C8.60117 12.0317 8.6345 12.0817 8.6645 12.1323C8.68117 12.16 8.69783 12.187 8.71483 12.2153C8.75783 12.2944 8.79612 12.376 8.8295 12.4597C8.84283 12.493 8.85417 12.5263 8.86617 12.5597C8.88783 12.621 8.9065 12.683 8.92283 12.7457C8.93117 12.779 8.9405 12.8087 8.9475 12.841C8.96696 12.9311 8.98108 13.0223 8.98983 13.114C8.99183 13.1383 8.99183 13.163 8.9935 13.1873C8.99817 13.264 8.9995 13.341 8.9965 13.4183ZM19.0008 7H17.9525C17.8843 7.00069 17.8177 6.97995 17.7619 6.94072C17.7062 6.90148 17.6642 6.84573 17.6418 6.78133C17.5385 6.47168 17.4134 6.16971 17.2675 5.87767C17.2373 5.81616 17.2272 5.74671 17.2387 5.67917C17.2502 5.61162 17.2827 5.5494 17.3315 5.50133L18.0748 4.757C18.465 4.36654 18.465 3.73379 18.0748 3.34333L16.6575 1.92833C16.267 1.53817 15.6343 1.53817 15.2438 1.92833L14.5008 2.671C14.4528 2.71981 14.3907 2.75228 14.3232 2.76383C14.2557 2.77537 14.1863 2.7654 14.1248 2.73533C13.8328 2.58872 13.5307 2.46296 13.2208 2.359C13.1562 2.33688 13.1001 2.29497 13.0607 2.2392C13.0212 2.18344 13.0002 2.11666 13.0008 2.04833V1C13.0008 0.447708 12.5531 0 12.0008 0H10.0008C9.44854 0 9.00083 0.447708 9.00083 1V2.04833C9.00153 2.1165 8.9808 2.18316 8.94156 2.23891C8.90233 2.29465 8.84657 2.33666 8.78217 2.359C8.47248 2.46293 8.17051 2.58858 7.8785 2.735C7.81702 2.76529 7.74754 2.77541 7.67997 2.76392C7.6124 2.75243 7.55018 2.71991 7.50217 2.671L6.75783 1.92767C6.36692 1.53863 5.73508 1.53863 5.34417 1.92767L3.9295 3.34233C3.53913 3.73283 3.53913 4.36583 3.9295 4.75633L5.0225 5.85133C5.08528 5.91215 5.16944 5.94587 5.25684 5.94524C5.34424 5.9446 5.4279 5.90967 5.48979 5.84795C5.55168 5.78623 5.58686 5.70267 5.58774 5.61527C5.58862 5.52787 5.55514 5.44362 5.4945 5.38067L4.40083 4.286C4.33834 4.22349 4.30324 4.13872 4.30324 4.05033C4.30324 3.96195 4.33834 3.87718 4.40083 3.81467L5.8155 2.4C5.87801 2.33751 5.96278 2.3024 6.05117 2.3024C6.13955 2.3024 6.22432 2.33751 6.28683 2.4L7.0315 3.14333C7.17841 3.2911 7.36815 3.3888 7.57376 3.42255C7.77938 3.4563 7.9904 3.42438 8.17683 3.33133C8.44088 3.19912 8.71388 3.08562 8.99383 2.99167C9.19088 2.92496 9.36195 2.79797 9.48285 2.62868C9.60375 2.45939 9.66835 2.25636 9.6675 2.04833V1C9.6675 0.911595 9.70262 0.82681 9.76513 0.764298C9.82764 0.701786 9.91243 0.666667 10.0008 0.666667H12.0008C12.0892 0.666667 12.174 0.701786 12.2365 0.764298C12.299 0.82681 12.3342 0.911595 12.3342 1V2.04833C12.3333 2.25632 12.3979 2.4593 12.5188 2.62853C12.6397 2.79777 12.8108 2.92469 13.0078 2.99133C13.2879 3.08532 13.561 3.19894 13.8252 3.33133C14.0117 3.4239 14.2226 3.45553 14.428 3.42173C14.6335 3.38794 14.8231 3.29043 14.9702 3.143L15.7148 2.4C15.7773 2.33751 15.8621 2.3024 15.9505 2.3024C16.0389 2.3024 16.1237 2.33751 16.1862 2.4L17.6008 3.815C17.6632 3.8775 17.6983 3.96219 17.6983 4.0505C17.6983 4.13881 17.6632 4.2235 17.6008 4.286L16.8575 5.03067C16.7099 5.17765 16.6123 5.36739 16.5785 5.57297C16.5448 5.77855 16.5766 5.98953 16.6695 6.176C16.8017 6.44005 16.9152 6.71305 17.0092 6.993C17.0758 7.19008 17.2028 7.36118 17.3721 7.48209C17.5414 7.603 17.7445 7.66757 17.9525 7.66667H19.0008C19.0892 7.66667 19.174 7.70179 19.2365 7.7643C19.299 7.82681 19.3342 7.91159 19.3342 8V10C19.3342 10.0884 19.299 10.1732 19.2365 10.2357C19.174 10.2982 19.0892 10.3333 19.0008 10.3333H17.9525C17.7445 10.3325 17.5415 10.3971 17.3723 10.518C17.2031 10.6389 17.0761 10.81 17.0095 11.007C16.9155 11.2871 16.8019 11.5602 16.6695 11.8243C16.5768 12.0108 16.5451 12.2217 16.5789 12.4272C16.6127 12.6327 16.7103 12.8224 16.8578 12.9693L17.6012 13.714C17.6637 13.7765 17.6988 13.8613 17.6988 13.9497C17.6988 14.0381 17.6637 14.1228 17.6012 14.1853L16.1858 15.6C16.1233 15.6624 16.0386 15.6974 15.9503 15.6974C15.862 15.6974 15.7773 15.6624 15.7148 15.6L14.6195 14.507C14.558 14.4435 14.4738 14.407 14.3854 14.4056C14.297 14.4042 14.2117 14.438 14.1482 14.4995C14.116 14.5306 14.0905 14.5679 14.0731 14.6091C14.0556 14.6503 14.0467 14.6946 14.0468 14.7394C14.0468 14.7841 14.0559 14.8284 14.0734 14.8696C14.091 14.9107 14.1166 14.948 14.1488 14.979L15.2438 16.072C15.6343 16.4622 16.267 16.4622 16.6575 16.072L18.0722 14.6577C18.4625 14.2672 18.4625 13.6342 18.0722 13.2437L17.3298 12.5C17.2811 12.452 17.2486 12.3898 17.2371 12.3224C17.2255 12.2549 17.2355 12.1855 17.2655 12.124C17.4121 11.8319 17.5379 11.5298 17.6418 11.22C17.664 11.1554 17.7059 11.0993 17.7616 11.0598C17.8174 11.0203 17.8842 10.9994 17.9525 11H19.0008C19.5531 11 20.0008 10.5523 20.0008 10V8C20.0008 7.44771 19.5531 7 19.0008 7Z" fill="#424242"/>
<path d="M14.0653 5.93525C12.3721 4.24554 9.63057 4.24554 7.93732 5.93525C7.8766 5.99812 7.843 6.08232 7.84376 6.16972C7.84452 6.25712 7.87958 6.34072 7.94138 6.40252C8.00318 6.46432 8.08679 6.49938 8.17419 6.50014C8.26159 6.5009 8.34579 6.4673 8.40865 6.40658C9.83095 4.96508 12.1525 4.94954 13.594 6.37183C15.0355 7.79412 15.051 10.1157 13.6287 11.5572C13.6172 11.5688 13.6057 11.5804 13.594 11.5919C13.5304 11.6533 13.4938 11.7375 13.4923 11.8259C13.4908 11.9143 13.5244 11.9997 13.5858 12.0632C13.6169 12.0954 13.6542 12.121 13.6953 12.1385C13.7365 12.156 13.7808 12.165 13.8256 12.165C13.8703 12.165 13.9146 12.156 13.9558 12.1385C13.997 12.121 14.0342 12.0954 14.0653 12.0632C15.755 10.37 15.755 7.6285 14.0653 5.93525Z" fill="#424242"/>
</svg>
