<svg width="23" height="17" viewBox="0 0 23 17" fill="none" xmlns="http://www.w3.org/2000/svg">
<path d="M22.6309 8.48359H20.6242V1.22461H22.6309C22.7215 1.22461 22.8084 1.1886 22.8725 1.1245C22.9366 1.0604 22.9727 0.973463 22.9727 0.882813C22.9727 0.792162 22.9366 0.705225 22.8725 0.641126C22.8084 0.577026 22.7215 0.541016 22.6309 0.541016H20.2824C20.2375 0.54099 20.1931 0.549813 20.1516 0.566981C20.1101 0.584149 20.0724 0.609325 20.0407 0.641068C20.0089 0.672812 19.9838 0.710502 19.9666 0.751982C19.9494 0.793463 19.9406 0.83792 19.9406 0.882813V1.73594H13.4633C12.7546 1.73513 12.0652 1.96637 11.5004 2.39434C10.9335 1.96669 10.2427 1.73554 9.53262 1.73594H3.05547V0.882813C3.05549 0.83792 3.04667 0.793463 3.0295 0.751982C3.01234 0.710502 2.98716 0.672812 2.95542 0.641068C2.92367 0.609325 2.88598 0.584149 2.8445 0.566981C2.80302 0.549813 2.75856 0.54099 2.71367 0.541016H0.365234C0.274584 0.541016 0.187647 0.577026 0.123548 0.641126C0.0594482 0.705225 0.0234375 0.792162 0.0234375 0.882813C0.0234375 0.973463 0.0594482 1.0604 0.123548 1.1245C0.187647 1.1886 0.274584 1.22461 0.365234 1.22461H2.37188V8.48359H0.365234C0.274584 8.48359 0.187647 8.51961 0.123548 8.5837C0.0594482 8.6478 0.0234375 8.73474 0.0234375 8.82539C0.0234375 8.91604 0.0594482 9.00298 0.123548 9.06708C0.187647 9.13118 0.274584 9.16719 0.365234 9.16719H2.71367C2.75856 9.16721 2.80302 9.15839 2.8445 9.14122C2.88598 9.12405 2.92367 9.09888 2.95542 9.06713C2.98716 9.03539 3.01234 8.9977 3.0295 8.95622C3.04667 8.91474 3.05549 8.87028 3.05547 8.82539V7.97266H3.78203L3.99551 8.37148C4.2828 8.90793 4.64744 9.39919 5.07773 9.82949L11.3396 16.0912C11.503 16.2551 11.7085 16.3707 11.9334 16.425C12.1584 16.4794 12.394 16.4705 12.6142 16.3992C12.8343 16.328 13.0305 16.1973 13.181 16.0215C13.3315 15.8457 13.4304 15.6317 13.4668 15.4031C13.6816 15.4641 13.9088 15.4666 14.125 15.4104C14.3411 15.3541 14.5383 15.2412 14.6961 15.0832C14.8825 14.8967 15.0051 14.656 15.0463 14.3955C15.1572 14.4267 15.2719 14.4427 15.3871 14.443C15.6854 14.4436 15.9741 14.3377 16.2011 14.1444C16.4282 13.951 16.5787 13.6828 16.6256 13.3883C16.7366 13.4196 16.8514 13.4357 16.9668 13.4359C17.2154 13.436 17.4584 13.3623 17.665 13.2242C17.8717 13.0861 18.0328 12.8899 18.128 12.6602C18.2231 12.4306 18.248 12.1779 18.1995 11.9341C18.151 11.6903 18.0313 11.4664 17.8555 11.2906L17.1562 10.5914L17.918 9.82969C18.3483 9.39939 18.7129 8.90812 19.0002 8.37168L19.2137 7.97285H19.9402V8.82598C19.9402 8.87087 19.949 8.91533 19.9662 8.95681C19.9834 8.99829 20.0085 9.03598 20.0403 9.06772C20.072 9.09946 20.1097 9.12464 20.1512 9.14181C20.1927 9.15898 20.2371 9.1678 20.282 9.16777H22.6309C22.7215 9.16777 22.8084 9.13176 22.8725 9.06766C22.9366 9.00356 22.9727 8.91663 22.9727 8.82598C22.9727 8.73533 22.9366 8.64839 22.8725 8.58429C22.8084 8.52019 22.7215 8.48418 22.6309 8.48418V8.48359ZM17.5398 12.1793C17.5397 12.2926 17.5061 12.4033 17.4431 12.4975C17.3801 12.5917 17.2906 12.6651 17.1859 12.7084C17.0812 12.7517 16.966 12.7631 16.8549 12.741C16.7438 12.7189 16.6417 12.6644 16.5615 12.5844L13.3818 9.40469C13.3178 9.34061 13.2309 9.30461 13.1402 9.30461C13.0496 9.30461 12.9627 9.34061 12.8986 9.40469C12.8346 9.46877 12.7986 9.55567 12.7986 9.64629C12.7986 9.73691 12.8346 9.82381 12.8986 9.88789L15.7932 12.7828C15.9005 12.8904 15.9606 13.0362 15.9605 13.1881C15.9603 13.34 15.8998 13.4857 15.7922 13.593C15.6846 13.7003 15.5388 13.7605 15.3869 13.7603C15.235 13.7601 15.0893 13.6996 14.982 13.592L12.0881 10.6982C12.0564 10.6665 12.0187 10.6413 11.9772 10.6242C11.9358 10.607 11.8914 10.5982 11.8465 10.5982C11.8016 10.5982 11.7572 10.607 11.7157 10.6242C11.6743 10.6413 11.6366 10.6665 11.6049 10.6982C11.5732 10.73 11.548 10.7676 11.5308 10.8091C11.5136 10.8505 11.5048 10.895 11.5048 10.9398C11.5048 10.9847 11.5136 11.0291 11.5308 11.0706C11.548 11.1121 11.5732 11.1497 11.6049 11.1814L14.2129 13.7895C14.3204 13.8969 14.3807 14.0426 14.3807 14.1946C14.3808 14.3465 14.3204 14.4922 14.213 14.5997C14.1056 14.7072 13.9598 14.7675 13.8079 14.7676C13.6559 14.7676 13.5102 14.7072 13.4027 14.5998L10.7949 11.992C10.7308 11.9279 10.6439 11.8919 10.5533 11.8919C10.4627 11.8919 10.3758 11.9279 10.3117 11.992C10.2476 12.0561 10.2116 12.143 10.2116 12.2336C10.2116 12.3242 10.2476 12.4111 10.3117 12.4752L12.6332 14.7973C12.7405 14.9048 12.8008 15.0505 12.8008 15.2024C12.8008 15.3544 12.7405 15.5001 12.6332 15.6076C12.524 15.7117 12.379 15.7697 12.2281 15.7697C12.0773 15.7697 11.9322 15.7117 11.823 15.6076L5.56055 9.3457C5.17772 8.96287 4.85335 8.52576 4.59785 8.04844L4.2877 7.46914C4.25848 7.41462 4.21502 7.36904 4.16195 7.33726C4.10888 7.30548 4.04819 7.28869 3.98633 7.28867H3.05547V2.41953H9.53262C10.0486 2.42006 10.5525 2.57517 10.9795 2.86484L7.67383 6.17051C7.55713 6.28721 7.46455 6.42576 7.40139 6.57823C7.33824 6.73071 7.30573 6.89414 7.30573 7.05918C7.30573 7.22422 7.33824 7.38765 7.40139 7.54013C7.46455 7.6926 7.55713 7.83115 7.67383 7.94785C7.79053 8.06455 7.92908 8.15713 8.08155 8.22029C8.23403 8.28344 8.39746 8.31595 8.5625 8.31595C8.72754 8.31595 8.89097 8.28344 9.04345 8.22029C9.19592 8.15713 9.33447 8.06455 9.45117 7.94785L11.498 5.90039L17.3719 11.774C17.4253 11.8271 17.4676 11.8903 17.4964 11.9598C17.5253 12.0294 17.54 12.104 17.5398 12.1793ZM19.0094 7.28867C18.9475 7.28866 18.8868 7.30545 18.8337 7.33723C18.7807 7.36901 18.7372 7.4146 18.708 7.46914L18.3979 8.04844C18.1425 8.52577 17.8183 8.96289 17.4355 9.3457L16.6738 10.1074L11.7396 5.17539C11.7079 5.14363 11.6703 5.11843 11.6288 5.10124C11.5874 5.08405 11.5429 5.0752 11.498 5.0752C11.4532 5.0752 11.4087 5.08405 11.3673 5.10124C11.3258 5.11843 11.2882 5.14363 11.2564 5.17539L8.96738 7.46484C8.85948 7.57017 8.71442 7.62872 8.56364 7.62781C8.41286 7.6269 8.26851 7.5666 8.16189 7.45998C8.05528 7.35336 7.99497 7.20901 7.99406 7.05823C7.99315 6.90745 8.05171 6.76239 8.15703 6.65449L11.6336 3.17793C11.8733 2.93686 12.1585 2.74573 12.4726 2.61562C12.7867 2.4855 13.1235 2.41899 13.4635 2.41992H19.9408V7.28906L19.0094 7.28867Z" fill="black"/>
</svg>
