<svg width="18" height="20" viewBox="0 0 18 20" fill="none" xmlns="http://www.w3.org/2000/svg">
<path d="M5.15113 11.0012C3.97735 11.09 2.84375 11.4724 1.85209 12.1142C1.0418 12.6882 0.544051 13.4146 0.544051 14.1995V19.4481H17.4559V14.1995C17.4559 13.438 16.9929 12.7234 16.2174 12.161C15.2753 11.5276 14.1943 11.1374 13.0688 11.0246C12.577 11.6002 11.9683 12.0614 11.2841 12.3769C10.5999 12.6923 9.85647 12.8545 9.10465 12.8522C8.35284 12.85 7.61036 12.6835 6.92802 12.364C6.24567 12.0445 5.63956 11.5796 5.15113 11.0012ZM1.55113 11.669C2.65818 10.9469 3.92934 10.5234 5.24373 10.4388C5.40579 10.4154 5.46367 10.5209 5.54469 10.6263C5.98811 11.1532 6.54005 11.5755 7.16181 11.8637C7.78356 12.1518 8.46007 12.2988 9.1439 12.2944C9.82773 12.2899 10.5023 12.1341 11.1203 11.8378C11.7384 11.5416 12.2849 11.1121 12.7215 10.5794C12.8257 10.4388 12.9415 10.4623 13.0688 10.4623C14.4579 10.5794 15.6617 11.0832 16.5415 11.7276C17.4444 12.3836 18 13.2506 18 14.1995V19.7292C18 19.8815 17.8842 19.9987 17.7338 19.9987H0.277813C0.241889 20.0003 0.20602 19.9945 0.17237 19.9816C0.138721 19.9688 0.107988 19.9492 0.0820264 19.924C0.0560647 19.8989 0.035412 19.8686 0.0213143 19.8351C0.00721657 19.8017 -3.38851e-05 19.7656 1.19055e-07 19.7292V14.1995C1.19055e-07 13.2271 0.578778 12.3368 1.55113 11.669Z" fill="#424242"/>
<path d="M9.0452 0.000263517C10.0798 -0.0102272 11.0938 0.292728 11.9569 0.870174C12.82 1.44762 13.4927 2.27316 13.8885 3.24064C14.2843 4.20812 14.3852 5.27331 14.178 6.29925C13.9709 7.32519 13.4653 8.26498 12.7262 8.99777C12.0022 9.74577 11.0736 10.2575 10.0599 10.4671C9.04626 10.6767 7.99379 10.5747 7.03787 10.1741C6.08194 9.7735 5.26627 9.09267 4.69572 8.21914C4.12517 7.34561 3.82583 6.31932 3.8362 5.27224C3.83313 4.57904 3.96578 3.8921 4.22647 3.25108C4.48716 2.61005 4.87074 2.02764 5.35505 1.53747C5.83936 1.04731 6.41481 0.659094 7.04818 0.395251C7.68155 0.131408 8.36029 -0.00283807 9.0452 0.000263517ZM12.3442 1.93332C11.694 1.26707 10.8623 0.812123 9.9554 0.626605C9.04847 0.441087 8.10748 0.533421 7.25265 0.891809C6.39782 1.2502 5.66797 1.85837 5.15632 2.63863C4.64468 3.41888 4.37448 4.3358 4.38025 5.27224C4.37448 6.20868 4.64468 7.12559 5.15632 7.90585C5.66797 8.68611 6.39782 9.29428 7.25265 9.65267C8.10748 10.0111 9.04847 10.1034 9.9554 9.91787C10.8623 9.73235 11.694 9.27741 12.3442 8.61116C12.7789 8.17351 13.1239 7.65323 13.3593 7.08023C13.5946 6.50722 13.7158 5.89279 13.7158 5.27224C13.7158 4.65169 13.5946 4.03725 13.3593 3.46425C13.1239 2.89124 12.7789 2.37097 12.3442 1.93332Z" fill="#424242"/>
</svg>
