<svg width="20" height="20" viewBox="0 0 20 20" fill="none" xmlns="http://www.w3.org/2000/svg">
<path d="M10.7552 0.312769C10.3382 -0.104256 9.66181 -0.104256 9.24457 0.312769L0.312769 9.24479C-0.104256 9.66181 -0.104256 10.3382 0.312769 10.7555L9.24457 19.6872C9.66159 20.1043 10.338 20.1043 10.7552 19.6872L19.687 10.7555C20.104 10.3384 20.104 9.66207 19.687 9.24479L10.7552 0.312769ZM11.1816 15.9498C11.1816 16.001 11.1613 16.05 11.1251 16.0861C11.089 16.1223 11.04 16.1426 10.9888 16.1426H9.01941C8.96829 16.1426 8.91927 16.1223 8.88312 16.0861C8.84697 16.05 8.82665 16.001 8.82663 15.9498V13.9804C8.82664 13.9293 8.84695 13.8803 8.88311 13.8441C8.91926 13.808 8.96829 13.7877 9.01941 13.7876H10.9888C11.04 13.7876 11.089 13.808 11.1252 13.8441C11.1613 13.8803 11.1816 13.9293 11.1816 13.9804V15.9498ZM11.2739 6.74016L10.6889 12.7831C10.6786 12.889 10.5841 12.9751 10.4776 12.9751H9.53049C9.42395 12.9751 9.32946 12.8892 9.31899 12.7831L8.72615 6.74016V4.05015C8.72616 3.99903 8.74648 3.95 8.78263 3.91386C8.81878 3.87771 8.86781 3.85741 8.91893 3.85741H11.0811C11.1323 3.85742 11.1813 3.87773 11.2174 3.91387C11.2536 3.95002 11.2739 3.99904 11.2739 4.05015V6.74016Z" fill="#999999"/>
</svg>
