<svg width="24" height="24" viewBox="0 0 24 24" fill="none" xmlns="http://www.w3.org/2000/svg">
<g clip-path="url(#clip0_1294_118806)">
<path d="M20.7273 0H3.27273C1.46525 0 0 1.46525 0 3.27273V20.7273C0 22.5347 1.46525 24 3.27273 24H20.7273C22.5347 24 24 22.5347 24 20.7273V3.27273C24 1.46525 22.5347 0 20.7273 0Z" fill="#1C8ADB"/>
<path d="M18.5362 6.20528L18.288 6.29528L4.81802 11.1485C4.72256 11.178 4.6396 11.2383 4.58213 11.3201C4.52466 11.4018 4.49594 11.5003 4.50046 11.6001C4.50499 11.6999 4.5425 11.7954 4.60712 11.8716C4.67175 11.9478 4.75983 12.0004 4.85757 12.0212L8.34438 12.9757L8.99484 14.8848L9.64529 16.7939C9.68266 16.8875 9.7423 16.9706 9.81905 17.0359C9.8958 17.1012 9.98733 17.1467 10.0857 17.1686C10.184 17.1905 10.2863 17.1881 10.3835 17.1615C10.4807 17.135 10.5699 17.0851 10.6435 17.0162L12.4448 15.3144L15.9821 17.713C16.4144 18.0076 17.0307 17.7894 17.1412 17.3039L19.4839 6.95255C19.5985 6.43983 19.0585 6.01846 18.5362 6.20528ZM16.8167 8.50301L10.7307 13.4776L10.4444 13.7121C10.3815 13.762 10.3404 13.8343 10.3298 13.9139L10.2657 14.443L10.0898 15.9294C10.0913 15.9475 10.0855 15.9654 10.0737 15.9792C10.062 15.993 10.0452 16.0016 10.0271 16.003C10.009 16.0045 9.99111 15.9987 9.9773 15.9869C9.96349 15.9751 9.95492 15.9584 9.95347 15.9403L9.45848 14.4553L8.94711 12.9348C8.92548 12.8665 8.92836 12.7927 8.95524 12.7263C8.98212 12.6598 9.03132 12.6048 9.09438 12.5707L15.4271 8.94073L16.6189 8.25892C16.7921 8.15801 16.9694 8.37755 16.8167 8.50301Z" fill="white"/>
</g>
<defs>
<clipPath id="clip0_1294_118806">
<rect width="24" height="24" fill="white"/>
</clipPath>
</defs>
</svg>
