<svg width="24" height="24" viewBox="0 0 24 24" fill="none" xmlns="http://www.w3.org/2000/svg">
<g clip-path="url(#clip0_1294_118800)">
<path d="M19.708 23.5916C14.5862 24.1381 9.42075 24.1381 4.29892 23.5916C3.3043 23.4866 2.37575 23.0438 1.66804 22.3371C0.960338 21.6304 0.516254 20.7025 0.409826 19.708C-0.136609 14.5862 -0.136609 9.42075 0.409826 4.29892C0.514858 3.3043 0.957639 2.37575 1.66435 1.66804C2.37106 0.960338 3.299 0.516254 4.29346 0.409826C9.41529 -0.136609 14.5807 -0.136609 19.7026 0.409826C20.6972 0.514858 21.6257 0.957639 22.3334 1.66435C23.0411 2.37106 23.4852 3.299 23.5916 4.29346C24.1381 9.41529 24.1381 14.5807 23.5916 19.7026C23.4866 20.6972 23.0438 21.6257 22.3371 22.3334C21.6304 23.0411 20.7025 23.4852 19.708 23.5916Z" fill="#E60000"/>
<path d="M19.1499 8.39181C18.8499 7.46863 17.8572 6.90953 16.9435 6.78135C13.6573 6.43226 10.3434 6.43226 7.05715 6.78135C6.14352 6.90953 5.14806 7.46317 4.85079 8.39181C4.38307 10.775 4.38307 13.2264 4.85079 15.6095C5.15079 16.5314 6.14352 17.0918 7.05715 17.22C10.3434 17.5691 13.6573 17.5691 16.9435 17.22C17.8572 17.0918 18.8526 16.5382 19.1499 15.6095C19.6176 13.2264 19.6176 10.775 19.1499 8.39181ZM10.2058 14.8745V9.12544L14.8858 12C13.3081 12.9695 11.7767 13.9091 10.2058 14.8745Z" fill="white"/>
</g>
<defs>
<clipPath id="clip0_1294_118800">
<rect width="24" height="24" fill="white"/>
</clipPath>
</defs>
</svg>
