<svg width="12" height="12" viewBox="0 0 12 12" fill="none" xmlns="http://www.w3.org/2000/svg">
<path d="M11.216 6.44517C10.7046 5.89826 9.94622 5.51816 8.94041 5.30459C9.64526 5.0077 10.0714 4.80721 10.2191 4.70309C10.577 4.45827 10.8469 4.18477 11.0285 3.88274C11.2103 3.58059 11.3011 3.24728 11.3011 2.88275C11.3011 2.54424 11.2416 2.22655 11.1222 1.92966C11.0028 1.63271 10.8182 1.3619 10.5682 1.11713C10.3126 0.872423 10.0228 0.674395 9.6989 0.52335C9.39773 0.387984 9.12498 0.286439 8.88065 0.218742C8.29547 0.0780948 7.75283 0.00777117 7.25288 0.00777117H6.62218C6.50856 0.00777117 6.39334 0.00645773 6.27689 0.00383086C6.16053 0.00136816 6.09945 0 6.09378 0C6.06545 0 6.0256 0.00136816 5.97431 0.00385822C5.92318 0.0064851 5.8833 0.00779853 5.85494 0.00779853L5.47135 0.0156518L2.2328 0.117197L0.0169257 0.164098L0.0510161 0.81247C0.528221 0.869824 0.852228 0.903782 1.02262 0.914125C1.31239 0.929749 1.50842 0.968906 1.61072 1.03132C1.67329 1.07305 1.70738 1.10427 1.71305 1.1251C1.76983 1.23967 1.801 1.5235 1.80679 1.97667C1.82947 2.74752 1.85512 3.79958 1.88345 5.13286L1.90049 9.0156C1.90049 9.68214 1.87497 10.1875 1.82383 10.5312C1.80111 10.6562 1.74138 10.789 1.64481 10.9297C1.38343 11.0285 1.03402 11.1094 0.596521 11.1718C0.465921 11.1874 0.272693 11.2186 0.0170451 11.2657L0 12C1.35791 11.9582 2.13061 11.9297 2.31835 11.914C3.53417 11.8462 4.38087 11.8177 4.85811 11.828L6.53701 11.8592C7.19634 11.88 7.7588 11.8513 8.22463 11.7733C8.96321 11.6483 9.53979 11.4919 9.95476 11.3044C10.3751 11.1169 10.7728 10.8356 11.1477 10.4607C11.4321 10.1743 11.6336 9.86963 11.7529 9.54658C11.9177 9.10401 12 8.6848 12 8.28888C12.0001 7.61194 11.7389 6.99728 11.216 6.44517ZM4.54276 0.906436C4.98593 0.838739 5.35525 0.804891 5.65069 0.804891C6.62224 0.804891 7.34685 1.00024 7.82403 1.39082C8.30669 1.78135 8.54831 2.26839 8.54831 2.85166C8.54831 3.67984 8.29556 4.26314 7.78991 4.60165C7.28425 4.94014 6.53421 5.10946 5.53992 5.10946C5.16492 5.10946 4.85527 5.09127 4.611 5.05482C4.60524 4.8777 4.6024 4.6772 4.6024 4.45321L4.611 3.68761C4.61661 2.87 4.59957 2.14347 4.55983 1.50796C4.54843 1.33612 4.54276 1.13574 4.54276 0.906436ZM8.8042 9.92956C8.59395 10.3045 8.24726 10.5988 7.76447 10.8124C7.28145 11.026 6.66773 11.1327 5.92351 11.1327C5.55986 11.1327 5.16212 11.0495 4.73032 10.8828C4.66213 10.7319 4.62801 10.6171 4.62789 10.539L4.6024 8.42961L4.611 7.07809V5.95307C4.76443 5.901 5.0514 5.875 5.47182 5.875C6.42071 5.875 7.12234 5.95835 7.57692 6.12497C8.04848 6.29177 8.44911 6.61986 8.77867 7.10944C9.0116 7.45329 9.12805 7.92197 9.12805 8.51575C9.12794 9.09372 9.01993 9.56502 8.8042 9.92956Z" fill="#999999"/>
</svg>
