<svg width="10" height="12" viewBox="0 0 10 12" fill="none" xmlns="http://www.w3.org/2000/svg">
<path d="M9.61207 0H0.381305C0.190125 0 0.0351562 0.154992 0.0351562 0.346148V1.32471C0.0351562 1.51589 0.190148 1.67086 0.381305 1.67086H9.61207C9.80325 1.67086 9.95822 1.51587 9.95822 1.32471V0.346148C9.95822 0.154992 9.80325 0 9.61207 0ZM8.45822 2.58227H1.53516C1.34398 2.58227 1.18901 2.73727 1.18901 2.92842V3.90698C1.18901 4.09816 1.344 4.25313 1.53516 4.25313H8.45824C8.64942 4.25313 8.80439 4.09814 8.80439 3.90698V2.92842C8.80439 2.73727 8.6494 2.58227 8.45822 2.58227ZM9.61207 5.16457H0.381305C0.190125 5.16457 0.0351562 5.31956 0.0351562 5.51072V6.48928C0.0351562 6.68046 0.190148 6.83543 0.381305 6.83543H9.61207C9.80325 6.83543 9.95822 6.68044 9.95822 6.48928V5.51072C9.95822 5.31956 9.80325 5.16457 9.61207 5.16457ZM8.45822 7.74684H1.53516C1.34398 7.74684 1.18901 7.90184 1.18901 8.09299V9.07156C1.18901 9.26273 1.344 9.4177 1.53516 9.4177H8.45824C8.64942 9.4177 8.80439 9.26271 8.80439 9.07156V8.09299C8.80439 7.90184 8.6494 7.74684 8.45822 7.74684ZM9.61207 10.3291H0.381305C0.190125 10.3291 0.0351562 10.4841 0.0351562 10.6753V11.6539C0.0351562 11.845 0.190148 12 0.381305 12H9.61207C9.80325 12 9.95822 11.845 9.95822 11.6539V10.6753C9.95822 10.4841 9.80325 10.3291 9.61207 10.3291Z" fill="#999999"/>
</svg>
