<svg width="20" height="20" viewBox="0 0 20 20" fill="none" xmlns="http://www.w3.org/2000/svg">
<path d="M4 0C1.801 0 0 1.801 0 4V14.77L4.531 10.738C5.418 9.95 6.778 9.83 7.766 10.563L9.559 11.893C9.763 12.043 10.027 12.023 10.207 11.843L13.379 8.672C13.5899 8.46234 13.8405 8.29673 14.116 8.1848C14.3916 8.07286 14.6866 8.01684 14.984 8.02C15.564 8.022 16.144 8.237 16.586 8.639L20 11.74V4C20 1.801 18.199 0 16 0H4ZM5.48 3.962C5.88286 3.962 6.26923 4.12204 6.5541 4.4069C6.83896 4.69177 6.999 5.07814 6.999 5.481C6.999 5.88386 6.83896 6.27023 6.5541 6.5551C6.26923 6.83996 5.88286 7 5.48 7C5.08667 6.98573 4.71422 6.81944 4.44101 6.53613C4.1678 6.25282 4.01513 5.87458 4.01513 5.481C4.01513 5.08742 4.1678 4.70918 4.44101 4.42587C4.71422 4.14256 5.08667 3.97627 5.48 3.962ZM14.793 10.086L11.621 13.258C10.751 14.128 9.356 14.231 8.367 13.498L6.574 12.17C6.362 12.013 6.089 12.03 5.859 12.234L0.221 17.25C0.75 18.838 2.24 20 4 20H16C18.199 20 20 18.199 20 16V14.441L15.24 10.117C15.097 9.994 14.912 9.951 14.793 10.086Z" fill="#999999"/>
</svg>
