<svg width="16" height="18" viewBox="0 0 16 18" fill="none" xmlns="http://www.w3.org/2000/svg">
<path d="M14.924 0H1.07782C0.791047 0 0.558594 0.232488 0.558594 0.519223V1.98707C0.558594 2.27384 0.791082 2.50629 1.07782 2.50629H14.924C15.2107 2.50629 15.4432 2.2738 15.4432 1.98707V0.519223C15.4432 0.232488 15.2107 0 14.924 0ZM11.4624 3.87341H1.07782C0.791047 3.87341 0.558594 4.1059 0.558594 4.39263V5.86048C0.558594 6.14725 0.791082 6.3797 1.07782 6.3797H11.4624C11.7492 6.3797 11.9817 6.14721 11.9817 5.86048V4.39263C11.9817 4.1059 11.7492 3.87341 11.4624 3.87341ZM14.924 7.74686H1.07782C0.791047 7.74686 0.558594 7.97934 0.558594 8.26608V9.73392C0.558594 10.0207 0.791082 10.2531 1.07782 10.2531H14.924C15.2107 10.2531 15.4432 10.0207 15.4432 9.73392V8.26608C15.4432 7.97934 15.2107 7.74686 14.924 7.74686ZM11.4624 11.6203H1.07782C0.791047 11.6203 0.558594 11.8528 0.558594 12.1395V13.6073C0.558594 13.8941 0.791082 14.1266 1.07782 14.1266H11.4624C11.7492 14.1266 11.9817 13.8941 11.9817 13.6073V12.1395C11.9817 11.8528 11.7492 11.6203 11.4624 11.6203ZM14.924 15.4937H1.07782C0.791047 15.4937 0.558594 15.7262 0.558594 16.0129V17.4808C0.558594 17.7675 0.791082 18 1.07782 18H14.924C15.2107 18 15.4432 17.7675 15.4432 17.4808V16.0129C15.4432 15.7262 15.2107 15.4937 14.924 15.4937Z" fill="#999999"/>
</svg>
