<svg width="12" height="12" viewBox="0 0 12 12" fill="none" xmlns="http://www.w3.org/2000/svg">
<path d="M4.21094 0.944336H6.15234L10.0215 11H8.03223L7.24609 8.92871H3.14453L2.32422 11H0.334961L4.21094 0.944336ZM5.19531 3.61035L3.85547 7.0625H6.52832L5.19531 3.61035Z" fill="#999999"/>
<path d="M10.0848 1.52266L8.44256 2.80013C8.38373 2.84205 8.38373 2.91004 8.44256 2.95196C8.50139 2.99388 8.59685 2.99388 8.65568 2.95196L10.199 1.75151L11.7423 2.95185C11.8011 2.99377 11.8965 2.99377 11.9554 2.95185C12.0142 2.90993 12.0142 2.84195 11.9554 2.80003L10.3132 1.52255C10.2818 1.50021 10.2402 1.49063 10.1991 1.49212C10.1578 1.49073 10.1163 1.50031 10.0848 1.52266Z" fill="#999999"/>
</svg>
