<svg width="18" height="18" viewBox="0 0 18 18" fill="none" xmlns="http://www.w3.org/2000/svg">
<path d="M17.619 0.574109H5.11036C5.00931 0.574109 4.91239 0.618035 4.84093 0.696224C4.76947 0.774413 4.72933 0.88046 4.72933 0.991036V3.2339C4.72933 3.34447 4.76947 3.45052 4.84093 3.52871C4.91239 3.6069 5.00931 3.65082 5.11036 3.65082H17.619C17.72 3.65082 17.8169 3.6069 17.8884 3.52871C17.9599 3.45052 18 3.34447 18 3.2339V0.991036C18 0.88046 17.9599 0.774413 17.8884 0.696224C17.8169 0.618035 17.72 0.574109 17.619 0.574109ZM17.619 7.58599H5.11036C5.00931 7.58599 4.91239 7.62992 4.84093 7.70811C4.76947 7.78629 4.72933 7.89234 4.72933 8.00292V10.2462C4.72933 10.3568 4.76947 10.4628 4.84093 10.541C4.91239 10.6192 5.00931 10.6631 5.11036 10.6631H17.619C17.72 10.6631 17.8169 10.6192 17.8884 10.541C17.9599 10.4628 18 10.3568 18 10.2462V8.00292C18 7.89234 17.9599 7.78629 17.8884 7.70811C17.8169 7.62992 17.72 7.58599 17.619 7.58599ZM17.619 14.8097H5.11036C5.00931 14.8097 4.91239 14.8536 4.84093 14.9318C4.76947 15.01 4.72933 15.116 4.72933 15.2266V17.4695C4.72933 17.58 4.76947 17.6861 4.84093 17.7643C4.91239 17.8425 5.00931 17.8864 5.11036 17.8864H17.619C17.72 17.8864 17.8169 17.8425 17.8884 17.7643C17.9599 17.6861 18 17.58 18 17.4695V15.2266C18 15.116 17.9599 15.01 17.8884 14.9318C17.8169 14.8536 17.72 14.8097 17.619 14.8097ZM0.351052 1.46696C0.431641 1.47759 0.51261 1.45028 0.573385 1.39191L0.747518 1.22535V3.92975C0.747518 4.01268 0.777627 4.09222 0.83122 4.15086C0.884814 4.2095 0.957502 4.24244 1.03329 4.24244H1.32783C1.36536 4.24244 1.40252 4.23436 1.4372 4.21864C1.47187 4.20293 1.50337 4.17989 1.52991 4.15086C1.55644 4.12182 1.57749 4.08735 1.59186 4.04941C1.60622 4.01147 1.61361 3.97081 1.61361 3.92975V0.312695C1.61361 0.229763 1.5835 0.150228 1.52991 0.0915864C1.47631 0.0329447 1.40363 0 1.32783 0H1.02472C0.956897 0 0.891168 0.0264749 0.839348 0.07463L0.100522 0.763185C0.0463478 0.813652 0.0113266 0.884415 0.00230664 0.961637C-0.00671328 1.03886 0.0109168 1.11699 0.0517492 1.18074L0.151199 1.33604C0.198257 1.4088 0.270654 1.45633 0.351052 1.46696ZM0.485176 6.96956C0.425214 6.99293 0.374096 7.03752 0.339929 7.09628C0.305761 7.15505 0.2905 7.2246 0.296564 7.29393L0.314854 7.50219C0.319358 7.55316 0.335229 7.60215 0.361073 7.64485C0.386917 7.68755 0.421944 7.72265 0.46308 7.74708C0.504217 7.77151 0.550204 7.78452 0.597007 7.78497C0.64381 7.78541 0.689997 7.77328 0.731515 7.74964C0.956325 7.62143 1.09788 7.58808 1.28821 7.63832C1.42347 7.6723 1.51454 7.76047 1.56217 7.89368C1.63419 8.13196 1.63742 8.51011 1.01843 9.32645L0.540998 9.95101C0.428783 10.0944 0.352385 10.1843 0.292944 10.2437C0.263644 10.273 0.240244 10.3086 0.224237 10.3484C0.208229 10.3881 0.199965 10.431 0.199972 10.4745V10.7819C0.199972 10.8649 0.23008 10.9444 0.283673 11.0031C0.337267 11.0617 0.409955 11.0946 0.485748 11.0946H2.22555C2.30134 11.0946 2.37403 11.0617 2.42763 11.0031C2.48122 10.9444 2.51133 10.8649 2.51133 10.7819V10.6198C2.51133 10.5368 2.48122 10.4573 2.42763 10.3987C2.37403 10.34 2.30134 10.3071 2.22555 10.3071H1.31393C1.42627 10.1668 1.53528 10.0234 1.64085 9.87701C2.17487 9.15405 2.60506 8.49177 2.45855 7.71399C2.39968 7.36544 2.22098 7.09568 1.93825 6.93183C1.78088 6.84344 1.58027 6.79862 1.3425 6.79862C1.07254 6.79862 0.768094 6.85929 0.485176 6.96956ZM1.99884 15.7284C2.04647 15.7002 2.09162 15.6681 2.13982 15.6277C2.46713 15.354 2.48294 14.9325 2.48008 14.8178C2.47989 14.4263 2.34443 14.1261 2.06742 13.9004C1.87195 13.7398 1.58465 13.655 1.23658 13.655C0.979949 13.655 0.705604 13.6992 0.463648 13.7792C0.401928 13.7998 0.348349 13.8425 0.311592 13.9005C0.274835 13.9585 0.257053 14.0284 0.261128 14.0988L0.272178 14.2823C0.275057 14.3305 0.288131 14.3774 0.310371 14.4192C0.33261 14.4609 0.363409 14.4965 0.400343 14.5231C0.437277 14.5496 0.479338 14.5664 0.523217 14.5722C0.567096 14.5779 0.611595 14.5724 0.653212 14.5562C0.817819 14.4922 0.952515 14.4624 1.07673 14.4624C1.12036 14.4624 1.1638 14.4663 1.21429 14.4755C1.39337 14.502 1.51206 14.59 1.57627 14.743C1.62142 14.8514 1.61247 15.0442 1.56046 15.1359C1.43586 15.3473 1.09597 15.3896 0.904505 15.3965C0.830309 15.3989 0.759901 15.4329 0.70822 15.4912C0.656538 15.5495 0.627649 15.6276 0.627683 15.7088V15.8459C0.627683 16.0186 0.758568 16.1586 0.916317 16.1586C1.21638 16.1586 1.3566 16.2231 1.4109 16.2597C1.55131 16.3567 1.6138 16.4772 1.61399 16.6596C1.61875 16.8497 1.54769 16.9944 1.3989 17.1017C1.20571 17.2374 0.895931 17.2366 0.540617 17.1084C0.499464 17.0934 0.455728 17.0889 0.412733 17.0951C0.369738 17.1014 0.328614 17.1183 0.292487 17.1446C0.25636 17.1708 0.22618 17.2058 0.20424 17.2467C0.1823 17.2877 0.169177 17.3335 0.165869 17.3809L0.152914 17.5626C0.148135 17.6295 0.163105 17.6963 0.19562 17.7531C0.228135 17.81 0.276476 17.8539 0.333524 17.8785C0.396395 17.9056 0.438499 17.9166 0.528233 17.937C0.691506 17.9779 0.878785 18 1.06968 18C1.35413 18 1.879 17.9485 2.20212 17.6C2.5178 17.2477 2.5782 16.7432 2.49932 16.4057C2.4075 15.976 2.18364 15.818 1.99884 15.7284Z" fill="#999999"/>
</svg>
