<svg width="12" height="12" viewBox="0 0 12 12" fill="none" xmlns="http://www.w3.org/2000/svg">
<path d="M3.23442 5.49983H8.20971C8.04454 5.37497 7.83246 5.23947 7.57352 5.09363C7.10945 4.8541 6.72304 4.68218 6.41496 4.57806C5.46418 4.25524 4.84141 3.91923 4.54675 3.57033C4.25209 3.22137 4.10479 2.85685 4.10479 2.47662C4.10479 2.01821 4.25441 1.63798 4.55348 1.33595C4.85706 1.02875 5.26331 0.875001 5.77223 0.875001C6.31687 0.875001 6.78561 1.11196 7.17852 1.58591C7.41506 1.87748 7.64511 2.41133 7.86823 3.18741L7.96214 3.20296L8.52463 3.2498L8.60508 3.22643C8.62739 3.08573 8.63862 2.9687 8.63862 2.87482C8.63862 2.56231 8.60733 2.08588 8.54471 1.44524C8.49543 1.02872 8.44871 0.721305 8.4041 0.523364C7.90869 0.335958 7.51346 0.210911 7.21882 0.148469C6.69653 0.0494989 6.32363 0 6.10064 0C4.9398 0 4.06265 0.330841 3.46882 0.992167C2.87061 1.65877 2.57154 2.46356 2.57154 3.40623C2.57154 3.8801 2.67868 4.36961 2.89301 4.87484C2.99556 5.10928 3.1094 5.31762 3.23442 5.49983ZM6.62945 7.49978C7.08928 7.71852 7.39518 7.90355 7.54688 8.05442C7.90855 8.43468 8.08932 8.84351 8.08932 9.2809C8.08932 9.63513 7.98431 9.97104 7.77451 10.2887C7.57369 10.6011 7.30143 10.8254 6.95758 10.9605C6.62293 11.1014 6.31256 11.1716 6.02697 11.1716C5.70112 11.1716 5.40648 11.1142 5.14309 10.9997C4.86632 10.8902 4.63191 10.742 4.43992 10.5543C4.23905 10.3616 4.06042 10.1169 3.90419 9.81991C3.88184 9.7784 3.8539 9.708 3.82043 9.60914C3.78701 9.51006 3.73667 9.36435 3.66978 9.17175C3.60525 8.98567 3.53829 8.80075 3.46892 8.61705L2.78589 8.63268V8.97641L2.7725 9.26566C2.76809 9.46343 2.76809 9.6405 2.7725 9.79676C2.78137 10.0467 2.78589 10.453 2.78589 11.0156V11.1172C2.78589 11.1901 2.80372 11.2473 2.83939 11.2891C2.90636 11.3513 3.06707 11.4244 3.32155 11.5077L4.25901 11.8202C4.62056 11.9401 5.05588 12 5.5648 12C6.11397 12 6.56685 11.9453 6.92418 11.8359C7.25013 11.7419 7.59133 11.5701 7.94877 11.3203C8.27015 11.0805 8.51352 10.8698 8.67871 10.6873C8.89278 10.4322 9.05147 10.1614 9.15413 9.87475C9.33731 9.34878 9.42871 8.79669 9.42871 8.21874C9.42871 7.94259 9.41324 7.70314 9.38209 7.49995L6.62945 7.49978ZM11.9398 6.07009C11.8995 6.02327 11.8483 5.99988 11.7857 5.99988H0.214258C0.151728 5.99988 0.100433 6.02327 0.0602315 6.07009C0.0201475 6.11691 0 6.17683 0 6.24989V6.74972C0 6.82278 0.0200537 6.88259 0.0602315 6.92952C0.100433 6.97634 0.151822 6.99957 0.214258 6.99957H11.7857C11.8483 6.99957 11.8995 6.97634 11.9398 6.92952C11.9799 6.88259 12 6.82278 12 6.74972V6.24989C12 6.17683 11.9799 6.11691 11.9398 6.07009Z" fill="#999999"/>
</svg>
