<svg width="12" height="12" viewBox="0 0 12 12" fill="none" xmlns="http://www.w3.org/2000/svg">
<path d="M7.84836 5.29082L5.19726 3.37569C5.04483 3.26556 4.86466 3.26967 4.71525 3.38655C4.56574 3.50355 4.47656 3.71026 4.47656 3.93968V7.73711C4.47656 7.96545 4.5652 8.17178 4.7137 8.28891C4.79123 8.35005 4.8772 8.38078 4.96336 8.38078C5.04397 8.38062 5.12329 8.35399 5.19417 8.3033L7.84534 6.42115C7.92256 6.36634 7.98715 6.28502 8.03226 6.18576C8.07738 6.08651 8.10136 5.97301 8.10167 5.85725C8.10203 5.74146 8.07868 5.6277 8.03409 5.52799C7.9895 5.42828 7.92533 5.34634 7.84836 5.29082ZM5.17978 7.25939V4.42126L7.16118 5.85264L5.17978 7.25939Z" fill="#999999"/>
<path d="M11.9116 2.83221L11.9111 2.82497C11.9009 2.69745 11.7998 1.56317 11.3821 0.986217C10.8994 0.307615 10.352 0.22518 10.0888 0.185664C10.0689 0.182766 10.0491 0.17962 10.0292 0.176226L10.0082 0.173348C8.42187 0.0210419 6.02604 0.000247552 6.00206 0.000123776L5.99995 0L5.99784 0.000123776C5.97387 0.000247552 3.57803 0.0210419 1.97734 0.173348L1.9562 0.176226C1.93916 0.179259 1.92038 0.182044 1.89997 0.1852C1.63979 0.224808 1.09834 0.307398 0.614222 1.01051C0.21642 1.5813 0.101437 2.69129 0.0896243 2.81603L0.0882649 2.83221C0.084679 2.88528 0 4.14857 0 5.41678V6.60231C0 7.87055 0.084679 9.13381 0.0882649 9.187L0.0888977 9.19496C0.0990695 9.32043 0.200131 10.434 0.615862 11.0111C1.0698 11.667 1.64373 11.7538 1.95245 11.8004C2.00124 11.8078 2.04327 11.8141 2.07191 11.8207L2.09966 11.8258C3.01563 11.9409 5.88752 11.9976 6.00928 11.9999L6.01296 12L6.01662 11.9999C6.04059 11.9998 8.43633 11.979 10.0228 11.8267L10.0437 11.8238C10.0638 11.8202 10.0863 11.8171 10.111 11.8137C10.3697 11.7775 10.9082 11.7022 11.3857 11.0086C11.7835 10.4377 11.8986 9.32767 11.9103 9.20306L11.9116 9.18688C11.9152 9.13369 12 7.87052 12 6.60231V5.41678C11.9999 4.14854 11.9152 2.88541 11.9116 2.83221ZM11.2967 6.60231C11.2967 7.77614 11.2191 8.985 11.2117 9.09597C11.1819 9.40169 11.0606 10.1039 10.8668 10.3821C10.5679 10.8161 10.261 10.8592 10.0368 10.8905C10.0119 10.8939 9.98689 10.8976 9.96196 10.9016C8.42754 11.0481 6.12218 11.0706 6.01598 11.0714C5.89688 11.0691 3.06698 11.012 2.17894 10.9031C2.13343 10.8933 2.08426 10.8858 2.03246 10.878C1.76961 10.8383 1.4098 10.7839 1.13315 10.3821L1.12663 10.3729C0.936204 10.111 0.818384 9.45424 0.788431 9.09959C0.782853 9.01573 0.703213 7.79257 0.703213 6.60231V5.41678C0.703213 4.24431 0.780674 3.03675 0.788173 2.9235C0.823798 2.5634 0.947383 1.90368 1.13315 1.637C1.44111 1.18977 1.76586 1.14023 1.98064 1.10746C2.00115 1.1043 2.02027 1.10142 2.03795 1.09839C3.5947 0.951157 5.91663 0.92928 5.99995 0.928445C6.08327 0.929156 8.40439 0.951157 9.94731 1.09839C9.96625 1.10155 9.98695 1.10467 10.0092 1.10807C10.2301 1.14131 10.564 1.19159 10.8704 1.62311L10.8733 1.6271C11.0637 1.88904 11.1815 2.55725 11.2115 2.91901C11.2168 2.9982 11.2967 4.22398 11.2967 5.41678V6.60231Z" fill="#999999"/>
</svg>
