<svg width="16" height="16" viewBox="0 0 16 16" fill="none" xmlns="http://www.w3.org/2000/svg">
<path d="M7.82294 14.3874C7.82294 13.4966 7.13982 12.7746 6.29719 12.7746C5.4544 12.7746 4.77124 13.4966 4.77124 14.3872C4.77124 15.2779 5.4544 16 6.29719 16C7.13935 15.999 7.82205 15.2776 7.82294 14.3873V14.3874ZM5.31249 14.3874C5.31249 13.8125 5.75323 13.3466 6.29719 13.3466C6.84095 13.3466 7.28173 13.8125 7.28173 14.3872C7.28173 14.9621 6.84095 15.428 6.29719 15.428C5.75354 15.4273 5.31307 14.9618 5.31245 14.3873L5.31249 14.3874ZM11.9473 16C12.79 16.0001 13.4732 15.2781 13.4732 14.3873C13.4734 13.4966 12.7902 12.7746 11.9474 12.7746C11.1046 12.7746 10.4215 13.4966 10.4215 14.3874C10.4226 15.2775 11.105 15.9989 11.9473 16H11.9473ZM11.9473 13.3466C12.4911 13.3466 12.932 13.8125 12.932 14.3872C12.9322 14.9619 12.4912 15.428 11.9474 15.428C11.4036 15.428 10.9627 14.9621 10.9627 14.3873C10.9633 13.813 11.4038 13.3474 11.9473 13.3466ZM0.266071 0.572022H1.91677C2.45991 0.569775 2.92304 0.987791 3.0058 1.55531L4.31245 10.2789C4.43584 11.1248 5.12628 11.7481 5.93608 11.7447H14.0129C14.0839 11.7434 14.1515 11.7127 14.2013 11.6592C14.2511 11.6058 14.279 11.5337 14.279 11.4587C14.279 11.3837 14.2511 11.3117 14.2013 11.2582C14.1515 11.2047 14.0839 11.174 14.0129 11.1727H5.93608C5.39294 11.1749 4.92981 10.7568 4.84705 10.1894L4.62492 8.70623H12.897C13.5974 8.70591 14.2207 8.23702 14.4502 7.53778L15.985 2.85638C15.9992 2.81328 16.0034 2.76721 15.9973 2.72203C15.9912 2.67685 15.9749 2.63387 15.9499 2.59669C15.9249 2.5595 15.8918 2.52919 15.8534 2.50828C15.815 2.48738 15.7725 2.47649 15.7293 2.47653H3.69167L3.54041 1.46579C3.41701 0.619908 2.72665 -0.00333689 1.91677 1.34432e-05H0.266071C0.195094 0.00128149 0.127429 0.0319716 0.0776596 0.0854699C0.02789 0.138968 0 0.210991 0 0.286018C0 0.361044 0.02789 0.433068 0.0776596 0.486566C0.127429 0.540064 0.195094 0.570754 0.266071 0.572022ZM15.349 3.0487L13.939 7.35041C13.8638 7.57926 13.7231 7.77771 13.5364 7.91817C13.3496 8.05863 13.1262 8.13415 12.897 8.13422H4.53914L3.7773 3.04853L15.349 3.0487Z" fill="#999B9F"/>
</svg>
