<svg width="8" height="12" viewBox="0 0 8 12" fill="none" xmlns="http://www.w3.org/2000/svg">
<path d="M0.168784 6.3293L7.02019 11.8643C7.24467 12.0455 7.6081 12.0452 7.8322 11.8634C8.05613 11.6815 8.05555 11.3869 7.83105 11.2055L1.38746 5.99998L7.83128 0.794435C8.05576 0.613029 8.05634 0.318632 7.83244 0.136757C7.77913 0.0933571 7.71576 0.0589294 7.64596 0.0354586C7.57616 0.0119867 7.50132 -6.38962e-05 7.42575 0C7.35045 -7.62939e-05 7.27587 0.0118809 7.20628 0.0351868C7.1367 0.0584927 7.07347 0.0926895 7.02022 0.135819L0.168784 5.67068C0.060668 5.75782 -1.90735e-06 5.87642 -1.90735e-06 5.99998C-1.90735e-06 6.12354 0.0608416 6.24199 0.168784 6.3293Z" fill="#8B7AA8"/>
</svg>
