<svg width="24" height="12" viewBox="0 0 24 12" fill="none" xmlns="http://www.w3.org/2000/svg">
<path d="M11.3414 0.253179L0.2714 10.5303C-0.0910828 10.867 -0.0904735 11.4122 0.273275 11.7483C0.636977 12.0842 1.22615 12.0833 1.58891 11.7466L12 2.08119L22.4111 11.7469C22.7739 12.0836 23.3627 12.0845 23.7265 11.7487C23.8133 11.6687 23.8821 11.5736 23.9291 11.4689C23.976 11.3642 24.0001 11.252 24 11.1386C24.0002 11.0257 23.9762 10.9138 23.9296 10.8094C23.883 10.705 23.8146 10.6102 23.7284 10.5303L12.6586 0.253179C12.4844 0.0910034 12.2472 0 12 0C11.7529 0 11.516 0.0912638 11.3414 0.253179Z" fill="white"/>
</svg>
