<svg width="16" height="16" viewBox="0 0 16 16" fill="none" xmlns="http://www.w3.org/2000/svg">
<path d="M8.5394 8L15.8835 0.655864C15.92 0.620674 15.949 0.57858 15.969 0.532039C15.989 0.485498 15.9995 0.435441 16 0.384789C16.0004 0.334137 15.9908 0.283905 15.9716 0.237023C15.9524 0.190141 15.9241 0.147549 15.8883 0.111731C15.8525 0.0759135 15.8099 0.047588 15.763 0.0284071C15.7161 0.00922626 15.6659 -0.000425748 15.6152 1.44031e-05C15.5646 0.000454554 15.5145 0.0109781 15.468 0.0309707C15.4214 0.0509634 15.3793 0.0800249 15.3441 0.11646L8 7.4606L0.655864 0.11646C0.620674 0.0800249 0.57858 0.0509634 0.532039 0.0309707C0.485498 0.0109781 0.435441 0.000454554 0.384789 1.44031e-05C0.334137 -0.000425748 0.283905 0.00922626 0.237023 0.0284071C0.190141 0.047588 0.147549 0.0759135 0.111731 0.111731C0.0759135 0.147549 0.047588 0.190141 0.0284071 0.237023C0.00922626 0.283905 -0.000425748 0.334137 1.44031e-05 0.384789C0.000454554 0.435441 0.0109781 0.485498 0.0309707 0.532039C0.0509634 0.57858 0.0800249 0.620674 0.11646 0.655864L7.4606 8L0.11646 15.3441C0.0449442 15.4157 0.00476915 15.5127 0.00476915 15.6138C0.00476915 15.715 0.0449442 15.812 0.11646 15.8835C0.187996 15.9551 0.285008 15.9952 0.386162 15.9952C0.487315 15.9952 0.584327 15.9551 0.655864 15.8835L8 8.5394L15.3441 15.8835C15.3793 15.92 15.4214 15.949 15.468 15.969C15.5145 15.989 15.5646 15.9995 15.6152 16C15.6659 16.0004 15.7161 15.9908 15.763 15.9716C15.8099 15.9524 15.8525 15.9241 15.8883 15.8883C15.9241 15.8525 15.9524 15.8099 15.9716 15.763C15.9908 15.7161 16.0004 15.6659 16 15.6152C15.9995 15.5646 15.989 15.5145 15.969 15.468C15.949 15.4214 15.92 15.3793 15.8835 15.3441L8.5394 8Z" fill="#212529"/>
</svg>
