<svg width="20" height="20" viewBox="0 0 20 20" fill="none" xmlns="http://www.w3.org/2000/svg">
<path d="M11.2889 2.14708C11.2448 2.12147 11.1923 2.11444 11.143 2.12754C11.0937 2.14063 11.0516 2.17277 11.026 2.21689C11.0004 2.261 10.9934 2.31348 11.0064 2.36279C11.0195 2.41209 11.0517 2.45417 11.0958 2.47977L12.0266 3.02015C12.0484 3.03434 12.0729 3.04393 12.0986 3.04835C12.1243 3.05277 12.1506 3.05192 12.176 3.04585C12.2013 3.03979 12.2252 3.02863 12.2461 3.01306C12.267 2.9975 12.2845 2.97784 12.2976 2.95529C12.3107 2.93275 12.319 2.90778 12.3221 2.8819C12.3253 2.85602 12.3231 2.82978 12.3158 2.80477C12.3085 2.77976 12.2961 2.75649 12.2795 2.73639C12.2629 2.71629 12.2424 2.69978 12.2193 2.68785L11.2889 2.14708Z" fill="#424242"/>
<path d="M18.2591 11.1008C16.9064 10.3227 16.8929 10.2669 16.5233 10.1865L16.5122 5.29423C16.5121 5.26054 16.5032 5.22746 16.4863 5.1983C16.4694 5.16914 16.4452 5.14492 16.416 5.12808C16.4152 5.12808 16.4141 5.12808 16.4129 5.12731L13.2714 3.30192C13.2495 3.28806 13.2251 3.27876 13.1996 3.27457C13.174 3.27037 13.1479 3.27138 13.1228 3.27752C13.0976 3.28367 13.074 3.29482 13.0533 3.31032C13.0325 3.32582 13.0151 3.34534 13.0021 3.36772C12.9891 3.3901 12.9808 3.41487 12.9776 3.44056C12.9744 3.46624 12.9764 3.4923 12.9835 3.51719C12.9906 3.54207 13.0027 3.56526 13.019 3.58538C13.0353 3.60549 13.0555 3.6221 13.0783 3.63423L15.9349 5.29423L13.281 6.82654L6.24832 2.73961L8.90216 1.20731L10.211 1.96808C10.2551 1.99373 10.3076 2.00081 10.357 1.98775C10.4063 1.9747 10.4484 1.94258 10.4741 1.89846C10.4997 1.85434 10.5068 1.80184 10.4938 1.7525C10.4807 1.70317 10.4486 1.66104 10.4045 1.63538L8.99909 0.818844C8.96981 0.801894 8.93657 0.792969 8.90274 0.792969C8.86891 0.792969 8.83567 0.801894 8.80639 0.818844L0.861779 5.405C0.832654 5.4219 0.808456 5.44613 0.791589 5.47528C0.774721 5.50443 0.76577 5.53748 0.765625 5.57115V5.57192L0.791394 14.7042C0.791394 14.7727 0.828317 14.8358 0.887548 14.87L8.30293 19.1796L8.30447 19.18L8.30485 19.1804C8.33024 19.195 8.38947 19.2058 8.39986 19.2058H8.40101C8.43473 19.2059 8.46788 19.1971 8.49716 19.1804L11.9302 17.1969C12.0922 17.5188 12.3191 17.7742 12.6095 17.9438L13.8649 18.6746L13.866 18.6758L13.8668 18.6742C13.8691 18.6754 13.8706 18.6773 13.8733 18.6785C14.5925 19.0923 15.4541 18.8838 16.1729 18.4688C17.8625 17.4935 19.2325 15.1173 19.2272 13.1719C19.2245 12.1938 18.881 11.4577 18.2591 11.1004V11.1008ZM13.1168 9.59692L12.4829 9.37C12.4425 9.35565 12.3984 9.3552 12.3576 9.36871C12.3169 9.38223 12.2818 9.40893 12.2579 9.44461L11.7022 10.2815L11.6791 8.19692L13.0925 7.38038L13.1168 9.59692ZM11.4856 7.86308L4.45293 3.77654L5.86447 2.96115L12.8972 7.04808L11.4856 7.86308ZM11.1018 8.085L8.37447 9.65961L1.34178 5.57231L4.0687 3.99808L11.1018 8.085ZM1.17562 14.5935L1.15101 5.90654L8.18178 9.99231L8.20678 18.6792L1.17562 14.5935ZM11.7825 16.8385L8.59216 18.6815L8.56678 9.99385L11.2968 8.41731L11.3245 10.9104C11.3249 10.9516 11.3385 10.9915 11.3633 11.0244C11.3881 11.0572 11.4228 11.0813 11.4623 11.0929C11.5018 11.1046 11.5439 11.1033 11.5826 11.0892C11.6213 11.0751 11.6544 11.049 11.6772 11.0146L12.4952 9.78308L13.2475 10.0523C13.2767 10.0626 13.3079 10.0657 13.3386 10.0614C13.3692 10.0571 13.3983 10.0456 13.4236 10.0277C13.4488 10.0098 13.4693 9.98605 13.4835 9.95855C13.4976 9.93104 13.505 9.90054 13.5049 9.86961L13.4745 7.16L16.1283 5.62731L16.1387 10.1458H16.136C15.4918 10.1458 14.856 10.4465 14.3368 10.8181C12.8199 11.9023 11.6422 14.0681 11.6464 15.87C11.6479 16.2212 11.7133 16.615 11.7825 16.8385ZM12.0314 15.8673C12.0279 14.1277 13.1929 12.0565 14.6429 11.0723C15.1183 10.75 15.7391 10.4762 16.3102 10.54H16.311C16.7102 10.5877 16.8879 10.7646 17.1337 10.8908C14.9622 11.1496 12.8979 14.2738 12.9029 16.6019C12.9049 17.0688 12.9972 17.5015 13.1222 17.7981C12.9499 17.6642 12.0314 17.4223 12.0314 15.8673ZM15.9806 18.1362C15.2464 18.56 14.5664 18.6342 14.0652 18.3458C13.4802 18.0092 13.2906 17.2735 13.2887 16.6012C13.2841 15.0642 14.1964 13.2881 15.3629 12.2292C16.0845 11.5742 17.1999 10.9512 18.0529 11.4285C18.6499 11.7619 18.8406 12.4896 18.8425 13.1735C18.8475 14.9958 17.5637 17.2219 15.9806 18.1362Z" fill="#424242"/>
<path d="M17.4342 13.4139C17.4122 13.4014 17.388 13.3933 17.363 13.3902C17.3379 13.387 17.3125 13.3888 17.2881 13.3955C17.2638 13.4022 17.241 13.4136 17.221 13.4291C17.2011 13.4446 17.1844 13.4639 17.1719 13.4858L15.7773 15.9331L14.883 15.412C14.839 15.3863 14.7865 15.3791 14.7372 15.3921C14.6878 15.4051 14.6457 15.4371 14.62 15.4812C14.5942 15.5253 14.5871 15.5777 14.6001 15.6271C14.6131 15.6764 14.6451 15.7186 14.6892 15.7443L15.7511 16.3635C15.7731 16.3763 15.7974 16.3846 15.8226 16.3879C15.8478 16.3913 15.8735 16.3896 15.898 16.383C15.9226 16.3764 15.9456 16.3649 15.9658 16.3494C15.9859 16.3338 16.0027 16.3145 16.0153 16.2924L17.5061 13.6762C17.5186 13.6543 17.5267 13.6301 17.5298 13.605C17.533 13.5799 17.5312 13.5545 17.5245 13.5301C17.5178 13.5058 17.5064 13.483 17.4909 13.463C17.4754 13.4431 17.4561 13.4264 17.4342 13.4139Z" fill="#424242"/>
</svg>
