<svg width="18" height="16" viewBox="0 0 18 16" fill="none" xmlns="http://www.w3.org/2000/svg">
<path d="M9.59658 10.8492H14.3951C14.575 10.8492 14.695 10.7292 14.695 10.5493V7.85013C14.695 7.67019 14.575 7.55023 14.3951 7.55023H9.59658C9.41664 7.55023 9.29669 7.67019 9.29669 7.85013V10.5493C9.29665 10.7292 9.41664 10.8492 9.59658 10.8492ZM9.89648 8.15002H14.0952V10.2494H9.89648V8.15002ZM1.49911 6.95037H3.89838C4.07832 6.95037 4.19827 6.83042 4.19827 6.65048C4.19827 6.47054 4.07832 6.35059 3.89838 6.35059H1.49911C1.31917 6.35059 1.19922 6.47054 1.19922 6.65048C1.19922 6.83042 1.31917 6.95037 1.49911 6.95037ZM5.09799 6.95037H7.49725C7.67719 6.95037 7.79714 6.83042 7.79714 6.65048C7.79714 6.47054 7.67719 6.35059 7.49725 6.35059H5.09799C4.91804 6.35059 4.79809 6.47054 4.79809 6.65048C4.79809 6.83042 4.91804 6.95037 5.09799 6.95037ZM1.49911 8.15002H5.39788C5.57783 8.15002 5.69778 8.03007 5.69778 7.85013C5.69778 7.67019 5.57783 7.55023 5.39788 7.55023H1.49911C1.31917 7.55023 1.19922 7.67019 1.19922 7.85013C1.19922 8.03007 1.31917 8.15002 1.49911 8.15002ZM7.49721 7.5502H6.5975C6.41755 7.5502 6.2976 7.67015 6.2976 7.85009C6.2976 8.03004 6.41755 8.14999 6.5975 8.14999H7.49721C7.67716 8.14999 7.79711 8.03004 7.79711 7.85009C7.79711 7.67015 7.67716 7.5502 7.49721 7.5502Z" fill="black"/>
<path d="M17.7245 3.83134C17.5145 3.56142 17.2446 3.41146 16.9147 3.38148L16.1949 3.29425V1.85196C16.1949 1.19218 15.6551 0.652344 14.9953 0.652344H1.19961C0.539831 0.652309 0 1.19214 0 1.85196V11.449C0 11.9907 0.363999 12.4512 0.859407 12.5989C0.844295 13.2055 1.30333 13.7322 1.91942 13.7882L15.7751 15.3477H15.895C16.4949 15.3477 17.0347 14.8979 17.0947 14.3281L17.9944 4.70108C18.0244 4.40115 17.9344 4.07124 17.7245 3.83134ZM0.599824 2.75168H15.5951V4.55111H0.599824V2.75168ZM1.19961 1.25213H14.9953C15.3252 1.25213 15.5951 1.52205 15.5951 1.85196V2.15185H0.599824V1.85196C0.599824 1.52205 0.86974 1.25213 1.19961 1.25213ZM0.599824 11.4489V5.1509H15.5951V11.4489C15.5951 11.7788 15.3252 12.0488 14.9953 12.0488H1.19965C0.86974 12.0488 0.599824 11.7788 0.599824 11.4489ZM17.3946 4.58109L16.4948 14.2081C16.4649 14.538 16.1649 14.7779 15.8351 14.7479L2.00936 13.1884C1.70947 13.1584 1.49951 12.9185 1.46953 12.6486H14.9953C15.6551 12.6486 16.1949 12.1088 16.1949 11.449V3.86132L16.8847 3.92131C17.0347 3.92131 17.1846 4.01128 17.2746 4.13123C17.3646 4.25118 17.4246 4.43113 17.3946 4.58109Z" fill="black"/>
</svg>
