<svg width="14" height="8" viewBox="0 0 14 8" fill="none" xmlns="http://www.w3.org/2000/svg">
<path d="M9.33028 6.4H4.66407C4.60219 6.4 4.54285 6.37893 4.4991 6.34142C4.45534 6.30391 4.43076 6.25304 4.43076 6.2C4.43076 6.14696 4.45534 6.09609 4.4991 6.05858C4.54285 6.02107 4.60219 6 4.66407 6H9.33028C9.39216 6 9.4515 6.02107 9.49526 6.05858C9.53901 6.09609 9.56359 6.14696 9.56359 6.2C9.56359 6.25304 9.53901 6.30391 9.49526 6.34142C9.4515 6.37893 9.39216 6.4 9.33028 6.4ZM13.7632 6.4H12.13C12.0681 6.4 12.0088 6.37893 11.965 6.34142C11.9213 6.30391 11.8967 6.25304 11.8967 6.2C11.8967 6.14696 11.9213 6.09609 11.965 6.05858C12.0088 6.02107 12.0681 6 12.13 6H13.7632C13.8251 6 13.8844 6.02107 13.9282 6.05858C13.9719 6.09609 13.9965 6.14696 13.9965 6.2C13.9965 6.25304 13.9719 6.30391 13.9282 6.34142C13.8844 6.37893 13.8251 6.4 13.7632 6.4ZM3.26421 8C3.03349 8 2.80795 7.94135 2.61611 7.83147C2.42427 7.72159 2.27475 7.56541 2.18646 7.38268C2.09816 7.19996 2.07506 6.99889 2.12007 6.80491C2.16508 6.61093 2.27619 6.43275 2.43933 6.29289C2.60248 6.15304 2.81034 6.0578 3.03663 6.01922C3.26292 5.98063 3.49747 6.00043 3.71063 6.07612C3.92379 6.15181 4.10598 6.27998 4.23416 6.44443C4.36234 6.60888 4.43076 6.80222 4.43076 7C4.43039 7.26512 4.30737 7.51929 4.08868 7.70676C3.86999 7.89422 3.57348 7.99968 3.26421 8ZM3.26421 6.4C3.12578 6.4 2.99045 6.43519 2.87535 6.50112C2.76025 6.56705 2.67053 6.66076 2.61756 6.77039C2.56458 6.88003 2.55072 7.00067 2.57773 7.11705C2.60473 7.23344 2.6714 7.34035 2.76928 7.42426C2.86717 7.50818 2.99189 7.56532 3.12766 7.58847C3.26343 7.61162 3.40417 7.59974 3.53206 7.55433C3.65996 7.50892 3.76927 7.43201 3.84618 7.33334C3.92309 7.23467 3.96414 7.11867 3.96414 7C3.96414 6.84087 3.8904 6.68826 3.75914 6.57574C3.62787 6.46321 3.44984 6.4 3.26421 6.4Z" fill="#679B00"/>
<path d="M13.7678 7.2H12.3679C12.3061 7.2 12.2467 7.17893 12.203 7.14143C12.1592 7.10392 12.1346 7.05305 12.1346 7C12.1346 6.68174 11.9871 6.37652 11.7246 6.15148C11.4621 5.92643 11.106 5.8 10.7348 5.8C10.3635 5.8 10.0074 5.92643 9.74491 6.15148C9.48239 6.37652 9.3349 6.68174 9.3349 7C9.3349 7.05305 9.31032 7.10392 9.26657 7.14143C9.22281 7.17893 9.16347 7.2 9.10159 7.2H4.902C4.84012 7.2 4.78078 7.17893 4.73703 7.14143C4.69327 7.10392 4.66869 7.05305 4.66869 7C4.66869 6.68174 4.52121 6.37652 4.25868 6.15148C3.99616 5.92643 3.6401 5.8 3.26883 5.8C2.89756 5.8 2.5415 5.92643 2.27898 6.15148C2.01645 6.37652 1.86897 6.68174 1.86897 7C1.86897 7.05305 1.84438 7.10392 1.80063 7.14143C1.75688 7.17893 1.69753 7.2 1.63565 7.2C1.57378 7.2 1.51443 7.17893 1.47068 7.14143C1.42693 7.10392 1.40234 7.05305 1.40234 7C1.40199 6.5928 1.58277 6.20079 1.90785 5.90387C2.23293 5.60695 2.67785 5.42745 3.15195 5.40195C3.62605 5.37645 4.09365 5.50687 4.45947 5.76663C4.8253 6.02639 5.06182 6.39595 5.12085 6.8H8.88275C8.93927 6.41311 9.15865 6.05723 9.49968 5.79921C9.84071 5.5412 10.2799 5.39882 10.7348 5.39882C11.1896 5.39882 11.6288 5.5412 11.9699 5.79921C12.3109 6.05723 12.5303 6.41311 12.5868 6.8H13.5345V4.9236L12.2636 4.38C12.2124 4.35808 12.1724 4.32078 12.1512 4.2752L10.868 1.5268C10.8511 1.4895 10.8214 1.45745 10.7829 1.43482C10.7444 1.4122 10.6989 1.40006 10.6522 1.4H8.16835V5C8.16835 5.05305 8.14377 5.10392 8.10001 5.14143C8.05626 5.17893 7.99692 5.2 7.93504 5.2H1.63565C1.57378 5.2 1.51443 5.17893 1.47068 5.14143C1.42693 5.10392 1.40234 5.05305 1.40234 5C1.40234 4.94696 1.42693 4.89609 1.47068 4.85858C1.51443 4.82107 1.57378 4.8 1.63565 4.8H7.70173V1.2C7.70173 1.14696 7.72631 1.09609 7.77006 1.05858C7.81382 1.02107 7.87316 1 7.93504 1H10.6522C10.7922 0.999629 10.9291 1.03541 11.045 1.10269C11.161 1.16998 11.2506 1.26563 11.3022 1.3772L12.5516 4.055L13.8721 4.621C13.9109 4.63762 13.9435 4.66317 13.9663 4.69478C13.9891 4.7264 14.0011 4.76284 14.0011 4.8V7C14.0011 7.05305 13.9765 7.10392 13.9328 7.14143C13.889 7.17893 13.8297 7.2 13.7678 7.2Z" fill="#679B00"/>
<path d="M10.7323 8C10.5016 8 10.276 7.94135 10.0842 7.83147C9.89234 7.72159 9.74282 7.56541 9.65453 7.38268C9.56624 7.19996 9.54313 6.99889 9.58815 6.80491C9.63316 6.61093 9.74426 6.43275 9.90741 6.29289C10.0706 6.15304 10.2784 6.0578 10.5047 6.01921C10.731 5.98063 10.9655 6.00043 11.1787 6.07612C11.3919 6.15181 11.5741 6.27998 11.7022 6.44443C11.8304 6.60888 11.8988 6.80222 11.8988 7C11.8985 7.26512 11.7754 7.51929 11.5568 7.70676C11.3381 7.89422 11.0416 7.99968 10.7323 8ZM10.7323 6.4C10.5938 6.4 10.4585 6.43519 10.3434 6.50112C10.2283 6.56705 10.1386 6.66075 10.0856 6.77039C10.0327 6.88003 10.0188 7.00067 10.0458 7.11705C10.0728 7.23344 10.1395 7.34035 10.2374 7.42426C10.3352 7.50818 10.46 7.56532 10.5957 7.58847C10.7315 7.61162 10.8722 7.59974 11.0001 7.55433C11.128 7.50891 11.2373 7.43201 11.3143 7.33334C11.3912 7.23467 11.4322 7.11867 11.4322 7C11.4322 6.84087 11.3585 6.68826 11.2272 6.57574C11.0959 6.46321 10.9179 6.4 10.7323 6.4ZM11.1989 4.4H8.8658C8.80392 4.4 8.74458 4.37893 8.70082 4.34142C8.65707 4.30391 8.63249 4.25304 8.63249 4.2V2C8.63249 1.94696 8.65707 1.89609 8.70082 1.85858C8.74458 1.82107 8.80392 1.8 8.8658 1.8H10.2657C10.3136 1.79999 10.3603 1.81261 10.3995 1.83615C10.4388 1.8597 10.4686 1.89302 10.485 1.9316L11.4182 4.1316C11.431 4.16182 11.4352 4.19424 11.4303 4.22612C11.4254 4.258 11.4116 4.2884 11.3901 4.31474C11.3685 4.34108 11.3399 4.36258 11.3067 4.37742C11.2734 4.39226 11.2364 4.40001 11.1989 4.4ZM9.09911 4H10.8657L10.1023 2.2H9.09911V4ZM7.93256 1.4C7.87068 1.4 7.81134 1.37893 7.76758 1.34142C7.72383 1.30391 7.69925 1.25304 7.69925 1.2V0.4H2.56642C2.50454 0.4 2.44519 0.378929 2.40144 0.341421C2.35769 0.303914 2.3331 0.253043 2.3331 0.2C2.3331 0.146957 2.35769 0.096086 2.40144 0.0585787C2.44519 0.0210714 2.50454 0 2.56642 0H7.93256C7.99443 0 8.05378 0.0210714 8.09753 0.0585787C8.14129 0.096086 8.16587 0.146957 8.16587 0.2V1.2C8.16587 1.25304 8.14129 1.30391 8.09753 1.34142C8.05378 1.37893 7.99443 1.4 7.93256 1.4ZM1.63317 0.4H0.933242C0.871364 0.4 0.812021 0.378929 0.768267 0.341421C0.724512 0.303914 0.699932 0.253043 0.699932 0.2C0.699932 0.146957 0.724512 0.096086 0.768267 0.0585787C0.812021 0.0210714 0.871364 0 0.933242 0H1.63317C1.69505 0 1.75439 0.0210714 1.79815 0.0585787C1.8419 0.096086 1.86648 0.146957 1.86648 0.2C1.86648 0.253043 1.8419 0.303914 1.79815 0.341421C1.75439 0.378929 1.69505 0.4 1.63317 0.4ZM3.73297 1.8H0.466621C0.404743 1.8 0.3454 1.77893 0.301646 1.74142C0.257891 1.70391 0.23331 1.65304 0.23331 1.6C0.23331 1.54696 0.257891 1.49609 0.301646 1.45858C0.3454 1.42107 0.404743 1.4 0.466621 1.4H3.73297C3.79485 1.4 3.85419 1.42107 3.89794 1.45858C3.9417 1.49609 3.96628 1.54696 3.96628 1.6C3.96628 1.65304 3.9417 1.70391 3.89794 1.74142C3.85419 1.77893 3.79485 1.8 3.73297 1.8ZM2.30394 3.6H0.23331C0.171433 3.6 0.112089 3.57893 0.068335 3.54142C0.0245808 3.50391 0 3.45304 0 3.4C0 3.34696 0.0245808 3.29609 0.068335 3.25858C0.112089 3.22107 0.171433 3.2 0.23331 3.2H2.30394C2.36582 3.2 2.42516 3.22107 2.46892 3.25858C2.51267 3.29609 2.53725 3.34696 2.53725 3.4C2.53725 3.45304 2.51267 3.50391 2.46892 3.54142C2.42516 3.57893 2.36582 3.6 2.30394 3.6ZM0.699932 5.2H0.23331C0.171433 5.2 0.112089 5.17893 0.068335 5.14142C0.0245808 5.10391 0 5.05304 0 5C0 4.94696 0.0245808 4.89609 0.068335 4.85858C0.112089 4.82107 0.171433 4.8 0.23331 4.8H0.699932C0.761809 4.8 0.821153 4.82107 0.864907 4.85858C0.908661 4.89609 0.933242 4.94696 0.933242 5C0.933242 5.05304 0.908661 5.10391 0.864907 5.14142C0.821153 5.17893 0.761809 5.2 0.699932 5.2Z" fill="#679B00"/>
</svg>
