<svg width="24" height="24" viewBox="0 0 24 24" fill="none" xmlns="http://www.w3.org/2000/svg">
<path d="M22.1511 15.0173C21.8209 15.0173 21.5533 15.2848 21.5533 15.615V20.9221C21.5521 21.9121 20.7501 22.7144 19.7602 22.7153H2.98862C1.99861 22.7144 1.19664 21.9121 1.19545 20.9221V5.34604C1.19664 4.35627 1.99867 3.55407 2.98862 3.55287H8.29581C8.62594 3.55287 8.89354 3.28527 8.89354 2.95515C8.89354 2.6252 8.62594 2.35742 8.29581 2.35742H2.98862C1.33878 2.35927 0.00185295 3.6962 0 5.34604V20.9224C0.00185295 22.5722 1.33878 23.9091 2.98862 23.911H19.7602C21.4099 23.9091 22.7469 22.5722 22.7488 20.9224V15.615C22.7488 15.2848 22.4812 15.0173 22.1511 15.0173Z" fill="#5C78AC"/>
<path d="M22.5101 0.81908C21.4597 -0.23136 19.7566 -0.23136 18.7062 0.81908L8.04232 11.4829C7.96933 11.5559 7.91649 11.6465 7.88895 11.746L6.48663 16.8087C6.45832 16.9107 6.45759 17.0183 6.4845 17.1206C6.51141 17.2229 6.565 17.3162 6.63979 17.3911C6.71458 17.4659 6.8079 17.5195 6.9102 17.5464C7.0125 17.5734 7.12012 17.5727 7.22206 17.5444L12.2848 16.1419C12.3843 16.1143 12.4749 16.0615 12.5479 15.9885L23.2114 5.32449C24.2603 4.27327 24.2603 2.57167 23.2114 1.52051L22.5101 0.81908ZM9.3447 11.8714L18.0723 3.14369L20.8869 5.95837L12.1592 14.6861L9.3447 11.8714ZM8.78248 12.9996L11.0311 15.2486L7.92069 16.1104L8.78248 12.9996ZM22.3663 4.47924L21.7324 5.11307L18.9174 2.29815L19.5516 1.66426C20.1351 1.08076 21.0812 1.08076 21.6646 1.66426L22.3663 2.36563C22.9488 2.94985 22.9488 3.89527 22.3663 4.47924Z" fill="#5C78AC"/>
</svg>
