<svg width="22" height="17" viewBox="0 0 22 17" fill="none" xmlns="http://www.w3.org/2000/svg">
<path d="M20.4136 0.5H1.58645C1.16584 0.500536 0.762601 0.688172 0.465188 1.02174C0.167774 1.35532 0.000477652 1.80758 0 2.27933L0 14.7207C0.000477652 15.1924 0.167774 15.6447 0.465188 15.9783C0.762601 16.3118 1.16584 16.4995 1.58645 16.5H20.4136C20.8342 16.4995 21.2374 16.3118 21.5348 15.9783C21.8322 15.6447 21.9995 15.1924 22 14.7207V2.27933C21.9995 1.80758 21.8322 1.35532 21.5348 1.02174C21.2374 0.688172 20.8342 0.500536 20.4136 0.5ZM14.0628 8.23605L21.1999 1.79229C21.2738 1.94124 21.3125 2.10888 21.3125 2.27933V14.7207C21.3124 14.879 21.2789 15.0351 21.2145 15.176L14.0628 8.23605ZM20.4136 1.27108C20.491 1.2714 20.568 1.28298 20.6428 1.30554L13.3171 7.91937L12.6683 8.5053C12.197 8.93545 11.608 9.1703 11.0003 9.1703C10.3927 9.1703 9.80367 8.93545 9.33238 8.5053L1.35738 1.3053C1.4321 1.28284 1.5091 1.27134 1.58645 1.27108H20.4136ZM0.785469 15.176C0.721149 15.0351 0.687573 14.879 0.6875 14.7207V2.27933C0.687399 2.1089 0.726073 1.94127 0.799863 1.79229L7.93697 8.23605L0.785469 15.176ZM1.58645 15.7289C1.49436 15.7289 1.40282 15.713 1.31506 15.6817L8.48147 8.72752L8.90089 9.10622C9.494 9.64748 10.2353 9.94299 10.9999 9.94299C11.7646 9.94299 12.5058 9.64748 13.0989 9.10622L13.5184 8.72752L20.6852 15.6817C20.5974 15.713 20.5059 15.7289 20.4138 15.7289H1.58645Z" fill="#424242"/>
</svg>
