<svg width="20" height="20" viewBox="0 0 20 20" fill="none" xmlns="http://www.w3.org/2000/svg">
<path fill-rule="evenodd" clip-rule="evenodd" d="M13.682 16.8418H10.1751C10.0541 16.8418 9.93809 16.8048 9.85254 16.7388C9.76699 16.6729 9.71892 16.5835 9.71892 16.4902V4.64639C9.71892 4.31011 9.40168 3.89177 9.05341 3.76909L0.266197 0.671125C0.171576 0.637704 0.0946243 0.580357 0.0481069 0.508597C0.00158965 0.436838 -0.0116972 0.354979 0.0104505 0.2766C0.032513 0.198216 0.0887428 0.128019 0.169781 0.0776929C0.25082 0.0273672 0.351778 -5.17031e-05 0.455852 7.31942e-08H13.6817C14.7066 7.31942e-08 15.5408 0.642557 15.5408 1.43283V6.7417C15.5408 6.83494 15.4927 6.92437 15.4072 6.9903C15.3216 7.05623 15.2056 7.09327 15.0846 7.09327C14.9636 7.09327 14.8476 7.05623 14.762 6.9903C14.6765 6.92437 14.6284 6.83494 14.6284 6.7417V1.43283C14.6281 1.23936 14.5283 1.05388 14.3508 0.917077C14.1733 0.780276 13.9326 0.703331 13.6816 0.703126H2.54967L9.43272 3.12963C10.1048 3.36637 10.631 4.03273 10.631 4.64639V16.1387H13.6817C13.9327 16.1385 14.1734 16.0615 14.3509 15.9247C14.5284 15.7879 14.6283 15.6024 14.6285 15.409V10.1583C14.6307 10.0662 14.6797 9.97838 14.765 9.91379C14.8503 9.84921 14.9651 9.81302 15.0847 9.81302C15.2042 9.81302 15.319 9.84921 15.4043 9.91379C15.4897 9.97838 15.5386 10.0662 15.5408 10.1583V15.4091C15.5413 16.1992 14.7069 16.8418 13.682 16.8418Z" fill="#424242"/>
<path fill-rule="evenodd" clip-rule="evenodd" d="M9.57184 19.9991C9.40258 19.9991 9.22672 19.9687 9.05387 19.9081L0.266523 16.8102C0.187038 16.7822 0.119661 16.7372 0.0724107 16.6805C0.0251603 16.6239 2.6323e-05 16.5579 0 16.4906V0.351476C4.29104e-05 0.29257 0.019285 0.234616 0.0559598 0.182934C0.0926347 0.131252 0.145567 0.0874972 0.209899 0.0556868C0.27423 0.0238764 0.347899 0.00502924 0.424144 0.00087549C0.500389 -0.00327826 0.576766 0.00739445 0.646264 0.0319139L9.43362 3.12999C10.1056 3.36672 10.6317 4.03309 10.6317 4.64675V19.0482C10.6317 19.4134 10.4437 19.7161 10.1158 19.8782C9.9534 19.9581 9.76447 20 9.57184 19.9989V19.9991ZM0.913362 16.2645L9.43405 19.2683C9.51666 19.2976 9.58764 19.3042 9.6237 19.2866C9.67169 19.2628 9.71997 19.18 9.71997 19.048V4.64641C9.71997 4.31013 9.40258 3.8918 9.05445 3.76911L0.913362 0.898696V16.2645ZM17.8407 10.3939C17.7546 10.3938 17.6703 10.3749 17.5975 10.3395C17.5247 10.304 17.4664 10.2535 17.4294 10.1936C17.3923 10.1337 17.378 10.0669 17.3881 10.001C17.3982 9.93515 17.4322 9.8728 17.4863 9.8212L18.5884 8.77249H12.3302C12.2092 8.77249 12.0932 8.73545 12.0076 8.66952C11.9221 8.60359 11.874 8.51417 11.874 8.42093C11.874 8.32769 11.9221 8.23826 12.0076 8.17233C12.0932 8.1064 12.2092 8.06936 12.3302 8.06936H18.5882L17.4863 7.02054C17.4138 6.94782 17.381 6.85612 17.3949 6.76502C17.4089 6.67392 17.4684 6.59062 17.561 6.53289C17.6535 6.47516 17.7716 6.44758 17.8901 6.45602C18.0086 6.46446 18.1182 6.50826 18.1954 6.57807L19.8934 8.19438C19.9523 8.24786 19.9872 8.31274 19.9973 8.37951V8.38073C19.9978 8.3835 19.9978 8.38627 19.9983 8.38892V8.39003C20.0077 8.4733 19.9783 8.55643 19.9152 8.62444C19.9092 8.63109 19.9026 8.63729 19.896 8.6436L18.1948 10.2631C18.1524 10.3041 18.0985 10.3371 18.0372 10.3598C17.9758 10.3824 17.9087 10.3941 17.8407 10.3939Z" fill="#424242"/>
</svg>
