<svg width="16" height="11" viewBox="0 0 16 11" fill="none" xmlns="http://www.w3.org/2000/svg">
<path d="M15.9551 5.33214C15.162 3.96125 14.0216 2.81143 12.6572 2.00709C11.2513 1.17831 9.64081 0.740234 7.99997 0.740234C6.35913 0.740234 4.74865 1.17831 3.34273 2.00709C1.97827 2.81146 0.83786 3.96125 0.044793 5.33214C0.01545 5.38288 0 5.44046 0 5.49907C0 5.55769 0.01545 5.61527 0.044793 5.66601C0.83786 7.03693 1.97827 8.18675 3.34273 8.99106C4.74869 9.81988 6.35913 10.2579 7.99997 10.2579C9.64081 10.2579 11.2513 9.81988 12.6572 8.99106C14.0216 8.18672 15.162 7.03693 15.9551 5.66601C15.9845 5.61527 15.9999 5.55769 15.9999 5.49907C15.9999 5.44046 15.9845 5.38288 15.9551 5.33214ZM12.3186 8.41676C11.0152 9.18511 9.52181 9.59126 7.99994 9.59126C6.47806 9.59126 4.98468 9.18511 3.68127 8.41676C2.47125 7.70345 1.45116 6.69731 0.720961 5.49904C1.45116 4.30081 2.47125 3.29466 3.68127 2.58136C4.98468 1.813 6.47806 1.40686 7.99994 1.40686C9.52181 1.40686 11.0152 1.813 12.3186 2.58136C13.5286 3.29466 14.5487 4.30077 15.2789 5.49904C14.5487 6.69731 13.5286 7.70345 12.3186 8.41676Z" fill="#999B9F"/>
<path d="M7.99915 2.50391C6.34754 2.50391 5.00391 3.84754 5.00391 5.49915C5.00391 7.15076 6.34754 8.49443 7.99915 8.49443C9.65076 8.49443 10.9944 7.15076 10.9944 5.49915C10.9944 3.84758 9.65072 2.50391 7.99915 2.50391ZM7.99915 7.82777C6.71516 7.82777 5.67056 6.78317 5.67056 5.49915C5.67056 4.21516 6.71516 3.17056 7.99915 3.17056C9.28317 3.17056 10.3278 4.21516 10.3278 5.49915C10.3278 6.78317 9.28317 7.82777 7.99915 7.82777Z" fill="#999B9F"/>
</svg>
