<svg width="14" height="14" viewBox="0 0 14 14" fill="none" xmlns="http://www.w3.org/2000/svg">
<path d="M0 1.40039H2.09986" stroke="#212529" stroke-width="0.7"/>
<path d="M12.6016 7H14.0015" stroke="#212529" stroke-width="0.7"/>
<path d="M0 12.5996H2.79982" stroke="#212529" stroke-width="0.7"/>
<path d="M4.89844 1.40039H13.9978" stroke="#212529" stroke-width="0.7"/>
<path d="M0 7H9.79936" stroke="#212529" stroke-width="0.7"/>
<path d="M5.60156 12.5996L14.001 12.5996" stroke="#212529" stroke-width="0.7"/>
<path d="M4.60138 1.40005C4.60138 2.00761 4.10891 2.50009 3.50147 2.50009C2.89404 2.50009 2.40156 2.00761 2.40156 1.40005C2.40156 0.79248 2.89404 0.3 3.50147 0.3C4.10891 0.3 4.60138 0.79248 4.60138 1.40005Z" stroke="#212529" stroke-width="0.6"/>
<path d="M12.2967 6.99966C12.2967 7.60722 11.8042 8.0997 11.1968 8.0997C10.5893 8.0997 10.0969 7.60722 10.0969 6.99966C10.0969 6.39209 10.5893 5.89961 11.1968 5.89961C11.8042 5.89961 12.2967 6.39209 12.2967 6.99966Z" stroke="#212529" stroke-width="0.6"/>
<path d="M5.29669 12.5993C5.29669 13.2068 4.80422 13.6993 4.19678 13.6993C3.58935 13.6993 3.09688 13.2068 3.09688 12.5993C3.09688 11.9917 3.58935 11.4992 4.19678 11.4992C4.80422 11.4992 5.29669 11.9917 5.29669 12.5993Z" stroke="#212529" stroke-width="0.6"/>
</svg>
