<svg width="26" height="24" viewBox="0 0 26 24" fill="none" xmlns="http://www.w3.org/2000/svg">
<path d="M23.4142 17.0202H19.7905C19.602 17.0202 19.4492 16.8675 19.4492 16.679C19.4492 16.4905 19.602 16.3377 19.7905 16.3377H23.4142C24.152 16.3377 24.7516 15.7381 24.7516 15.0003C24.7516 14.2626 24.152 13.663 23.4142 13.663H22.7658C22.5773 13.663 22.4246 13.5102 22.4246 13.3217C22.4246 13.1332 22.5773 12.9805 22.7658 12.9805H23.4142C24.529 12.9805 25.4341 13.8872 25.4341 15.0003C25.4341 16.1135 24.5273 17.0202 23.4142 17.0202Z" fill="white"/>
<path d="M23.0069 20.3776H19.3491C19.1606 20.3776 19.0078 20.2249 19.0078 20.0364C19.0078 19.8479 19.1606 19.6951 19.3491 19.6951H23.0069C23.7447 19.6951 24.3443 19.0955 24.3443 18.3578C24.3443 17.62 23.7447 17.0204 23.0069 17.0204C22.8184 17.0204 22.6657 16.8676 22.6657 16.6791C22.6657 16.4906 22.8184 16.3379 23.0069 16.3379C24.1217 16.3379 25.0268 17.2446 25.0268 18.3578C25.0268 19.4709 24.1201 20.3776 23.0069 20.3776Z" fill="white"/>
<path d="M14.9037 23.7407C14.1773 23.7407 13.4087 23.6903 12.5653 23.5863C11.6326 23.4709 10.7941 23.3523 9.97507 23.0452C9.6582 22.9265 9.34457 22.7673 8.9887 22.5463C8.9432 22.517 8.8977 22.4894 8.8522 22.4602C8.60358 22.3025 8.36795 22.153 8.10633 22.0718C7.9747 22.0312 7.81545 22.0344 7.64645 22.0393C7.60095 22.0409 7.55545 22.0409 7.5067 22.0425L6.74295 22.049H6.7397C6.55283 22.049 6.40008 21.8979 6.39845 21.711C6.39683 21.5225 6.54795 21.3682 6.73645 21.3665L7.5002 21.36C7.54083 21.36 7.58308 21.3584 7.62695 21.3568C7.83333 21.3519 8.06895 21.3454 8.30783 21.4202C8.65558 21.529 8.93995 21.7094 9.2162 21.8849L9.34783 21.9678C9.66308 22.1644 9.9377 22.3042 10.2123 22.4065C10.9615 22.686 11.7577 22.7998 12.6466 22.9087C13.6102 23.0273 14.4714 23.0744 15.2791 23.0533H22.1918C22.9296 23.0533 23.5292 22.4537 23.5292 21.7159C23.5292 20.9782 22.9296 20.3785 22.1918 20.3785C22.0033 20.3785 21.8506 20.2258 21.8506 20.0373C21.8506 19.8488 22.0033 19.696 22.1918 19.696C23.3066 19.696 24.2117 20.6028 24.2117 21.7159C24.2117 22.8307 23.3049 23.7358 22.1918 23.7358H15.2921C15.1653 23.739 15.0353 23.7407 14.9037 23.7407ZM22.7638 13.6624H20.0078C19.8193 13.6624 19.6666 13.5097 19.6666 13.3212C19.6666 13.1327 19.8193 12.9799 20.0078 12.9799H22.7638C23.5016 12.9799 24.1012 12.3803 24.1012 11.6425C24.1012 10.9048 23.5016 10.3052 22.7638 10.3052H15.6674C15.4789 10.3052 15.3262 10.1524 15.3262 9.96392C15.3262 9.37242 15.4497 8.80854 15.6918 8.29016C15.8072 8.04479 15.9291 7.80266 16.0477 7.56867C16.2914 7.08767 16.5222 6.63267 16.6928 6.14029C17.1088 4.93941 17.4403 3.20717 16.6636 1.77554C16.6473 1.75117 16.6294 1.72679 16.6083 1.69754C16.3516 1.35142 16.0233 1.10442 15.6837 1.00042C15.1637 0.841166 14.6112 1.02154 14.3398 1.43917C14.1757 1.68942 14.1741 1.99654 14.1887 2.34104C14.2098 2.85129 14.1887 3.30954 14.1253 3.74179C13.984 4.70379 13.6817 5.54392 13.2283 6.23779C13.1698 6.33367 12.5101 7.39966 11.4197 8.53554C10.7583 9.22291 10.0775 9.79167 9.3917 10.2255C8.52233 10.7764 7.64483 11.1128 6.78358 11.2249C6.5967 11.2493 6.42608 11.1177 6.4017 10.9308C6.37733 10.7439 6.50895 10.5733 6.69583 10.5489C8.43458 10.323 9.95557 9.07179 10.9257 8.06267C11.9917 6.95279 12.6401 5.89004 12.6449 5.88029C12.6466 5.87704 12.6498 5.87379 12.6515 5.87054C13.0512 5.25954 13.3193 4.51042 13.4477 3.64429C13.5046 3.25429 13.5241 2.83829 13.5046 2.37029C13.4867 1.94129 13.4932 1.48792 13.7662 1.06867C13.9888 0.727416 14.3155 0.480416 14.7136 0.353666C15.0857 0.235041 15.5001 0.233416 15.8803 0.350416C16.3581 0.496666 16.8098 0.831416 17.1527 1.29292C17.1868 1.33842 17.2144 1.37904 17.2404 1.41804C17.2453 1.42454 17.2486 1.43267 17.2534 1.43917C18.1586 3.09179 17.7978 5.03042 17.3363 6.36617C17.1511 6.90404 16.8976 7.39967 16.6538 7.88067C16.5368 8.10979 16.4182 8.34704 16.3077 8.58267C16.155 8.91092 16.0591 9.26029 16.0233 9.62754H22.7622C23.8769 9.62754 24.7821 10.5343 24.7821 11.6474C24.7837 12.7557 23.877 13.6624 22.7638 13.6624Z" fill="white"/>
<path d="M6.74206 23.5952H0.911563C0.723062 23.5952 0.570312 23.4425 0.570312 23.254V9.42523C0.570312 9.23673 0.723062 9.08398 0.911563 9.08398H6.74206C6.93056 9.08398 7.08331 9.23673 7.08331 9.42523V23.254C7.08331 23.4425 6.93056 23.5952 6.74206 23.5952ZM1.25281 22.9127H6.40081V9.76648H1.25281V22.9127Z" fill="white"/>
</svg>
