<svg width="20" height="20" viewBox="0 0 20 20" fill="none" xmlns="http://www.w3.org/2000/svg">
<path d="M18.2031 0.820312H1.79688C1.53796 0.820602 1.28974 0.923582 1.10666 1.10666C0.923582 1.28974 0.820602 1.53796 0.820312 1.79688V13.822C0.820602 14.0809 0.923582 14.3292 1.10666 14.5122C1.28974 14.6953 1.53796 14.7983 1.79688 14.7986H5.58609L7.00797 17.7111C7.22461 18.1504 7.55945 18.5206 7.97489 18.78C8.39033 19.0395 8.86989 19.1779 9.35969 19.1798H13.2433C13.9372 19.1791 14.6024 18.903 15.0931 18.4124C15.5838 17.9217 15.8597 17.2564 15.8605 16.5625V14.7986H18.2031C18.462 14.7983 18.7103 14.6953 18.8933 14.5122C19.0764 14.3292 19.1794 14.0809 19.1797 13.822V1.79688C19.1794 1.53796 19.0764 1.28974 18.8933 1.10666C18.7103 0.923582 18.462 0.820602 18.2031 0.820312ZM15.3136 16.5625C15.313 17.1114 15.0947 17.6377 14.7066 18.0258C14.3184 18.4139 13.7922 18.6322 13.2433 18.6328H9.36016C8.97275 18.6313 8.59344 18.5217 8.26485 18.3165C7.93626 18.1113 7.67139 17.8185 7.5 17.4711L4.75625 11.8534C4.71579 11.7707 4.69238 11.6806 4.68741 11.5886C4.68244 11.4966 4.69601 11.4045 4.72732 11.3179C4.75863 11.2312 4.80703 11.1518 4.86966 11.0842C4.93228 11.0166 5.00785 10.9623 5.09188 10.9245C5.17538 10.887 5.26594 10.8677 5.3575 10.868C5.49443 10.8701 5.62806 10.9104 5.74341 10.9842C5.85877 11.058 5.95129 11.1625 6.01062 11.2859L7.65125 14.6453C7.67829 14.7009 7.72341 14.7458 7.77922 14.7724C7.83503 14.7991 7.89824 14.806 7.95851 14.7921C8.01878 14.7782 8.07255 14.7442 8.11102 14.6958C8.14949 14.6474 8.1704 14.5873 8.17031 14.5255V5.02359C8.17027 4.93144 8.18875 4.84022 8.22466 4.75535C8.26057 4.67048 8.31317 4.59369 8.37935 4.52956C8.44552 4.46542 8.52392 4.41525 8.60987 4.38201C8.69582 4.34878 8.78758 4.33316 8.87969 4.33609C9.06308 4.34836 9.23468 4.43085 9.3588 4.5664C9.48292 4.70196 9.55 4.88015 9.54609 5.06391V10.0817C9.54609 10.1542 9.5749 10.2238 9.62618 10.2751C9.67746 10.3263 9.74701 10.3552 9.81953 10.3552C9.89205 10.3552 9.9616 10.3263 10.0129 10.2751C10.0642 10.2238 10.093 10.1542 10.093 10.0817C10.0927 9.9896 10.111 9.89838 10.1469 9.81355C10.1828 9.72871 10.2355 9.65203 10.3019 9.58813C10.3675 9.52332 10.4458 9.47267 10.5318 9.43932C10.6178 9.40597 10.7097 9.39062 10.8019 9.39422C10.9853 9.4064 11.157 9.48885 11.2812 9.62442C11.4055 9.75998 11.4726 9.93821 11.4688 10.122V10.7067C11.4688 10.7792 11.4976 10.8488 11.5488 10.9001C11.6001 10.9513 11.6697 10.9802 11.7422 10.9802C11.8147 10.9802 11.8843 10.9513 11.9355 10.9001C11.9868 10.8488 12.0156 10.7792 12.0156 10.7067C12.0156 10.6146 12.0341 10.5234 12.07 10.4385C12.1059 10.3537 12.1584 10.2769 12.2246 10.2127C12.2908 10.1486 12.3691 10.0984 12.4551 10.0652C12.541 10.0319 12.6327 10.0163 12.7248 10.0192C12.9081 10.0317 13.0795 10.1142 13.2035 10.2498C13.3275 10.3853 13.3945 10.5634 13.3906 10.747V11.3317C13.3906 11.4042 13.4194 11.4738 13.4707 11.5251C13.522 11.5763 13.5915 11.6052 13.6641 11.6052C13.7366 11.6052 13.8061 11.5763 13.8574 11.5251C13.9087 11.4738 13.9375 11.4042 13.9375 11.3317C13.9375 11.2396 13.9559 11.1484 13.9918 11.0635C14.0277 10.9787 14.0803 10.9019 14.1465 10.8377C14.2126 10.7736 14.291 10.7234 14.3769 10.6902C14.4629 10.6569 14.5546 10.6413 14.6467 10.6442C14.8301 10.6565 15.0017 10.739 15.1258 10.8745C15.2499 11.0101 15.317 11.1883 15.3131 11.372L15.3136 16.5625ZM18.6328 13.822C18.6327 13.936 18.5874 14.0452 18.5069 14.1258C18.4263 14.2063 18.3171 14.2516 18.2031 14.2517H15.8605V11.372C15.8634 11.0464 15.7406 10.7321 15.5177 10.4947C15.2947 10.2573 14.9888 10.1151 14.6636 10.0977C14.3794 10.0874 14.1006 10.1769 13.8756 10.3508C13.7995 10.1056 13.6498 9.88981 13.4468 9.73271C13.2438 9.5756 12.9974 9.4848 12.7409 9.47266C12.4567 9.46187 12.1777 9.55148 11.953 9.72578C11.8769 9.48059 11.7271 9.26477 11.5241 9.10766C11.3211 8.95055 11.0746 8.85977 10.8181 8.84766C10.5602 8.83787 10.306 8.91085 10.0925 9.05594V5.06391C10.0955 4.73822 9.97266 4.42395 9.74967 4.18655C9.52668 3.94916 9.2207 3.80694 8.89547 3.78953C8.73019 3.78442 8.56557 3.81258 8.41138 3.87232C8.25719 3.93206 8.11657 4.02218 7.99788 4.13731C7.87919 4.25245 7.78484 4.39025 7.72044 4.54256C7.65604 4.69486 7.62289 4.85855 7.62297 5.02391V13.3422L6.50156 11.0453C6.36131 10.7514 6.11305 10.5228 5.8085 10.4074C5.50396 10.2919 5.16661 10.2984 4.86672 10.4255C4.71593 10.4935 4.58034 10.5911 4.46802 10.7125C4.35569 10.8339 4.26892 10.9767 4.21285 11.1323C4.15678 11.2879 4.13255 11.4532 4.14162 11.6184C4.15069 11.7835 4.19286 11.9452 4.26562 12.0938L5.31969 14.252H1.79688C1.68294 14.2519 1.5737 14.2067 1.49313 14.1261C1.41257 14.0455 1.36727 13.9363 1.36719 13.8223V1.79688C1.36727 1.68294 1.41257 1.5737 1.49313 1.49313C1.5737 1.41257 1.68294 1.36727 1.79688 1.36719H18.2031C18.3171 1.36727 18.4263 1.41257 18.5069 1.49313C18.5874 1.5737 18.6327 1.68294 18.6328 1.79688V13.822Z" fill="#5477E7"/>
<path d="M10.72 3.8419C10.6545 3.87295 10.604 3.92875 10.5796 3.99702C10.5553 4.06529 10.559 4.14044 10.59 4.20596C10.7107 4.46192 10.7733 4.74141 10.7733 5.0244C10.7733 5.30739 10.7107 5.58687 10.59 5.84284C10.5589 5.90837 10.5551 5.98357 10.5795 6.05189C10.6039 6.12021 10.6544 6.17605 10.7199 6.20713C10.7855 6.23821 10.8607 6.24199 10.929 6.21762C10.9973 6.19326 11.0531 6.14275 11.0842 6.07721C11.2396 5.74809 11.3202 5.38866 11.3202 5.02471C11.3202 4.66076 11.2396 4.30133 11.0842 3.97221C11.0689 3.9397 11.0473 3.91054 11.0207 3.88639C10.9941 3.86223 10.963 3.84357 10.9291 3.83146C10.8953 3.81936 10.8594 3.81405 10.8235 3.81584C10.7876 3.81763 10.7525 3.82649 10.72 3.8419ZM11.8294 3.31737C11.7638 3.34843 11.7133 3.40424 11.6889 3.47253C11.6645 3.54083 11.6682 3.61602 11.6992 3.68159C11.8972 4.10153 11.9998 4.56005 11.9998 5.02432C11.9998 5.48859 11.8972 5.94711 11.6992 6.36705C11.6681 6.43259 11.6644 6.50779 11.6887 6.57611C11.7131 6.64443 11.7636 6.70027 11.8291 6.73135C11.8947 6.76243 11.9699 6.7662 12.0382 6.74184C12.1065 6.71747 12.1624 6.66697 12.1934 6.60143C12.4261 6.10833 12.5467 5.56986 12.5467 5.02463C12.5467 4.47941 12.4261 3.94094 12.1934 3.44784C12.1781 3.41536 12.1565 3.38623 12.1299 3.3621C12.1033 3.33796 12.0722 3.31931 12.0384 3.30719C12.0046 3.29508 11.9688 3.28974 11.9329 3.29149C11.897 3.29323 11.8618 3.30203 11.8294 3.31737ZM6.99812 3.8419C6.96567 3.8265 6.93051 3.81764 6.89464 3.81584C6.85876 3.81404 6.82289 3.81932 6.78906 3.8314C6.75524 3.84347 6.72412 3.8621 6.6975 3.8862C6.67087 3.91031 6.64926 3.93943 6.6339 3.9719C6.47864 4.30105 6.39812 4.66047 6.39812 5.0244C6.39812 5.38833 6.47864 5.74775 6.6339 6.0769C6.66498 6.14244 6.72082 6.19294 6.78914 6.21731C6.85746 6.24167 6.93266 6.2379 6.9982 6.20682C7.06374 6.17574 7.11424 6.1199 7.13861 6.05158C7.16297 5.98326 7.1592 5.90806 7.12812 5.84252C7.00753 5.58653 6.94499 5.30706 6.94499 5.02409C6.94499 4.74111 7.00753 4.46164 7.12812 4.20565C7.14347 4.17323 7.15228 4.1381 7.15406 4.10228C7.15583 4.06645 7.15053 4.03063 7.13846 3.99685C7.12639 3.96307 7.10778 3.932 7.0837 3.90541C7.05962 3.87883 7.03054 3.85724 6.99812 3.8419ZM5.88953 3.31752C5.85709 3.30208 5.82192 3.29319 5.78603 3.29137C5.75015 3.28954 5.71426 3.29482 5.68042 3.3069C5.64659 3.31898 5.61547 3.33762 5.58885 3.36175C5.56223 3.38588 5.54064 3.41503 5.52531 3.44752C5.29257 3.9406 5.17188 4.47908 5.17188 5.02432C5.17188 5.56956 5.29257 6.10804 5.52531 6.60112C5.55639 6.66665 5.61223 6.71716 5.68055 6.74153C5.74887 6.76589 5.82407 6.76212 5.8896 6.73104C5.95514 6.69996 6.00565 6.64412 6.03001 6.5758C6.05438 6.50748 6.05061 6.43228 6.01953 6.36674C5.82146 5.94683 5.71875 5.48829 5.71875 5.02401C5.71875 4.55972 5.82146 4.10119 6.01953 3.68127C6.05044 3.61579 6.05412 3.54071 6.02975 3.47252C6.00537 3.40432 5.95495 3.34858 5.88953 3.31752Z" fill="#5477E7"/>
</svg>
