<svg width="20" height="18" viewBox="0 0 20 18" fill="none" xmlns="http://www.w3.org/2000/svg">
<path d="M1.49256 9.28054C1.50179 9.29542 1.51272 9.30917 1.52514 9.32152L9.38433 17.6725C9.41257 17.7024 9.4465 17.7265 9.48414 17.7432C9.52178 17.7599 9.56238 17.7689 9.60355 17.7697H9.60947C9.68966 17.7699 9.76675 17.7387 9.82425 17.6828L18.4063 9.38422C18.426 9.36694 18.4452 9.34916 18.464 9.3309C18.4773 9.31951 18.4887 9.306 18.4976 9.2909C19.4627 8.2967 20.0017 6.96513 20 5.57954C20 2.63 17.6005 0.230473 14.6505 0.230473C12.72 0.230473 10.9485 1.26434 10 2.93611C9.53384 2.11376 8.85765 1.42995 8.04058 0.954574C7.22352 0.479201 6.29487 0.229319 5.34958 0.230473C2.39954 0.230473 1.40511e-05 2.63 1.40511e-05 5.57954C-0.00316225 6.96045 0.532283 8.28817 1.49256 9.28054ZM5.34908 0.848128C6.28281 0.846884 7.19595 1.12255 7.97301 1.64027C8.75007 2.15799 9.35616 2.89451 9.71464 3.75669C9.73793 3.81312 9.77746 3.86135 9.82821 3.89527C9.87896 3.9292 9.93864 3.94728 9.99969 3.94723C10.0607 3.94717 10.1204 3.92899 10.1711 3.89498C10.2218 3.86097 10.2612 3.81266 10.2844 3.7562C10.6431 2.89415 11.2494 2.15779 12.0265 1.64018C12.8036 1.12257 13.7167 0.846941 14.6505 0.848128C17.2598 0.848128 19.3829 2.97117 19.3829 5.58003C19.3844 6.82077 18.8957 8.01187 18.0231 8.89395C18.0152 8.90217 18.0077 8.91091 18.0009 8.92011L9.61935 17.0212L2.01591 8.9448C2.00443 8.92619 1.99085 8.90896 1.97543 8.89345C1.10293 8.01161 0.614507 6.82055 0.616682 5.58003C0.616682 2.97067 2.73972 0.848128 5.34908 0.848128Z" fill="#424242"/>
</svg>
