<svg width="32" height="32" viewBox="0 0 32 32" fill="none" xmlns="http://www.w3.org/2000/svg">
<path d="M30.8279 0.530613L0.827951 11.5306C0.735033 11.5647 0.654309 11.6255 0.596002 11.7055C0.537695 11.7854 0.504427 11.8809 0.500412 11.9798C0.496396 12.0787 0.521814 12.1765 0.573445 12.2609C0.625077 12.3454 0.7006 12.4126 0.790451 12.4541L13.6233 18.3768L19.546 31.2096C19.586 31.2963 19.6501 31.3698 19.7306 31.4213C19.811 31.4727 19.9046 31.5001 20.0001 31.5001C20.0068 31.5001 20.0136 31.5001 20.0204 31.4996C20.1193 31.4956 20.2148 31.4624 20.2947 31.4041C20.3747 31.3458 20.4356 31.2651 20.4696 31.1722L31.4696 1.17218C31.5025 1.08261 31.509 0.985522 31.4885 0.892362C31.468 0.799202 31.4212 0.713862 31.3537 0.646412C31.2863 0.578963 31.2009 0.532221 31.1078 0.511702C31.0146 0.491184 30.9175 0.497746 30.8279 0.530613ZM19.9471 29.6921L14.6001 18.1071L21.8597 10.8476C21.9535 10.7538 22.0062 10.6266 22.0062 10.494C22.0062 10.3614 21.9535 10.2342 21.8598 10.1404C21.766 10.0466 21.6388 9.99396 21.5062 9.99395C21.3736 9.99393 21.2464 10.0466 21.1526 10.1404L13.893 17.4001L2.30801 12.0531L30.1592 1.84093L19.9471 29.6921Z" fill="#8B7AA8"/>
<path d="M11.8536 20.1465C11.8071 20.1 11.752 20.0632 11.6914 20.0381C11.6307 20.0129 11.5657 20 11.5 20C11.4344 20 11.3693 20.0129 11.3087 20.0381C11.248 20.0632 11.1929 20.1 11.1465 20.1465L5.14645 26.1465C5.05268 26.2402 5 26.3674 5 26.5C5 26.6326 5.05268 26.7598 5.14645 26.8536C5.24022 26.9474 5.3674 27 5.50001 27C5.63262 27 5.7598 26.9474 5.85358 26.8536L11.8536 20.8536C11.9 20.8072 11.9368 20.752 11.962 20.6914C11.9871 20.6307 12 20.5657 12 20.5C12 20.4344 11.9871 20.3693 11.962 20.3087C11.9368 20.248 11.9 20.1929 11.8536 20.1465ZM7.85358 18.6465C7.80715 18.6 7.75203 18.5632 7.69136 18.5381C7.6307 18.5129 7.56568 18.5 7.50001 18.5C7.43435 18.5 7.36933 18.5129 7.30867 18.5381C7.248 18.5632 7.19288 18.6 7.14645 18.6465L1.14645 24.6465C1.05268 24.7402 1 24.8674 1 25C1 25.1326 1.05268 25.2598 1.14645 25.3536C1.24022 25.4474 1.3674 25.5 1.50001 25.5C1.63262 25.5 1.7598 25.4474 1.85358 25.3536L7.85358 19.3536C7.90001 19.3072 7.93684 19.252 7.96197 19.1914C7.9871 19.1307 8.00003 19.0657 8.00003 19C8.00003 18.9344 7.9871 18.8693 7.96197 18.8087C7.93684 18.748 7.90001 18.6929 7.85358 18.6465ZM12.6465 24.1465L6.64645 30.1465C6.55268 30.2402 6.5 30.3674 6.5 30.5C6.5 30.6326 6.55268 30.7598 6.64645 30.8536C6.74022 30.9474 6.8674 31 7.00001 31C7.13262 31 7.2598 30.9474 7.35358 30.8536L13.3536 24.8536C13.4 24.8072 13.4368 24.752 13.462 24.6914C13.4871 24.6307 13.5 24.5657 13.5 24.5C13.5 24.4344 13.4871 24.3693 13.462 24.3087C13.4368 24.248 13.4 24.1929 13.3536 24.1465C13.3071 24.1 13.252 24.0632 13.1914 24.0381C13.1307 24.0129 13.0657 24 13 24C12.9344 24 12.8693 24.0129 12.8087 24.0381C12.748 24.0632 12.6929 24.1 12.6465 24.1465Z" fill="#8B7AA8"/>
</svg>
