<svg width="26" height="28" viewBox="0 0 26 28" fill="none" xmlns="http://www.w3.org/2000/svg">
<path d="M5.60078 10.9991C5.60078 10.5991 5.86745 10.3324 6.26745 10.3324H15.5341C15.9341 10.3324 16.2008 10.5991 16.2008 10.9991C16.2008 11.3991 15.9341 11.6658 15.5341 11.6658H6.26745C5.93411 11.6658 5.60078 11.3991 5.60078 10.9991ZM6.26745 15.9991H15.5341C15.9341 15.9991 16.2008 15.7324 16.2008 15.3324C16.2008 14.9324 15.9341 14.6658 15.5341 14.6658H6.26745C5.86745 14.6658 5.60078 14.9324 5.60078 15.3324C5.60078 15.7324 5.93411 15.9991 6.26745 15.9991ZM6.26745 20.2658H11.7341C12.1341 20.2658 12.4008 19.9991 12.4008 19.5991C12.4008 19.1991 12.1341 18.9324 11.7341 18.9324H6.26745C5.86745 18.9324 5.60078 19.1991 5.60078 19.5991C5.60078 19.9991 5.93411 20.2658 6.26745 20.2658ZM23.7341 22.8658L19.4674 27.1324C19.3341 27.2658 19.1341 27.3324 19.0008 27.3324C18.8674 27.3324 18.6674 27.2658 18.5341 27.1324C18.2674 26.8658 18.2674 26.4658 18.5341 26.1991L22.8008 21.9324C24.2674 20.4658 24.2674 19.1991 22.9341 17.8658C21.6674 16.5991 20.2674 16.6658 18.8674 18.0658L17.3341 19.5991L13.8008 23.1324C13.3341 23.5991 13.0008 24.6658 13.8008 25.4658C14.6674 26.3324 15.7341 25.9324 16.1341 25.4658L17.2674 24.3324L20.6008 20.9991C20.8008 20.7991 21.2008 20.3991 21.2008 20.1324C21.2008 20.0658 21.2008 19.9991 21.0008 19.7991C20.8674 19.6658 20.6674 19.5324 20.5341 19.5324C20.2674 19.5324 19.8674 19.8658 19.6674 20.1324L16.6674 23.1324C16.4008 23.3991 16.0008 23.3991 15.7341 23.1324C15.4674 22.8658 15.4674 22.4658 15.7341 22.1991L18.6674 19.1991C19.0008 18.8658 19.6008 18.1991 20.4674 18.1991C20.9341 18.1991 21.4008 18.3991 21.8674 18.8658C22.3341 19.3324 22.4674 19.7991 22.4674 20.1324C22.4674 20.9991 21.8008 21.5991 21.4674 21.9324L19.2674 24.1324L17.0008 26.3991C16.4674 26.9324 15.6674 27.2658 14.8674 27.2658C14.1341 27.2658 13.4008 26.9991 12.8008 26.3991C11.4674 25.0658 11.7341 23.1991 12.8008 22.1324L14.3341 20.5991L17.8674 17.0658C18.4674 16.4658 19.0674 16.0658 19.6674 15.8658V6.39909H15.7341C15.3341 6.39909 15.0674 6.13242 15.0674 5.73242V2.06576H3.13411C2.60078 2.06576 2.13411 2.53242 2.13411 3.06576V23.6658C2.13411 24.1991 2.60078 24.6658 3.13411 24.6658H9.86745C10.2674 24.6658 10.5341 24.9324 10.5341 25.3324C10.5341 25.7324 10.2674 25.9991 9.86745 25.9991H3.13411C1.86745 25.9991 0.800781 24.9324 0.800781 23.6658V3.06576C0.800781 1.79909 1.86745 0.732422 3.13411 0.732422H16.2008C16.2674 0.732422 16.3341 0.799089 16.4008 0.865755L21.0008 5.19909C21.0674 5.26576 21.1341 5.33242 21.1341 5.39909V5.46575C21.1341 5.53242 21.2008 5.59909 21.2008 5.66575V15.5324C22.2008 15.5324 23.1341 15.9991 24.0008 16.8658C25.7341 18.7324 25.6674 20.8658 23.7341 22.8658ZM16.4674 5.06576H18.7341L18.5341 4.86576L16.4674 2.86576V5.06576Z" fill="#8B7AA8"/>
</svg>
