<svg width="16" height="16" viewBox="0 0 16 16" fill="none" xmlns="http://www.w3.org/2000/svg">
<path d="M0.618667 9.66667H2.71467C2.87869 9.66649 3.03595 9.60125 3.15194 9.48527C3.26792 9.36928 3.33316 9.21203 3.33333 9.048V6.952C3.33316 6.78797 3.26792 6.63072 3.15194 6.51473C3.03595 6.39875 2.87869 6.33351 2.71467 6.33333H0.618667C0.45464 6.33351 0.297382 6.39875 0.181398 6.51473C0.0654139 6.63072 0.000176468 6.78797 0 6.952L0 9.048C0.000176468 9.21203 0.0654139 9.36928 0.181398 9.48527C0.297382 9.60125 0.45464 9.66649 0.618667 9.66667ZM0.666667 7H2.66667V9H0.666667V7ZM0.618667 3.33333H2.71467C2.87869 3.33316 3.03595 3.26792 3.15194 3.15194C3.26792 3.03595 3.33316 2.87869 3.33333 2.71467V0.618667C3.33316 0.45464 3.26792 0.297382 3.15194 0.181398C3.03595 0.0654139 2.87869 0.000176468 2.71467 0L0.618667 0C0.45464 0.000176468 0.297382 0.0654139 0.181398 0.181398C0.0654139 0.297382 0.000176468 0.45464 0 0.618667L0 2.71467C0.000176468 2.87869 0.0654139 3.03595 0.181398 3.15194C0.297382 3.26792 0.45464 3.33316 0.618667 3.33333ZM0.666667 0.666667H2.66667V2.66667H0.666667V0.666667ZM0.618667 16H2.71467C2.87869 15.9998 3.03595 15.9346 3.15194 15.8186C3.26792 15.7026 3.33316 15.5454 3.33333 15.3813V13.2853C3.33316 13.1213 3.26792 12.964 3.15194 12.8481C3.03595 12.7321 2.87869 12.6668 2.71467 12.6667H0.618667C0.45464 12.6668 0.297382 12.7321 0.181398 12.8481C0.0654139 12.964 0.000176468 13.1213 0 13.2853L0 15.3813C0.000176468 15.5454 0.0654139 15.7026 0.181398 15.8186C0.297382 15.9346 0.45464 15.9998 0.618667 16ZM0.666667 13.3333H2.66667V15.3333H0.666667V13.3333ZM16 1.66667C16 1.75507 15.9649 1.83986 15.9024 1.90237C15.8399 1.96488 15.7551 2 15.6667 2H5.10867C5.02026 2 4.93548 1.96488 4.87296 1.90237C4.81045 1.83986 4.77533 1.75507 4.77533 1.66667C4.77533 1.57826 4.81045 1.49348 4.87296 1.43096C4.93548 1.36845 5.02026 1.33333 5.10867 1.33333H15.6667C15.7551 1.33333 15.8399 1.36845 15.9024 1.43096C15.9649 1.49348 16 1.57826 16 1.66667ZM16 8C16 8.08841 15.9649 8.17319 15.9024 8.2357C15.8399 8.29821 15.7551 8.33333 15.6667 8.33333H5.10867C5.02026 8.33333 4.93548 8.29821 4.87296 8.2357C4.81045 8.17319 4.77533 8.08841 4.77533 8C4.77533 7.91159 4.81045 7.82681 4.87296 7.7643C4.93548 7.70179 5.02026 7.66667 5.10867 7.66667H15.6667C15.7551 7.66667 15.8399 7.70179 15.9024 7.7643C15.9649 7.82681 16 7.91159 16 8ZM16 14.3333C16 14.4217 15.9649 14.5065 15.9024 14.569C15.8399 14.6315 15.7551 14.6667 15.6667 14.6667H5.10867C5.02026 14.6667 4.93548 14.6315 4.87296 14.569C4.81045 14.5065 4.77533 14.4217 4.77533 14.3333C4.77533 14.2449 4.81045 14.1601 4.87296 14.0976C4.93548 14.0351 5.02026 14 5.10867 14H15.6667C15.7551 14 15.8399 14.0351 15.9024 14.0976C15.9649 14.1601 16 14.2449 16 14.3333Z" fill="#212529"/>
</svg>
