<svg width="20" height="18" viewBox="0 0 20 18" fill="none" xmlns="http://www.w3.org/2000/svg">
<path d="M19.8301 17.1959L14.2137 12.1153C15.6034 10.6912 16.323 8.83677 16.2203 6.94407C16.1177 5.05137 15.2008 3.26875 13.6637 1.97307C12.1265 0.677379 10.0894 -0.0298237 7.98313 0.000964715C5.87683 0.0317532 3.86639 0.79812 2.37682 2.13805C0.887251 3.47798 0.0352993 5.28645 0.00107245 7.18115C-0.0331544 9.07585 0.753027 10.9083 2.19341 12.291C3.6338 13.6738 5.6155 14.4985 7.71957 14.5908C9.82363 14.6832 11.8852 14.0359 13.4683 12.7858L19.1163 17.8569C19.1634 17.9021 19.2203 17.9381 19.2835 17.9627C19.3467 17.9873 19.4148 18 19.4837 18C19.5526 18 19.6207 17.9873 19.6839 17.9627C19.7471 17.9381 19.804 17.9021 19.8511 17.8569C19.9 17.8132 19.9384 17.761 19.964 17.7035C19.9896 17.6459 20.0018 17.5843 19.9998 17.5223C19.9978 17.4604 19.9818 17.3994 19.9526 17.3433C19.9234 17.2871 19.8817 17.237 19.8301 17.1959ZM8.12484 13.6546C6.73371 13.6546 5.37382 13.2835 4.21714 12.5883C3.06045 11.8931 2.15893 10.9049 1.62657 9.74878C1.0942 8.59266 0.954915 7.3205 1.22631 6.09316C1.49771 4.86583 2.1676 3.73845 3.15128 2.85359C4.13495 1.96873 5.38824 1.36614 6.75264 1.122C8.11703 0.877872 9.53127 1.00317 10.8165 1.48205C12.1017 1.96093 13.2003 2.77189 13.9731 3.81237C14.746 4.85286 15.1585 6.07614 15.1585 7.32751C15.1557 9.00479 14.4138 10.6127 13.0953 11.7987C11.7769 12.9847 9.98943 13.6521 8.12484 13.6546Z" fill="white"/>
</svg>
