<svg width="14" height="14" viewBox="0 0 14 14" fill="none" xmlns="http://www.w3.org/2000/svg">
<path d="M6.24456 2.44834C6.44259 2.61919 6.44259 2.89621 6.24456 3.06705C6.04653 3.23789 5.72542 3.23789 5.52739 3.06705L3.70363 1.4937V13.5625C3.70363 13.8041 3.4766 14 3.19651 14C2.91642 14 2.68938 13.8041 2.68938 13.5625V1.49375L0.865664 3.06705C0.818622 3.10773 0.76273 3.13999 0.701196 3.16198C0.639663 3.18398 0.5737 3.19527 0.507094 3.19521C0.440485 3.19529 0.374515 3.18401 0.312978 3.16201C0.251441 3.14002 0.195552 3.10775 0.148524 3.06705C-0.0495082 2.89621 -0.0495082 2.61919 0.148524 2.44834L2.838 0.128153C3.03607 -0.0427176 3.35717 -0.0427176 3.55517 0.128153L6.24456 2.44834ZM13.8515 10.9329C13.6534 10.7621 13.3323 10.7621 13.1343 10.9329L11.3106 12.5062V0.437519C11.3106 0.195883 11.0836 2.0516e-05 10.8035 2.0516e-05C10.5234 2.0516e-05 10.2963 0.195883 10.2963 0.437519V12.5063L8.47262 10.9329C8.27465 10.7621 7.95354 10.7621 7.75544 10.9329C7.55741 11.1038 7.55738 11.3808 7.75544 11.5516L10.4449 13.8718C10.4919 13.9125 10.5478 13.9447 10.6094 13.9667C10.6709 13.9887 10.7368 14 10.8034 14C10.87 14 10.936 13.9887 10.9975 13.9667C11.059 13.9447 11.1149 13.9125 11.162 13.8718L13.8515 11.5516C14.0495 11.3808 14.0495 11.1038 13.8515 10.9329Z" fill="#212529"/>
</svg>
