<svg width="22" height="20" viewBox="0 0 22 20" fill="none" xmlns="http://www.w3.org/2000/svg">
<path d="M18.2586 19.4547H2.64482C1.18647 19.4547 0 18.2682 0 16.8099V5.94598C0 4.48764 1.18647 3.30117 2.64482 3.30117H7.09843L14.5209 0.566965C14.5621 0.551831 14.6059 0.545131 14.6498 0.547261C14.6936 0.549391 14.7366 0.560308 14.7761 0.579365C14.8157 0.598421 14.851 0.625228 14.88 0.658195C14.909 0.691162 14.9311 0.729617 14.9449 0.771277L15.2608 1.72528L17.2079 1.10776C17.2503 1.09438 17.295 1.08975 17.3392 1.09417C17.3835 1.09859 17.4263 1.11195 17.4652 1.13345C17.5041 1.15495 17.5383 1.18413 17.5655 1.21923C17.5928 1.25433 17.6127 1.2946 17.6239 1.33761L18.1332 3.30106H18.2586C19.717 3.30106 20.9035 4.48753 20.9035 5.94587V8.66632C21.5353 8.84324 22 9.4242 22 10.1118V12.6443C22 13.3318 21.5353 13.9128 20.9035 14.0898V16.81C20.9035 18.2682 19.717 19.4547 18.2586 19.4547ZM2.64482 3.95612C1.54751 3.95612 0.654846 4.84879 0.654846 5.94609V16.81C0.654846 17.9073 1.54751 18.8 2.64482 18.8H18.2586C19.3559 18.8 20.2486 17.9073 20.2486 16.81V14.145H14.4045C13.6194 14.145 12.9806 13.5062 12.9806 12.721V10.0352C12.9806 9.25001 13.6194 8.61121 14.4045 8.61121H20.2486V5.94609C20.2486 4.84879 19.3559 3.95612 18.2586 3.95612H17.8869C17.8821 3.95623 17.8773 3.95623 17.8725 3.95612H15.5537C15.5486 3.95623 15.5436 3.95623 15.5385 3.95612H7.16456C7.15947 3.95623 7.15438 3.95623 7.14928 3.95612H2.64482ZM13.6354 12.6442C13.6354 13.1105 14.0149 13.49 14.4813 13.49H20.4994C20.9658 13.49 21.3453 13.1105 21.3453 12.6442V10.1117C21.3453 9.64532 20.9658 9.26583 20.4994 9.26583H14.4813C14.0149 9.26583 13.6354 9.64532 13.6354 10.1117V12.6442ZM15.7826 3.30128H17.4567L17.0766 1.83649L15.4666 2.34706L15.7826 3.30128ZM8.9929 3.30128H15.0928L14.7423 2.24272L14.7395 2.2342L14.7394 2.23366L14.4298 1.29854L8.9929 3.30128ZM15.5461 12.6174C14.8626 12.6174 14.3066 12.0614 14.3066 11.378C14.3066 10.6946 14.8626 10.1386 15.5461 10.1386C16.2295 10.1386 16.7855 10.6946 16.7855 11.378C16.7856 12.0614 16.2295 12.6174 15.5461 12.6174ZM15.5461 10.7934C15.2236 10.7934 14.9615 11.0556 14.9615 11.3779C14.9615 11.7002 15.2238 11.9625 15.5461 11.9625C15.8683 11.9625 16.1306 11.7002 16.1306 11.3779C16.1306 11.0556 15.8685 10.7934 15.5461 10.7934Z" fill="#424242"/>
</svg>
