<svg width="20" height="20" viewBox="0 0 20 20" fill="none" xmlns="http://www.w3.org/2000/svg">
<path d="M19.0462 11.7146H18.7469V9.0187C18.7469 8.5919 18.5345 8.21401 18.21 7.9844V7.61733C18.21 7.08487 17.7769 6.65171 17.2444 6.65171H17.0209L17.876 5.39702C18.1626 4.97647 18.0536 4.40112 17.633 4.11448L11.8311 0.160576C11.6273 0.0217088 11.3818 -0.0295412 11.1395 0.0164354C11.0203 0.0386811 10.9066 0.0843495 10.8052 0.150797C10.7038 0.217245 10.6165 0.303151 10.5485 0.403545L5.54066 7.7521H4.14711L4.48332 4.34858C4.48711 4.31022 4.51203 4.27698 4.5468 4.2639C4.97996 4.10058 5.35535 3.79558 5.60379 3.40511C5.62336 3.37437 5.66027 3.35679 5.69848 3.36065L7.88422 3.57659C7.92146 3.58027 7.95906 3.57658 7.99488 3.56572C8.03069 3.55487 8.06402 3.53707 8.09295 3.51333C8.12189 3.4896 8.14587 3.4604 8.16352 3.4274C8.18117 3.3944 8.19214 3.35825 8.19582 3.32101C8.1995 3.28376 8.19581 3.24616 8.18495 3.21035C8.1741 3.17453 8.1563 3.14121 8.13256 3.11227C8.10883 3.08334 8.07963 3.05936 8.04663 3.04171C8.01363 3.02406 7.97748 3.01308 7.94023 3.0094L5.75449 2.79347C5.50078 2.76862 5.25883 2.88554 5.12289 3.09913C4.94023 3.38624 4.66422 3.61046 4.34574 3.73054C4.10602 3.82093 3.94141 4.03624 3.91609 4.29253L3.57437 7.75206H3.21098L3.7427 2.36909C3.76184 2.17534 3.93477 2.033 4.12875 2.05241L8.5457 2.48874C8.62092 2.49617 8.696 2.47341 8.75444 2.42548C8.81287 2.37755 8.84988 2.30837 8.85731 2.23315C8.86473 2.15794 8.84198 2.08286 8.79405 2.02442C8.74611 1.96598 8.67693 1.92898 8.60172 1.92155L4.18477 1.48522C3.67836 1.43526 3.22551 1.80655 3.17547 2.31304L2.74688 6.65171H2.01699C1.48457 6.65171 1.05137 7.08487 1.05137 7.61733V7.86772C0.615781 8.06827 0.3125 8.50858 0.3125 9.0187V18.7334C0.3125 19.4318 0.880703 20 1.57918 20H17.4802C18.1787 20 18.7469 19.4318 18.7469 18.7334V16.0375H19.0462C19.3995 16.0375 19.6868 15.7501 19.6868 15.3969V12.3553C19.6869 12.002 19.3995 11.7146 19.0462 11.7146ZM17.2444 7.22171C17.4626 7.22167 17.6401 7.39917 17.6401 7.61737V7.76257C17.5871 7.75573 17.5337 7.75225 17.4802 7.75214H16.2711L16.6325 7.22171H17.2444ZM11.0195 0.724482C11.0455 0.686084 11.0789 0.653226 11.1177 0.627808C11.1565 0.602389 11.2 0.584915 11.2455 0.576396C11.2911 0.567639 11.3379 0.568001 11.3833 0.577461C11.4287 0.586922 11.4718 0.605294 11.5101 0.631514L17.3121 4.58542C17.4729 4.69507 17.5146 4.91515 17.405 5.07601L15.5814 7.75202H15.1437L16.0378 6.44003C16.1828 6.22726 16.1948 5.95647 16.0689 5.73331C15.9016 5.43683 15.8338 5.08772 15.878 4.75026C15.9108 4.49921 15.8003 4.25413 15.5897 4.11062L12.582 2.06093C12.3713 1.91737 12.1028 1.90421 11.8811 2.02659C11.5833 2.19104 11.2336 2.25561 10.8964 2.20843C10.6464 2.17335 10.3929 2.28624 10.25 2.49581L6.66805 7.75206H6.23039L11.0195 0.724482ZM11.145 5.56397C9.90395 5.56397 8.88519 6.53167 8.80219 7.75206H7.3577L10.7209 2.81679H10.721C10.7302 2.80313 10.7426 2.79192 10.7571 2.78411C10.7716 2.77631 10.7878 2.77215 10.8043 2.77198C10.8086 2.77198 10.813 2.77229 10.8173 2.77288C11.2758 2.83702 11.7514 2.74929 12.1566 2.52558C12.1884 2.50792 12.2294 2.51046 12.2609 2.53194L15.2687 4.58167C15.3002 4.60315 15.3175 4.64034 15.3128 4.67644C15.2528 5.13538 15.345 5.61015 15.5725 6.01335C15.5907 6.04573 15.5885 6.08722 15.5669 6.11905L14.4541 7.75202H13.4879C13.4048 6.53167 12.3861 5.56397 11.145 5.56397ZM12.9164 7.7521H9.37363C9.45527 6.84628 10.2183 6.13397 11.145 6.13397C12.0717 6.13393 12.8348 6.84628 12.9164 7.7521ZM1.62133 7.61733C1.62133 7.39913 1.79879 7.22163 2.01699 7.22163H2.69059L2.6382 7.75206H1.62133V7.61733ZM0.882461 9.0187C0.882461 8.63456 1.195 8.32202 1.57918 8.32202H17.4802C17.8644 8.32202 18.1769 8.63456 18.1769 9.0187V9.80948H0.882461V9.0187ZM18.1769 18.7334C18.1769 19.1175 17.8644 19.43 17.4802 19.43H1.57918C1.195 19.43 0.882461 19.1175 0.882461 18.7334V17.9426H2.41926C2.45668 17.9426 2.49373 17.9352 2.52831 17.9209C2.56288 17.9066 2.59429 17.8856 2.62076 17.8591C2.64722 17.8326 2.66821 17.8012 2.68253 17.7667C2.69685 17.7321 2.70422 17.695 2.70422 17.6576C2.70422 17.6202 2.69685 17.5831 2.68253 17.5486C2.66821 17.514 2.64722 17.4826 2.62076 17.4561C2.59429 17.4296 2.56288 17.4087 2.52831 17.3943C2.49373 17.38 2.45668 17.3726 2.41926 17.3726H0.882461V10.3794H18.1769V11.7146H15.4673C14.6135 11.7146 13.874 12.2123 13.523 12.9326C13.5218 12.935 13.5205 12.9374 13.5193 12.9398C13.5163 12.9459 13.5138 12.9523 13.5109 12.9585C13.4691 13.0473 13.4327 13.1392 13.4032 13.234L13.4029 13.2348C13.3384 13.4424 13.3056 13.6586 13.3058 13.876C13.3058 15.0679 14.2754 16.0375 15.4672 16.0375H18.1769V17.3726H4.24402C4.2066 17.3726 4.16955 17.38 4.13497 17.3943C4.1004 17.4087 4.06899 17.4296 4.04253 17.4561C4.01606 17.4826 3.99507 17.514 3.98075 17.5486C3.96643 17.5831 3.95906 17.6202 3.95906 17.6576C3.95906 17.695 3.96643 17.7321 3.98075 17.7667C3.99507 17.8012 4.01606 17.8326 4.04253 17.8591C4.06899 17.8856 4.1004 17.9066 4.13497 17.9209C4.16955 17.9352 4.2066 17.9426 4.24402 17.9426H18.1769V18.7334ZM19.1169 15.3968C19.1169 15.4358 19.0852 15.4675 19.0462 15.4675H15.4673C14.864 15.4675 14.338 15.1301 14.0682 14.634C14.0312 14.566 13.9992 14.4954 13.9726 14.4227C13.91 14.2521 13.8759 14.068 13.8759 13.876C13.8757 13.6374 13.9294 13.4017 14.033 13.1867C14.0442 13.1635 14.0559 13.1406 14.0682 13.1181C14.338 12.622 14.864 12.2846 15.4673 12.2846H19.0462C19.0852 12.2846 19.1169 12.3163 19.1169 12.3553V15.3968Z" fill="black"/>
<path d="M15.5352 12.7188C14.8976 12.7188 14.3789 13.2375 14.3789 13.875C14.3789 14.5125 14.8976 15.0312 15.5352 15.0312C16.1727 15.0312 16.6914 14.5125 16.6914 13.875C16.6914 13.2375 16.1727 12.7188 15.5352 12.7188ZM15.5352 14.4612C15.2119 14.4612 14.9489 14.1982 14.9489 13.875C14.9489 13.5518 15.2119 13.2887 15.5352 13.2887C15.8584 13.2887 16.1214 13.5517 16.1214 13.875C16.1214 14.1983 15.8584 14.4612 15.5352 14.4612Z" fill="black"/>
</svg>
