<svg width="12" height="12" viewBox="0 0 12 12" fill="none" xmlns="http://www.w3.org/2000/svg">
<path d="M6.17477 7.51887C6.39712 7.51887 6.5822 7.35888 6.60092 7.15078L6.88999 3.90825C6.89831 3.81527 6.88598 3.72168 6.85379 3.63341C6.82161 3.54514 6.77027 3.4641 6.70302 3.39543C6.56727 3.25676 6.37557 3.17773 6.17477 3.17773C5.97398 3.17773 5.78228 3.25676 5.64652 3.39543C5.57927 3.4641 5.52792 3.54514 5.49574 3.63341C5.46356 3.72168 5.45123 3.81527 5.45955 3.90825L5.74862 7.15078C5.76735 7.35888 5.95243 7.51887 6.17477 7.51887ZM6.17477 7.75752C5.91745 7.75752 5.70892 7.95336 5.70892 8.19505C5.70892 8.43672 5.91745 8.63256 6.17477 8.63256C6.4321 8.63256 6.64063 8.43672 6.64063 8.19505C6.64063 7.95336 6.4321 7.75752 6.17477 7.75752Z" fill="#999999"/>
<rect x="0.205061" y="6" width="8.19528" height="8.19528" rx="0.145" transform="rotate(-45 0.205061 6)" stroke="#999999" stroke-width="0.5"/>
</svg>
