<svg width="30" height="27" viewBox="0 0 30 27" fill="none" xmlns="http://www.w3.org/2000/svg">
<path d="M29.6397 22.8806L17.3063 1.45109C17.073 1.05498 16.7404 0.726632 16.3412 0.498509C15.9421 0.270385 15.4904 0.150391 15.0307 0.150391C14.571 0.150391 14.1192 0.270385 13.7201 0.498509C13.321 0.726632 12.9883 1.05498 12.755 1.45109L0.357601 22.8806C0.13146 23.2812 0.0136049 23.7338 0.0156512 24.1938C0.0176975 24.6538 0.139574 25.1054 0.36927 25.5039C0.598967 25.9025 0.928554 26.2343 1.32555 26.4668C1.72255 26.6992 2.17325 26.8241 2.63324 26.8293H27.364C27.824 26.8241 28.2747 26.6992 28.6717 26.4668C29.0687 26.2343 29.3983 25.9025 29.628 25.5039C29.8577 25.1054 29.9796 24.6538 29.9816 24.1938C29.9837 23.7338 29.8658 23.2812 29.6397 22.8806ZM28.6397 24.9383C28.5108 25.1641 28.3241 25.3514 28.0988 25.481C27.8734 25.6106 27.6176 25.6777 27.3576 25.6754H2.63324C2.37381 25.6751 2.11903 25.6065 1.89442 25.4767C1.66981 25.3469 1.48325 25.1603 1.35342 24.9357C1.22358 24.7111 1.15504 24.4563 1.15465 24.1969C1.15426 23.9375 1.22204 23.6825 1.35119 23.4575L13.7166 2.04724C13.8464 1.82235 14.0334 1.63573 14.2585 1.50628C14.4836 1.37684 14.7389 1.30915 14.9986 1.31006C15.2587 1.30715 15.5148 1.37399 15.7403 1.50364C15.9658 1.63329 16.1524 1.821 16.2807 2.04724L28.6461 23.4575C28.7776 23.6823 28.8464 23.9383 28.8453 24.1988C28.8442 24.4592 28.7732 24.7146 28.6397 24.9383Z" fill="#B73D25"/>
<path d="M15.452 6.22656H14.5417C14.3119 6.22891 14.085 6.2775 13.8744 6.36943C13.6638 6.46136 13.4739 6.59475 13.316 6.76165C13.1581 6.92855 13.0354 7.12554 12.9552 7.34088C12.875 7.55621 12.8391 7.78548 12.8494 8.01502L13.3045 16.5984C13.3045 17.0472 13.4828 17.4776 13.8002 17.795C14.1176 18.1124 14.548 18.2907 14.9968 18.2907C15.4457 18.2907 15.8761 18.1124 16.1935 17.795C16.5108 17.4776 16.6891 17.0472 16.6891 16.5984L17.1443 8.01502C17.1546 7.78548 17.1186 7.55621 17.0384 7.34088C16.9583 7.12554 16.8356 6.92855 16.6777 6.76165C16.5197 6.59475 16.3298 6.46136 16.1192 6.36943C15.9087 6.2775 15.6817 6.22891 15.452 6.22656ZM15.5353 16.5343C15.5353 16.6771 15.4786 16.814 15.3776 16.915C15.2766 17.016 15.1396 17.0727 14.9968 17.0727C14.854 17.0727 14.7171 17.016 14.6161 16.915C14.5151 16.814 14.4584 16.6771 14.4584 16.5343L13.9968 7.95092C13.9943 7.87746 14.0064 7.80423 14.0326 7.73553C14.0587 7.66683 14.0983 7.60406 14.1491 7.5509C14.1999 7.49775 14.2608 7.45528 14.3282 7.426C14.3956 7.39672 14.4682 7.38122 14.5417 7.38041H15.452C15.5254 7.38028 15.5982 7.39519 15.6657 7.42424C15.7332 7.45328 15.7941 7.49583 15.8445 7.54928C15.8949 7.60272 15.9339 7.66593 15.959 7.73501C15.9841 7.80408 15.9948 7.87756 15.9904 7.95092L15.5353 16.5343ZM14.9968 19.5727C14.4443 19.5727 13.9144 19.7922 13.5237 20.1829C13.133 20.5736 12.9135 21.1035 12.9135 21.656C12.9135 22.2086 13.133 22.7385 13.5237 23.1292C13.9144 23.5199 14.4443 23.7394 14.9968 23.7394C15.5494 23.7394 16.0793 23.5199 16.47 23.1292C16.8607 22.7385 17.0802 22.2086 17.0802 21.656C17.0802 21.1035 16.8607 20.5736 16.47 20.1829C16.0793 19.7922 15.5494 19.5727 14.9968 19.5727ZM14.9968 22.5855C14.7628 22.5661 14.5446 22.4594 14.3856 22.2867C14.2266 22.1139 14.1383 21.8877 14.1383 21.6528C14.1383 21.418 14.2266 21.1918 14.3856 21.019C14.5446 20.8462 14.7628 20.7396 14.9968 20.7202C15.2467 20.7202 15.4864 20.8194 15.6631 20.9961C15.8399 21.1729 15.9391 21.4125 15.9391 21.6625C15.9391 21.9124 15.8399 22.1521 15.6631 22.3288C15.4864 22.5055 15.2467 22.6048 14.9968 22.6048V22.5855Z" fill="#B73D25"/>
</svg>
